G04 (created by PCBNEW (2013-mar-13)-testing) date Di 12 Nov 2013 11:00:42 CET*
%MOIN*%
G04 Gerber Fmt 3.4, Leading zero omitted, Abs format*
%FSLAX34Y34*%
G01*
G70*
G90*
G04 APERTURE LIST*
%ADD10C,0.005906*%
%ADD11R,0.059055X0.059055*%
%ADD12R,0.060000X0.060000*%
%ADD13C,0.060000*%
%ADD14R,0.078740X0.059055*%
%ADD15C,0.059055*%
%ADD16C,0.022047*%
%ADD17C,0.006693*%
%ADD18C,0.010000*%
G04 APERTURE END LIST*
G54D10*
X55600Y-54375D02*
X55600Y-62175D01*
X56100Y-54375D02*
X55600Y-54375D01*
X56100Y-60225D02*
X56100Y-54375D01*
X56100Y-52275D02*
X56100Y-44475D01*
X55600Y-52275D02*
X56100Y-52275D01*
X55600Y-46425D02*
X55600Y-52275D01*
X63100Y-44475D02*
X63100Y-60225D01*
X56100Y-44475D02*
X63100Y-44475D01*
X58875Y-60450D02*
G75*
G03X58650Y-60225I-225J0D01*
G74*
G01*
X58650Y-60675D02*
G75*
G03X58875Y-60450I0J225D01*
G74*
G01*
X60325Y-60225D02*
G75*
G03X60125Y-60425I0J-200D01*
G74*
G01*
X60125Y-60425D02*
G75*
G03X60325Y-60625I200J0D01*
G74*
G01*
X60325Y-60225D02*
X63100Y-60225D01*
X58650Y-60225D02*
X56100Y-60225D01*
X60325Y-60625D02*
X62550Y-60625D01*
X58650Y-60675D02*
X56450Y-60675D01*
X56450Y-60675D02*
X56450Y-62175D01*
X56450Y-62175D02*
X62550Y-62175D01*
X62550Y-62175D02*
X62550Y-60625D01*
X49150Y-44475D02*
X49150Y-46025D01*
X55250Y-44475D02*
X49150Y-44475D01*
X55250Y-45975D02*
X55250Y-44475D01*
X53050Y-45975D02*
X55250Y-45975D01*
X51375Y-46025D02*
X49150Y-46025D01*
X53050Y-46425D02*
X55600Y-46425D01*
X51375Y-46425D02*
X48600Y-46425D01*
X51575Y-46225D02*
G75*
G03X51375Y-46025I-200J0D01*
G74*
G01*
X51375Y-46425D02*
G75*
G03X51575Y-46225I0J200D01*
G74*
G01*
X53050Y-45975D02*
G75*
G03X52825Y-46200I0J-225D01*
G74*
G01*
X52825Y-46200D02*
G75*
G03X53050Y-46425I225J0D01*
G74*
G01*
X55600Y-62175D02*
X48600Y-62175D01*
X48600Y-62175D02*
X48600Y-46425D01*
G54D11*
X62600Y-50950D03*
X61600Y-50950D03*
X60600Y-50950D03*
X59600Y-50950D03*
X58600Y-50950D03*
X57600Y-50950D03*
X56600Y-50950D03*
G54D12*
X57500Y-59350D03*
G54D13*
X57500Y-58350D03*
X58500Y-59350D03*
X58500Y-58350D03*
X59500Y-59350D03*
X59500Y-58350D03*
X60500Y-59350D03*
X60500Y-58350D03*
X62100Y-50025D03*
X62100Y-49025D03*
X62100Y-48025D03*
X62100Y-47025D03*
X62100Y-46025D03*
X62100Y-45025D03*
G54D12*
X62100Y-52050D03*
G54D13*
X62100Y-53050D03*
G54D14*
X62651Y-54687D03*
X62651Y-55475D03*
X62651Y-59412D03*
X56548Y-54687D03*
X56548Y-55475D03*
X56548Y-56262D03*
X56548Y-57837D03*
X56548Y-58624D03*
G54D15*
X56450Y-59412D03*
G54D13*
X58100Y-45025D03*
X59100Y-45025D03*
X58100Y-46025D03*
X59100Y-46025D03*
X58100Y-47025D03*
X59100Y-47025D03*
X58100Y-48025D03*
X59100Y-48025D03*
X58100Y-49025D03*
X59100Y-49025D03*
X61100Y-49025D03*
X60100Y-49025D03*
X61100Y-48025D03*
X60100Y-48025D03*
X61100Y-47025D03*
X60100Y-47025D03*
X61100Y-46025D03*
X60100Y-46025D03*
X61100Y-45025D03*
X60100Y-45025D03*
G54D12*
X57000Y-61150D03*
G54D13*
X58000Y-61150D03*
X59000Y-61150D03*
X60000Y-61150D03*
X61000Y-61150D03*
X62000Y-61150D03*
G54D12*
X58100Y-50025D03*
X59100Y-50025D03*
G54D13*
X60100Y-50025D03*
X61100Y-50025D03*
X57100Y-50025D03*
X57100Y-49025D03*
X57100Y-48025D03*
X57100Y-47025D03*
X57100Y-46025D03*
X57100Y-45025D03*
X54600Y-56625D03*
X54600Y-57625D03*
X54600Y-58625D03*
X54600Y-59625D03*
X54600Y-60625D03*
X54600Y-61625D03*
G54D12*
X53600Y-56625D03*
X52600Y-56625D03*
G54D13*
X51600Y-56625D03*
X50600Y-56625D03*
G54D12*
X54700Y-45500D03*
G54D13*
X53700Y-45500D03*
X52700Y-45500D03*
X51700Y-45500D03*
X50700Y-45500D03*
X49700Y-45500D03*
X50600Y-57625D03*
X51600Y-57625D03*
X50600Y-58625D03*
X51600Y-58625D03*
X50600Y-59625D03*
X51600Y-59625D03*
X50600Y-60625D03*
X51600Y-60625D03*
X50600Y-61625D03*
X51600Y-61625D03*
X53600Y-61625D03*
X52600Y-61625D03*
X53600Y-60625D03*
X52600Y-60625D03*
X53600Y-59625D03*
X52600Y-59625D03*
X53600Y-58625D03*
X52600Y-58625D03*
X53600Y-57625D03*
X52600Y-57625D03*
G54D14*
X49048Y-51962D03*
X49048Y-51174D03*
X49048Y-47237D03*
X55151Y-51962D03*
X55151Y-51174D03*
X55151Y-50387D03*
X55151Y-48812D03*
X55151Y-48025D03*
G54D15*
X55249Y-47237D03*
G54D12*
X49600Y-54600D03*
G54D13*
X49600Y-53600D03*
X49600Y-56625D03*
X49600Y-57625D03*
X49600Y-58625D03*
X49600Y-59625D03*
X49600Y-60625D03*
X49600Y-61625D03*
G54D12*
X54200Y-47300D03*
G54D13*
X54200Y-48300D03*
X53200Y-47300D03*
X53200Y-48300D03*
X52200Y-47300D03*
X52200Y-48300D03*
X51200Y-47300D03*
X51200Y-48300D03*
G54D11*
X49100Y-55700D03*
X50100Y-55700D03*
X51100Y-55700D03*
X52100Y-55700D03*
X53100Y-55700D03*
X54100Y-55700D03*
X55100Y-55700D03*
G54D16*
X57100Y-51300D03*
X60125Y-55325D03*
X51575Y-51325D03*
X54600Y-55350D03*
X60750Y-55325D03*
X50950Y-51325D03*
X61150Y-55025D03*
X50550Y-51625D03*
X60900Y-54825D03*
X50800Y-51825D03*
X60300Y-54625D03*
X51400Y-52025D03*
X59850Y-54200D03*
X51850Y-52450D03*
X59725Y-55325D03*
X51975Y-51325D03*
X58325Y-55650D03*
X53375Y-51000D03*
X59275Y-60325D03*
X52425Y-46325D03*
X59725Y-60325D03*
X51975Y-46325D03*
X59650Y-57275D03*
X52050Y-49375D03*
X59575Y-56075D03*
X52125Y-50575D03*
X58375Y-48525D03*
X58875Y-48525D03*
X52825Y-58125D03*
X53325Y-58125D03*
X58150Y-54875D03*
X57550Y-52175D03*
X54150Y-54475D03*
X53550Y-51775D03*
X57175Y-56325D03*
X54525Y-50325D03*
X60925Y-52575D03*
X50775Y-54075D03*
X62250Y-56225D03*
X60025Y-60325D03*
X60925Y-58750D03*
X50775Y-47900D03*
X51675Y-46325D03*
X49450Y-50425D03*
X62650Y-59925D03*
X57450Y-57750D03*
X54250Y-48900D03*
X49050Y-46725D03*
X58975Y-60325D03*
X52725Y-46325D03*
G54D17*
X59625Y-54825D02*
X60125Y-55325D01*
X58250Y-51725D02*
X57525Y-51725D01*
X59625Y-53100D02*
X58250Y-51725D01*
X59625Y-53100D02*
X59625Y-54825D01*
X57525Y-51725D02*
X57100Y-51300D01*
X54175Y-54925D02*
X54600Y-55350D01*
X52075Y-53550D02*
X52075Y-51825D01*
X52075Y-53550D02*
X53450Y-54925D01*
X53450Y-54925D02*
X54175Y-54925D01*
X52075Y-51825D02*
X51575Y-51325D01*
X61600Y-50525D02*
X62100Y-50025D01*
X61600Y-50950D02*
X61600Y-50525D01*
X60750Y-55325D02*
X61225Y-55325D01*
X61475Y-55075D02*
X61225Y-55325D01*
X61600Y-50950D02*
X61600Y-51325D01*
X61475Y-51450D02*
X61600Y-51325D01*
X61475Y-55075D02*
X61475Y-51450D01*
X50225Y-51575D02*
X50225Y-55200D01*
X50225Y-55200D02*
X50100Y-55325D01*
X50100Y-55700D02*
X50100Y-55325D01*
X50225Y-51575D02*
X50475Y-51325D01*
X50950Y-51325D02*
X50475Y-51325D01*
X50100Y-55700D02*
X50100Y-56125D01*
X50100Y-56125D02*
X49600Y-56625D01*
X61150Y-55025D02*
X61150Y-54800D01*
X60600Y-50950D02*
X60600Y-51650D01*
X61325Y-54625D02*
X61325Y-52375D01*
X61325Y-52375D02*
X60600Y-51650D01*
X61150Y-54800D02*
X61325Y-54625D01*
X62125Y-49025D02*
X61700Y-48600D01*
X61700Y-48600D02*
X59908Y-48600D01*
X59908Y-48600D02*
X59675Y-48833D01*
X62100Y-49025D02*
X62125Y-49025D01*
X59675Y-50250D02*
X59900Y-50475D01*
X59900Y-50475D02*
X60125Y-50475D01*
X60125Y-50475D02*
X60600Y-50950D01*
X59675Y-48833D02*
X59675Y-50250D01*
X52025Y-57816D02*
X52025Y-56400D01*
X51575Y-56175D02*
X51100Y-55700D01*
X51800Y-56175D02*
X51575Y-56175D01*
X52025Y-56400D02*
X51800Y-56175D01*
X49600Y-57625D02*
X49575Y-57625D01*
X51791Y-58050D02*
X52025Y-57816D01*
X50000Y-58050D02*
X51791Y-58050D01*
X49575Y-57625D02*
X50000Y-58050D01*
X50550Y-51850D02*
X50375Y-52025D01*
X50375Y-54275D02*
X51100Y-55000D01*
X50375Y-52025D02*
X50375Y-54275D01*
X51100Y-55700D02*
X51100Y-55000D01*
X50550Y-51625D02*
X50550Y-51850D01*
X60900Y-54825D02*
X60900Y-54825D01*
X59525Y-48775D02*
X59850Y-48450D01*
X61675Y-48450D02*
X62100Y-48025D01*
X59850Y-48450D02*
X61675Y-48450D01*
X59525Y-50875D02*
X59525Y-48775D01*
X61175Y-54550D02*
X61175Y-52525D01*
X61175Y-52525D02*
X59525Y-50875D01*
X60900Y-54825D02*
X61175Y-54550D01*
X50800Y-51825D02*
X50525Y-52100D01*
X50525Y-54125D02*
X52175Y-55775D01*
X50525Y-52100D02*
X50525Y-54125D01*
X52175Y-55775D02*
X52175Y-57875D01*
X51850Y-58200D02*
X50025Y-58200D01*
X50025Y-58200D02*
X49600Y-58625D01*
X52175Y-57875D02*
X51850Y-58200D01*
X50800Y-51825D02*
X50800Y-51825D01*
X58600Y-51225D02*
X60300Y-52925D01*
X58600Y-50950D02*
X58600Y-51225D01*
X60300Y-52950D02*
X60300Y-52925D01*
X60300Y-52925D02*
X60300Y-52950D01*
X60300Y-52925D02*
X60300Y-54625D01*
X58600Y-50950D02*
X58600Y-49600D01*
X62100Y-47025D02*
X61600Y-47525D01*
X58475Y-49475D02*
X57900Y-49475D01*
X57900Y-49475D02*
X57675Y-49250D01*
X57675Y-49250D02*
X57675Y-47750D01*
X57675Y-47750D02*
X57900Y-47525D01*
X57900Y-47525D02*
X61600Y-47525D01*
X58600Y-49600D02*
X58475Y-49475D01*
X53100Y-57050D02*
X53225Y-57175D01*
X53800Y-59125D02*
X50100Y-59125D01*
X54025Y-58900D02*
X53800Y-59125D01*
X54025Y-57400D02*
X54025Y-58900D01*
X53800Y-57175D02*
X54025Y-57400D01*
X53225Y-57175D02*
X53800Y-57175D01*
X49600Y-59625D02*
X50100Y-59125D01*
X53100Y-55700D02*
X53100Y-57050D01*
X51400Y-53725D02*
X51400Y-52025D01*
X51400Y-53725D02*
X51400Y-53700D01*
X51400Y-53700D02*
X51400Y-53725D01*
X53100Y-55700D02*
X53100Y-55425D01*
X53100Y-55425D02*
X51400Y-53725D01*
X57900Y-51575D02*
X57600Y-51275D01*
X58325Y-51575D02*
X57900Y-51575D01*
X59850Y-53100D02*
X58325Y-51575D01*
X59850Y-54200D02*
X59850Y-53100D01*
X57600Y-51275D02*
X57600Y-50950D01*
X61600Y-46525D02*
X57850Y-46525D01*
X62100Y-46025D02*
X61600Y-46525D01*
X57525Y-46850D02*
X57525Y-50875D01*
X57525Y-50875D02*
X57600Y-50950D01*
X57850Y-46525D02*
X57525Y-46850D01*
X53850Y-60125D02*
X54175Y-59800D01*
X54175Y-55775D02*
X54100Y-55700D01*
X54175Y-59800D02*
X54175Y-55775D01*
X49600Y-60625D02*
X50100Y-60125D01*
X50100Y-60125D02*
X53850Y-60125D01*
X54100Y-55375D02*
X54100Y-55700D01*
X51850Y-52450D02*
X51850Y-53550D01*
X51850Y-53550D02*
X53375Y-55075D01*
X53375Y-55075D02*
X53800Y-55075D01*
X53800Y-55075D02*
X54100Y-55375D01*
X59450Y-55050D02*
X59725Y-55325D01*
X58175Y-51875D02*
X57200Y-51875D01*
X59450Y-53150D02*
X58175Y-51875D01*
X59450Y-53150D02*
X59450Y-55050D01*
X57200Y-51875D02*
X56600Y-51275D01*
X56600Y-50950D02*
X56600Y-45800D01*
X56600Y-51275D02*
X56600Y-50950D01*
X61600Y-45525D02*
X56875Y-45525D01*
X56875Y-45525D02*
X56600Y-45800D01*
X62100Y-45025D02*
X61600Y-45525D01*
X49600Y-61625D02*
X50100Y-61125D01*
X54825Y-61125D02*
X55100Y-60850D01*
X50100Y-61125D02*
X54825Y-61125D01*
X55100Y-55375D02*
X55100Y-55700D01*
X55100Y-55700D02*
X55100Y-60850D01*
X54500Y-54775D02*
X55100Y-55375D01*
X52250Y-53500D02*
X52250Y-51600D01*
X52250Y-53500D02*
X53525Y-54775D01*
X53525Y-54775D02*
X54500Y-54775D01*
X52250Y-51600D02*
X51975Y-51325D01*
X58325Y-55650D02*
X57875Y-55200D01*
X57875Y-55200D02*
X57200Y-55200D01*
X57200Y-55200D02*
X56687Y-54687D01*
X56687Y-54687D02*
X56548Y-54687D01*
X55012Y-51962D02*
X55151Y-51962D01*
X54500Y-51450D02*
X55012Y-51962D01*
X53825Y-51450D02*
X54500Y-51450D01*
X53375Y-51000D02*
X53825Y-51450D01*
X59775Y-57700D02*
X59775Y-58075D01*
X59775Y-58075D02*
X59500Y-58350D01*
X56450Y-56262D02*
X56737Y-56262D01*
X57000Y-56000D02*
X58075Y-56000D01*
X56737Y-56262D02*
X57000Y-56000D01*
X58075Y-56000D02*
X59775Y-57700D01*
X59500Y-58350D02*
X59500Y-58675D01*
X59275Y-59850D02*
X59275Y-60325D01*
X59025Y-59600D02*
X59275Y-59850D01*
X59025Y-59150D02*
X59025Y-59600D01*
X59500Y-58675D02*
X59025Y-59150D01*
X52200Y-47975D02*
X52675Y-47500D01*
X52675Y-47500D02*
X52675Y-47050D01*
X52675Y-47050D02*
X52425Y-46800D01*
X52425Y-46800D02*
X52425Y-46325D01*
X52200Y-48300D02*
X52200Y-47975D01*
X53625Y-50650D02*
X51925Y-48950D01*
X54962Y-50387D02*
X54700Y-50650D01*
X54700Y-50650D02*
X53625Y-50650D01*
X55249Y-50387D02*
X54962Y-50387D01*
X51925Y-48575D02*
X52200Y-48300D01*
X51925Y-48950D02*
X51925Y-48575D01*
X62075Y-54825D02*
X62212Y-54687D01*
X62075Y-55175D02*
X62075Y-54825D01*
X61450Y-55800D02*
X62075Y-55175D01*
X59525Y-55800D02*
X59325Y-56000D01*
X59325Y-56000D02*
X59325Y-56650D01*
X59525Y-55800D02*
X61450Y-55800D01*
X62212Y-54687D02*
X62651Y-54687D01*
X60500Y-59154D02*
X60075Y-58729D01*
X60500Y-59350D02*
X60500Y-59154D01*
X60075Y-57400D02*
X59325Y-56650D01*
X60075Y-58729D02*
X60075Y-57400D01*
X60275Y-59350D02*
X60500Y-59350D01*
X57000Y-61150D02*
X57450Y-61600D01*
X59275Y-61600D02*
X57450Y-61600D01*
X59525Y-61350D02*
X59275Y-61600D01*
X59525Y-60950D02*
X59525Y-61350D01*
X59725Y-60750D02*
X59525Y-60950D01*
X59725Y-59900D02*
X59725Y-60325D01*
X60275Y-59350D02*
X59725Y-59900D01*
X59725Y-60325D02*
X59725Y-60750D01*
X51975Y-46325D02*
X51975Y-45900D01*
X51425Y-47300D02*
X51975Y-46750D01*
X51975Y-46750D02*
X51975Y-46325D01*
X51975Y-45900D02*
X52175Y-45700D01*
X52175Y-45700D02*
X52175Y-45300D01*
X52175Y-45300D02*
X52425Y-45050D01*
X52425Y-45050D02*
X54250Y-45050D01*
X54700Y-45500D02*
X54250Y-45050D01*
X51425Y-47300D02*
X51200Y-47300D01*
X51625Y-47920D02*
X51625Y-49250D01*
X51625Y-49250D02*
X52375Y-50000D01*
X51200Y-47300D02*
X51200Y-47495D01*
X51200Y-47495D02*
X51625Y-47920D01*
X49487Y-51962D02*
X49048Y-51962D01*
X52175Y-50850D02*
X50250Y-50850D01*
X52375Y-50650D02*
X52375Y-50000D01*
X52175Y-50850D02*
X52375Y-50650D01*
X50250Y-50850D02*
X49625Y-51475D01*
X49625Y-51475D02*
X49625Y-51825D01*
X49625Y-51825D02*
X49487Y-51962D01*
X57725Y-55350D02*
X56550Y-55350D01*
X59650Y-57275D02*
X57725Y-55350D01*
X59500Y-59150D02*
X59925Y-58725D01*
X59925Y-58725D02*
X59925Y-57550D01*
X59925Y-57550D02*
X59650Y-57275D01*
X59500Y-59350D02*
X59500Y-59150D01*
X56675Y-55475D02*
X56550Y-55350D01*
X56548Y-55475D02*
X56675Y-55475D01*
X59500Y-59350D02*
X59500Y-60775D01*
X59125Y-61150D02*
X59500Y-60775D01*
X59000Y-61150D02*
X59125Y-61150D01*
X52700Y-45500D02*
X52575Y-45500D01*
X52575Y-45500D02*
X52200Y-45875D01*
X52200Y-47300D02*
X52200Y-45875D01*
X55151Y-51174D02*
X55024Y-51174D01*
X55024Y-51174D02*
X55150Y-51300D01*
X52200Y-47300D02*
X52200Y-47500D01*
X51775Y-49100D02*
X52050Y-49375D01*
X51775Y-47925D02*
X51775Y-49100D01*
X52200Y-47500D02*
X51775Y-47925D01*
X52050Y-49375D02*
X53975Y-51300D01*
X53975Y-51300D02*
X55150Y-51300D01*
X62651Y-55475D02*
X62099Y-55475D01*
X61500Y-56075D02*
X62099Y-55475D01*
X59575Y-56075D02*
X61500Y-56075D01*
X59575Y-56600D02*
X59575Y-56075D01*
X60229Y-57254D02*
X59575Y-56600D01*
X60229Y-58079D02*
X60500Y-58350D01*
X60229Y-57254D02*
X60229Y-58079D01*
X51470Y-49395D02*
X51470Y-48570D01*
X51470Y-48570D02*
X51200Y-48300D01*
X51470Y-49395D02*
X52125Y-50050D01*
X52125Y-50050D02*
X52125Y-50575D01*
X52125Y-50575D02*
X50200Y-50575D01*
X50200Y-50575D02*
X49600Y-51174D01*
X49048Y-51174D02*
X49600Y-51174D01*
X58875Y-48525D02*
X58375Y-48525D01*
X52825Y-58125D02*
X53325Y-58125D01*
X58150Y-54875D02*
X57550Y-54275D01*
X57550Y-54275D02*
X57550Y-52175D01*
X54150Y-52375D02*
X54150Y-54475D01*
X53550Y-51775D02*
X54150Y-52375D01*
X57175Y-56325D02*
X58500Y-57650D01*
X58500Y-57650D02*
X58500Y-58350D01*
X53200Y-49000D02*
X53200Y-48300D01*
X54525Y-50325D02*
X53200Y-49000D01*
X60925Y-52575D02*
X59900Y-51550D01*
X59900Y-51550D02*
X59275Y-51550D01*
X59275Y-51550D02*
X59075Y-51350D01*
X59075Y-51350D02*
X59075Y-50050D01*
X59075Y-50050D02*
X59100Y-50025D01*
X52625Y-56600D02*
X52600Y-56625D01*
X52625Y-55300D02*
X52625Y-56600D01*
X52425Y-55100D02*
X52625Y-55300D01*
X51800Y-55100D02*
X52425Y-55100D01*
X50775Y-54075D02*
X51800Y-55100D01*
X60925Y-57550D02*
X62250Y-56225D01*
X60925Y-59600D02*
X60693Y-59831D01*
X60925Y-58750D02*
X60925Y-59600D01*
X60925Y-57550D02*
X60925Y-58750D01*
X60025Y-60575D02*
X60600Y-61150D01*
X60025Y-60325D02*
X60025Y-60575D01*
X60025Y-59950D02*
X60025Y-60325D01*
X60693Y-59831D02*
X60143Y-59831D01*
X60143Y-59831D02*
X60025Y-59950D01*
X60600Y-61150D02*
X61000Y-61150D01*
X51100Y-45500D02*
X50700Y-45500D01*
X51556Y-46818D02*
X51675Y-46700D01*
X51006Y-46818D02*
X51556Y-46818D01*
X51675Y-46700D02*
X51675Y-46325D01*
X51675Y-46325D02*
X51675Y-46075D01*
X51675Y-46075D02*
X51100Y-45500D01*
X50775Y-49100D02*
X50775Y-47900D01*
X50775Y-47900D02*
X50775Y-47050D01*
X50775Y-47050D02*
X51006Y-46818D01*
X50775Y-49100D02*
X49450Y-50425D01*
X62651Y-59923D02*
X62650Y-59925D01*
X62651Y-59412D02*
X62651Y-59923D01*
X57362Y-57837D02*
X57450Y-57750D01*
X56548Y-57837D02*
X57362Y-57837D01*
X55151Y-48812D02*
X54337Y-48812D01*
X54337Y-48812D02*
X54250Y-48900D01*
X49048Y-47237D02*
X49048Y-46726D01*
X49048Y-46726D02*
X49050Y-46725D01*
G54D18*
X62600Y-50950D02*
X62600Y-49775D01*
X62600Y-49775D02*
X62350Y-49525D01*
X57225Y-58624D02*
X57500Y-58350D01*
X56548Y-58624D02*
X57225Y-58624D01*
X62050Y-51500D02*
X62600Y-50950D01*
X61800Y-51500D02*
X62050Y-51500D01*
X61650Y-51650D02*
X61800Y-51500D01*
X61650Y-52600D02*
X61650Y-51650D01*
X62100Y-53050D02*
X61650Y-52600D01*
X56975Y-59725D02*
X57125Y-59875D01*
X56975Y-58950D02*
X56975Y-59725D01*
X56649Y-58624D02*
X56975Y-58950D01*
X56548Y-58624D02*
X56649Y-58624D01*
X58825Y-59875D02*
X58975Y-60025D01*
X58975Y-60025D02*
X58975Y-60325D01*
X57125Y-59875D02*
X58825Y-59875D01*
X61100Y-50025D02*
X61100Y-49025D01*
X61600Y-49525D02*
X62350Y-49525D01*
X61100Y-50025D02*
X61600Y-49525D01*
X50600Y-56625D02*
X50100Y-57125D01*
X50100Y-57125D02*
X49350Y-57125D01*
X50600Y-56625D02*
X50600Y-57625D01*
X54575Y-46775D02*
X52875Y-46775D01*
X52725Y-46625D02*
X52725Y-46325D01*
X52875Y-46775D02*
X52725Y-46625D01*
X55151Y-48025D02*
X55050Y-48025D01*
X55050Y-48025D02*
X54725Y-47700D01*
X54725Y-47700D02*
X54725Y-46925D01*
X54725Y-46925D02*
X54575Y-46775D01*
X49600Y-53600D02*
X50050Y-54050D01*
X50050Y-54050D02*
X50050Y-55000D01*
X50050Y-55000D02*
X49900Y-55150D01*
X49900Y-55150D02*
X49650Y-55150D01*
X49650Y-55150D02*
X49100Y-55700D01*
X55151Y-48025D02*
X54474Y-48025D01*
X54474Y-48025D02*
X54200Y-48300D01*
X49100Y-56875D02*
X49350Y-57125D01*
X49100Y-55700D02*
X49100Y-56875D01*
G54D10*
G36*
X51883Y-57258D02*
X51809Y-57184D01*
X51773Y-57220D01*
X51765Y-57228D01*
X51734Y-57184D01*
X51555Y-57166D01*
X51465Y-57184D01*
X51426Y-57239D01*
X51600Y-57412D01*
X51615Y-57397D01*
X51773Y-57555D01*
X51827Y-57609D01*
X51812Y-57625D01*
X51827Y-57640D01*
X51773Y-57694D01*
X51615Y-57852D01*
X51600Y-57837D01*
X51584Y-57852D01*
X51387Y-57655D01*
X51372Y-57640D01*
X51387Y-57625D01*
X51387Y-56625D01*
X51214Y-56451D01*
X51159Y-56490D01*
X51141Y-56669D01*
X51159Y-56759D01*
X51214Y-56798D01*
X51387Y-56625D01*
X51387Y-57625D01*
X51214Y-57451D01*
X51159Y-57490D01*
X51141Y-57669D01*
X51159Y-57759D01*
X51203Y-57790D01*
X51159Y-57834D01*
X51233Y-57908D01*
X50894Y-57908D01*
X50945Y-57856D01*
X51008Y-57706D01*
X51008Y-57544D01*
X50946Y-57394D01*
X50831Y-57279D01*
X50758Y-57248D01*
X50758Y-57001D01*
X50830Y-56971D01*
X50945Y-56856D01*
X51008Y-56706D01*
X51008Y-56544D01*
X50946Y-56394D01*
X50831Y-56279D01*
X50681Y-56216D01*
X50519Y-56216D01*
X50369Y-56278D01*
X50254Y-56393D01*
X50191Y-56543D01*
X50191Y-56705D01*
X50221Y-56779D01*
X50034Y-56966D01*
X49835Y-56966D01*
X49945Y-56856D01*
X50008Y-56706D01*
X50008Y-56544D01*
X49971Y-56454D01*
X50200Y-56225D01*
X50200Y-56225D01*
X50230Y-56179D01*
X50241Y-56125D01*
X50241Y-56125D01*
X50241Y-56103D01*
X50416Y-56103D01*
X50456Y-56087D01*
X50487Y-56056D01*
X50503Y-56016D01*
X50503Y-55973D01*
X50503Y-55383D01*
X50487Y-55343D01*
X50456Y-55312D01*
X50416Y-55296D01*
X50373Y-55296D01*
X50327Y-55296D01*
X50355Y-55254D01*
X50366Y-55200D01*
X50366Y-54467D01*
X50958Y-55058D01*
X50958Y-55296D01*
X50783Y-55296D01*
X50743Y-55312D01*
X50712Y-55343D01*
X50696Y-55383D01*
X50696Y-55426D01*
X50696Y-56016D01*
X50712Y-56056D01*
X50743Y-56087D01*
X50783Y-56103D01*
X50826Y-56103D01*
X51303Y-56103D01*
X51431Y-56232D01*
X51426Y-56239D01*
X51600Y-56412D01*
X51615Y-56397D01*
X51827Y-56609D01*
X51812Y-56625D01*
X51827Y-56640D01*
X51615Y-56852D01*
X51600Y-56837D01*
X51426Y-57010D01*
X51465Y-57065D01*
X51644Y-57083D01*
X51734Y-57065D01*
X51765Y-57021D01*
X51773Y-57029D01*
X51809Y-57065D01*
X51883Y-56991D01*
X51883Y-57258D01*
X51883Y-57258D01*
G37*
G54D17*
X51883Y-57258D02*
X51809Y-57184D01*
X51773Y-57220D01*
X51765Y-57228D01*
X51734Y-57184D01*
X51555Y-57166D01*
X51465Y-57184D01*
X51426Y-57239D01*
X51600Y-57412D01*
X51615Y-57397D01*
X51773Y-57555D01*
X51827Y-57609D01*
X51812Y-57625D01*
X51827Y-57640D01*
X51773Y-57694D01*
X51615Y-57852D01*
X51600Y-57837D01*
X51584Y-57852D01*
X51387Y-57655D01*
X51372Y-57640D01*
X51387Y-57625D01*
X51387Y-56625D01*
X51214Y-56451D01*
X51159Y-56490D01*
X51141Y-56669D01*
X51159Y-56759D01*
X51214Y-56798D01*
X51387Y-56625D01*
X51387Y-57625D01*
X51214Y-57451D01*
X51159Y-57490D01*
X51141Y-57669D01*
X51159Y-57759D01*
X51203Y-57790D01*
X51159Y-57834D01*
X51233Y-57908D01*
X50894Y-57908D01*
X50945Y-57856D01*
X51008Y-57706D01*
X51008Y-57544D01*
X50946Y-57394D01*
X50831Y-57279D01*
X50758Y-57248D01*
X50758Y-57001D01*
X50830Y-56971D01*
X50945Y-56856D01*
X51008Y-56706D01*
X51008Y-56544D01*
X50946Y-56394D01*
X50831Y-56279D01*
X50681Y-56216D01*
X50519Y-56216D01*
X50369Y-56278D01*
X50254Y-56393D01*
X50191Y-56543D01*
X50191Y-56705D01*
X50221Y-56779D01*
X50034Y-56966D01*
X49835Y-56966D01*
X49945Y-56856D01*
X50008Y-56706D01*
X50008Y-56544D01*
X49971Y-56454D01*
X50200Y-56225D01*
X50200Y-56225D01*
X50230Y-56179D01*
X50241Y-56125D01*
X50241Y-56125D01*
X50241Y-56103D01*
X50416Y-56103D01*
X50456Y-56087D01*
X50487Y-56056D01*
X50503Y-56016D01*
X50503Y-55973D01*
X50503Y-55383D01*
X50487Y-55343D01*
X50456Y-55312D01*
X50416Y-55296D01*
X50373Y-55296D01*
X50327Y-55296D01*
X50355Y-55254D01*
X50366Y-55200D01*
X50366Y-54467D01*
X50958Y-55058D01*
X50958Y-55296D01*
X50783Y-55296D01*
X50743Y-55312D01*
X50712Y-55343D01*
X50696Y-55383D01*
X50696Y-55426D01*
X50696Y-56016D01*
X50712Y-56056D01*
X50743Y-56087D01*
X50783Y-56103D01*
X50826Y-56103D01*
X51303Y-56103D01*
X51431Y-56232D01*
X51426Y-56239D01*
X51600Y-56412D01*
X51615Y-56397D01*
X51827Y-56609D01*
X51812Y-56625D01*
X51827Y-56640D01*
X51615Y-56852D01*
X51600Y-56837D01*
X51426Y-57010D01*
X51465Y-57065D01*
X51644Y-57083D01*
X51734Y-57065D01*
X51765Y-57021D01*
X51773Y-57029D01*
X51809Y-57065D01*
X51883Y-56991D01*
X51883Y-57258D01*
G54D10*
G36*
X51983Y-50407D02*
X51957Y-50433D01*
X50200Y-50433D01*
X50154Y-50442D01*
X50145Y-50444D01*
X50099Y-50474D01*
X49550Y-51023D01*
X49550Y-50857D01*
X49534Y-50818D01*
X49503Y-50787D01*
X49464Y-50771D01*
X49420Y-50771D01*
X48737Y-50771D01*
X48737Y-47684D01*
X48847Y-47684D01*
X48885Y-47646D01*
X48885Y-47385D01*
X48877Y-47385D01*
X48877Y-47090D01*
X48885Y-47090D01*
X48885Y-46828D01*
X48847Y-46791D01*
X48737Y-46791D01*
X48737Y-46562D01*
X51375Y-46562D01*
X51388Y-46560D01*
X51401Y-46560D01*
X51478Y-46544D01*
X51478Y-46544D01*
X51478Y-46544D01*
X51492Y-46538D01*
X51528Y-46524D01*
X51528Y-46524D01*
X51528Y-46524D01*
X51533Y-46520D01*
X51533Y-46641D01*
X51498Y-46676D01*
X51006Y-46676D01*
X50952Y-46687D01*
X50906Y-46717D01*
X50674Y-46949D01*
X50644Y-46995D01*
X50633Y-47050D01*
X50633Y-47732D01*
X50589Y-47776D01*
X50556Y-47856D01*
X50556Y-47943D01*
X50589Y-48023D01*
X50633Y-48067D01*
X50633Y-49041D01*
X49593Y-50080D01*
X49593Y-47563D01*
X49593Y-47502D01*
X49593Y-47423D01*
X49593Y-47052D01*
X49593Y-46972D01*
X49593Y-46912D01*
X49570Y-46856D01*
X49528Y-46814D01*
X49472Y-46791D01*
X49250Y-46791D01*
X49212Y-46828D01*
X49212Y-47090D01*
X49556Y-47090D01*
X49593Y-47052D01*
X49593Y-47423D01*
X49556Y-47385D01*
X49212Y-47385D01*
X49212Y-47646D01*
X49250Y-47684D01*
X49472Y-47684D01*
X49528Y-47661D01*
X49570Y-47618D01*
X49593Y-47563D01*
X49593Y-50080D01*
X49468Y-50206D01*
X49406Y-50206D01*
X49326Y-50239D01*
X49264Y-50301D01*
X49231Y-50381D01*
X49231Y-50468D01*
X49264Y-50548D01*
X49326Y-50610D01*
X49406Y-50643D01*
X49493Y-50643D01*
X49573Y-50610D01*
X49635Y-50548D01*
X49668Y-50468D01*
X49668Y-50406D01*
X50875Y-49200D01*
X50875Y-49200D01*
X50905Y-49154D01*
X50916Y-49100D01*
X50916Y-48594D01*
X50968Y-48645D01*
X51118Y-48708D01*
X51280Y-48708D01*
X51328Y-48688D01*
X51328Y-49395D01*
X51339Y-49449D01*
X51370Y-49495D01*
X51983Y-50108D01*
X51983Y-50407D01*
X51983Y-50407D01*
G37*
G54D17*
X51983Y-50407D02*
X51957Y-50433D01*
X50200Y-50433D01*
X50154Y-50442D01*
X50145Y-50444D01*
X50099Y-50474D01*
X49550Y-51023D01*
X49550Y-50857D01*
X49534Y-50818D01*
X49503Y-50787D01*
X49464Y-50771D01*
X49420Y-50771D01*
X48737Y-50771D01*
X48737Y-47684D01*
X48847Y-47684D01*
X48885Y-47646D01*
X48885Y-47385D01*
X48877Y-47385D01*
X48877Y-47090D01*
X48885Y-47090D01*
X48885Y-46828D01*
X48847Y-46791D01*
X48737Y-46791D01*
X48737Y-46562D01*
X51375Y-46562D01*
X51388Y-46560D01*
X51401Y-46560D01*
X51478Y-46544D01*
X51478Y-46544D01*
X51478Y-46544D01*
X51492Y-46538D01*
X51528Y-46524D01*
X51528Y-46524D01*
X51528Y-46524D01*
X51533Y-46520D01*
X51533Y-46641D01*
X51498Y-46676D01*
X51006Y-46676D01*
X50952Y-46687D01*
X50906Y-46717D01*
X50674Y-46949D01*
X50644Y-46995D01*
X50633Y-47050D01*
X50633Y-47732D01*
X50589Y-47776D01*
X50556Y-47856D01*
X50556Y-47943D01*
X50589Y-48023D01*
X50633Y-48067D01*
X50633Y-49041D01*
X49593Y-50080D01*
X49593Y-47563D01*
X49593Y-47502D01*
X49593Y-47423D01*
X49593Y-47052D01*
X49593Y-46972D01*
X49593Y-46912D01*
X49570Y-46856D01*
X49528Y-46814D01*
X49472Y-46791D01*
X49250Y-46791D01*
X49212Y-46828D01*
X49212Y-47090D01*
X49556Y-47090D01*
X49593Y-47052D01*
X49593Y-47423D01*
X49556Y-47385D01*
X49212Y-47385D01*
X49212Y-47646D01*
X49250Y-47684D01*
X49472Y-47684D01*
X49528Y-47661D01*
X49570Y-47618D01*
X49593Y-47563D01*
X49593Y-50080D01*
X49468Y-50206D01*
X49406Y-50206D01*
X49326Y-50239D01*
X49264Y-50301D01*
X49231Y-50381D01*
X49231Y-50468D01*
X49264Y-50548D01*
X49326Y-50610D01*
X49406Y-50643D01*
X49493Y-50643D01*
X49573Y-50610D01*
X49635Y-50548D01*
X49668Y-50468D01*
X49668Y-50406D01*
X50875Y-49200D01*
X50875Y-49200D01*
X50905Y-49154D01*
X50916Y-49100D01*
X50916Y-48594D01*
X50968Y-48645D01*
X51118Y-48708D01*
X51280Y-48708D01*
X51328Y-48688D01*
X51328Y-49395D01*
X51339Y-49449D01*
X51370Y-49495D01*
X51983Y-50108D01*
X51983Y-50407D01*
G54D10*
G36*
X55112Y-45837D02*
X55101Y-45837D01*
X55108Y-45821D01*
X55108Y-45778D01*
X55108Y-45178D01*
X55091Y-45138D01*
X55061Y-45108D01*
X55021Y-45091D01*
X54978Y-45091D01*
X54492Y-45091D01*
X54350Y-44949D01*
X54304Y-44919D01*
X54250Y-44908D01*
X52425Y-44908D01*
X52370Y-44919D01*
X52324Y-44949D01*
X52074Y-45199D01*
X52044Y-45245D01*
X52040Y-45263D01*
X51931Y-45154D01*
X51781Y-45091D01*
X51619Y-45091D01*
X51469Y-45153D01*
X51354Y-45268D01*
X51291Y-45418D01*
X51291Y-45491D01*
X51200Y-45399D01*
X51154Y-45369D01*
X51100Y-45358D01*
X51083Y-45358D01*
X51046Y-45269D01*
X50931Y-45154D01*
X50781Y-45091D01*
X50619Y-45091D01*
X50469Y-45153D01*
X50354Y-45268D01*
X50291Y-45418D01*
X50291Y-45580D01*
X50353Y-45730D01*
X50468Y-45845D01*
X50567Y-45887D01*
X50158Y-45887D01*
X50158Y-45455D01*
X50140Y-45365D01*
X50085Y-45326D01*
X49912Y-45500D01*
X50085Y-45673D01*
X50140Y-45634D01*
X50158Y-45455D01*
X50158Y-45887D01*
X49871Y-45887D01*
X49873Y-45885D01*
X49873Y-45114D01*
X49834Y-45059D01*
X49655Y-45041D01*
X49565Y-45059D01*
X49526Y-45114D01*
X49700Y-45287D01*
X49873Y-45114D01*
X49873Y-45885D01*
X49700Y-45712D01*
X49526Y-45885D01*
X49528Y-45887D01*
X49287Y-45887D01*
X49287Y-45654D01*
X49314Y-45673D01*
X49487Y-45500D01*
X49314Y-45326D01*
X49287Y-45345D01*
X49287Y-44612D01*
X55112Y-44612D01*
X55112Y-45837D01*
X55112Y-45837D01*
G37*
G54D17*
X55112Y-45837D02*
X55101Y-45837D01*
X55108Y-45821D01*
X55108Y-45778D01*
X55108Y-45178D01*
X55091Y-45138D01*
X55061Y-45108D01*
X55021Y-45091D01*
X54978Y-45091D01*
X54492Y-45091D01*
X54350Y-44949D01*
X54304Y-44919D01*
X54250Y-44908D01*
X52425Y-44908D01*
X52370Y-44919D01*
X52324Y-44949D01*
X52074Y-45199D01*
X52044Y-45245D01*
X52040Y-45263D01*
X51931Y-45154D01*
X51781Y-45091D01*
X51619Y-45091D01*
X51469Y-45153D01*
X51354Y-45268D01*
X51291Y-45418D01*
X51291Y-45491D01*
X51200Y-45399D01*
X51154Y-45369D01*
X51100Y-45358D01*
X51083Y-45358D01*
X51046Y-45269D01*
X50931Y-45154D01*
X50781Y-45091D01*
X50619Y-45091D01*
X50469Y-45153D01*
X50354Y-45268D01*
X50291Y-45418D01*
X50291Y-45580D01*
X50353Y-45730D01*
X50468Y-45845D01*
X50567Y-45887D01*
X50158Y-45887D01*
X50158Y-45455D01*
X50140Y-45365D01*
X50085Y-45326D01*
X49912Y-45500D01*
X50085Y-45673D01*
X50140Y-45634D01*
X50158Y-45455D01*
X50158Y-45887D01*
X49871Y-45887D01*
X49873Y-45885D01*
X49873Y-45114D01*
X49834Y-45059D01*
X49655Y-45041D01*
X49565Y-45059D01*
X49526Y-45114D01*
X49700Y-45287D01*
X49873Y-45114D01*
X49873Y-45885D01*
X49700Y-45712D01*
X49526Y-45885D01*
X49528Y-45887D01*
X49287Y-45887D01*
X49287Y-45654D01*
X49314Y-45673D01*
X49487Y-45500D01*
X49314Y-45326D01*
X49287Y-45345D01*
X49287Y-44612D01*
X55112Y-44612D01*
X55112Y-45837D01*
G54D10*
G36*
X55462Y-49983D02*
X54987Y-49983D01*
X54987Y-49221D01*
X54987Y-48960D01*
X54643Y-48960D01*
X54606Y-48998D01*
X54606Y-49077D01*
X54606Y-49138D01*
X54629Y-49193D01*
X54671Y-49236D01*
X54727Y-49259D01*
X54949Y-49259D01*
X54987Y-49221D01*
X54987Y-49983D01*
X54735Y-49983D01*
X54696Y-50000D01*
X54665Y-50030D01*
X54649Y-50070D01*
X54649Y-50113D01*
X54649Y-50140D01*
X54648Y-50139D01*
X54568Y-50106D01*
X54506Y-50106D01*
X53341Y-48941D01*
X53341Y-48683D01*
X53430Y-48646D01*
X53545Y-48531D01*
X53608Y-48381D01*
X53608Y-48219D01*
X53546Y-48069D01*
X53431Y-47954D01*
X53281Y-47891D01*
X53119Y-47891D01*
X52969Y-47953D01*
X52854Y-48068D01*
X52791Y-48218D01*
X52791Y-48380D01*
X52853Y-48530D01*
X52968Y-48645D01*
X53058Y-48683D01*
X53058Y-49000D01*
X53069Y-49054D01*
X53099Y-49100D01*
X54306Y-50306D01*
X54306Y-50368D01*
X54339Y-50448D01*
X54399Y-50508D01*
X53683Y-50508D01*
X52066Y-48891D01*
X52066Y-48686D01*
X52118Y-48708D01*
X52280Y-48708D01*
X52430Y-48646D01*
X52545Y-48531D01*
X52608Y-48381D01*
X52608Y-48219D01*
X52546Y-48069D01*
X52431Y-47954D01*
X52424Y-47951D01*
X52775Y-47600D01*
X52775Y-47600D01*
X52805Y-47554D01*
X52816Y-47500D01*
X52816Y-47441D01*
X52853Y-47530D01*
X52968Y-47645D01*
X53118Y-47708D01*
X53280Y-47708D01*
X53430Y-47646D01*
X53545Y-47531D01*
X53608Y-47381D01*
X53608Y-47219D01*
X53546Y-47069D01*
X53431Y-46954D01*
X53381Y-46933D01*
X53763Y-46933D01*
X53748Y-46969D01*
X53748Y-47030D01*
X53748Y-47112D01*
X53786Y-47150D01*
X54050Y-47150D01*
X54050Y-47128D01*
X54350Y-47128D01*
X54350Y-47150D01*
X54371Y-47150D01*
X54371Y-47450D01*
X54350Y-47450D01*
X54350Y-47713D01*
X54387Y-47751D01*
X54530Y-47751D01*
X54573Y-47733D01*
X54578Y-47760D01*
X54613Y-47811D01*
X54649Y-47848D01*
X54649Y-47866D01*
X54474Y-47866D01*
X54414Y-47878D01*
X54362Y-47913D01*
X54354Y-47921D01*
X54281Y-47891D01*
X54119Y-47891D01*
X54050Y-47920D01*
X54050Y-47713D01*
X54050Y-47450D01*
X53786Y-47450D01*
X53748Y-47487D01*
X53748Y-47569D01*
X53748Y-47630D01*
X53771Y-47685D01*
X53814Y-47728D01*
X53869Y-47751D01*
X54012Y-47751D01*
X54050Y-47713D01*
X54050Y-47920D01*
X53969Y-47953D01*
X53854Y-48068D01*
X53791Y-48218D01*
X53791Y-48380D01*
X53853Y-48530D01*
X53968Y-48645D01*
X54118Y-48708D01*
X54280Y-48708D01*
X54430Y-48646D01*
X54545Y-48531D01*
X54608Y-48381D01*
X54608Y-48219D01*
X54593Y-48183D01*
X54649Y-48183D01*
X54649Y-48342D01*
X54665Y-48381D01*
X54672Y-48388D01*
X54671Y-48388D01*
X54629Y-48431D01*
X54606Y-48487D01*
X54606Y-48547D01*
X54606Y-48627D01*
X54643Y-48664D01*
X54987Y-48664D01*
X54987Y-48641D01*
X55314Y-48641D01*
X55314Y-48664D01*
X55322Y-48664D01*
X55322Y-48960D01*
X55314Y-48960D01*
X55314Y-49221D01*
X55352Y-49259D01*
X55462Y-49259D01*
X55462Y-49983D01*
X55462Y-49983D01*
G37*
G54D17*
X55462Y-49983D02*
X54987Y-49983D01*
X54987Y-49221D01*
X54987Y-48960D01*
X54643Y-48960D01*
X54606Y-48998D01*
X54606Y-49077D01*
X54606Y-49138D01*
X54629Y-49193D01*
X54671Y-49236D01*
X54727Y-49259D01*
X54949Y-49259D01*
X54987Y-49221D01*
X54987Y-49983D01*
X54735Y-49983D01*
X54696Y-50000D01*
X54665Y-50030D01*
X54649Y-50070D01*
X54649Y-50113D01*
X54649Y-50140D01*
X54648Y-50139D01*
X54568Y-50106D01*
X54506Y-50106D01*
X53341Y-48941D01*
X53341Y-48683D01*
X53430Y-48646D01*
X53545Y-48531D01*
X53608Y-48381D01*
X53608Y-48219D01*
X53546Y-48069D01*
X53431Y-47954D01*
X53281Y-47891D01*
X53119Y-47891D01*
X52969Y-47953D01*
X52854Y-48068D01*
X52791Y-48218D01*
X52791Y-48380D01*
X52853Y-48530D01*
X52968Y-48645D01*
X53058Y-48683D01*
X53058Y-49000D01*
X53069Y-49054D01*
X53099Y-49100D01*
X54306Y-50306D01*
X54306Y-50368D01*
X54339Y-50448D01*
X54399Y-50508D01*
X53683Y-50508D01*
X52066Y-48891D01*
X52066Y-48686D01*
X52118Y-48708D01*
X52280Y-48708D01*
X52430Y-48646D01*
X52545Y-48531D01*
X52608Y-48381D01*
X52608Y-48219D01*
X52546Y-48069D01*
X52431Y-47954D01*
X52424Y-47951D01*
X52775Y-47600D01*
X52775Y-47600D01*
X52805Y-47554D01*
X52816Y-47500D01*
X52816Y-47441D01*
X52853Y-47530D01*
X52968Y-47645D01*
X53118Y-47708D01*
X53280Y-47708D01*
X53430Y-47646D01*
X53545Y-47531D01*
X53608Y-47381D01*
X53608Y-47219D01*
X53546Y-47069D01*
X53431Y-46954D01*
X53381Y-46933D01*
X53763Y-46933D01*
X53748Y-46969D01*
X53748Y-47030D01*
X53748Y-47112D01*
X53786Y-47150D01*
X54050Y-47150D01*
X54050Y-47128D01*
X54350Y-47128D01*
X54350Y-47150D01*
X54371Y-47150D01*
X54371Y-47450D01*
X54350Y-47450D01*
X54350Y-47713D01*
X54387Y-47751D01*
X54530Y-47751D01*
X54573Y-47733D01*
X54578Y-47760D01*
X54613Y-47811D01*
X54649Y-47848D01*
X54649Y-47866D01*
X54474Y-47866D01*
X54414Y-47878D01*
X54362Y-47913D01*
X54354Y-47921D01*
X54281Y-47891D01*
X54119Y-47891D01*
X54050Y-47920D01*
X54050Y-47713D01*
X54050Y-47450D01*
X53786Y-47450D01*
X53748Y-47487D01*
X53748Y-47569D01*
X53748Y-47630D01*
X53771Y-47685D01*
X53814Y-47728D01*
X53869Y-47751D01*
X54012Y-47751D01*
X54050Y-47713D01*
X54050Y-47920D01*
X53969Y-47953D01*
X53854Y-48068D01*
X53791Y-48218D01*
X53791Y-48380D01*
X53853Y-48530D01*
X53968Y-48645D01*
X54118Y-48708D01*
X54280Y-48708D01*
X54430Y-48646D01*
X54545Y-48531D01*
X54608Y-48381D01*
X54608Y-48219D01*
X54593Y-48183D01*
X54649Y-48183D01*
X54649Y-48342D01*
X54665Y-48381D01*
X54672Y-48388D01*
X54671Y-48388D01*
X54629Y-48431D01*
X54606Y-48487D01*
X54606Y-48547D01*
X54606Y-48627D01*
X54643Y-48664D01*
X54987Y-48664D01*
X54987Y-48641D01*
X55314Y-48641D01*
X55314Y-48664D01*
X55322Y-48664D01*
X55322Y-48960D01*
X55314Y-48960D01*
X55314Y-49221D01*
X55352Y-49259D01*
X55462Y-49259D01*
X55462Y-49983D01*
G54D10*
G36*
X55462Y-55318D02*
X55456Y-55312D01*
X55416Y-55296D01*
X55373Y-55296D01*
X55214Y-55296D01*
X55200Y-55274D01*
X55200Y-55274D01*
X54600Y-54674D01*
X54554Y-54644D01*
X54500Y-54633D01*
X54300Y-54633D01*
X54335Y-54598D01*
X54368Y-54518D01*
X54368Y-54431D01*
X54335Y-54351D01*
X54291Y-54307D01*
X54291Y-52375D01*
X54282Y-52329D01*
X54280Y-52320D01*
X54280Y-52320D01*
X54250Y-52274D01*
X54250Y-52274D01*
X53768Y-51793D01*
X53768Y-51731D01*
X53735Y-51651D01*
X53673Y-51589D01*
X53593Y-51556D01*
X53506Y-51556D01*
X53426Y-51589D01*
X53364Y-51651D01*
X53331Y-51731D01*
X53331Y-51818D01*
X53364Y-51898D01*
X53426Y-51960D01*
X53506Y-51993D01*
X53568Y-51993D01*
X54008Y-52433D01*
X54008Y-54307D01*
X53964Y-54351D01*
X53931Y-54431D01*
X53931Y-54518D01*
X53964Y-54598D01*
X53999Y-54633D01*
X53583Y-54633D01*
X52391Y-53441D01*
X52391Y-51600D01*
X52380Y-51545D01*
X52350Y-51499D01*
X52350Y-51499D01*
X52193Y-51343D01*
X52193Y-51281D01*
X52160Y-51201D01*
X52098Y-51139D01*
X52018Y-51106D01*
X51931Y-51106D01*
X51851Y-51139D01*
X51789Y-51201D01*
X51775Y-51236D01*
X51760Y-51201D01*
X51698Y-51139D01*
X51618Y-51106D01*
X51531Y-51106D01*
X51451Y-51139D01*
X51389Y-51201D01*
X51356Y-51281D01*
X51356Y-51368D01*
X51389Y-51448D01*
X51451Y-51510D01*
X51531Y-51543D01*
X51593Y-51543D01*
X51933Y-51883D01*
X51933Y-52247D01*
X51893Y-52231D01*
X51806Y-52231D01*
X51726Y-52264D01*
X51664Y-52326D01*
X51631Y-52406D01*
X51631Y-52493D01*
X51664Y-52573D01*
X51708Y-52617D01*
X51708Y-53550D01*
X51719Y-53604D01*
X51749Y-53650D01*
X53274Y-55175D01*
X53274Y-55175D01*
X53320Y-55205D01*
X53375Y-55216D01*
X53741Y-55216D01*
X53821Y-55296D01*
X53783Y-55296D01*
X53743Y-55312D01*
X53712Y-55343D01*
X53696Y-55383D01*
X53696Y-55426D01*
X53696Y-56016D01*
X53712Y-56056D01*
X53743Y-56087D01*
X53783Y-56103D01*
X53826Y-56103D01*
X54033Y-56103D01*
X54033Y-57207D01*
X53900Y-57074D01*
X53854Y-57044D01*
X53800Y-57033D01*
X53921Y-57033D01*
X53961Y-57016D01*
X53991Y-56986D01*
X54008Y-56946D01*
X54008Y-56903D01*
X54008Y-56303D01*
X53991Y-56263D01*
X53961Y-56233D01*
X53921Y-56216D01*
X53878Y-56216D01*
X53278Y-56216D01*
X53241Y-56231D01*
X53241Y-56103D01*
X53416Y-56103D01*
X53456Y-56087D01*
X53487Y-56056D01*
X53503Y-56016D01*
X53503Y-55973D01*
X53503Y-55383D01*
X53487Y-55343D01*
X53456Y-55312D01*
X53416Y-55296D01*
X53373Y-55296D01*
X53171Y-55296D01*
X51541Y-53666D01*
X51541Y-52192D01*
X51585Y-52148D01*
X51618Y-52068D01*
X51618Y-51981D01*
X51585Y-51901D01*
X51523Y-51839D01*
X51443Y-51806D01*
X51356Y-51806D01*
X51276Y-51839D01*
X51214Y-51901D01*
X51181Y-51981D01*
X51181Y-52068D01*
X51214Y-52148D01*
X51258Y-52192D01*
X51258Y-53700D01*
X51258Y-53725D01*
X51269Y-53779D01*
X51299Y-53825D01*
X52434Y-54960D01*
X52425Y-54958D01*
X51858Y-54958D01*
X50993Y-54093D01*
X50993Y-54031D01*
X50960Y-53951D01*
X50898Y-53889D01*
X50818Y-53856D01*
X50731Y-53856D01*
X50666Y-53883D01*
X50666Y-52158D01*
X50781Y-52043D01*
X50843Y-52043D01*
X50923Y-52010D01*
X50985Y-51948D01*
X51018Y-51868D01*
X51018Y-51781D01*
X50985Y-51701D01*
X50923Y-51639D01*
X50843Y-51606D01*
X50768Y-51606D01*
X50768Y-51581D01*
X50735Y-51501D01*
X50700Y-51466D01*
X50782Y-51466D01*
X50826Y-51510D01*
X50906Y-51543D01*
X50993Y-51543D01*
X51073Y-51510D01*
X51135Y-51448D01*
X51168Y-51368D01*
X51168Y-51281D01*
X51135Y-51201D01*
X51073Y-51139D01*
X50993Y-51106D01*
X50906Y-51106D01*
X50826Y-51139D01*
X50782Y-51183D01*
X50475Y-51183D01*
X50420Y-51194D01*
X50374Y-51224D01*
X50124Y-51474D01*
X50094Y-51520D01*
X50083Y-51575D01*
X50083Y-53859D01*
X49978Y-53754D01*
X50008Y-53681D01*
X50008Y-53519D01*
X49946Y-53369D01*
X49831Y-53254D01*
X49681Y-53191D01*
X49519Y-53191D01*
X49369Y-53253D01*
X49254Y-53368D01*
X49191Y-53518D01*
X49191Y-53680D01*
X49253Y-53830D01*
X49368Y-53945D01*
X49518Y-54008D01*
X49680Y-54008D01*
X49754Y-53978D01*
X49891Y-54115D01*
X49891Y-54148D01*
X49869Y-54148D01*
X49787Y-54148D01*
X49750Y-54186D01*
X49750Y-54450D01*
X49771Y-54450D01*
X49771Y-54750D01*
X49750Y-54750D01*
X49750Y-54771D01*
X49450Y-54771D01*
X49450Y-54750D01*
X49450Y-54450D01*
X49450Y-54186D01*
X49412Y-54148D01*
X49330Y-54148D01*
X49269Y-54148D01*
X49214Y-54171D01*
X49171Y-54214D01*
X49148Y-54269D01*
X49148Y-54412D01*
X49186Y-54450D01*
X49450Y-54450D01*
X49450Y-54750D01*
X49186Y-54750D01*
X49148Y-54787D01*
X49148Y-54930D01*
X49171Y-54985D01*
X49214Y-55028D01*
X49269Y-55051D01*
X49330Y-55051D01*
X49412Y-55051D01*
X49436Y-55027D01*
X49436Y-55051D01*
X49450Y-55051D01*
X49524Y-55051D01*
X49450Y-55126D01*
X49279Y-55296D01*
X48783Y-55296D01*
X48743Y-55312D01*
X48737Y-55318D01*
X48737Y-52365D01*
X49464Y-52365D01*
X49503Y-52349D01*
X49534Y-52318D01*
X49550Y-52279D01*
X49550Y-52235D01*
X49550Y-52087D01*
X49588Y-52062D01*
X49725Y-51925D01*
X49725Y-51925D01*
X49755Y-51879D01*
X49755Y-51879D01*
X49757Y-51870D01*
X49766Y-51825D01*
X49766Y-51825D01*
X49766Y-51533D01*
X50308Y-50991D01*
X52175Y-50991D01*
X52175Y-50991D01*
X52229Y-50980D01*
X52275Y-50950D01*
X52475Y-50750D01*
X52475Y-50750D01*
X52505Y-50704D01*
X52505Y-50704D01*
X52507Y-50695D01*
X52516Y-50650D01*
X52516Y-50650D01*
X52516Y-50042D01*
X53278Y-50803D01*
X53251Y-50814D01*
X53189Y-50876D01*
X53156Y-50956D01*
X53156Y-51043D01*
X53189Y-51123D01*
X53251Y-51185D01*
X53331Y-51218D01*
X53393Y-51218D01*
X53724Y-51550D01*
X53724Y-51550D01*
X53770Y-51580D01*
X53825Y-51591D01*
X54441Y-51591D01*
X54649Y-51799D01*
X54649Y-52279D01*
X54665Y-52318D01*
X54696Y-52349D01*
X54735Y-52365D01*
X54779Y-52365D01*
X55462Y-52365D01*
X55462Y-55318D01*
X55462Y-55318D01*
G37*
G54D17*
X55462Y-55318D02*
X55456Y-55312D01*
X55416Y-55296D01*
X55373Y-55296D01*
X55214Y-55296D01*
X55200Y-55274D01*
X55200Y-55274D01*
X54600Y-54674D01*
X54554Y-54644D01*
X54500Y-54633D01*
X54300Y-54633D01*
X54335Y-54598D01*
X54368Y-54518D01*
X54368Y-54431D01*
X54335Y-54351D01*
X54291Y-54307D01*
X54291Y-52375D01*
X54282Y-52329D01*
X54280Y-52320D01*
X54280Y-52320D01*
X54250Y-52274D01*
X54250Y-52274D01*
X53768Y-51793D01*
X53768Y-51731D01*
X53735Y-51651D01*
X53673Y-51589D01*
X53593Y-51556D01*
X53506Y-51556D01*
X53426Y-51589D01*
X53364Y-51651D01*
X53331Y-51731D01*
X53331Y-51818D01*
X53364Y-51898D01*
X53426Y-51960D01*
X53506Y-51993D01*
X53568Y-51993D01*
X54008Y-52433D01*
X54008Y-54307D01*
X53964Y-54351D01*
X53931Y-54431D01*
X53931Y-54518D01*
X53964Y-54598D01*
X53999Y-54633D01*
X53583Y-54633D01*
X52391Y-53441D01*
X52391Y-51600D01*
X52380Y-51545D01*
X52350Y-51499D01*
X52350Y-51499D01*
X52193Y-51343D01*
X52193Y-51281D01*
X52160Y-51201D01*
X52098Y-51139D01*
X52018Y-51106D01*
X51931Y-51106D01*
X51851Y-51139D01*
X51789Y-51201D01*
X51775Y-51236D01*
X51760Y-51201D01*
X51698Y-51139D01*
X51618Y-51106D01*
X51531Y-51106D01*
X51451Y-51139D01*
X51389Y-51201D01*
X51356Y-51281D01*
X51356Y-51368D01*
X51389Y-51448D01*
X51451Y-51510D01*
X51531Y-51543D01*
X51593Y-51543D01*
X51933Y-51883D01*
X51933Y-52247D01*
X51893Y-52231D01*
X51806Y-52231D01*
X51726Y-52264D01*
X51664Y-52326D01*
X51631Y-52406D01*
X51631Y-52493D01*
X51664Y-52573D01*
X51708Y-52617D01*
X51708Y-53550D01*
X51719Y-53604D01*
X51749Y-53650D01*
X53274Y-55175D01*
X53274Y-55175D01*
X53320Y-55205D01*
X53375Y-55216D01*
X53741Y-55216D01*
X53821Y-55296D01*
X53783Y-55296D01*
X53743Y-55312D01*
X53712Y-55343D01*
X53696Y-55383D01*
X53696Y-55426D01*
X53696Y-56016D01*
X53712Y-56056D01*
X53743Y-56087D01*
X53783Y-56103D01*
X53826Y-56103D01*
X54033Y-56103D01*
X54033Y-57207D01*
X53900Y-57074D01*
X53854Y-57044D01*
X53800Y-57033D01*
X53921Y-57033D01*
X53961Y-57016D01*
X53991Y-56986D01*
X54008Y-56946D01*
X54008Y-56903D01*
X54008Y-56303D01*
X53991Y-56263D01*
X53961Y-56233D01*
X53921Y-56216D01*
X53878Y-56216D01*
X53278Y-56216D01*
X53241Y-56231D01*
X53241Y-56103D01*
X53416Y-56103D01*
X53456Y-56087D01*
X53487Y-56056D01*
X53503Y-56016D01*
X53503Y-55973D01*
X53503Y-55383D01*
X53487Y-55343D01*
X53456Y-55312D01*
X53416Y-55296D01*
X53373Y-55296D01*
X53171Y-55296D01*
X51541Y-53666D01*
X51541Y-52192D01*
X51585Y-52148D01*
X51618Y-52068D01*
X51618Y-51981D01*
X51585Y-51901D01*
X51523Y-51839D01*
X51443Y-51806D01*
X51356Y-51806D01*
X51276Y-51839D01*
X51214Y-51901D01*
X51181Y-51981D01*
X51181Y-52068D01*
X51214Y-52148D01*
X51258Y-52192D01*
X51258Y-53700D01*
X51258Y-53725D01*
X51269Y-53779D01*
X51299Y-53825D01*
X52434Y-54960D01*
X52425Y-54958D01*
X51858Y-54958D01*
X50993Y-54093D01*
X50993Y-54031D01*
X50960Y-53951D01*
X50898Y-53889D01*
X50818Y-53856D01*
X50731Y-53856D01*
X50666Y-53883D01*
X50666Y-52158D01*
X50781Y-52043D01*
X50843Y-52043D01*
X50923Y-52010D01*
X50985Y-51948D01*
X51018Y-51868D01*
X51018Y-51781D01*
X50985Y-51701D01*
X50923Y-51639D01*
X50843Y-51606D01*
X50768Y-51606D01*
X50768Y-51581D01*
X50735Y-51501D01*
X50700Y-51466D01*
X50782Y-51466D01*
X50826Y-51510D01*
X50906Y-51543D01*
X50993Y-51543D01*
X51073Y-51510D01*
X51135Y-51448D01*
X51168Y-51368D01*
X51168Y-51281D01*
X51135Y-51201D01*
X51073Y-51139D01*
X50993Y-51106D01*
X50906Y-51106D01*
X50826Y-51139D01*
X50782Y-51183D01*
X50475Y-51183D01*
X50420Y-51194D01*
X50374Y-51224D01*
X50124Y-51474D01*
X50094Y-51520D01*
X50083Y-51575D01*
X50083Y-53859D01*
X49978Y-53754D01*
X50008Y-53681D01*
X50008Y-53519D01*
X49946Y-53369D01*
X49831Y-53254D01*
X49681Y-53191D01*
X49519Y-53191D01*
X49369Y-53253D01*
X49254Y-53368D01*
X49191Y-53518D01*
X49191Y-53680D01*
X49253Y-53830D01*
X49368Y-53945D01*
X49518Y-54008D01*
X49680Y-54008D01*
X49754Y-53978D01*
X49891Y-54115D01*
X49891Y-54148D01*
X49869Y-54148D01*
X49787Y-54148D01*
X49750Y-54186D01*
X49750Y-54450D01*
X49771Y-54450D01*
X49771Y-54750D01*
X49750Y-54750D01*
X49750Y-54771D01*
X49450Y-54771D01*
X49450Y-54750D01*
X49450Y-54450D01*
X49450Y-54186D01*
X49412Y-54148D01*
X49330Y-54148D01*
X49269Y-54148D01*
X49214Y-54171D01*
X49171Y-54214D01*
X49148Y-54269D01*
X49148Y-54412D01*
X49186Y-54450D01*
X49450Y-54450D01*
X49450Y-54750D01*
X49186Y-54750D01*
X49148Y-54787D01*
X49148Y-54930D01*
X49171Y-54985D01*
X49214Y-55028D01*
X49269Y-55051D01*
X49330Y-55051D01*
X49412Y-55051D01*
X49436Y-55027D01*
X49436Y-55051D01*
X49450Y-55051D01*
X49524Y-55051D01*
X49450Y-55126D01*
X49279Y-55296D01*
X48783Y-55296D01*
X48743Y-55312D01*
X48737Y-55318D01*
X48737Y-52365D01*
X49464Y-52365D01*
X49503Y-52349D01*
X49534Y-52318D01*
X49550Y-52279D01*
X49550Y-52235D01*
X49550Y-52087D01*
X49588Y-52062D01*
X49725Y-51925D01*
X49725Y-51925D01*
X49755Y-51879D01*
X49755Y-51879D01*
X49757Y-51870D01*
X49766Y-51825D01*
X49766Y-51825D01*
X49766Y-51533D01*
X50308Y-50991D01*
X52175Y-50991D01*
X52175Y-50991D01*
X52229Y-50980D01*
X52275Y-50950D01*
X52475Y-50750D01*
X52475Y-50750D01*
X52505Y-50704D01*
X52505Y-50704D01*
X52507Y-50695D01*
X52516Y-50650D01*
X52516Y-50650D01*
X52516Y-50042D01*
X53278Y-50803D01*
X53251Y-50814D01*
X53189Y-50876D01*
X53156Y-50956D01*
X53156Y-51043D01*
X53189Y-51123D01*
X53251Y-51185D01*
X53331Y-51218D01*
X53393Y-51218D01*
X53724Y-51550D01*
X53724Y-51550D01*
X53770Y-51580D01*
X53825Y-51591D01*
X54441Y-51591D01*
X54649Y-51799D01*
X54649Y-52279D01*
X54665Y-52318D01*
X54696Y-52349D01*
X54735Y-52365D01*
X54779Y-52365D01*
X55462Y-52365D01*
X55462Y-55318D01*
G54D10*
G36*
X59816Y-49391D02*
X59890Y-49465D01*
X59926Y-49429D01*
X59934Y-49421D01*
X59965Y-49465D01*
X60144Y-49483D01*
X60234Y-49465D01*
X60273Y-49410D01*
X60100Y-49237D01*
X60084Y-49252D01*
X59926Y-49094D01*
X59872Y-49040D01*
X59887Y-49025D01*
X59872Y-49009D01*
X59926Y-48955D01*
X60084Y-48797D01*
X60100Y-48812D01*
X60115Y-48797D01*
X60312Y-48994D01*
X60327Y-49009D01*
X60312Y-49025D01*
X60312Y-50025D01*
X60485Y-50198D01*
X60540Y-50159D01*
X60558Y-49980D01*
X60540Y-49890D01*
X60485Y-49851D01*
X60312Y-50025D01*
X60312Y-49025D01*
X60485Y-49198D01*
X60540Y-49159D01*
X60558Y-48980D01*
X60540Y-48890D01*
X60496Y-48859D01*
X60540Y-48815D01*
X60466Y-48741D01*
X60805Y-48741D01*
X60754Y-48793D01*
X60691Y-48943D01*
X60691Y-49105D01*
X60753Y-49255D01*
X60868Y-49370D01*
X60941Y-49401D01*
X60941Y-49648D01*
X60869Y-49678D01*
X60754Y-49793D01*
X60691Y-49943D01*
X60691Y-50105D01*
X60753Y-50255D01*
X60868Y-50370D01*
X61018Y-50433D01*
X61180Y-50433D01*
X61330Y-50371D01*
X61445Y-50256D01*
X61508Y-50106D01*
X61508Y-49944D01*
X61478Y-49870D01*
X61665Y-49683D01*
X61864Y-49683D01*
X61754Y-49793D01*
X61691Y-49943D01*
X61691Y-50105D01*
X61728Y-50195D01*
X61499Y-50424D01*
X61499Y-50424D01*
X61469Y-50470D01*
X61458Y-50525D01*
X61458Y-50525D01*
X61458Y-50546D01*
X61283Y-50546D01*
X61243Y-50562D01*
X61212Y-50593D01*
X61196Y-50633D01*
X61196Y-50676D01*
X61196Y-51266D01*
X61212Y-51306D01*
X61243Y-51337D01*
X61283Y-51353D01*
X61326Y-51353D01*
X61372Y-51353D01*
X61344Y-51395D01*
X61333Y-51450D01*
X61333Y-52182D01*
X60741Y-51591D01*
X60741Y-51353D01*
X60916Y-51353D01*
X60956Y-51337D01*
X60987Y-51306D01*
X61003Y-51266D01*
X61003Y-51223D01*
X61003Y-50633D01*
X60987Y-50593D01*
X60956Y-50562D01*
X60916Y-50546D01*
X60873Y-50546D01*
X60396Y-50546D01*
X60268Y-50417D01*
X60273Y-50410D01*
X60100Y-50237D01*
X60084Y-50252D01*
X59872Y-50040D01*
X59887Y-50025D01*
X59872Y-50009D01*
X60084Y-49797D01*
X60100Y-49812D01*
X60273Y-49639D01*
X60234Y-49584D01*
X60055Y-49566D01*
X59965Y-49584D01*
X59934Y-49628D01*
X59926Y-49620D01*
X59890Y-49584D01*
X59816Y-49658D01*
X59816Y-49391D01*
X59816Y-49391D01*
G37*
G54D17*
X59816Y-49391D02*
X59890Y-49465D01*
X59926Y-49429D01*
X59934Y-49421D01*
X59965Y-49465D01*
X60144Y-49483D01*
X60234Y-49465D01*
X60273Y-49410D01*
X60100Y-49237D01*
X60084Y-49252D01*
X59926Y-49094D01*
X59872Y-49040D01*
X59887Y-49025D01*
X59872Y-49009D01*
X59926Y-48955D01*
X60084Y-48797D01*
X60100Y-48812D01*
X60115Y-48797D01*
X60312Y-48994D01*
X60327Y-49009D01*
X60312Y-49025D01*
X60312Y-50025D01*
X60485Y-50198D01*
X60540Y-50159D01*
X60558Y-49980D01*
X60540Y-49890D01*
X60485Y-49851D01*
X60312Y-50025D01*
X60312Y-49025D01*
X60485Y-49198D01*
X60540Y-49159D01*
X60558Y-48980D01*
X60540Y-48890D01*
X60496Y-48859D01*
X60540Y-48815D01*
X60466Y-48741D01*
X60805Y-48741D01*
X60754Y-48793D01*
X60691Y-48943D01*
X60691Y-49105D01*
X60753Y-49255D01*
X60868Y-49370D01*
X60941Y-49401D01*
X60941Y-49648D01*
X60869Y-49678D01*
X60754Y-49793D01*
X60691Y-49943D01*
X60691Y-50105D01*
X60753Y-50255D01*
X60868Y-50370D01*
X61018Y-50433D01*
X61180Y-50433D01*
X61330Y-50371D01*
X61445Y-50256D01*
X61508Y-50106D01*
X61508Y-49944D01*
X61478Y-49870D01*
X61665Y-49683D01*
X61864Y-49683D01*
X61754Y-49793D01*
X61691Y-49943D01*
X61691Y-50105D01*
X61728Y-50195D01*
X61499Y-50424D01*
X61499Y-50424D01*
X61469Y-50470D01*
X61458Y-50525D01*
X61458Y-50525D01*
X61458Y-50546D01*
X61283Y-50546D01*
X61243Y-50562D01*
X61212Y-50593D01*
X61196Y-50633D01*
X61196Y-50676D01*
X61196Y-51266D01*
X61212Y-51306D01*
X61243Y-51337D01*
X61283Y-51353D01*
X61326Y-51353D01*
X61372Y-51353D01*
X61344Y-51395D01*
X61333Y-51450D01*
X61333Y-52182D01*
X60741Y-51591D01*
X60741Y-51353D01*
X60916Y-51353D01*
X60956Y-51337D01*
X60987Y-51306D01*
X61003Y-51266D01*
X61003Y-51223D01*
X61003Y-50633D01*
X60987Y-50593D01*
X60956Y-50562D01*
X60916Y-50546D01*
X60873Y-50546D01*
X60396Y-50546D01*
X60268Y-50417D01*
X60273Y-50410D01*
X60100Y-50237D01*
X60084Y-50252D01*
X59872Y-50040D01*
X59887Y-50025D01*
X59872Y-50009D01*
X60084Y-49797D01*
X60100Y-49812D01*
X60273Y-49639D01*
X60234Y-49584D01*
X60055Y-49566D01*
X59965Y-49584D01*
X59934Y-49628D01*
X59926Y-49620D01*
X59890Y-49584D01*
X59816Y-49658D01*
X59816Y-49391D01*
G54D10*
G36*
X59716Y-56242D02*
X59742Y-56216D01*
X61500Y-56216D01*
X61545Y-56207D01*
X61554Y-56205D01*
X61600Y-56175D01*
X62149Y-55626D01*
X62149Y-55792D01*
X62165Y-55831D01*
X62196Y-55862D01*
X62235Y-55878D01*
X62279Y-55878D01*
X62962Y-55878D01*
X62962Y-58965D01*
X62852Y-58965D01*
X62814Y-59003D01*
X62814Y-59264D01*
X62822Y-59264D01*
X62822Y-59559D01*
X62814Y-59559D01*
X62814Y-59821D01*
X62852Y-59858D01*
X62962Y-59858D01*
X62962Y-60087D01*
X60325Y-60087D01*
X60311Y-60089D01*
X60298Y-60089D01*
X60221Y-60105D01*
X60221Y-60105D01*
X60221Y-60105D01*
X60207Y-60111D01*
X60171Y-60125D01*
X60171Y-60125D01*
X60171Y-60125D01*
X60166Y-60129D01*
X60166Y-60008D01*
X60201Y-59973D01*
X60693Y-59973D01*
X60747Y-59962D01*
X60793Y-59932D01*
X61025Y-59700D01*
X61055Y-59654D01*
X61066Y-59600D01*
X61066Y-58917D01*
X61110Y-58873D01*
X61143Y-58793D01*
X61143Y-58706D01*
X61110Y-58626D01*
X61066Y-58582D01*
X61066Y-57608D01*
X62106Y-56569D01*
X62106Y-59086D01*
X62106Y-59147D01*
X62106Y-59226D01*
X62106Y-59597D01*
X62106Y-59677D01*
X62106Y-59737D01*
X62129Y-59793D01*
X62171Y-59835D01*
X62227Y-59858D01*
X62449Y-59858D01*
X62487Y-59821D01*
X62487Y-59559D01*
X62143Y-59559D01*
X62106Y-59597D01*
X62106Y-59226D01*
X62143Y-59264D01*
X62487Y-59264D01*
X62487Y-59003D01*
X62449Y-58965D01*
X62227Y-58965D01*
X62171Y-58988D01*
X62129Y-59031D01*
X62106Y-59086D01*
X62106Y-56569D01*
X62231Y-56443D01*
X62293Y-56443D01*
X62373Y-56410D01*
X62435Y-56348D01*
X62468Y-56268D01*
X62468Y-56181D01*
X62435Y-56101D01*
X62373Y-56039D01*
X62293Y-56006D01*
X62206Y-56006D01*
X62126Y-56039D01*
X62064Y-56101D01*
X62031Y-56181D01*
X62031Y-56243D01*
X60824Y-57449D01*
X60824Y-57449D01*
X60794Y-57495D01*
X60783Y-57550D01*
X60783Y-58055D01*
X60731Y-58004D01*
X60581Y-57941D01*
X60419Y-57941D01*
X60371Y-57961D01*
X60371Y-57254D01*
X60360Y-57200D01*
X60329Y-57154D01*
X59716Y-56541D01*
X59716Y-56242D01*
X59716Y-56242D01*
G37*
G54D17*
X59716Y-56242D02*
X59742Y-56216D01*
X61500Y-56216D01*
X61545Y-56207D01*
X61554Y-56205D01*
X61600Y-56175D01*
X62149Y-55626D01*
X62149Y-55792D01*
X62165Y-55831D01*
X62196Y-55862D01*
X62235Y-55878D01*
X62279Y-55878D01*
X62962Y-55878D01*
X62962Y-58965D01*
X62852Y-58965D01*
X62814Y-59003D01*
X62814Y-59264D01*
X62822Y-59264D01*
X62822Y-59559D01*
X62814Y-59559D01*
X62814Y-59821D01*
X62852Y-59858D01*
X62962Y-59858D01*
X62962Y-60087D01*
X60325Y-60087D01*
X60311Y-60089D01*
X60298Y-60089D01*
X60221Y-60105D01*
X60221Y-60105D01*
X60221Y-60105D01*
X60207Y-60111D01*
X60171Y-60125D01*
X60171Y-60125D01*
X60171Y-60125D01*
X60166Y-60129D01*
X60166Y-60008D01*
X60201Y-59973D01*
X60693Y-59973D01*
X60747Y-59962D01*
X60793Y-59932D01*
X61025Y-59700D01*
X61055Y-59654D01*
X61066Y-59600D01*
X61066Y-58917D01*
X61110Y-58873D01*
X61143Y-58793D01*
X61143Y-58706D01*
X61110Y-58626D01*
X61066Y-58582D01*
X61066Y-57608D01*
X62106Y-56569D01*
X62106Y-59086D01*
X62106Y-59147D01*
X62106Y-59226D01*
X62106Y-59597D01*
X62106Y-59677D01*
X62106Y-59737D01*
X62129Y-59793D01*
X62171Y-59835D01*
X62227Y-59858D01*
X62449Y-59858D01*
X62487Y-59821D01*
X62487Y-59559D01*
X62143Y-59559D01*
X62106Y-59597D01*
X62106Y-59226D01*
X62143Y-59264D01*
X62487Y-59264D01*
X62487Y-59003D01*
X62449Y-58965D01*
X62227Y-58965D01*
X62171Y-58988D01*
X62129Y-59031D01*
X62106Y-59086D01*
X62106Y-56569D01*
X62231Y-56443D01*
X62293Y-56443D01*
X62373Y-56410D01*
X62435Y-56348D01*
X62468Y-56268D01*
X62468Y-56181D01*
X62435Y-56101D01*
X62373Y-56039D01*
X62293Y-56006D01*
X62206Y-56006D01*
X62126Y-56039D01*
X62064Y-56101D01*
X62031Y-56181D01*
X62031Y-56243D01*
X60824Y-57449D01*
X60824Y-57449D01*
X60794Y-57495D01*
X60783Y-57550D01*
X60783Y-58055D01*
X60731Y-58004D01*
X60581Y-57941D01*
X60419Y-57941D01*
X60371Y-57961D01*
X60371Y-57254D01*
X60360Y-57200D01*
X60329Y-57154D01*
X59716Y-56541D01*
X59716Y-56242D01*
G54D10*
G36*
X56587Y-60812D02*
X56598Y-60812D01*
X56591Y-60828D01*
X56591Y-60871D01*
X56591Y-61471D01*
X56608Y-61511D01*
X56638Y-61541D01*
X56678Y-61558D01*
X56721Y-61558D01*
X57207Y-61558D01*
X57349Y-61700D01*
X57395Y-61730D01*
X57450Y-61741D01*
X59275Y-61741D01*
X59329Y-61730D01*
X59375Y-61700D01*
X59625Y-61450D01*
X59655Y-61404D01*
X59659Y-61386D01*
X59768Y-61495D01*
X59918Y-61558D01*
X60080Y-61558D01*
X60230Y-61496D01*
X60345Y-61381D01*
X60408Y-61231D01*
X60408Y-61158D01*
X60499Y-61250D01*
X60545Y-61280D01*
X60600Y-61291D01*
X60616Y-61291D01*
X60653Y-61380D01*
X60768Y-61495D01*
X60918Y-61558D01*
X61080Y-61558D01*
X61230Y-61496D01*
X61345Y-61381D01*
X61408Y-61231D01*
X61408Y-61069D01*
X61346Y-60919D01*
X61231Y-60804D01*
X61132Y-60762D01*
X61541Y-60762D01*
X61541Y-61194D01*
X61559Y-61284D01*
X61614Y-61323D01*
X61787Y-61150D01*
X61614Y-60976D01*
X61559Y-61015D01*
X61541Y-61194D01*
X61541Y-60762D01*
X61828Y-60762D01*
X61826Y-60764D01*
X61826Y-61535D01*
X61865Y-61590D01*
X62044Y-61608D01*
X62134Y-61590D01*
X62173Y-61535D01*
X62000Y-61362D01*
X61826Y-61535D01*
X61826Y-60764D01*
X62000Y-60937D01*
X62173Y-60764D01*
X62171Y-60762D01*
X62412Y-60762D01*
X62412Y-60995D01*
X62385Y-60976D01*
X62212Y-61150D01*
X62385Y-61323D01*
X62412Y-61304D01*
X62412Y-62037D01*
X56587Y-62037D01*
X56587Y-60812D01*
X56587Y-60812D01*
G37*
G54D17*
X56587Y-60812D02*
X56598Y-60812D01*
X56591Y-60828D01*
X56591Y-60871D01*
X56591Y-61471D01*
X56608Y-61511D01*
X56638Y-61541D01*
X56678Y-61558D01*
X56721Y-61558D01*
X57207Y-61558D01*
X57349Y-61700D01*
X57395Y-61730D01*
X57450Y-61741D01*
X59275Y-61741D01*
X59329Y-61730D01*
X59375Y-61700D01*
X59625Y-61450D01*
X59655Y-61404D01*
X59659Y-61386D01*
X59768Y-61495D01*
X59918Y-61558D01*
X60080Y-61558D01*
X60230Y-61496D01*
X60345Y-61381D01*
X60408Y-61231D01*
X60408Y-61158D01*
X60499Y-61250D01*
X60545Y-61280D01*
X60600Y-61291D01*
X60616Y-61291D01*
X60653Y-61380D01*
X60768Y-61495D01*
X60918Y-61558D01*
X61080Y-61558D01*
X61230Y-61496D01*
X61345Y-61381D01*
X61408Y-61231D01*
X61408Y-61069D01*
X61346Y-60919D01*
X61231Y-60804D01*
X61132Y-60762D01*
X61541Y-60762D01*
X61541Y-61194D01*
X61559Y-61284D01*
X61614Y-61323D01*
X61787Y-61150D01*
X61614Y-60976D01*
X61559Y-61015D01*
X61541Y-61194D01*
X61541Y-60762D01*
X61828Y-60762D01*
X61826Y-60764D01*
X61826Y-61535D01*
X61865Y-61590D01*
X62044Y-61608D01*
X62134Y-61590D01*
X62173Y-61535D01*
X62000Y-61362D01*
X61826Y-61535D01*
X61826Y-60764D01*
X62000Y-60937D01*
X62173Y-60764D01*
X62171Y-60762D01*
X62412Y-60762D01*
X62412Y-60995D01*
X62385Y-60976D01*
X62212Y-61150D01*
X62385Y-61323D01*
X62412Y-61304D01*
X62412Y-62037D01*
X56587Y-62037D01*
X56587Y-60812D01*
G54D10*
G36*
X56237Y-56666D02*
X56712Y-56666D01*
X56712Y-57428D01*
X56712Y-57689D01*
X57056Y-57689D01*
X57093Y-57651D01*
X57093Y-57572D01*
X57093Y-57511D01*
X57070Y-57456D01*
X57028Y-57413D01*
X56972Y-57390D01*
X56750Y-57390D01*
X56712Y-57428D01*
X56712Y-56666D01*
X56964Y-56666D01*
X57003Y-56649D01*
X57034Y-56619D01*
X57050Y-56579D01*
X57050Y-56536D01*
X57050Y-56509D01*
X57051Y-56510D01*
X57131Y-56543D01*
X57193Y-56543D01*
X58358Y-57708D01*
X58358Y-57966D01*
X58269Y-58003D01*
X58154Y-58118D01*
X58091Y-58268D01*
X58091Y-58430D01*
X58153Y-58580D01*
X58268Y-58695D01*
X58418Y-58758D01*
X58580Y-58758D01*
X58730Y-58696D01*
X58845Y-58581D01*
X58908Y-58431D01*
X58908Y-58269D01*
X58846Y-58119D01*
X58731Y-58004D01*
X58641Y-57966D01*
X58641Y-57650D01*
X58630Y-57595D01*
X58600Y-57549D01*
X57393Y-56343D01*
X57393Y-56281D01*
X57360Y-56201D01*
X57300Y-56141D01*
X58016Y-56141D01*
X59633Y-57758D01*
X59633Y-57963D01*
X59581Y-57941D01*
X59419Y-57941D01*
X59269Y-58003D01*
X59154Y-58118D01*
X59091Y-58268D01*
X59091Y-58430D01*
X59153Y-58580D01*
X59268Y-58695D01*
X59275Y-58698D01*
X58924Y-59049D01*
X58924Y-59049D01*
X58894Y-59095D01*
X58883Y-59150D01*
X58883Y-59208D01*
X58846Y-59119D01*
X58731Y-59004D01*
X58581Y-58941D01*
X58419Y-58941D01*
X58269Y-59003D01*
X58154Y-59118D01*
X58091Y-59268D01*
X58091Y-59430D01*
X58153Y-59580D01*
X58268Y-59695D01*
X58318Y-59716D01*
X57936Y-59716D01*
X57951Y-59680D01*
X57951Y-59619D01*
X57951Y-59537D01*
X57913Y-59500D01*
X57650Y-59500D01*
X57650Y-59521D01*
X57350Y-59521D01*
X57350Y-59500D01*
X57328Y-59500D01*
X57328Y-59200D01*
X57350Y-59200D01*
X57350Y-58936D01*
X57312Y-58898D01*
X57169Y-58898D01*
X57126Y-58916D01*
X57121Y-58889D01*
X57086Y-58838D01*
X57050Y-58801D01*
X57050Y-58783D01*
X57225Y-58783D01*
X57285Y-58771D01*
X57337Y-58736D01*
X57345Y-58728D01*
X57418Y-58758D01*
X57580Y-58758D01*
X57650Y-58729D01*
X57650Y-58936D01*
X57650Y-59200D01*
X57913Y-59200D01*
X57951Y-59162D01*
X57951Y-59080D01*
X57951Y-59019D01*
X57928Y-58964D01*
X57885Y-58921D01*
X57830Y-58898D01*
X57687Y-58898D01*
X57650Y-58936D01*
X57650Y-58729D01*
X57730Y-58696D01*
X57845Y-58581D01*
X57908Y-58431D01*
X57908Y-58269D01*
X57846Y-58119D01*
X57731Y-58004D01*
X57581Y-57941D01*
X57419Y-57941D01*
X57269Y-58003D01*
X57154Y-58118D01*
X57091Y-58268D01*
X57091Y-58430D01*
X57106Y-58466D01*
X57050Y-58466D01*
X57050Y-58307D01*
X57034Y-58268D01*
X57027Y-58261D01*
X57028Y-58261D01*
X57070Y-58218D01*
X57093Y-58162D01*
X57093Y-58102D01*
X57093Y-58022D01*
X57056Y-57985D01*
X56712Y-57985D01*
X56712Y-58008D01*
X56385Y-58008D01*
X56385Y-57985D01*
X56377Y-57985D01*
X56377Y-57689D01*
X56385Y-57689D01*
X56385Y-57428D01*
X56347Y-57390D01*
X56237Y-57390D01*
X56237Y-56666D01*
X56237Y-56666D01*
G37*
G54D17*
X56237Y-56666D02*
X56712Y-56666D01*
X56712Y-57428D01*
X56712Y-57689D01*
X57056Y-57689D01*
X57093Y-57651D01*
X57093Y-57572D01*
X57093Y-57511D01*
X57070Y-57456D01*
X57028Y-57413D01*
X56972Y-57390D01*
X56750Y-57390D01*
X56712Y-57428D01*
X56712Y-56666D01*
X56964Y-56666D01*
X57003Y-56649D01*
X57034Y-56619D01*
X57050Y-56579D01*
X57050Y-56536D01*
X57050Y-56509D01*
X57051Y-56510D01*
X57131Y-56543D01*
X57193Y-56543D01*
X58358Y-57708D01*
X58358Y-57966D01*
X58269Y-58003D01*
X58154Y-58118D01*
X58091Y-58268D01*
X58091Y-58430D01*
X58153Y-58580D01*
X58268Y-58695D01*
X58418Y-58758D01*
X58580Y-58758D01*
X58730Y-58696D01*
X58845Y-58581D01*
X58908Y-58431D01*
X58908Y-58269D01*
X58846Y-58119D01*
X58731Y-58004D01*
X58641Y-57966D01*
X58641Y-57650D01*
X58630Y-57595D01*
X58600Y-57549D01*
X57393Y-56343D01*
X57393Y-56281D01*
X57360Y-56201D01*
X57300Y-56141D01*
X58016Y-56141D01*
X59633Y-57758D01*
X59633Y-57963D01*
X59581Y-57941D01*
X59419Y-57941D01*
X59269Y-58003D01*
X59154Y-58118D01*
X59091Y-58268D01*
X59091Y-58430D01*
X59153Y-58580D01*
X59268Y-58695D01*
X59275Y-58698D01*
X58924Y-59049D01*
X58924Y-59049D01*
X58894Y-59095D01*
X58883Y-59150D01*
X58883Y-59208D01*
X58846Y-59119D01*
X58731Y-59004D01*
X58581Y-58941D01*
X58419Y-58941D01*
X58269Y-59003D01*
X58154Y-59118D01*
X58091Y-59268D01*
X58091Y-59430D01*
X58153Y-59580D01*
X58268Y-59695D01*
X58318Y-59716D01*
X57936Y-59716D01*
X57951Y-59680D01*
X57951Y-59619D01*
X57951Y-59537D01*
X57913Y-59500D01*
X57650Y-59500D01*
X57650Y-59521D01*
X57350Y-59521D01*
X57350Y-59500D01*
X57328Y-59500D01*
X57328Y-59200D01*
X57350Y-59200D01*
X57350Y-58936D01*
X57312Y-58898D01*
X57169Y-58898D01*
X57126Y-58916D01*
X57121Y-58889D01*
X57086Y-58838D01*
X57050Y-58801D01*
X57050Y-58783D01*
X57225Y-58783D01*
X57285Y-58771D01*
X57337Y-58736D01*
X57345Y-58728D01*
X57418Y-58758D01*
X57580Y-58758D01*
X57650Y-58729D01*
X57650Y-58936D01*
X57650Y-59200D01*
X57913Y-59200D01*
X57951Y-59162D01*
X57951Y-59080D01*
X57951Y-59019D01*
X57928Y-58964D01*
X57885Y-58921D01*
X57830Y-58898D01*
X57687Y-58898D01*
X57650Y-58936D01*
X57650Y-58729D01*
X57730Y-58696D01*
X57845Y-58581D01*
X57908Y-58431D01*
X57908Y-58269D01*
X57846Y-58119D01*
X57731Y-58004D01*
X57581Y-57941D01*
X57419Y-57941D01*
X57269Y-58003D01*
X57154Y-58118D01*
X57091Y-58268D01*
X57091Y-58430D01*
X57106Y-58466D01*
X57050Y-58466D01*
X57050Y-58307D01*
X57034Y-58268D01*
X57027Y-58261D01*
X57028Y-58261D01*
X57070Y-58218D01*
X57093Y-58162D01*
X57093Y-58102D01*
X57093Y-58022D01*
X57056Y-57985D01*
X56712Y-57985D01*
X56712Y-58008D01*
X56385Y-58008D01*
X56385Y-57985D01*
X56377Y-57985D01*
X56377Y-57689D01*
X56385Y-57689D01*
X56385Y-57428D01*
X56347Y-57390D01*
X56237Y-57390D01*
X56237Y-56666D01*
G54D10*
G36*
X56237Y-51331D02*
X56243Y-51337D01*
X56283Y-51353D01*
X56326Y-51353D01*
X56485Y-51353D01*
X56499Y-51375D01*
X56499Y-51375D01*
X57099Y-51975D01*
X57145Y-52005D01*
X57200Y-52016D01*
X57399Y-52016D01*
X57364Y-52051D01*
X57331Y-52131D01*
X57331Y-52218D01*
X57364Y-52298D01*
X57408Y-52342D01*
X57408Y-54275D01*
X57417Y-54320D01*
X57419Y-54329D01*
X57419Y-54329D01*
X57449Y-54375D01*
X57449Y-54375D01*
X57931Y-54856D01*
X57931Y-54918D01*
X57964Y-54998D01*
X58026Y-55060D01*
X58106Y-55093D01*
X58193Y-55093D01*
X58273Y-55060D01*
X58335Y-54998D01*
X58368Y-54918D01*
X58368Y-54831D01*
X58335Y-54751D01*
X58273Y-54689D01*
X58193Y-54656D01*
X58131Y-54656D01*
X57691Y-54216D01*
X57691Y-52342D01*
X57735Y-52298D01*
X57768Y-52218D01*
X57768Y-52131D01*
X57735Y-52051D01*
X57700Y-52016D01*
X58116Y-52016D01*
X59308Y-53208D01*
X59308Y-55050D01*
X59319Y-55104D01*
X59349Y-55150D01*
X59349Y-55150D01*
X59506Y-55306D01*
X59506Y-55368D01*
X59539Y-55448D01*
X59601Y-55510D01*
X59681Y-55543D01*
X59768Y-55543D01*
X59848Y-55510D01*
X59910Y-55448D01*
X59924Y-55413D01*
X59939Y-55448D01*
X60001Y-55510D01*
X60081Y-55543D01*
X60168Y-55543D01*
X60248Y-55510D01*
X60310Y-55448D01*
X60343Y-55368D01*
X60343Y-55281D01*
X60310Y-55201D01*
X60248Y-55139D01*
X60168Y-55106D01*
X60106Y-55106D01*
X59766Y-54766D01*
X59766Y-54402D01*
X59806Y-54418D01*
X59893Y-54418D01*
X59973Y-54385D01*
X60035Y-54323D01*
X60068Y-54243D01*
X60068Y-54156D01*
X60035Y-54076D01*
X59991Y-54032D01*
X59991Y-53100D01*
X59980Y-53045D01*
X59950Y-52999D01*
X58425Y-51474D01*
X58425Y-51474D01*
X58379Y-51444D01*
X58325Y-51433D01*
X57958Y-51433D01*
X57878Y-51353D01*
X57916Y-51353D01*
X57956Y-51337D01*
X57987Y-51306D01*
X58003Y-51266D01*
X58003Y-51223D01*
X58003Y-50633D01*
X57987Y-50593D01*
X57956Y-50562D01*
X57916Y-50546D01*
X57873Y-50546D01*
X57666Y-50546D01*
X57666Y-49442D01*
X57799Y-49575D01*
X57845Y-49605D01*
X57900Y-49616D01*
X57778Y-49616D01*
X57738Y-49633D01*
X57708Y-49663D01*
X57691Y-49703D01*
X57691Y-49746D01*
X57691Y-50346D01*
X57708Y-50386D01*
X57738Y-50416D01*
X57778Y-50433D01*
X57821Y-50433D01*
X58421Y-50433D01*
X58458Y-50418D01*
X58458Y-50546D01*
X58283Y-50546D01*
X58243Y-50562D01*
X58212Y-50593D01*
X58196Y-50633D01*
X58196Y-50676D01*
X58196Y-51266D01*
X58212Y-51306D01*
X58243Y-51337D01*
X58283Y-51353D01*
X58326Y-51353D01*
X58528Y-51353D01*
X60158Y-52983D01*
X60158Y-54457D01*
X60114Y-54501D01*
X60081Y-54581D01*
X60081Y-54668D01*
X60114Y-54748D01*
X60176Y-54810D01*
X60256Y-54843D01*
X60343Y-54843D01*
X60423Y-54810D01*
X60485Y-54748D01*
X60518Y-54668D01*
X60518Y-54581D01*
X60485Y-54501D01*
X60441Y-54457D01*
X60441Y-52950D01*
X60441Y-52925D01*
X60430Y-52870D01*
X60400Y-52824D01*
X59265Y-51689D01*
X59275Y-51691D01*
X59841Y-51691D01*
X60706Y-52556D01*
X60706Y-52618D01*
X60739Y-52698D01*
X60801Y-52760D01*
X60881Y-52793D01*
X60968Y-52793D01*
X61033Y-52766D01*
X61033Y-54491D01*
X60918Y-54606D01*
X60856Y-54606D01*
X60776Y-54639D01*
X60714Y-54701D01*
X60681Y-54781D01*
X60681Y-54868D01*
X60714Y-54948D01*
X60776Y-55010D01*
X60856Y-55043D01*
X60931Y-55043D01*
X60931Y-55068D01*
X60964Y-55148D01*
X60999Y-55183D01*
X60917Y-55183D01*
X60873Y-55139D01*
X60793Y-55106D01*
X60706Y-55106D01*
X60626Y-55139D01*
X60564Y-55201D01*
X60531Y-55281D01*
X60531Y-55368D01*
X60564Y-55448D01*
X60626Y-55510D01*
X60706Y-55543D01*
X60793Y-55543D01*
X60873Y-55510D01*
X60917Y-55466D01*
X61225Y-55466D01*
X61279Y-55455D01*
X61325Y-55425D01*
X61575Y-55175D01*
X61605Y-55129D01*
X61616Y-55075D01*
X61616Y-52790D01*
X61721Y-52895D01*
X61691Y-52968D01*
X61691Y-53130D01*
X61753Y-53280D01*
X61868Y-53395D01*
X62018Y-53458D01*
X62180Y-53458D01*
X62330Y-53396D01*
X62445Y-53281D01*
X62508Y-53131D01*
X62508Y-52969D01*
X62446Y-52819D01*
X62331Y-52704D01*
X62181Y-52641D01*
X62019Y-52641D01*
X61945Y-52671D01*
X61808Y-52534D01*
X61808Y-52501D01*
X61830Y-52501D01*
X61912Y-52501D01*
X61950Y-52463D01*
X61950Y-52200D01*
X61928Y-52200D01*
X61928Y-51900D01*
X61950Y-51900D01*
X61950Y-51878D01*
X62250Y-51878D01*
X62250Y-51900D01*
X62250Y-52200D01*
X62250Y-52463D01*
X62287Y-52501D01*
X62369Y-52501D01*
X62430Y-52501D01*
X62485Y-52478D01*
X62528Y-52435D01*
X62551Y-52380D01*
X62551Y-52237D01*
X62513Y-52200D01*
X62250Y-52200D01*
X62250Y-51900D01*
X62513Y-51900D01*
X62551Y-51862D01*
X62551Y-51719D01*
X62528Y-51664D01*
X62485Y-51621D01*
X62430Y-51598D01*
X62369Y-51598D01*
X62287Y-51598D01*
X62263Y-51622D01*
X62263Y-51598D01*
X62250Y-51598D01*
X62175Y-51598D01*
X62250Y-51523D01*
X62420Y-51353D01*
X62916Y-51353D01*
X62956Y-51337D01*
X62962Y-51331D01*
X62962Y-54284D01*
X62235Y-54284D01*
X62196Y-54300D01*
X62165Y-54331D01*
X62149Y-54370D01*
X62149Y-54414D01*
X62149Y-54562D01*
X62111Y-54587D01*
X61974Y-54724D01*
X61974Y-54724D01*
X61944Y-54770D01*
X61944Y-54770D01*
X61942Y-54779D01*
X61933Y-54825D01*
X61933Y-54825D01*
X61933Y-55116D01*
X61391Y-55658D01*
X59525Y-55658D01*
X59525Y-55658D01*
X59470Y-55669D01*
X59424Y-55699D01*
X59224Y-55899D01*
X59224Y-55899D01*
X59194Y-55945D01*
X59194Y-55945D01*
X59192Y-55954D01*
X59183Y-56000D01*
X59183Y-56000D01*
X59183Y-56607D01*
X58421Y-55846D01*
X58448Y-55835D01*
X58510Y-55773D01*
X58543Y-55693D01*
X58543Y-55606D01*
X58510Y-55526D01*
X58448Y-55464D01*
X58368Y-55431D01*
X58306Y-55431D01*
X57975Y-55099D01*
X57975Y-55099D01*
X57929Y-55069D01*
X57875Y-55058D01*
X57258Y-55058D01*
X57050Y-54850D01*
X57050Y-54370D01*
X57034Y-54331D01*
X57003Y-54300D01*
X56964Y-54284D01*
X56920Y-54284D01*
X56237Y-54284D01*
X56237Y-51331D01*
X56237Y-51331D01*
G37*
G54D17*
X56237Y-51331D02*
X56243Y-51337D01*
X56283Y-51353D01*
X56326Y-51353D01*
X56485Y-51353D01*
X56499Y-51375D01*
X56499Y-51375D01*
X57099Y-51975D01*
X57145Y-52005D01*
X57200Y-52016D01*
X57399Y-52016D01*
X57364Y-52051D01*
X57331Y-52131D01*
X57331Y-52218D01*
X57364Y-52298D01*
X57408Y-52342D01*
X57408Y-54275D01*
X57417Y-54320D01*
X57419Y-54329D01*
X57419Y-54329D01*
X57449Y-54375D01*
X57449Y-54375D01*
X57931Y-54856D01*
X57931Y-54918D01*
X57964Y-54998D01*
X58026Y-55060D01*
X58106Y-55093D01*
X58193Y-55093D01*
X58273Y-55060D01*
X58335Y-54998D01*
X58368Y-54918D01*
X58368Y-54831D01*
X58335Y-54751D01*
X58273Y-54689D01*
X58193Y-54656D01*
X58131Y-54656D01*
X57691Y-54216D01*
X57691Y-52342D01*
X57735Y-52298D01*
X57768Y-52218D01*
X57768Y-52131D01*
X57735Y-52051D01*
X57700Y-52016D01*
X58116Y-52016D01*
X59308Y-53208D01*
X59308Y-55050D01*
X59319Y-55104D01*
X59349Y-55150D01*
X59349Y-55150D01*
X59506Y-55306D01*
X59506Y-55368D01*
X59539Y-55448D01*
X59601Y-55510D01*
X59681Y-55543D01*
X59768Y-55543D01*
X59848Y-55510D01*
X59910Y-55448D01*
X59924Y-55413D01*
X59939Y-55448D01*
X60001Y-55510D01*
X60081Y-55543D01*
X60168Y-55543D01*
X60248Y-55510D01*
X60310Y-55448D01*
X60343Y-55368D01*
X60343Y-55281D01*
X60310Y-55201D01*
X60248Y-55139D01*
X60168Y-55106D01*
X60106Y-55106D01*
X59766Y-54766D01*
X59766Y-54402D01*
X59806Y-54418D01*
X59893Y-54418D01*
X59973Y-54385D01*
X60035Y-54323D01*
X60068Y-54243D01*
X60068Y-54156D01*
X60035Y-54076D01*
X59991Y-54032D01*
X59991Y-53100D01*
X59980Y-53045D01*
X59950Y-52999D01*
X58425Y-51474D01*
X58425Y-51474D01*
X58379Y-51444D01*
X58325Y-51433D01*
X57958Y-51433D01*
X57878Y-51353D01*
X57916Y-51353D01*
X57956Y-51337D01*
X57987Y-51306D01*
X58003Y-51266D01*
X58003Y-51223D01*
X58003Y-50633D01*
X57987Y-50593D01*
X57956Y-50562D01*
X57916Y-50546D01*
X57873Y-50546D01*
X57666Y-50546D01*
X57666Y-49442D01*
X57799Y-49575D01*
X57845Y-49605D01*
X57900Y-49616D01*
X57778Y-49616D01*
X57738Y-49633D01*
X57708Y-49663D01*
X57691Y-49703D01*
X57691Y-49746D01*
X57691Y-50346D01*
X57708Y-50386D01*
X57738Y-50416D01*
X57778Y-50433D01*
X57821Y-50433D01*
X58421Y-50433D01*
X58458Y-50418D01*
X58458Y-50546D01*
X58283Y-50546D01*
X58243Y-50562D01*
X58212Y-50593D01*
X58196Y-50633D01*
X58196Y-50676D01*
X58196Y-51266D01*
X58212Y-51306D01*
X58243Y-51337D01*
X58283Y-51353D01*
X58326Y-51353D01*
X58528Y-51353D01*
X60158Y-52983D01*
X60158Y-54457D01*
X60114Y-54501D01*
X60081Y-54581D01*
X60081Y-54668D01*
X60114Y-54748D01*
X60176Y-54810D01*
X60256Y-54843D01*
X60343Y-54843D01*
X60423Y-54810D01*
X60485Y-54748D01*
X60518Y-54668D01*
X60518Y-54581D01*
X60485Y-54501D01*
X60441Y-54457D01*
X60441Y-52950D01*
X60441Y-52925D01*
X60430Y-52870D01*
X60400Y-52824D01*
X59265Y-51689D01*
X59275Y-51691D01*
X59841Y-51691D01*
X60706Y-52556D01*
X60706Y-52618D01*
X60739Y-52698D01*
X60801Y-52760D01*
X60881Y-52793D01*
X60968Y-52793D01*
X61033Y-52766D01*
X61033Y-54491D01*
X60918Y-54606D01*
X60856Y-54606D01*
X60776Y-54639D01*
X60714Y-54701D01*
X60681Y-54781D01*
X60681Y-54868D01*
X60714Y-54948D01*
X60776Y-55010D01*
X60856Y-55043D01*
X60931Y-55043D01*
X60931Y-55068D01*
X60964Y-55148D01*
X60999Y-55183D01*
X60917Y-55183D01*
X60873Y-55139D01*
X60793Y-55106D01*
X60706Y-55106D01*
X60626Y-55139D01*
X60564Y-55201D01*
X60531Y-55281D01*
X60531Y-55368D01*
X60564Y-55448D01*
X60626Y-55510D01*
X60706Y-55543D01*
X60793Y-55543D01*
X60873Y-55510D01*
X60917Y-55466D01*
X61225Y-55466D01*
X61279Y-55455D01*
X61325Y-55425D01*
X61575Y-55175D01*
X61605Y-55129D01*
X61616Y-55075D01*
X61616Y-52790D01*
X61721Y-52895D01*
X61691Y-52968D01*
X61691Y-53130D01*
X61753Y-53280D01*
X61868Y-53395D01*
X62018Y-53458D01*
X62180Y-53458D01*
X62330Y-53396D01*
X62445Y-53281D01*
X62508Y-53131D01*
X62508Y-52969D01*
X62446Y-52819D01*
X62331Y-52704D01*
X62181Y-52641D01*
X62019Y-52641D01*
X61945Y-52671D01*
X61808Y-52534D01*
X61808Y-52501D01*
X61830Y-52501D01*
X61912Y-52501D01*
X61950Y-52463D01*
X61950Y-52200D01*
X61928Y-52200D01*
X61928Y-51900D01*
X61950Y-51900D01*
X61950Y-51878D01*
X62250Y-51878D01*
X62250Y-51900D01*
X62250Y-52200D01*
X62250Y-52463D01*
X62287Y-52501D01*
X62369Y-52501D01*
X62430Y-52501D01*
X62485Y-52478D01*
X62528Y-52435D01*
X62551Y-52380D01*
X62551Y-52237D01*
X62513Y-52200D01*
X62250Y-52200D01*
X62250Y-51900D01*
X62513Y-51900D01*
X62551Y-51862D01*
X62551Y-51719D01*
X62528Y-51664D01*
X62485Y-51621D01*
X62430Y-51598D01*
X62369Y-51598D01*
X62287Y-51598D01*
X62263Y-51622D01*
X62263Y-51598D01*
X62250Y-51598D01*
X62175Y-51598D01*
X62250Y-51523D01*
X62420Y-51353D01*
X62916Y-51353D01*
X62956Y-51337D01*
X62962Y-51331D01*
X62962Y-54284D01*
X62235Y-54284D01*
X62196Y-54300D01*
X62165Y-54331D01*
X62149Y-54370D01*
X62149Y-54414D01*
X62149Y-54562D01*
X62111Y-54587D01*
X61974Y-54724D01*
X61974Y-54724D01*
X61944Y-54770D01*
X61944Y-54770D01*
X61942Y-54779D01*
X61933Y-54825D01*
X61933Y-54825D01*
X61933Y-55116D01*
X61391Y-55658D01*
X59525Y-55658D01*
X59525Y-55658D01*
X59470Y-55669D01*
X59424Y-55699D01*
X59224Y-55899D01*
X59224Y-55899D01*
X59194Y-55945D01*
X59194Y-55945D01*
X59192Y-55954D01*
X59183Y-56000D01*
X59183Y-56000D01*
X59183Y-56607D01*
X58421Y-55846D01*
X58448Y-55835D01*
X58510Y-55773D01*
X58543Y-55693D01*
X58543Y-55606D01*
X58510Y-55526D01*
X58448Y-55464D01*
X58368Y-55431D01*
X58306Y-55431D01*
X57975Y-55099D01*
X57975Y-55099D01*
X57929Y-55069D01*
X57875Y-55058D01*
X57258Y-55058D01*
X57050Y-54850D01*
X57050Y-54370D01*
X57034Y-54331D01*
X57003Y-54300D01*
X56964Y-54284D01*
X56920Y-54284D01*
X56237Y-54284D01*
X56237Y-51331D01*
M02*
