G04 (created by PCBNEW (2013-mar-13)-testing) date Di 12 Nov 2013 11:00:42 CET*
%MOIN*%
G04 Gerber Fmt 3.4, Leading zero omitted, Abs format*
%FSLAX34Y34*%
G01*
G70*
G90*
G04 APERTURE LIST*
%ADD10C,0.005906*%
%ADD11C,0.007874*%
%ADD12C,0.005000*%
%ADD13C,0.006000*%
%ADD14C,0.012000*%
%ADD15C,0.006299*%
%ADD16C,0.004500*%
G04 APERTURE END LIST*
G54D10*
X55600Y-54375D02*
X55600Y-62175D01*
X56100Y-54375D02*
X55600Y-54375D01*
X56100Y-60225D02*
X56100Y-54375D01*
X56100Y-52275D02*
X56100Y-44475D01*
X55600Y-52275D02*
X56100Y-52275D01*
X55600Y-46425D02*
X55600Y-52275D01*
X62777Y-50227D02*
X62777Y-50045D01*
X62867Y-50264D02*
X62552Y-50136D01*
X62867Y-50009D01*
X62867Y-49682D02*
X62867Y-49900D01*
X62867Y-49791D02*
X62552Y-49791D01*
X62597Y-49827D01*
X62627Y-49864D01*
X62642Y-49900D01*
X62777Y-49245D02*
X62777Y-49063D01*
X62867Y-49282D02*
X62552Y-49154D01*
X62867Y-49027D01*
X62582Y-48918D02*
X62567Y-48900D01*
X62552Y-48863D01*
X62552Y-48772D01*
X62567Y-48736D01*
X62582Y-48718D01*
X62612Y-48700D01*
X62642Y-48700D01*
X62687Y-48718D01*
X62867Y-48936D01*
X62867Y-48700D01*
X62777Y-48263D02*
X62777Y-48081D01*
X62867Y-48300D02*
X62552Y-48172D01*
X62867Y-48045D01*
X62552Y-47954D02*
X62552Y-47718D01*
X62672Y-47845D01*
X62672Y-47790D01*
X62687Y-47754D01*
X62702Y-47736D01*
X62732Y-47718D01*
X62807Y-47718D01*
X62837Y-47736D01*
X62852Y-47754D01*
X62867Y-47790D01*
X62867Y-47900D01*
X62852Y-47936D01*
X62837Y-47954D01*
X62777Y-47281D02*
X62777Y-47099D01*
X62867Y-47318D02*
X62552Y-47190D01*
X62867Y-47063D01*
X62657Y-46772D02*
X62867Y-46772D01*
X62537Y-46863D02*
X62762Y-46954D01*
X62762Y-46718D01*
X62777Y-46299D02*
X62777Y-46117D01*
X62867Y-46336D02*
X62552Y-46208D01*
X62867Y-46081D01*
X62552Y-45772D02*
X62552Y-45954D01*
X62702Y-45972D01*
X62687Y-45954D01*
X62672Y-45917D01*
X62672Y-45826D01*
X62687Y-45790D01*
X62702Y-45772D01*
X62732Y-45754D01*
X62807Y-45754D01*
X62837Y-45772D01*
X62852Y-45790D01*
X62867Y-45826D01*
X62867Y-45917D01*
X62852Y-45954D01*
X62837Y-45972D01*
X62777Y-45317D02*
X62777Y-45135D01*
X62867Y-45354D02*
X62552Y-45226D01*
X62867Y-45099D01*
X62552Y-45008D02*
X62552Y-44754D01*
X62867Y-44917D01*
X62872Y-53299D02*
X62872Y-53059D01*
X62992Y-53179D02*
X62752Y-53179D01*
X62872Y-52190D02*
X62872Y-51950D01*
X56909Y-59872D02*
X56759Y-59872D01*
X56939Y-59782D02*
X56834Y-60097D01*
X56729Y-59782D01*
X56624Y-59782D02*
X56624Y-60097D01*
X56445Y-59782D01*
X56445Y-60097D01*
X56340Y-60097D02*
X56160Y-60097D01*
X56250Y-59782D02*
X56250Y-60097D01*
X62802Y-54624D02*
X62817Y-54579D01*
X62832Y-54564D01*
X62862Y-54549D01*
X62907Y-54549D01*
X62937Y-54564D01*
X62952Y-54579D01*
X62967Y-54609D01*
X62967Y-54729D01*
X62652Y-54729D01*
X62652Y-54624D01*
X62667Y-54594D01*
X62682Y-54579D01*
X62712Y-54564D01*
X62742Y-54564D01*
X62772Y-54579D01*
X62787Y-54594D01*
X62802Y-54624D01*
X62802Y-54729D01*
X62967Y-54280D02*
X62802Y-54280D01*
X62772Y-54295D01*
X62757Y-54325D01*
X62757Y-54384D01*
X62772Y-54414D01*
X62952Y-54280D02*
X62967Y-54310D01*
X62967Y-54384D01*
X62952Y-54414D01*
X62922Y-54429D01*
X62892Y-54429D01*
X62862Y-54414D01*
X62847Y-54384D01*
X62847Y-54310D01*
X62832Y-54280D01*
X62757Y-54175D02*
X62757Y-54055D01*
X62652Y-54130D02*
X62922Y-54130D01*
X62952Y-54115D01*
X62967Y-54085D01*
X62967Y-54055D01*
X62757Y-53995D02*
X62757Y-53875D01*
X62652Y-53950D02*
X62922Y-53950D01*
X62952Y-53935D01*
X62967Y-53905D01*
X62967Y-53875D01*
X62834Y-51707D02*
X62869Y-51722D01*
X62921Y-51722D01*
X62973Y-51707D01*
X63008Y-51677D01*
X63026Y-51647D01*
X63043Y-51587D01*
X63043Y-51542D01*
X63026Y-51482D01*
X63008Y-51452D01*
X62973Y-51422D01*
X62921Y-51407D01*
X62886Y-51407D01*
X62834Y-51422D01*
X62816Y-51437D01*
X62816Y-51542D01*
X62886Y-51542D01*
X62659Y-51407D02*
X62659Y-51722D01*
X62450Y-51407D01*
X62450Y-51722D01*
X62276Y-51407D02*
X62276Y-51722D01*
X62189Y-51722D01*
X62136Y-51707D01*
X62101Y-51677D01*
X62084Y-51647D01*
X62067Y-51587D01*
X62067Y-51542D01*
X62084Y-51482D01*
X62101Y-51452D01*
X62136Y-51422D01*
X62189Y-51407D01*
X62276Y-51407D01*
X61631Y-51407D02*
X61631Y-51722D01*
X61544Y-51722D01*
X61491Y-51707D01*
X61456Y-51677D01*
X61439Y-51647D01*
X61421Y-51587D01*
X61421Y-51542D01*
X61439Y-51482D01*
X61456Y-51452D01*
X61491Y-51422D01*
X61544Y-51407D01*
X61631Y-51407D01*
X61195Y-51722D02*
X61160Y-51722D01*
X61125Y-51707D01*
X61108Y-51692D01*
X61090Y-51662D01*
X61073Y-51602D01*
X61073Y-51527D01*
X61090Y-51467D01*
X61108Y-51437D01*
X61125Y-51422D01*
X61160Y-51407D01*
X61195Y-51407D01*
X61230Y-51422D01*
X61247Y-51437D01*
X61265Y-51467D01*
X61282Y-51527D01*
X61282Y-51602D01*
X61265Y-51662D01*
X61247Y-51692D01*
X61230Y-51707D01*
X61195Y-51722D01*
X60637Y-51407D02*
X60637Y-51722D01*
X60550Y-51722D01*
X60497Y-51707D01*
X60463Y-51677D01*
X60445Y-51647D01*
X60428Y-51587D01*
X60428Y-51542D01*
X60445Y-51482D01*
X60463Y-51452D01*
X60497Y-51422D01*
X60550Y-51407D01*
X60637Y-51407D01*
X60079Y-51407D02*
X60288Y-51407D01*
X60184Y-51407D02*
X60184Y-51722D01*
X60218Y-51677D01*
X60253Y-51647D01*
X60288Y-51632D01*
X59643Y-51407D02*
X59643Y-51722D01*
X59556Y-51722D01*
X59504Y-51707D01*
X59469Y-51677D01*
X59451Y-51647D01*
X59434Y-51587D01*
X59434Y-51542D01*
X59451Y-51482D01*
X59469Y-51452D01*
X59504Y-51422D01*
X59556Y-51407D01*
X59643Y-51407D01*
X59312Y-51722D02*
X59085Y-51722D01*
X59207Y-51602D01*
X59155Y-51602D01*
X59120Y-51587D01*
X59103Y-51572D01*
X59085Y-51542D01*
X59085Y-51467D01*
X59103Y-51437D01*
X59120Y-51422D01*
X59155Y-51407D01*
X59260Y-51407D01*
X59294Y-51422D01*
X59312Y-51437D01*
X58649Y-51407D02*
X58649Y-51722D01*
X58562Y-51722D01*
X58510Y-51707D01*
X58475Y-51677D01*
X58457Y-51647D01*
X58440Y-51587D01*
X58440Y-51542D01*
X58457Y-51482D01*
X58475Y-51452D01*
X58510Y-51422D01*
X58562Y-51407D01*
X58649Y-51407D01*
X58126Y-51617D02*
X58126Y-51407D01*
X58213Y-51737D02*
X58301Y-51512D01*
X58074Y-51512D01*
X57655Y-51407D02*
X57655Y-51722D01*
X57568Y-51722D01*
X57516Y-51707D01*
X57481Y-51677D01*
X57464Y-51647D01*
X57446Y-51587D01*
X57446Y-51542D01*
X57464Y-51482D01*
X57481Y-51452D01*
X57516Y-51422D01*
X57568Y-51407D01*
X57655Y-51407D01*
X57115Y-51722D02*
X57289Y-51722D01*
X57307Y-51572D01*
X57289Y-51587D01*
X57254Y-51602D01*
X57167Y-51602D01*
X57132Y-51587D01*
X57115Y-51572D01*
X57098Y-51542D01*
X57098Y-51467D01*
X57115Y-51437D01*
X57132Y-51422D01*
X57167Y-51407D01*
X57254Y-51407D01*
X57289Y-51422D01*
X57307Y-51437D01*
X56679Y-51497D02*
X56505Y-51497D01*
X56714Y-51407D02*
X56592Y-51722D01*
X56470Y-51407D01*
X56278Y-51722D02*
X56243Y-51722D01*
X56208Y-51707D01*
X56191Y-51692D01*
X56173Y-51662D01*
X56156Y-51602D01*
X56156Y-51527D01*
X56173Y-51467D01*
X56191Y-51437D01*
X56208Y-51422D01*
X56243Y-51407D01*
X56278Y-51407D01*
X56313Y-51422D01*
X56330Y-51437D01*
X56348Y-51467D01*
X56365Y-51527D01*
X56365Y-51602D01*
X56348Y-51662D01*
X56330Y-51692D01*
X56313Y-51707D01*
X56278Y-51722D01*
X63100Y-44475D02*
X63100Y-60225D01*
X56100Y-44475D02*
X63100Y-44475D01*
G54D11*
X63100Y-50450D02*
X62700Y-50450D01*
X62500Y-50450D02*
X62100Y-50450D01*
X61900Y-50450D02*
X61500Y-50450D01*
X61300Y-50450D02*
X60900Y-50450D01*
X60700Y-50450D02*
X60300Y-50450D01*
X60100Y-50450D02*
X59700Y-50450D01*
X59500Y-50450D02*
X59100Y-50450D01*
X58900Y-50450D02*
X58500Y-50450D01*
X58300Y-50450D02*
X57900Y-50450D01*
X57700Y-50450D02*
X57300Y-50450D01*
X57100Y-50450D02*
X56700Y-50450D01*
X56500Y-50450D02*
X56100Y-50450D01*
G54D10*
X58875Y-60450D02*
G75*
G03X58650Y-60225I-225J0D01*
G74*
G01*
X58650Y-60675D02*
G75*
G03X58875Y-60450I0J225D01*
G74*
G01*
X60325Y-60225D02*
G75*
G03X60125Y-60425I0J-200D01*
G74*
G01*
X60125Y-60425D02*
G75*
G03X60325Y-60625I200J0D01*
G74*
G01*
X60325Y-60225D02*
X63100Y-60225D01*
X58650Y-60225D02*
X56100Y-60225D01*
X56422Y-44610D02*
X56422Y-44792D01*
X56332Y-44574D02*
X56647Y-44701D01*
X56332Y-44829D01*
X56647Y-45029D02*
X56647Y-45065D01*
X56632Y-45101D01*
X56617Y-45120D01*
X56587Y-45138D01*
X56527Y-45156D01*
X56452Y-45156D01*
X56392Y-45138D01*
X56362Y-45120D01*
X56347Y-45101D01*
X56332Y-45065D01*
X56332Y-45029D01*
X56347Y-44992D01*
X56362Y-44974D01*
X56392Y-44956D01*
X56452Y-44938D01*
X56527Y-44938D01*
X56587Y-44956D01*
X56617Y-44974D01*
X56632Y-44992D01*
X56647Y-45029D01*
X56332Y-45611D02*
X56647Y-45611D01*
X56647Y-45701D01*
X56632Y-45756D01*
X56602Y-45792D01*
X56572Y-45811D01*
X56512Y-45829D01*
X56467Y-45829D01*
X56407Y-45811D01*
X56377Y-45792D01*
X56347Y-45756D01*
X56332Y-45701D01*
X56332Y-45611D01*
X56647Y-46174D02*
X56647Y-45992D01*
X56497Y-45974D01*
X56512Y-45992D01*
X56527Y-46029D01*
X56527Y-46120D01*
X56512Y-46156D01*
X56497Y-46174D01*
X56467Y-46192D01*
X56392Y-46192D01*
X56362Y-46174D01*
X56347Y-46156D01*
X56332Y-46120D01*
X56332Y-46029D01*
X56347Y-45992D01*
X56362Y-45974D01*
X56332Y-46647D02*
X56647Y-46647D01*
X56647Y-46738D01*
X56632Y-46793D01*
X56602Y-46829D01*
X56572Y-46847D01*
X56512Y-46865D01*
X56467Y-46865D01*
X56407Y-46847D01*
X56377Y-46829D01*
X56347Y-46793D01*
X56332Y-46738D01*
X56332Y-46647D01*
X56542Y-47193D02*
X56332Y-47193D01*
X56662Y-47102D02*
X56437Y-47011D01*
X56437Y-47247D01*
X56332Y-47684D02*
X56647Y-47684D01*
X56647Y-47775D01*
X56632Y-47829D01*
X56602Y-47865D01*
X56572Y-47884D01*
X56512Y-47902D01*
X56467Y-47902D01*
X56407Y-47884D01*
X56377Y-47865D01*
X56347Y-47829D01*
X56332Y-47775D01*
X56332Y-47684D01*
X56647Y-48029D02*
X56647Y-48266D01*
X56527Y-48138D01*
X56527Y-48193D01*
X56512Y-48229D01*
X56497Y-48247D01*
X56467Y-48266D01*
X56392Y-48266D01*
X56362Y-48247D01*
X56347Y-48229D01*
X56332Y-48193D01*
X56332Y-48084D01*
X56347Y-48047D01*
X56362Y-48029D01*
X56332Y-48720D02*
X56647Y-48720D01*
X56647Y-48811D01*
X56632Y-48866D01*
X56602Y-48902D01*
X56572Y-48920D01*
X56512Y-48938D01*
X56467Y-48938D01*
X56407Y-48920D01*
X56377Y-48902D01*
X56347Y-48866D01*
X56332Y-48811D01*
X56332Y-48720D01*
X56332Y-49302D02*
X56332Y-49084D01*
X56332Y-49193D02*
X56647Y-49193D01*
X56602Y-49157D01*
X56572Y-49120D01*
X56557Y-49084D01*
X56332Y-49757D02*
X56647Y-49757D01*
X56647Y-49848D01*
X56632Y-49902D01*
X56602Y-49939D01*
X56572Y-49957D01*
X56512Y-49975D01*
X56467Y-49975D01*
X56407Y-49957D01*
X56377Y-49939D01*
X56347Y-49902D01*
X56332Y-49848D01*
X56332Y-49757D01*
X56647Y-50211D02*
X56647Y-50248D01*
X56632Y-50284D01*
X56617Y-50302D01*
X56587Y-50320D01*
X56527Y-50339D01*
X56452Y-50339D01*
X56392Y-50320D01*
X56362Y-50302D01*
X56347Y-50284D01*
X56332Y-50248D01*
X56332Y-50211D01*
X56347Y-50175D01*
X56362Y-50157D01*
X56392Y-50139D01*
X56452Y-50120D01*
X56527Y-50120D01*
X56587Y-50139D01*
X56617Y-50157D01*
X56632Y-50175D01*
X56647Y-50211D01*
X60325Y-60625D02*
X62550Y-60625D01*
X62282Y-62057D02*
X62312Y-62072D01*
X62357Y-62072D01*
X62402Y-62057D01*
X62432Y-62027D01*
X62447Y-61997D01*
X62462Y-61937D01*
X62462Y-61892D01*
X62447Y-61832D01*
X62432Y-61802D01*
X62402Y-61772D01*
X62357Y-61757D01*
X62327Y-61757D01*
X62282Y-61772D01*
X62267Y-61787D01*
X62267Y-61892D01*
X62327Y-61892D01*
X62132Y-61757D02*
X62132Y-62072D01*
X61952Y-61757D01*
X61952Y-62072D01*
X61802Y-61757D02*
X61802Y-62072D01*
X61727Y-62072D01*
X61682Y-62057D01*
X61652Y-62027D01*
X61637Y-61997D01*
X61622Y-61937D01*
X61622Y-61892D01*
X61637Y-61832D01*
X61652Y-61802D01*
X61682Y-61772D01*
X61727Y-61757D01*
X61802Y-61757D01*
X61067Y-61757D02*
X61172Y-61907D01*
X61247Y-61757D02*
X61247Y-62072D01*
X61127Y-62072D01*
X61097Y-62057D01*
X61082Y-62042D01*
X61067Y-62012D01*
X61067Y-61967D01*
X61082Y-61937D01*
X61097Y-61922D01*
X61127Y-61907D01*
X61247Y-61907D01*
X60947Y-61772D02*
X60902Y-61757D01*
X60827Y-61757D01*
X60797Y-61772D01*
X60782Y-61787D01*
X60767Y-61817D01*
X60767Y-61847D01*
X60782Y-61877D01*
X60797Y-61892D01*
X60827Y-61907D01*
X60887Y-61922D01*
X60917Y-61937D01*
X60932Y-61952D01*
X60947Y-61982D01*
X60947Y-62012D01*
X60932Y-62042D01*
X60917Y-62057D01*
X60887Y-62072D01*
X60812Y-62072D01*
X60767Y-62057D01*
X60677Y-62072D02*
X60497Y-62072D01*
X60587Y-61757D02*
X60587Y-62072D01*
X60152Y-61757D02*
X60152Y-62072D01*
X60047Y-61847D01*
X59942Y-62072D01*
X59942Y-61757D01*
X59732Y-62072D02*
X59672Y-62072D01*
X59642Y-62057D01*
X59612Y-62027D01*
X59597Y-61967D01*
X59597Y-61862D01*
X59612Y-61802D01*
X59642Y-61772D01*
X59672Y-61757D01*
X59732Y-61757D01*
X59762Y-61772D01*
X59792Y-61802D01*
X59807Y-61862D01*
X59807Y-61967D01*
X59792Y-62027D01*
X59762Y-62057D01*
X59732Y-62072D01*
X59237Y-61772D02*
X59192Y-61757D01*
X59117Y-61757D01*
X59087Y-61772D01*
X59072Y-61787D01*
X59057Y-61817D01*
X59057Y-61847D01*
X59072Y-61877D01*
X59087Y-61892D01*
X59117Y-61907D01*
X59177Y-61922D01*
X59207Y-61937D01*
X59222Y-61952D01*
X59237Y-61982D01*
X59237Y-62012D01*
X59222Y-62042D01*
X59207Y-62057D01*
X59177Y-62072D01*
X59102Y-62072D01*
X59057Y-62057D01*
X58742Y-61787D02*
X58757Y-61772D01*
X58802Y-61757D01*
X58832Y-61757D01*
X58877Y-61772D01*
X58907Y-61802D01*
X58922Y-61832D01*
X58937Y-61892D01*
X58937Y-61937D01*
X58922Y-61997D01*
X58907Y-62027D01*
X58877Y-62057D01*
X58832Y-62072D01*
X58802Y-62072D01*
X58757Y-62057D01*
X58742Y-62042D01*
X58607Y-61757D02*
X58607Y-62072D01*
X58427Y-61757D02*
X58562Y-61937D01*
X58427Y-62072D02*
X58607Y-61892D01*
X58097Y-62072D02*
X57992Y-61757D01*
X57887Y-62072D01*
X57602Y-61787D02*
X57617Y-61772D01*
X57662Y-61757D01*
X57692Y-61757D01*
X57737Y-61772D01*
X57767Y-61802D01*
X57782Y-61832D01*
X57797Y-61892D01*
X57797Y-61937D01*
X57782Y-61997D01*
X57767Y-62027D01*
X57737Y-62057D01*
X57692Y-62072D01*
X57662Y-62072D01*
X57617Y-62057D01*
X57602Y-62042D01*
X57287Y-61787D02*
X57302Y-61772D01*
X57347Y-61757D01*
X57377Y-61757D01*
X57422Y-61772D01*
X57452Y-61802D01*
X57467Y-61832D01*
X57482Y-61892D01*
X57482Y-61937D01*
X57467Y-61997D01*
X57452Y-62027D01*
X57422Y-62057D01*
X57377Y-62072D01*
X57347Y-62072D01*
X57302Y-62057D01*
X57287Y-62042D01*
X56912Y-61757D02*
X56912Y-62072D01*
X56807Y-61847D01*
X56702Y-62072D01*
X56702Y-61757D01*
X56552Y-61757D02*
X56552Y-62072D01*
X58650Y-60675D02*
X56450Y-60675D01*
X56450Y-60675D02*
X56450Y-62175D01*
X56450Y-62175D02*
X62550Y-62175D01*
X62550Y-62175D02*
X62550Y-60625D01*
G54D11*
X59600Y-48525D02*
X61575Y-48525D01*
X60625Y-50450D02*
X60650Y-50450D01*
X60600Y-50450D02*
X60625Y-50450D01*
G54D10*
X61511Y-49640D02*
X61411Y-49384D01*
X61312Y-49640D01*
X61041Y-49408D02*
X61055Y-49396D01*
X61098Y-49384D01*
X61126Y-49384D01*
X61169Y-49396D01*
X61198Y-49420D01*
X61212Y-49445D01*
X61226Y-49493D01*
X61226Y-49530D01*
X61212Y-49579D01*
X61198Y-49603D01*
X61169Y-49627D01*
X61126Y-49640D01*
X61098Y-49640D01*
X61055Y-49627D01*
X61041Y-49615D01*
X60742Y-49408D02*
X60756Y-49396D01*
X60799Y-49384D01*
X60827Y-49384D01*
X60870Y-49396D01*
X60898Y-49420D01*
X60913Y-49445D01*
X60927Y-49493D01*
X60927Y-49530D01*
X60913Y-49579D01*
X60898Y-49603D01*
X60870Y-49627D01*
X60827Y-49640D01*
X60799Y-49640D01*
X60756Y-49627D01*
X60742Y-49615D01*
X60229Y-49627D02*
X60257Y-49640D01*
X60300Y-49640D01*
X60343Y-49627D01*
X60371Y-49603D01*
X60385Y-49579D01*
X60400Y-49530D01*
X60400Y-49493D01*
X60385Y-49445D01*
X60371Y-49420D01*
X60343Y-49396D01*
X60300Y-49384D01*
X60271Y-49384D01*
X60229Y-49396D01*
X60214Y-49408D01*
X60214Y-49493D01*
X60271Y-49493D01*
X60086Y-49384D02*
X60086Y-49640D01*
X59915Y-49384D01*
X59915Y-49640D01*
X59773Y-49384D02*
X59773Y-49640D01*
X59702Y-49640D01*
X59659Y-49627D01*
X59630Y-49603D01*
X59616Y-49579D01*
X59602Y-49530D01*
X59602Y-49493D01*
X59616Y-49445D01*
X59630Y-49420D01*
X59659Y-49396D01*
X59702Y-49384D01*
X59773Y-49384D01*
X59246Y-49384D02*
X59246Y-49640D01*
X59174Y-49640D01*
X59132Y-49627D01*
X59103Y-49603D01*
X59089Y-49579D01*
X59075Y-49530D01*
X59075Y-49493D01*
X59089Y-49445D01*
X59103Y-49420D01*
X59132Y-49396D01*
X59174Y-49384D01*
X59246Y-49384D01*
X58989Y-49640D02*
X58818Y-49640D01*
X58904Y-49384D02*
X58904Y-49640D01*
X58547Y-49384D02*
X58647Y-49506D01*
X58718Y-49384D02*
X58718Y-49640D01*
X58604Y-49640D01*
X58576Y-49627D01*
X58562Y-49615D01*
X58547Y-49591D01*
X58547Y-49554D01*
X58562Y-49530D01*
X58576Y-49518D01*
X58604Y-49506D01*
X58718Y-49506D01*
X58234Y-49640D02*
X58063Y-49640D01*
X58148Y-49384D02*
X58148Y-49640D01*
X57992Y-49640D02*
X57792Y-49384D01*
X57792Y-49640D02*
X57992Y-49384D01*
X57051Y-49384D02*
X57151Y-49506D01*
X57222Y-49384D02*
X57222Y-49640D01*
X57108Y-49640D01*
X57080Y-49627D01*
X57066Y-49615D01*
X57051Y-49591D01*
X57051Y-49554D01*
X57066Y-49530D01*
X57080Y-49518D01*
X57108Y-49506D01*
X57222Y-49506D01*
X56952Y-49640D02*
X56752Y-49384D01*
X56752Y-49640D02*
X56952Y-49384D01*
G54D11*
X59600Y-48525D02*
X59600Y-49275D01*
X59600Y-49275D02*
X56675Y-49275D01*
X52100Y-57375D02*
X55025Y-57375D01*
X52100Y-58125D02*
X52100Y-57375D01*
G54D10*
X50188Y-57009D02*
X50288Y-57265D01*
X50387Y-57009D01*
X50658Y-57241D02*
X50644Y-57253D01*
X50601Y-57265D01*
X50573Y-57265D01*
X50530Y-57253D01*
X50501Y-57229D01*
X50487Y-57204D01*
X50473Y-57156D01*
X50473Y-57119D01*
X50487Y-57070D01*
X50501Y-57046D01*
X50530Y-57022D01*
X50573Y-57009D01*
X50601Y-57009D01*
X50644Y-57022D01*
X50658Y-57034D01*
X50957Y-57241D02*
X50943Y-57253D01*
X50900Y-57265D01*
X50872Y-57265D01*
X50829Y-57253D01*
X50801Y-57229D01*
X50786Y-57204D01*
X50772Y-57156D01*
X50772Y-57119D01*
X50786Y-57070D01*
X50801Y-57046D01*
X50829Y-57022D01*
X50872Y-57009D01*
X50900Y-57009D01*
X50943Y-57022D01*
X50957Y-57034D01*
X51470Y-57022D02*
X51442Y-57009D01*
X51399Y-57009D01*
X51356Y-57022D01*
X51328Y-57046D01*
X51314Y-57070D01*
X51299Y-57119D01*
X51299Y-57156D01*
X51314Y-57204D01*
X51328Y-57229D01*
X51356Y-57253D01*
X51399Y-57265D01*
X51428Y-57265D01*
X51470Y-57253D01*
X51485Y-57241D01*
X51485Y-57156D01*
X51428Y-57156D01*
X51613Y-57265D02*
X51613Y-57009D01*
X51784Y-57265D01*
X51784Y-57009D01*
X51926Y-57265D02*
X51926Y-57009D01*
X51997Y-57009D01*
X52040Y-57022D01*
X52069Y-57046D01*
X52083Y-57070D01*
X52097Y-57119D01*
X52097Y-57156D01*
X52083Y-57204D01*
X52069Y-57229D01*
X52040Y-57253D01*
X51997Y-57265D01*
X51926Y-57265D01*
X52453Y-57265D02*
X52453Y-57009D01*
X52525Y-57009D01*
X52567Y-57022D01*
X52596Y-57046D01*
X52610Y-57070D01*
X52624Y-57119D01*
X52624Y-57156D01*
X52610Y-57204D01*
X52596Y-57229D01*
X52567Y-57253D01*
X52525Y-57265D01*
X52453Y-57265D01*
X52710Y-57009D02*
X52881Y-57009D01*
X52795Y-57265D02*
X52795Y-57009D01*
X53152Y-57265D02*
X53052Y-57143D01*
X52981Y-57265D02*
X52981Y-57009D01*
X53095Y-57009D01*
X53123Y-57022D01*
X53137Y-57034D01*
X53152Y-57058D01*
X53152Y-57095D01*
X53137Y-57119D01*
X53123Y-57131D01*
X53095Y-57143D01*
X52981Y-57143D01*
X53465Y-57009D02*
X53636Y-57009D01*
X53551Y-57265D02*
X53551Y-57009D01*
X53707Y-57009D02*
X53907Y-57265D01*
X53907Y-57009D02*
X53707Y-57265D01*
X54648Y-57265D02*
X54548Y-57143D01*
X54477Y-57265D02*
X54477Y-57009D01*
X54591Y-57009D01*
X54619Y-57022D01*
X54633Y-57034D01*
X54648Y-57058D01*
X54648Y-57095D01*
X54633Y-57119D01*
X54619Y-57131D01*
X54591Y-57143D01*
X54477Y-57143D01*
X54747Y-57009D02*
X54947Y-57265D01*
X54947Y-57009D02*
X54747Y-57265D01*
G54D11*
X51100Y-56200D02*
X51075Y-56200D01*
X51075Y-56200D02*
X51050Y-56200D01*
X52100Y-58125D02*
X50125Y-58125D01*
G54D10*
X49150Y-44475D02*
X49150Y-46025D01*
X55250Y-44475D02*
X49150Y-44475D01*
X55250Y-45975D02*
X55250Y-44475D01*
X53050Y-45975D02*
X55250Y-45975D01*
X49417Y-44592D02*
X49387Y-44577D01*
X49342Y-44577D01*
X49297Y-44592D01*
X49267Y-44622D01*
X49252Y-44652D01*
X49237Y-44712D01*
X49237Y-44757D01*
X49252Y-44817D01*
X49267Y-44847D01*
X49297Y-44877D01*
X49342Y-44892D01*
X49372Y-44892D01*
X49417Y-44877D01*
X49432Y-44862D01*
X49432Y-44757D01*
X49372Y-44757D01*
X49567Y-44892D02*
X49567Y-44577D01*
X49747Y-44892D01*
X49747Y-44577D01*
X49897Y-44892D02*
X49897Y-44577D01*
X49972Y-44577D01*
X50017Y-44592D01*
X50047Y-44622D01*
X50062Y-44652D01*
X50077Y-44712D01*
X50077Y-44757D01*
X50062Y-44817D01*
X50047Y-44847D01*
X50017Y-44877D01*
X49972Y-44892D01*
X49897Y-44892D01*
X50632Y-44892D02*
X50527Y-44742D01*
X50452Y-44892D02*
X50452Y-44577D01*
X50572Y-44577D01*
X50602Y-44592D01*
X50617Y-44607D01*
X50632Y-44637D01*
X50632Y-44682D01*
X50617Y-44712D01*
X50602Y-44727D01*
X50572Y-44742D01*
X50452Y-44742D01*
X50752Y-44877D02*
X50797Y-44892D01*
X50872Y-44892D01*
X50902Y-44877D01*
X50917Y-44862D01*
X50932Y-44832D01*
X50932Y-44802D01*
X50917Y-44772D01*
X50902Y-44757D01*
X50872Y-44742D01*
X50812Y-44727D01*
X50782Y-44712D01*
X50767Y-44697D01*
X50752Y-44667D01*
X50752Y-44637D01*
X50767Y-44607D01*
X50782Y-44592D01*
X50812Y-44577D01*
X50887Y-44577D01*
X50932Y-44592D01*
X51022Y-44577D02*
X51202Y-44577D01*
X51112Y-44892D02*
X51112Y-44577D01*
X51547Y-44892D02*
X51547Y-44577D01*
X51652Y-44802D01*
X51757Y-44577D01*
X51757Y-44892D01*
X51967Y-44577D02*
X52027Y-44577D01*
X52057Y-44592D01*
X52087Y-44622D01*
X52102Y-44682D01*
X52102Y-44787D01*
X52087Y-44847D01*
X52057Y-44877D01*
X52027Y-44892D01*
X51967Y-44892D01*
X51937Y-44877D01*
X51907Y-44847D01*
X51892Y-44787D01*
X51892Y-44682D01*
X51907Y-44622D01*
X51937Y-44592D01*
X51967Y-44577D01*
X52462Y-44877D02*
X52507Y-44892D01*
X52582Y-44892D01*
X52612Y-44877D01*
X52627Y-44862D01*
X52642Y-44832D01*
X52642Y-44802D01*
X52627Y-44772D01*
X52612Y-44757D01*
X52582Y-44742D01*
X52522Y-44727D01*
X52492Y-44712D01*
X52477Y-44697D01*
X52462Y-44667D01*
X52462Y-44637D01*
X52477Y-44607D01*
X52492Y-44592D01*
X52522Y-44577D01*
X52597Y-44577D01*
X52642Y-44592D01*
X52957Y-44862D02*
X52942Y-44877D01*
X52897Y-44892D01*
X52867Y-44892D01*
X52822Y-44877D01*
X52792Y-44847D01*
X52777Y-44817D01*
X52762Y-44757D01*
X52762Y-44712D01*
X52777Y-44652D01*
X52792Y-44622D01*
X52822Y-44592D01*
X52867Y-44577D01*
X52897Y-44577D01*
X52942Y-44592D01*
X52957Y-44607D01*
X53092Y-44892D02*
X53092Y-44577D01*
X53272Y-44892D02*
X53137Y-44712D01*
X53272Y-44577D02*
X53092Y-44757D01*
X53602Y-44577D02*
X53707Y-44892D01*
X53812Y-44577D01*
X54097Y-44862D02*
X54082Y-44877D01*
X54037Y-44892D01*
X54007Y-44892D01*
X53962Y-44877D01*
X53932Y-44847D01*
X53917Y-44817D01*
X53902Y-44757D01*
X53902Y-44712D01*
X53917Y-44652D01*
X53932Y-44622D01*
X53962Y-44592D01*
X54007Y-44577D01*
X54037Y-44577D01*
X54082Y-44592D01*
X54097Y-44607D01*
X54412Y-44862D02*
X54397Y-44877D01*
X54352Y-44892D01*
X54322Y-44892D01*
X54277Y-44877D01*
X54247Y-44847D01*
X54232Y-44817D01*
X54217Y-44757D01*
X54217Y-44712D01*
X54232Y-44652D01*
X54247Y-44622D01*
X54277Y-44592D01*
X54322Y-44577D01*
X54352Y-44577D01*
X54397Y-44592D01*
X54412Y-44607D01*
X54787Y-44892D02*
X54787Y-44577D01*
X54892Y-44802D01*
X54997Y-44577D01*
X54997Y-44892D01*
X55147Y-44892D02*
X55147Y-44577D01*
X51375Y-46025D02*
X49150Y-46025D01*
X55277Y-62039D02*
X55277Y-61857D01*
X55367Y-62075D02*
X55052Y-61948D01*
X55367Y-61820D01*
X55052Y-61620D02*
X55052Y-61584D01*
X55067Y-61548D01*
X55082Y-61529D01*
X55112Y-61511D01*
X55172Y-61493D01*
X55247Y-61493D01*
X55307Y-61511D01*
X55337Y-61529D01*
X55352Y-61548D01*
X55367Y-61584D01*
X55367Y-61620D01*
X55352Y-61657D01*
X55337Y-61675D01*
X55307Y-61693D01*
X55247Y-61711D01*
X55172Y-61711D01*
X55112Y-61693D01*
X55082Y-61675D01*
X55067Y-61657D01*
X55052Y-61620D01*
X55367Y-61038D02*
X55052Y-61038D01*
X55052Y-60948D01*
X55067Y-60893D01*
X55097Y-60857D01*
X55127Y-60838D01*
X55187Y-60820D01*
X55232Y-60820D01*
X55292Y-60838D01*
X55322Y-60857D01*
X55352Y-60893D01*
X55367Y-60948D01*
X55367Y-61038D01*
X55052Y-60475D02*
X55052Y-60657D01*
X55202Y-60675D01*
X55187Y-60657D01*
X55172Y-60620D01*
X55172Y-60529D01*
X55187Y-60493D01*
X55202Y-60475D01*
X55232Y-60457D01*
X55307Y-60457D01*
X55337Y-60475D01*
X55352Y-60493D01*
X55367Y-60529D01*
X55367Y-60620D01*
X55352Y-60657D01*
X55337Y-60675D01*
X55367Y-60002D02*
X55052Y-60002D01*
X55052Y-59911D01*
X55067Y-59856D01*
X55097Y-59820D01*
X55127Y-59802D01*
X55187Y-59784D01*
X55232Y-59784D01*
X55292Y-59802D01*
X55322Y-59820D01*
X55352Y-59856D01*
X55367Y-59911D01*
X55367Y-60002D01*
X55157Y-59456D02*
X55367Y-59456D01*
X55037Y-59547D02*
X55262Y-59638D01*
X55262Y-59402D01*
X55367Y-58965D02*
X55052Y-58965D01*
X55052Y-58874D01*
X55067Y-58820D01*
X55097Y-58784D01*
X55127Y-58765D01*
X55187Y-58747D01*
X55232Y-58747D01*
X55292Y-58765D01*
X55322Y-58784D01*
X55352Y-58820D01*
X55367Y-58874D01*
X55367Y-58965D01*
X55052Y-58620D02*
X55052Y-58383D01*
X55172Y-58511D01*
X55172Y-58456D01*
X55187Y-58420D01*
X55202Y-58402D01*
X55232Y-58383D01*
X55307Y-58383D01*
X55337Y-58402D01*
X55352Y-58420D01*
X55367Y-58456D01*
X55367Y-58565D01*
X55352Y-58602D01*
X55337Y-58620D01*
X55367Y-57929D02*
X55052Y-57929D01*
X55052Y-57838D01*
X55067Y-57783D01*
X55097Y-57747D01*
X55127Y-57729D01*
X55187Y-57711D01*
X55232Y-57711D01*
X55292Y-57729D01*
X55322Y-57747D01*
X55352Y-57783D01*
X55367Y-57838D01*
X55367Y-57929D01*
X55367Y-57347D02*
X55367Y-57565D01*
X55367Y-57456D02*
X55052Y-57456D01*
X55097Y-57492D01*
X55127Y-57529D01*
X55142Y-57565D01*
X55367Y-56892D02*
X55052Y-56892D01*
X55052Y-56801D01*
X55067Y-56747D01*
X55097Y-56710D01*
X55127Y-56692D01*
X55187Y-56674D01*
X55232Y-56674D01*
X55292Y-56692D01*
X55322Y-56710D01*
X55352Y-56747D01*
X55367Y-56801D01*
X55367Y-56892D01*
X55052Y-56438D02*
X55052Y-56401D01*
X55067Y-56365D01*
X55082Y-56347D01*
X55112Y-56329D01*
X55172Y-56310D01*
X55247Y-56310D01*
X55307Y-56329D01*
X55337Y-56347D01*
X55352Y-56365D01*
X55367Y-56401D01*
X55367Y-56438D01*
X55352Y-56474D01*
X55337Y-56492D01*
X55307Y-56510D01*
X55247Y-56529D01*
X55172Y-56529D01*
X55112Y-56510D01*
X55082Y-56492D01*
X55067Y-56474D01*
X55052Y-56438D01*
X53050Y-46425D02*
X55600Y-46425D01*
X51375Y-46425D02*
X48600Y-46425D01*
X51575Y-46225D02*
G75*
G03X51375Y-46025I-200J0D01*
G74*
G01*
X51375Y-46425D02*
G75*
G03X51575Y-46225I0J200D01*
G74*
G01*
X53050Y-45975D02*
G75*
G03X52825Y-46200I0J-225D01*
G74*
G01*
X52825Y-46200D02*
G75*
G03X53050Y-46425I225J0D01*
G74*
G01*
G54D11*
X55200Y-56200D02*
X55600Y-56200D01*
X54600Y-56200D02*
X55000Y-56200D01*
X54000Y-56200D02*
X54400Y-56200D01*
X53400Y-56200D02*
X53800Y-56200D01*
X52800Y-56200D02*
X53200Y-56200D01*
X52200Y-56200D02*
X52600Y-56200D01*
X51600Y-56200D02*
X52000Y-56200D01*
X51000Y-56200D02*
X51400Y-56200D01*
X50400Y-56200D02*
X50800Y-56200D01*
X49800Y-56200D02*
X50200Y-56200D01*
X49200Y-56200D02*
X49600Y-56200D01*
X48600Y-56200D02*
X49000Y-56200D01*
G54D10*
X55600Y-62175D02*
X48600Y-62175D01*
X48600Y-62175D02*
X48600Y-46425D01*
X48865Y-54942D02*
X48830Y-54927D01*
X48778Y-54927D01*
X48726Y-54942D01*
X48691Y-54972D01*
X48673Y-55002D01*
X48656Y-55062D01*
X48656Y-55107D01*
X48673Y-55167D01*
X48691Y-55197D01*
X48726Y-55227D01*
X48778Y-55242D01*
X48813Y-55242D01*
X48865Y-55227D01*
X48883Y-55212D01*
X48883Y-55107D01*
X48813Y-55107D01*
X49040Y-55242D02*
X49040Y-54927D01*
X49249Y-55242D01*
X49249Y-54927D01*
X49423Y-55242D02*
X49423Y-54927D01*
X49510Y-54927D01*
X49563Y-54942D01*
X49598Y-54972D01*
X49615Y-55002D01*
X49632Y-55062D01*
X49632Y-55107D01*
X49615Y-55167D01*
X49598Y-55197D01*
X49563Y-55227D01*
X49510Y-55242D01*
X49423Y-55242D01*
X50068Y-55242D02*
X50068Y-54927D01*
X50155Y-54927D01*
X50208Y-54942D01*
X50243Y-54972D01*
X50260Y-55002D01*
X50278Y-55062D01*
X50278Y-55107D01*
X50260Y-55167D01*
X50243Y-55197D01*
X50208Y-55227D01*
X50155Y-55242D01*
X50068Y-55242D01*
X50504Y-54927D02*
X50539Y-54927D01*
X50574Y-54942D01*
X50591Y-54957D01*
X50609Y-54987D01*
X50626Y-55047D01*
X50626Y-55122D01*
X50609Y-55182D01*
X50591Y-55212D01*
X50574Y-55227D01*
X50539Y-55242D01*
X50504Y-55242D01*
X50469Y-55227D01*
X50452Y-55212D01*
X50434Y-55182D01*
X50417Y-55122D01*
X50417Y-55047D01*
X50434Y-54987D01*
X50452Y-54957D01*
X50469Y-54942D01*
X50504Y-54927D01*
X51062Y-55242D02*
X51062Y-54927D01*
X51149Y-54927D01*
X51202Y-54942D01*
X51236Y-54972D01*
X51254Y-55002D01*
X51271Y-55062D01*
X51271Y-55107D01*
X51254Y-55167D01*
X51236Y-55197D01*
X51202Y-55227D01*
X51149Y-55242D01*
X51062Y-55242D01*
X51620Y-55242D02*
X51411Y-55242D01*
X51515Y-55242D02*
X51515Y-54927D01*
X51481Y-54972D01*
X51446Y-55002D01*
X51411Y-55017D01*
X52056Y-55242D02*
X52056Y-54927D01*
X52143Y-54927D01*
X52195Y-54942D01*
X52230Y-54972D01*
X52248Y-55002D01*
X52265Y-55062D01*
X52265Y-55107D01*
X52248Y-55167D01*
X52230Y-55197D01*
X52195Y-55227D01*
X52143Y-55242D01*
X52056Y-55242D01*
X52387Y-54927D02*
X52614Y-54927D01*
X52492Y-55047D01*
X52544Y-55047D01*
X52579Y-55062D01*
X52596Y-55077D01*
X52614Y-55107D01*
X52614Y-55182D01*
X52596Y-55212D01*
X52579Y-55227D01*
X52544Y-55242D01*
X52439Y-55242D01*
X52405Y-55227D01*
X52387Y-55212D01*
X53050Y-55242D02*
X53050Y-54927D01*
X53137Y-54927D01*
X53189Y-54942D01*
X53224Y-54972D01*
X53242Y-55002D01*
X53259Y-55062D01*
X53259Y-55107D01*
X53242Y-55167D01*
X53224Y-55197D01*
X53189Y-55227D01*
X53137Y-55242D01*
X53050Y-55242D01*
X53573Y-55032D02*
X53573Y-55242D01*
X53486Y-54912D02*
X53398Y-55137D01*
X53625Y-55137D01*
X54044Y-55242D02*
X54044Y-54927D01*
X54131Y-54927D01*
X54183Y-54942D01*
X54218Y-54972D01*
X54235Y-55002D01*
X54253Y-55062D01*
X54253Y-55107D01*
X54235Y-55167D01*
X54218Y-55197D01*
X54183Y-55227D01*
X54131Y-55242D01*
X54044Y-55242D01*
X54584Y-54927D02*
X54410Y-54927D01*
X54392Y-55077D01*
X54410Y-55062D01*
X54445Y-55047D01*
X54532Y-55047D01*
X54567Y-55062D01*
X54584Y-55077D01*
X54601Y-55107D01*
X54601Y-55182D01*
X54584Y-55212D01*
X54567Y-55227D01*
X54532Y-55242D01*
X54445Y-55242D01*
X54410Y-55227D01*
X54392Y-55212D01*
X55020Y-55152D02*
X55194Y-55152D01*
X54985Y-55242D02*
X55107Y-54927D01*
X55229Y-55242D01*
X55421Y-54927D02*
X55456Y-54927D01*
X55491Y-54942D01*
X55508Y-54957D01*
X55526Y-54987D01*
X55543Y-55047D01*
X55543Y-55122D01*
X55526Y-55182D01*
X55508Y-55212D01*
X55491Y-55227D01*
X55456Y-55242D01*
X55421Y-55242D01*
X55386Y-55227D01*
X55369Y-55212D01*
X55351Y-55182D01*
X55334Y-55122D01*
X55334Y-55047D01*
X55351Y-54987D01*
X55369Y-54957D01*
X55386Y-54942D01*
X55421Y-54927D01*
X48897Y-52025D02*
X48882Y-52070D01*
X48867Y-52085D01*
X48837Y-52100D01*
X48792Y-52100D01*
X48762Y-52085D01*
X48747Y-52070D01*
X48732Y-52040D01*
X48732Y-51920D01*
X49047Y-51920D01*
X49047Y-52025D01*
X49032Y-52055D01*
X49017Y-52070D01*
X48987Y-52085D01*
X48957Y-52085D01*
X48927Y-52070D01*
X48912Y-52055D01*
X48897Y-52025D01*
X48897Y-51920D01*
X48732Y-52369D02*
X48897Y-52369D01*
X48927Y-52354D01*
X48942Y-52325D01*
X48942Y-52265D01*
X48927Y-52235D01*
X48747Y-52369D02*
X48732Y-52339D01*
X48732Y-52265D01*
X48747Y-52235D01*
X48777Y-52220D01*
X48807Y-52220D01*
X48837Y-52235D01*
X48852Y-52265D01*
X48852Y-52339D01*
X48867Y-52369D01*
X48942Y-52474D02*
X48942Y-52594D01*
X49047Y-52519D02*
X48777Y-52519D01*
X48747Y-52534D01*
X48732Y-52564D01*
X48732Y-52594D01*
X48942Y-52654D02*
X48942Y-52774D01*
X49047Y-52699D02*
X48777Y-52699D01*
X48747Y-52714D01*
X48732Y-52744D01*
X48732Y-52774D01*
X54790Y-46777D02*
X54940Y-46777D01*
X54760Y-46867D02*
X54865Y-46552D01*
X54970Y-46867D01*
X55075Y-46867D02*
X55075Y-46552D01*
X55254Y-46867D01*
X55254Y-46552D01*
X55359Y-46552D02*
X55539Y-46552D01*
X55449Y-46867D02*
X55449Y-46552D01*
X48827Y-53350D02*
X48827Y-53590D01*
X48707Y-53470D02*
X48947Y-53470D01*
X48827Y-54459D02*
X48827Y-54699D01*
X48922Y-56422D02*
X48922Y-56604D01*
X48832Y-56385D02*
X49147Y-56513D01*
X48832Y-56640D01*
X48832Y-56967D02*
X48832Y-56749D01*
X48832Y-56858D02*
X49147Y-56858D01*
X49102Y-56822D01*
X49072Y-56785D01*
X49057Y-56749D01*
X48922Y-57404D02*
X48922Y-57586D01*
X48832Y-57367D02*
X49147Y-57495D01*
X48832Y-57622D01*
X49117Y-57731D02*
X49132Y-57749D01*
X49147Y-57786D01*
X49147Y-57877D01*
X49132Y-57913D01*
X49117Y-57931D01*
X49087Y-57949D01*
X49057Y-57949D01*
X49012Y-57931D01*
X48832Y-57713D01*
X48832Y-57949D01*
X48922Y-58386D02*
X48922Y-58568D01*
X48832Y-58349D02*
X49147Y-58477D01*
X48832Y-58604D01*
X49147Y-58695D02*
X49147Y-58931D01*
X49027Y-58804D01*
X49027Y-58859D01*
X49012Y-58895D01*
X48997Y-58913D01*
X48967Y-58931D01*
X48892Y-58931D01*
X48862Y-58913D01*
X48847Y-58895D01*
X48832Y-58859D01*
X48832Y-58749D01*
X48847Y-58713D01*
X48862Y-58695D01*
X48922Y-59368D02*
X48922Y-59550D01*
X48832Y-59331D02*
X49147Y-59459D01*
X48832Y-59586D01*
X49042Y-59877D02*
X48832Y-59877D01*
X49162Y-59786D02*
X48937Y-59695D01*
X48937Y-59931D01*
X48922Y-60350D02*
X48922Y-60532D01*
X48832Y-60313D02*
X49147Y-60441D01*
X48832Y-60568D01*
X49147Y-60877D02*
X49147Y-60695D01*
X48997Y-60677D01*
X49012Y-60695D01*
X49027Y-60732D01*
X49027Y-60823D01*
X49012Y-60859D01*
X48997Y-60877D01*
X48967Y-60895D01*
X48892Y-60895D01*
X48862Y-60877D01*
X48847Y-60859D01*
X48832Y-60823D01*
X48832Y-60732D01*
X48847Y-60695D01*
X48862Y-60677D01*
X48922Y-61332D02*
X48922Y-61514D01*
X48832Y-61295D02*
X49147Y-61423D01*
X48832Y-61550D01*
X49147Y-61641D02*
X49147Y-61895D01*
X48832Y-61732D01*
G54D12*
X61100Y-53350D02*
X61100Y-52450D01*
X61100Y-52450D02*
X61600Y-52450D01*
X61600Y-52450D02*
X61600Y-53350D01*
X61600Y-53350D02*
X61100Y-53350D01*
G54D13*
X60129Y-57345D02*
X59811Y-57027D01*
X61670Y-55804D02*
X61359Y-55493D01*
X60129Y-57345D02*
X61670Y-55804D01*
X59174Y-57055D02*
X58870Y-57359D01*
X57604Y-55500D02*
X57307Y-55797D01*
X57300Y-55790D02*
X58863Y-57367D01*
X60122Y-52997D02*
X61663Y-54524D01*
X59330Y-53180D02*
X57329Y-55182D01*
X61663Y-54538D02*
X61373Y-54828D01*
X59676Y-53188D02*
X61642Y-55153D01*
X59478Y-57345D02*
X61628Y-55196D01*
X57322Y-55189D02*
X59443Y-57310D01*
X58891Y-52982D02*
X57322Y-54552D01*
X57322Y-54552D02*
X57640Y-54870D01*
X59340Y-53176D02*
X59665Y-53176D01*
X58893Y-52984D02*
X59212Y-53303D01*
X59804Y-53315D02*
X60123Y-52995D01*
X59694Y-53588D02*
G75*
G03X59694Y-53588I-188J0D01*
G74*
G01*
G54D12*
X61925Y-58000D02*
X62825Y-58000D01*
X62825Y-58000D02*
X62825Y-58500D01*
X62825Y-58500D02*
X61925Y-58500D01*
X61925Y-58500D02*
X61925Y-58000D01*
X62825Y-59100D02*
X61925Y-59100D01*
X61925Y-59100D02*
X61925Y-58600D01*
X61925Y-58600D02*
X62825Y-58600D01*
X62825Y-58600D02*
X62825Y-59100D01*
X61125Y-59975D02*
X61125Y-59075D01*
X61125Y-59075D02*
X61625Y-59075D01*
X61625Y-59075D02*
X61625Y-59975D01*
X61625Y-59975D02*
X61125Y-59975D01*
X62625Y-57750D02*
X61725Y-57750D01*
X61725Y-57750D02*
X61725Y-57250D01*
X61725Y-57250D02*
X62625Y-57250D01*
X62625Y-57250D02*
X62625Y-57750D01*
X62625Y-57075D02*
X61725Y-57075D01*
X61725Y-57075D02*
X61725Y-56575D01*
X61725Y-56575D02*
X62625Y-56575D01*
X62625Y-56575D02*
X62625Y-57075D01*
X56900Y-57900D02*
X56900Y-58800D01*
X56900Y-58800D02*
X56400Y-58800D01*
X56400Y-58800D02*
X56400Y-57900D01*
X56400Y-57900D02*
X56900Y-57900D01*
X56675Y-57750D02*
X56675Y-56850D01*
X56675Y-56850D02*
X57175Y-56850D01*
X57175Y-56850D02*
X57175Y-57750D01*
X57175Y-57750D02*
X56675Y-57750D01*
X61925Y-59200D02*
X62825Y-59200D01*
X62825Y-59200D02*
X62825Y-59700D01*
X62825Y-59700D02*
X61925Y-59700D01*
X61925Y-59700D02*
X61925Y-59200D01*
G54D10*
X58012Y-52915D02*
X56437Y-52915D01*
X56437Y-52915D02*
X56437Y-51734D01*
X56437Y-51734D02*
X58012Y-51734D01*
X58012Y-51734D02*
X58012Y-52915D01*
G54D14*
X57000Y-57850D02*
X61000Y-57850D01*
X61000Y-57850D02*
X61000Y-59850D01*
X61000Y-59850D02*
X57000Y-59850D01*
X57000Y-59850D02*
X57000Y-57850D01*
G54D15*
X61600Y-50525D02*
X61600Y-44525D01*
X62600Y-50525D02*
X61600Y-50525D01*
X61600Y-44525D02*
X62600Y-44525D01*
X58693Y-51309D02*
X61056Y-51309D01*
X61056Y-51309D02*
X61056Y-52490D01*
X61056Y-52490D02*
X58693Y-52490D01*
X58693Y-52490D02*
X58693Y-51309D01*
G54D14*
X56500Y-61650D02*
X56500Y-60650D01*
X56500Y-60650D02*
X62500Y-60650D01*
X62500Y-60650D02*
X62500Y-61650D01*
X62500Y-61650D02*
X56500Y-61650D01*
X57500Y-61650D02*
X57500Y-60650D01*
G54D15*
X57600Y-49525D02*
X57600Y-50525D01*
X61600Y-50525D02*
X61600Y-49525D01*
X57600Y-50525D02*
X56600Y-50525D01*
X57600Y-50525D02*
X57600Y-44525D01*
X56600Y-44525D02*
X57600Y-44525D01*
X54100Y-56125D02*
X55100Y-56125D01*
X54100Y-56125D02*
X54100Y-62125D01*
X55100Y-62125D02*
X54100Y-62125D01*
X54100Y-57125D02*
X54100Y-56125D01*
X50100Y-56125D02*
X50100Y-57125D01*
G54D14*
X55200Y-45000D02*
X55200Y-46000D01*
X55200Y-46000D02*
X49200Y-46000D01*
X49200Y-46000D02*
X49200Y-45000D01*
X49200Y-45000D02*
X55200Y-45000D01*
X54200Y-45000D02*
X54200Y-46000D01*
G54D15*
X53006Y-55340D02*
X50643Y-55340D01*
X50643Y-55340D02*
X50643Y-54159D01*
X50643Y-54159D02*
X53006Y-54159D01*
X53006Y-54159D02*
X53006Y-55340D01*
X50100Y-56125D02*
X50100Y-62125D01*
X49100Y-56125D02*
X50100Y-56125D01*
X50100Y-62125D02*
X49100Y-62125D01*
G54D14*
X54700Y-48800D02*
X50700Y-48800D01*
X50700Y-48800D02*
X50700Y-46800D01*
X50700Y-46800D02*
X54700Y-46800D01*
X54700Y-46800D02*
X54700Y-48800D01*
G54D10*
X53687Y-53734D02*
X55262Y-53734D01*
X55262Y-53734D02*
X55262Y-54915D01*
X55262Y-54915D02*
X53687Y-54915D01*
X53687Y-54915D02*
X53687Y-53734D01*
G54D12*
X49775Y-47450D02*
X48875Y-47450D01*
X48875Y-47450D02*
X48875Y-46950D01*
X48875Y-46950D02*
X49775Y-46950D01*
X49775Y-46950D02*
X49775Y-47450D01*
X55025Y-48900D02*
X55025Y-49800D01*
X55025Y-49800D02*
X54525Y-49800D01*
X54525Y-49800D02*
X54525Y-48900D01*
X54525Y-48900D02*
X55025Y-48900D01*
X54800Y-48750D02*
X54800Y-47850D01*
X54800Y-47850D02*
X55300Y-47850D01*
X55300Y-47850D02*
X55300Y-48750D01*
X55300Y-48750D02*
X54800Y-48750D01*
X49075Y-49575D02*
X49975Y-49575D01*
X49975Y-49575D02*
X49975Y-50075D01*
X49975Y-50075D02*
X49075Y-50075D01*
X49075Y-50075D02*
X49075Y-49575D01*
X49075Y-48900D02*
X49975Y-48900D01*
X49975Y-48900D02*
X49975Y-49400D01*
X49975Y-49400D02*
X49075Y-49400D01*
X49075Y-49400D02*
X49075Y-48900D01*
X50575Y-46675D02*
X50575Y-47575D01*
X50575Y-47575D02*
X50075Y-47575D01*
X50075Y-47575D02*
X50075Y-46675D01*
X50075Y-46675D02*
X50575Y-46675D01*
X48875Y-47550D02*
X49775Y-47550D01*
X49775Y-47550D02*
X49775Y-48050D01*
X49775Y-48050D02*
X48875Y-48050D01*
X48875Y-48050D02*
X48875Y-47550D01*
X49775Y-48650D02*
X48875Y-48650D01*
X48875Y-48650D02*
X48875Y-48150D01*
X48875Y-48150D02*
X49775Y-48150D01*
X49775Y-48150D02*
X49775Y-48650D01*
G54D13*
X51570Y-49304D02*
X51888Y-49622D01*
X50029Y-50845D02*
X50340Y-51156D01*
X51570Y-49304D02*
X50029Y-50845D01*
X52525Y-49594D02*
X52829Y-49290D01*
X54095Y-51149D02*
X54392Y-50852D01*
X54399Y-50859D02*
X52836Y-49282D01*
X51577Y-53652D02*
X50036Y-52125D01*
X52369Y-53469D02*
X54370Y-51467D01*
X50036Y-52111D02*
X50326Y-51821D01*
X52023Y-53461D02*
X50057Y-51496D01*
X52221Y-49304D02*
X50071Y-51453D01*
X54377Y-51460D02*
X52256Y-49339D01*
X52808Y-53667D02*
X54377Y-52097D01*
X54377Y-52097D02*
X54059Y-51779D01*
X52359Y-53473D02*
X52034Y-53473D01*
X52806Y-53665D02*
X52487Y-53346D01*
X51895Y-53334D02*
X51576Y-53654D01*
X52383Y-53061D02*
G75*
G03X52383Y-53061I-188J0D01*
G74*
G01*
G54D12*
X50600Y-53300D02*
X50600Y-54200D01*
X50600Y-54200D02*
X50100Y-54200D01*
X50100Y-54200D02*
X50100Y-53300D01*
X50100Y-53300D02*
X50600Y-53300D01*
G54D16*
X61421Y-52930D02*
X61430Y-52938D01*
X61440Y-52964D01*
X61440Y-52981D01*
X61430Y-53007D01*
X61411Y-53024D01*
X61392Y-53032D01*
X61354Y-53041D01*
X61326Y-53041D01*
X61288Y-53032D01*
X61269Y-53024D01*
X61250Y-53007D01*
X61240Y-52981D01*
X61240Y-52964D01*
X61250Y-52938D01*
X61259Y-52930D01*
X61307Y-52775D02*
X61440Y-52775D01*
X61230Y-52818D02*
X61373Y-52861D01*
X61373Y-52750D01*
X62345Y-58340D02*
X62285Y-58245D01*
X62242Y-58340D02*
X62242Y-58140D01*
X62310Y-58140D01*
X62327Y-58150D01*
X62336Y-58159D01*
X62345Y-58178D01*
X62345Y-58207D01*
X62336Y-58226D01*
X62327Y-58235D01*
X62310Y-58245D01*
X62242Y-58245D01*
X62413Y-58159D02*
X62422Y-58150D01*
X62439Y-58140D01*
X62482Y-58140D01*
X62499Y-58150D01*
X62507Y-58159D01*
X62516Y-58178D01*
X62516Y-58197D01*
X62507Y-58226D01*
X62405Y-58340D01*
X62516Y-58340D01*
X62345Y-58940D02*
X62285Y-58845D01*
X62242Y-58940D02*
X62242Y-58740D01*
X62310Y-58740D01*
X62327Y-58750D01*
X62336Y-58759D01*
X62345Y-58778D01*
X62345Y-58807D01*
X62336Y-58826D01*
X62327Y-58835D01*
X62310Y-58845D01*
X62242Y-58845D01*
X62516Y-58940D02*
X62413Y-58940D01*
X62465Y-58940D02*
X62465Y-58740D01*
X62447Y-58769D01*
X62430Y-58788D01*
X62413Y-58797D01*
X61465Y-59555D02*
X61370Y-59615D01*
X61465Y-59657D02*
X61265Y-59657D01*
X61265Y-59589D01*
X61275Y-59572D01*
X61284Y-59563D01*
X61303Y-59555D01*
X61332Y-59555D01*
X61351Y-59563D01*
X61360Y-59572D01*
X61370Y-59589D01*
X61370Y-59657D01*
X61265Y-59495D02*
X61265Y-59383D01*
X61341Y-59443D01*
X61341Y-59417D01*
X61351Y-59400D01*
X61360Y-59392D01*
X61379Y-59383D01*
X61427Y-59383D01*
X61446Y-59392D01*
X61455Y-59400D01*
X61465Y-59417D01*
X61465Y-59469D01*
X61455Y-59486D01*
X61446Y-59495D01*
X62145Y-57571D02*
X62136Y-57580D01*
X62110Y-57590D01*
X62093Y-57590D01*
X62067Y-57580D01*
X62050Y-57561D01*
X62042Y-57542D01*
X62033Y-57504D01*
X62033Y-57476D01*
X62042Y-57438D01*
X62050Y-57419D01*
X62067Y-57400D01*
X62093Y-57390D01*
X62110Y-57390D01*
X62136Y-57400D01*
X62145Y-57409D01*
X62205Y-57390D02*
X62316Y-57390D01*
X62256Y-57466D01*
X62282Y-57466D01*
X62299Y-57476D01*
X62307Y-57485D01*
X62316Y-57504D01*
X62316Y-57552D01*
X62307Y-57571D01*
X62299Y-57580D01*
X62282Y-57590D01*
X62230Y-57590D01*
X62213Y-57580D01*
X62205Y-57571D01*
X62145Y-56896D02*
X62136Y-56905D01*
X62110Y-56915D01*
X62093Y-56915D01*
X62067Y-56905D01*
X62050Y-56886D01*
X62042Y-56867D01*
X62033Y-56829D01*
X62033Y-56801D01*
X62042Y-56763D01*
X62050Y-56744D01*
X62067Y-56725D01*
X62093Y-56715D01*
X62110Y-56715D01*
X62136Y-56725D01*
X62145Y-56734D01*
X62213Y-56734D02*
X62222Y-56725D01*
X62239Y-56715D01*
X62282Y-56715D01*
X62299Y-56725D01*
X62307Y-56734D01*
X62316Y-56753D01*
X62316Y-56772D01*
X62307Y-56801D01*
X62205Y-56915D01*
X62316Y-56915D01*
X56740Y-58482D02*
X56540Y-58482D01*
X56540Y-58440D01*
X56550Y-58414D01*
X56569Y-58397D01*
X56588Y-58388D01*
X56626Y-58380D01*
X56654Y-58380D01*
X56692Y-58388D01*
X56711Y-58397D01*
X56730Y-58414D01*
X56740Y-58440D01*
X56740Y-58482D01*
X56740Y-58208D02*
X56740Y-58311D01*
X56740Y-58260D02*
X56540Y-58260D01*
X56569Y-58277D01*
X56588Y-58294D01*
X56597Y-58311D01*
X57015Y-57330D02*
X56920Y-57390D01*
X57015Y-57432D02*
X56815Y-57432D01*
X56815Y-57364D01*
X56825Y-57347D01*
X56834Y-57338D01*
X56853Y-57330D01*
X56882Y-57330D01*
X56901Y-57338D01*
X56910Y-57347D01*
X56920Y-57364D01*
X56920Y-57432D01*
X56882Y-57175D02*
X57015Y-57175D01*
X56805Y-57218D02*
X56948Y-57261D01*
X56948Y-57150D01*
X62345Y-59521D02*
X62336Y-59530D01*
X62310Y-59540D01*
X62293Y-59540D01*
X62267Y-59530D01*
X62250Y-59511D01*
X62242Y-59492D01*
X62233Y-59454D01*
X62233Y-59426D01*
X62242Y-59388D01*
X62250Y-59369D01*
X62267Y-59350D01*
X62293Y-59340D01*
X62310Y-59340D01*
X62336Y-59350D01*
X62345Y-59359D01*
X62516Y-59540D02*
X62413Y-59540D01*
X62465Y-59540D02*
X62465Y-59340D01*
X62447Y-59369D01*
X62430Y-59388D01*
X62413Y-59397D01*
G54D10*
X56906Y-52109D02*
X57168Y-52503D01*
X57168Y-52109D02*
X56906Y-52503D01*
X57524Y-52503D02*
X57299Y-52503D01*
X57412Y-52503D02*
X57412Y-52109D01*
X57374Y-52165D01*
X57337Y-52203D01*
X57299Y-52221D01*
X59350Y-52059D02*
X59406Y-52078D01*
X59500Y-52078D01*
X59537Y-52059D01*
X59556Y-52040D01*
X59575Y-52003D01*
X59575Y-51965D01*
X59556Y-51928D01*
X59537Y-51909D01*
X59500Y-51890D01*
X59425Y-51871D01*
X59387Y-51853D01*
X59368Y-51834D01*
X59350Y-51796D01*
X59350Y-51759D01*
X59368Y-51721D01*
X59387Y-51703D01*
X59425Y-51684D01*
X59518Y-51684D01*
X59575Y-51703D01*
X59706Y-51684D02*
X59800Y-52078D01*
X59875Y-51796D01*
X59949Y-52078D01*
X60043Y-51684D01*
X60399Y-52078D02*
X60174Y-52078D01*
X60287Y-52078D02*
X60287Y-51684D01*
X60249Y-51740D01*
X60212Y-51778D01*
X60174Y-51796D01*
X59350Y-52059D02*
X59406Y-52078D01*
X59500Y-52078D01*
X59537Y-52059D01*
X59556Y-52040D01*
X59575Y-52003D01*
X59575Y-51965D01*
X59556Y-51928D01*
X59537Y-51909D01*
X59500Y-51890D01*
X59425Y-51871D01*
X59387Y-51853D01*
X59368Y-51834D01*
X59350Y-51796D01*
X59350Y-51759D01*
X59368Y-51721D01*
X59387Y-51703D01*
X59425Y-51684D01*
X59518Y-51684D01*
X59575Y-51703D01*
X59706Y-51684D02*
X59800Y-52078D01*
X59875Y-51796D01*
X59949Y-52078D01*
X60043Y-51684D01*
X60399Y-52078D02*
X60174Y-52078D01*
X60287Y-52078D02*
X60287Y-51684D01*
X60249Y-51740D01*
X60212Y-51778D01*
X60174Y-51796D01*
X51300Y-54909D02*
X51356Y-54928D01*
X51450Y-54928D01*
X51487Y-54909D01*
X51506Y-54890D01*
X51525Y-54853D01*
X51525Y-54815D01*
X51506Y-54778D01*
X51487Y-54759D01*
X51450Y-54740D01*
X51375Y-54721D01*
X51337Y-54703D01*
X51318Y-54684D01*
X51300Y-54646D01*
X51300Y-54609D01*
X51318Y-54571D01*
X51337Y-54553D01*
X51375Y-54534D01*
X51468Y-54534D01*
X51525Y-54553D01*
X51656Y-54534D02*
X51750Y-54928D01*
X51825Y-54646D01*
X51899Y-54928D01*
X51993Y-54534D01*
X52349Y-54928D02*
X52124Y-54928D01*
X52237Y-54928D02*
X52237Y-54534D01*
X52199Y-54590D01*
X52162Y-54628D01*
X52124Y-54646D01*
X51300Y-54909D02*
X51356Y-54928D01*
X51450Y-54928D01*
X51487Y-54909D01*
X51506Y-54890D01*
X51525Y-54853D01*
X51525Y-54815D01*
X51506Y-54778D01*
X51487Y-54759D01*
X51450Y-54740D01*
X51375Y-54721D01*
X51337Y-54703D01*
X51318Y-54684D01*
X51300Y-54646D01*
X51300Y-54609D01*
X51318Y-54571D01*
X51337Y-54553D01*
X51375Y-54534D01*
X51468Y-54534D01*
X51525Y-54553D01*
X51656Y-54534D02*
X51750Y-54928D01*
X51825Y-54646D01*
X51899Y-54928D01*
X51993Y-54534D01*
X52349Y-54928D02*
X52124Y-54928D01*
X52237Y-54928D02*
X52237Y-54534D01*
X52199Y-54590D01*
X52162Y-54628D01*
X52124Y-54646D01*
X54156Y-54109D02*
X54418Y-54503D01*
X54418Y-54109D02*
X54156Y-54503D01*
X54774Y-54503D02*
X54549Y-54503D01*
X54662Y-54503D02*
X54662Y-54109D01*
X54624Y-54165D01*
X54587Y-54203D01*
X54549Y-54221D01*
G54D16*
X49295Y-47271D02*
X49286Y-47280D01*
X49260Y-47290D01*
X49243Y-47290D01*
X49217Y-47280D01*
X49200Y-47261D01*
X49192Y-47242D01*
X49183Y-47204D01*
X49183Y-47176D01*
X49192Y-47138D01*
X49200Y-47119D01*
X49217Y-47100D01*
X49243Y-47090D01*
X49260Y-47090D01*
X49286Y-47100D01*
X49295Y-47109D01*
X49466Y-47290D02*
X49363Y-47290D01*
X49415Y-47290D02*
X49415Y-47090D01*
X49397Y-47119D01*
X49380Y-47138D01*
X49363Y-47147D01*
X54865Y-49380D02*
X54770Y-49440D01*
X54865Y-49482D02*
X54665Y-49482D01*
X54665Y-49414D01*
X54675Y-49397D01*
X54684Y-49388D01*
X54703Y-49380D01*
X54732Y-49380D01*
X54751Y-49388D01*
X54760Y-49397D01*
X54770Y-49414D01*
X54770Y-49482D01*
X54732Y-49225D02*
X54865Y-49225D01*
X54655Y-49268D02*
X54798Y-49311D01*
X54798Y-49200D01*
X55140Y-48432D02*
X54940Y-48432D01*
X54940Y-48390D01*
X54950Y-48364D01*
X54969Y-48347D01*
X54988Y-48338D01*
X55026Y-48330D01*
X55054Y-48330D01*
X55092Y-48338D01*
X55111Y-48347D01*
X55130Y-48364D01*
X55140Y-48390D01*
X55140Y-48432D01*
X55140Y-48158D02*
X55140Y-48261D01*
X55140Y-48210D02*
X54940Y-48210D01*
X54969Y-48227D01*
X54988Y-48244D01*
X54997Y-48261D01*
X49495Y-49896D02*
X49486Y-49905D01*
X49460Y-49915D01*
X49443Y-49915D01*
X49417Y-49905D01*
X49400Y-49886D01*
X49392Y-49867D01*
X49383Y-49829D01*
X49383Y-49801D01*
X49392Y-49763D01*
X49400Y-49744D01*
X49417Y-49725D01*
X49443Y-49715D01*
X49460Y-49715D01*
X49486Y-49725D01*
X49495Y-49734D01*
X49563Y-49734D02*
X49572Y-49725D01*
X49589Y-49715D01*
X49632Y-49715D01*
X49649Y-49725D01*
X49657Y-49734D01*
X49666Y-49753D01*
X49666Y-49772D01*
X49657Y-49801D01*
X49555Y-49915D01*
X49666Y-49915D01*
X49495Y-49221D02*
X49486Y-49230D01*
X49460Y-49240D01*
X49443Y-49240D01*
X49417Y-49230D01*
X49400Y-49211D01*
X49392Y-49192D01*
X49383Y-49154D01*
X49383Y-49126D01*
X49392Y-49088D01*
X49400Y-49069D01*
X49417Y-49050D01*
X49443Y-49040D01*
X49460Y-49040D01*
X49486Y-49050D01*
X49495Y-49059D01*
X49555Y-49040D02*
X49666Y-49040D01*
X49606Y-49116D01*
X49632Y-49116D01*
X49649Y-49126D01*
X49657Y-49135D01*
X49666Y-49154D01*
X49666Y-49202D01*
X49657Y-49221D01*
X49649Y-49230D01*
X49632Y-49240D01*
X49580Y-49240D01*
X49563Y-49230D01*
X49555Y-49221D01*
X50415Y-47155D02*
X50320Y-47215D01*
X50415Y-47257D02*
X50215Y-47257D01*
X50215Y-47189D01*
X50225Y-47172D01*
X50234Y-47163D01*
X50253Y-47155D01*
X50282Y-47155D01*
X50301Y-47163D01*
X50310Y-47172D01*
X50320Y-47189D01*
X50320Y-47257D01*
X50215Y-47095D02*
X50215Y-46983D01*
X50291Y-47043D01*
X50291Y-47017D01*
X50301Y-47000D01*
X50310Y-46992D01*
X50329Y-46983D01*
X50377Y-46983D01*
X50396Y-46992D01*
X50405Y-47000D01*
X50415Y-47017D01*
X50415Y-47069D01*
X50405Y-47086D01*
X50396Y-47095D01*
X49295Y-47890D02*
X49235Y-47795D01*
X49192Y-47890D02*
X49192Y-47690D01*
X49260Y-47690D01*
X49277Y-47700D01*
X49286Y-47709D01*
X49295Y-47728D01*
X49295Y-47757D01*
X49286Y-47776D01*
X49277Y-47785D01*
X49260Y-47795D01*
X49192Y-47795D01*
X49466Y-47890D02*
X49363Y-47890D01*
X49415Y-47890D02*
X49415Y-47690D01*
X49397Y-47719D01*
X49380Y-47738D01*
X49363Y-47747D01*
X49295Y-48490D02*
X49235Y-48395D01*
X49192Y-48490D02*
X49192Y-48290D01*
X49260Y-48290D01*
X49277Y-48300D01*
X49286Y-48309D01*
X49295Y-48328D01*
X49295Y-48357D01*
X49286Y-48376D01*
X49277Y-48385D01*
X49260Y-48395D01*
X49192Y-48395D01*
X49363Y-48309D02*
X49372Y-48300D01*
X49389Y-48290D01*
X49432Y-48290D01*
X49449Y-48300D01*
X49457Y-48309D01*
X49466Y-48328D01*
X49466Y-48347D01*
X49457Y-48376D01*
X49355Y-48490D01*
X49466Y-48490D01*
X50421Y-53780D02*
X50430Y-53788D01*
X50440Y-53814D01*
X50440Y-53831D01*
X50430Y-53857D01*
X50411Y-53874D01*
X50392Y-53882D01*
X50354Y-53891D01*
X50326Y-53891D01*
X50288Y-53882D01*
X50269Y-53874D01*
X50250Y-53857D01*
X50240Y-53831D01*
X50240Y-53814D01*
X50250Y-53788D01*
X50259Y-53780D01*
X50307Y-53625D02*
X50440Y-53625D01*
X50230Y-53668D02*
X50373Y-53711D01*
X50373Y-53600D01*
M02*
