G04 (created by PCBNEW (2013-mar-13)-testing) date Di 12 Nov 2013 11:00:42 CET*
%MOIN*%
G04 Gerber Fmt 3.4, Leading zero omitted, Abs format*
%FSLAX34Y34*%
G01*
G70*
G90*
G04 APERTURE LIST*
%ADD10C,0.005906*%
%ADD11R,0.045000X0.025000*%
%ADD12R,0.059055X0.059055*%
%ADD13R,0.025000X0.045000*%
%ADD14R,0.027559X0.039370*%
%ADD15R,0.035433X0.039370*%
%ADD16R,0.060000X0.060000*%
%ADD17C,0.060000*%
%ADD18C,0.059055*%
%ADD19C,0.022047*%
%ADD20C,0.006693*%
%ADD21C,0.010000*%
%ADD22C,0.006299*%
G04 APERTURE END LIST*
G54D10*
X55600Y-54375D02*
X55600Y-62175D01*
X56100Y-54375D02*
X55600Y-54375D01*
X56100Y-60225D02*
X56100Y-54375D01*
X56100Y-52275D02*
X56100Y-44475D01*
X55600Y-52275D02*
X56100Y-52275D01*
X55600Y-46425D02*
X55600Y-52275D01*
X63100Y-44475D02*
X63100Y-60225D01*
X56100Y-44475D02*
X63100Y-44475D01*
X58875Y-60450D02*
G75*
G03X58650Y-60225I-225J0D01*
G74*
G01*
X58650Y-60675D02*
G75*
G03X58875Y-60450I0J225D01*
G74*
G01*
X60325Y-60225D02*
G75*
G03X60125Y-60425I0J-200D01*
G74*
G01*
X60125Y-60425D02*
G75*
G03X60325Y-60625I200J0D01*
G74*
G01*
X60325Y-60225D02*
X63100Y-60225D01*
X58650Y-60225D02*
X56100Y-60225D01*
X60325Y-60625D02*
X62550Y-60625D01*
X58650Y-60675D02*
X56450Y-60675D01*
X56450Y-60675D02*
X56450Y-62175D01*
X56450Y-62175D02*
X62550Y-62175D01*
X62550Y-62175D02*
X62550Y-60625D01*
X49150Y-44475D02*
X49150Y-46025D01*
X55250Y-44475D02*
X49150Y-44475D01*
X55250Y-45975D02*
X55250Y-44475D01*
X53050Y-45975D02*
X55250Y-45975D01*
X51375Y-46025D02*
X49150Y-46025D01*
X53050Y-46425D02*
X55600Y-46425D01*
X51375Y-46425D02*
X48600Y-46425D01*
X51575Y-46225D02*
G75*
G03X51375Y-46025I-200J0D01*
G74*
G01*
X51375Y-46425D02*
G75*
G03X51575Y-46225I0J200D01*
G74*
G01*
X53050Y-45975D02*
G75*
G03X52825Y-46200I0J-225D01*
G74*
G01*
X52825Y-46200D02*
G75*
G03X53050Y-46425I225J0D01*
G74*
G01*
X55600Y-62175D02*
X48600Y-62175D01*
X48600Y-62175D02*
X48600Y-46425D01*
G54D11*
X61350Y-53200D03*
X61350Y-52600D03*
G54D10*
G36*
X57045Y-54391D02*
X57170Y-54266D01*
X57727Y-54822D01*
X57602Y-54948D01*
X57045Y-54391D01*
X57045Y-54391D01*
G37*
G36*
X57268Y-54168D02*
X57393Y-54043D01*
X57950Y-54600D01*
X57824Y-54725D01*
X57268Y-54168D01*
X57268Y-54168D01*
G37*
G36*
X57491Y-53946D02*
X57616Y-53820D01*
X58172Y-54377D01*
X58047Y-54502D01*
X57491Y-53946D01*
X57491Y-53946D01*
G37*
G36*
X57713Y-53723D02*
X57839Y-53598D01*
X58395Y-54154D01*
X58270Y-54279D01*
X57713Y-53723D01*
X57713Y-53723D01*
G37*
G36*
X57936Y-53500D02*
X58061Y-53375D01*
X58618Y-53931D01*
X58493Y-54057D01*
X57936Y-53500D01*
X57936Y-53500D01*
G37*
G36*
X58159Y-53277D02*
X58284Y-53152D01*
X58840Y-53709D01*
X58715Y-53834D01*
X58159Y-53277D01*
X58159Y-53277D01*
G37*
G36*
X58382Y-53055D02*
X58507Y-52929D01*
X59063Y-53486D01*
X58938Y-53611D01*
X58382Y-53055D01*
X58382Y-53055D01*
G37*
G36*
X58604Y-52832D02*
X58729Y-52707D01*
X59286Y-53263D01*
X59161Y-53388D01*
X58604Y-52832D01*
X58604Y-52832D01*
G37*
G36*
X61266Y-55496D02*
X61391Y-55371D01*
X61948Y-55928D01*
X61822Y-56053D01*
X61266Y-55496D01*
X61266Y-55496D01*
G37*
G36*
X59703Y-57059D02*
X59828Y-56934D01*
X60385Y-57490D01*
X60260Y-57615D01*
X59703Y-57059D01*
X59703Y-57059D01*
G37*
G36*
X59929Y-56833D02*
X60055Y-56708D01*
X60611Y-57264D01*
X60486Y-57389D01*
X59929Y-56833D01*
X59929Y-56833D01*
G37*
G36*
X60156Y-56606D02*
X60281Y-56481D01*
X60837Y-57038D01*
X60712Y-57163D01*
X60156Y-56606D01*
X60156Y-56606D01*
G37*
G36*
X60375Y-56387D02*
X60500Y-56262D01*
X61057Y-56819D01*
X60931Y-56944D01*
X60375Y-56387D01*
X60375Y-56387D01*
G37*
G36*
X60601Y-56161D02*
X60726Y-56036D01*
X61283Y-56592D01*
X61158Y-56717D01*
X60601Y-56161D01*
X60601Y-56161D01*
G37*
G36*
X60820Y-55942D02*
X60946Y-55817D01*
X61502Y-56373D01*
X61377Y-56498D01*
X60820Y-55942D01*
X60820Y-55942D01*
G37*
G36*
X61047Y-55715D02*
X61172Y-55590D01*
X61728Y-56147D01*
X61603Y-56272D01*
X61047Y-55715D01*
X61047Y-55715D01*
G37*
G36*
X59716Y-53260D02*
X60272Y-52704D01*
X60398Y-52829D01*
X59841Y-53386D01*
X59716Y-53260D01*
X59716Y-53260D01*
G37*
G36*
X59938Y-53482D02*
X60494Y-52926D01*
X60620Y-53051D01*
X60063Y-53608D01*
X59938Y-53482D01*
X59938Y-53482D01*
G37*
G36*
X60161Y-53706D02*
X60718Y-53149D01*
X60843Y-53275D01*
X60287Y-53831D01*
X60161Y-53706D01*
X60161Y-53706D01*
G37*
G36*
X60383Y-53928D02*
X60940Y-53371D01*
X61065Y-53497D01*
X60509Y-54053D01*
X60383Y-53928D01*
X60383Y-53928D01*
G37*
G36*
X60607Y-54151D02*
X61163Y-53595D01*
X61288Y-53720D01*
X60732Y-54276D01*
X60607Y-54151D01*
X60607Y-54151D01*
G37*
G36*
X60829Y-54373D02*
X61385Y-53817D01*
X61511Y-53942D01*
X60954Y-54499D01*
X60829Y-54373D01*
X60829Y-54373D01*
G37*
G36*
X61052Y-54597D02*
X61609Y-54040D01*
X61734Y-54165D01*
X61177Y-54722D01*
X61052Y-54597D01*
X61052Y-54597D01*
G37*
G36*
X61274Y-54819D02*
X61831Y-54262D01*
X61956Y-54387D01*
X61399Y-54944D01*
X61274Y-54819D01*
X61274Y-54819D01*
G37*
G36*
X57044Y-55935D02*
X57601Y-55378D01*
X57726Y-55503D01*
X57170Y-56060D01*
X57044Y-55935D01*
X57044Y-55935D01*
G37*
G36*
X57264Y-56154D02*
X57820Y-55597D01*
X57945Y-55723D01*
X57389Y-56279D01*
X57264Y-56154D01*
X57264Y-56154D01*
G37*
G36*
X57490Y-56380D02*
X58046Y-55824D01*
X58172Y-55949D01*
X57615Y-56505D01*
X57490Y-56380D01*
X57490Y-56380D01*
G37*
G36*
X57709Y-56599D02*
X58266Y-56043D01*
X58391Y-56168D01*
X57834Y-56724D01*
X57709Y-56599D01*
X57709Y-56599D01*
G37*
G36*
X57928Y-56819D02*
X58485Y-56262D01*
X58610Y-56387D01*
X58053Y-56944D01*
X57928Y-56819D01*
X57928Y-56819D01*
G37*
G36*
X58155Y-57045D02*
X58711Y-56488D01*
X58836Y-56613D01*
X58280Y-57170D01*
X58155Y-57045D01*
X58155Y-57045D01*
G37*
G36*
X58381Y-57271D02*
X58937Y-56715D01*
X59063Y-56840D01*
X58506Y-57396D01*
X58381Y-57271D01*
X58381Y-57271D01*
G37*
G36*
X58607Y-57497D02*
X59164Y-56941D01*
X59289Y-57066D01*
X58732Y-57623D01*
X58607Y-57497D01*
X58607Y-57497D01*
G37*
G54D12*
X62600Y-50950D03*
X61600Y-50950D03*
X60600Y-50950D03*
X59600Y-50950D03*
X58600Y-50950D03*
X57600Y-50950D03*
X56600Y-50950D03*
G54D13*
X62075Y-58250D03*
X62675Y-58250D03*
X62675Y-58850D03*
X62075Y-58850D03*
G54D11*
X61375Y-59825D03*
X61375Y-59225D03*
G54D13*
X62475Y-57500D03*
X61875Y-57500D03*
X62475Y-56825D03*
X61875Y-56825D03*
G54D11*
X56650Y-58050D03*
X56650Y-58650D03*
X56925Y-57600D03*
X56925Y-57000D03*
G54D13*
X62075Y-59450D03*
X62675Y-59450D03*
G54D14*
X57815Y-51734D03*
G54D15*
X57225Y-51734D03*
G54D14*
X56634Y-51734D03*
X56634Y-52915D03*
G54D15*
X57225Y-52915D03*
G54D14*
X57815Y-52915D03*
G54D16*
X57500Y-59350D03*
G54D17*
X57500Y-58350D03*
X58500Y-59350D03*
X58500Y-58350D03*
X59500Y-59350D03*
X59500Y-58350D03*
X60500Y-59350D03*
X60500Y-58350D03*
X62100Y-50025D03*
X62100Y-49025D03*
X62100Y-48025D03*
X62100Y-47025D03*
X62100Y-46025D03*
X62100Y-45025D03*
G54D16*
X62100Y-52050D03*
G54D17*
X62100Y-53050D03*
G54D18*
X56450Y-59412D03*
G54D17*
X58100Y-45025D03*
X59100Y-45025D03*
X58100Y-46025D03*
X59100Y-46025D03*
X58100Y-47025D03*
X59100Y-47025D03*
X58100Y-48025D03*
X59100Y-48025D03*
X58100Y-49025D03*
X59100Y-49025D03*
X61100Y-49025D03*
X60100Y-49025D03*
X61100Y-48025D03*
X60100Y-48025D03*
X61100Y-47025D03*
X60100Y-47025D03*
X61100Y-46025D03*
X60100Y-46025D03*
X61100Y-45025D03*
X60100Y-45025D03*
G54D12*
X58339Y-51900D03*
X61410Y-51900D03*
G54D16*
X57000Y-61150D03*
G54D17*
X58000Y-61150D03*
X59000Y-61150D03*
X60000Y-61150D03*
X61000Y-61150D03*
X62000Y-61150D03*
G54D16*
X58100Y-50025D03*
X59100Y-50025D03*
G54D17*
X60100Y-50025D03*
X61100Y-50025D03*
X57100Y-50025D03*
X57100Y-49025D03*
X57100Y-48025D03*
X57100Y-47025D03*
X57100Y-46025D03*
X57100Y-45025D03*
X54600Y-56625D03*
X54600Y-57625D03*
X54600Y-58625D03*
X54600Y-59625D03*
X54600Y-60625D03*
X54600Y-61625D03*
G54D16*
X53600Y-56625D03*
X52600Y-56625D03*
G54D17*
X51600Y-56625D03*
X50600Y-56625D03*
G54D16*
X54700Y-45500D03*
G54D17*
X53700Y-45500D03*
X52700Y-45500D03*
X51700Y-45500D03*
X50700Y-45500D03*
X49700Y-45500D03*
G54D12*
X53360Y-54750D03*
X50289Y-54750D03*
G54D17*
X50600Y-57625D03*
X51600Y-57625D03*
X50600Y-58625D03*
X51600Y-58625D03*
X50600Y-59625D03*
X51600Y-59625D03*
X50600Y-60625D03*
X51600Y-60625D03*
X50600Y-61625D03*
X51600Y-61625D03*
X53600Y-61625D03*
X52600Y-61625D03*
X53600Y-60625D03*
X52600Y-60625D03*
X53600Y-59625D03*
X52600Y-59625D03*
X53600Y-58625D03*
X52600Y-58625D03*
X53600Y-57625D03*
X52600Y-57625D03*
G54D18*
X55249Y-47237D03*
G54D16*
X49600Y-54600D03*
G54D17*
X49600Y-53600D03*
X49600Y-56625D03*
X49600Y-57625D03*
X49600Y-58625D03*
X49600Y-59625D03*
X49600Y-60625D03*
X49600Y-61625D03*
G54D16*
X54200Y-47300D03*
G54D17*
X54200Y-48300D03*
X53200Y-47300D03*
X53200Y-48300D03*
X52200Y-47300D03*
X52200Y-48300D03*
X51200Y-47300D03*
X51200Y-48300D03*
G54D14*
X53884Y-54915D03*
G54D15*
X54475Y-54915D03*
G54D14*
X55065Y-54915D03*
X55065Y-53734D03*
G54D15*
X54475Y-53734D03*
G54D14*
X53884Y-53734D03*
G54D13*
X49625Y-47200D03*
X49025Y-47200D03*
G54D11*
X54775Y-49050D03*
X54775Y-49650D03*
X55050Y-48600D03*
X55050Y-48000D03*
G54D13*
X49225Y-49825D03*
X49825Y-49825D03*
X49225Y-49150D03*
X49825Y-49150D03*
G54D11*
X50325Y-46825D03*
X50325Y-47425D03*
G54D13*
X49025Y-47800D03*
X49625Y-47800D03*
X49625Y-48400D03*
X49025Y-48400D03*
G54D12*
X49100Y-55700D03*
X50100Y-55700D03*
X51100Y-55700D03*
X52100Y-55700D03*
X53100Y-55700D03*
X54100Y-55700D03*
X55100Y-55700D03*
G54D10*
G36*
X54654Y-52258D02*
X54529Y-52383D01*
X53972Y-51827D01*
X54097Y-51701D01*
X54654Y-52258D01*
X54654Y-52258D01*
G37*
G36*
X54431Y-52481D02*
X54306Y-52606D01*
X53749Y-52049D01*
X53875Y-51924D01*
X54431Y-52481D01*
X54431Y-52481D01*
G37*
G36*
X54208Y-52703D02*
X54083Y-52829D01*
X53527Y-52272D01*
X53652Y-52147D01*
X54208Y-52703D01*
X54208Y-52703D01*
G37*
G36*
X53986Y-52926D02*
X53860Y-53051D01*
X53304Y-52495D01*
X53429Y-52370D01*
X53986Y-52926D01*
X53986Y-52926D01*
G37*
G36*
X53763Y-53149D02*
X53638Y-53274D01*
X53081Y-52718D01*
X53206Y-52592D01*
X53763Y-53149D01*
X53763Y-53149D01*
G37*
G36*
X53540Y-53372D02*
X53415Y-53497D01*
X52859Y-52940D01*
X52984Y-52815D01*
X53540Y-53372D01*
X53540Y-53372D01*
G37*
G36*
X53317Y-53594D02*
X53192Y-53720D01*
X52636Y-53163D01*
X52761Y-53038D01*
X53317Y-53594D01*
X53317Y-53594D01*
G37*
G36*
X53095Y-53817D02*
X52970Y-53942D01*
X52413Y-53386D01*
X52538Y-53261D01*
X53095Y-53817D01*
X53095Y-53817D01*
G37*
G36*
X50433Y-51153D02*
X50308Y-51278D01*
X49751Y-50721D01*
X49877Y-50596D01*
X50433Y-51153D01*
X50433Y-51153D01*
G37*
G36*
X51996Y-49590D02*
X51871Y-49715D01*
X51314Y-49159D01*
X51439Y-49034D01*
X51996Y-49590D01*
X51996Y-49590D01*
G37*
G36*
X51770Y-49816D02*
X51644Y-49941D01*
X51088Y-49385D01*
X51213Y-49260D01*
X51770Y-49816D01*
X51770Y-49816D01*
G37*
G36*
X51543Y-50043D02*
X51418Y-50168D01*
X50862Y-49611D01*
X50987Y-49486D01*
X51543Y-50043D01*
X51543Y-50043D01*
G37*
G36*
X51324Y-50262D02*
X51199Y-50387D01*
X50642Y-49830D01*
X50768Y-49705D01*
X51324Y-50262D01*
X51324Y-50262D01*
G37*
G36*
X51098Y-50488D02*
X50973Y-50613D01*
X50416Y-50057D01*
X50541Y-49932D01*
X51098Y-50488D01*
X51098Y-50488D01*
G37*
G36*
X50879Y-50707D02*
X50753Y-50832D01*
X50197Y-50276D01*
X50322Y-50151D01*
X50879Y-50707D01*
X50879Y-50707D01*
G37*
G36*
X50652Y-50934D02*
X50527Y-51059D01*
X49971Y-50502D01*
X50096Y-50377D01*
X50652Y-50934D01*
X50652Y-50934D01*
G37*
G36*
X51983Y-53389D02*
X51427Y-53945D01*
X51301Y-53820D01*
X51858Y-53263D01*
X51983Y-53389D01*
X51983Y-53389D01*
G37*
G36*
X51761Y-53167D02*
X51205Y-53723D01*
X51079Y-53598D01*
X51636Y-53041D01*
X51761Y-53167D01*
X51761Y-53167D01*
G37*
G36*
X51538Y-52943D02*
X50981Y-53500D01*
X50856Y-53374D01*
X51412Y-52818D01*
X51538Y-52943D01*
X51538Y-52943D01*
G37*
G36*
X51316Y-52721D02*
X50759Y-53278D01*
X50634Y-53152D01*
X51190Y-52596D01*
X51316Y-52721D01*
X51316Y-52721D01*
G37*
G36*
X51092Y-52498D02*
X50536Y-53054D01*
X50411Y-52929D01*
X50967Y-52373D01*
X51092Y-52498D01*
X51092Y-52498D01*
G37*
G36*
X50870Y-52276D02*
X50314Y-52832D01*
X50188Y-52707D01*
X50745Y-52150D01*
X50870Y-52276D01*
X50870Y-52276D01*
G37*
G36*
X50647Y-52052D02*
X50090Y-52609D01*
X49965Y-52484D01*
X50522Y-51927D01*
X50647Y-52052D01*
X50647Y-52052D01*
G37*
G36*
X50425Y-51830D02*
X49868Y-52387D01*
X49743Y-52262D01*
X50300Y-51705D01*
X50425Y-51830D01*
X50425Y-51830D01*
G37*
G36*
X54655Y-50714D02*
X54098Y-51271D01*
X53973Y-51146D01*
X54529Y-50589D01*
X54655Y-50714D01*
X54655Y-50714D01*
G37*
G36*
X54435Y-50495D02*
X53879Y-51052D01*
X53754Y-50926D01*
X54310Y-50370D01*
X54435Y-50495D01*
X54435Y-50495D01*
G37*
G36*
X54209Y-50269D02*
X53653Y-50825D01*
X53527Y-50700D01*
X54084Y-50144D01*
X54209Y-50269D01*
X54209Y-50269D01*
G37*
G36*
X53990Y-50050D02*
X53433Y-50606D01*
X53308Y-50481D01*
X53865Y-49925D01*
X53990Y-50050D01*
X53990Y-50050D01*
G37*
G36*
X53771Y-49830D02*
X53214Y-50387D01*
X53089Y-50262D01*
X53646Y-49705D01*
X53771Y-49830D01*
X53771Y-49830D01*
G37*
G36*
X53544Y-49604D02*
X52988Y-50161D01*
X52863Y-50036D01*
X53419Y-49479D01*
X53544Y-49604D01*
X53544Y-49604D01*
G37*
G36*
X53318Y-49378D02*
X52762Y-49934D01*
X52636Y-49809D01*
X53193Y-49253D01*
X53318Y-49378D01*
X53318Y-49378D01*
G37*
G36*
X53092Y-49152D02*
X52535Y-49708D01*
X52410Y-49583D01*
X52967Y-49026D01*
X53092Y-49152D01*
X53092Y-49152D01*
G37*
G54D11*
X50350Y-53450D03*
X50350Y-54050D03*
G54D19*
X57100Y-51300D03*
X60125Y-55325D03*
X51575Y-51325D03*
X54600Y-55350D03*
X60750Y-55325D03*
X50950Y-51325D03*
X61150Y-55025D03*
X50550Y-51625D03*
X60900Y-54825D03*
X50800Y-51825D03*
X60300Y-54625D03*
X51400Y-52025D03*
X59850Y-54200D03*
X51850Y-52450D03*
X59725Y-55325D03*
X51975Y-51325D03*
X58325Y-55650D03*
X53375Y-51000D03*
X59275Y-60325D03*
X52425Y-46325D03*
X59725Y-60325D03*
X51975Y-46325D03*
X59650Y-57275D03*
X52050Y-49375D03*
X59575Y-56075D03*
X52125Y-50575D03*
X58375Y-48525D03*
X58875Y-48525D03*
X52825Y-58125D03*
X53325Y-58125D03*
X58150Y-54875D03*
X57550Y-52175D03*
X54150Y-54475D03*
X53550Y-51775D03*
X57175Y-56325D03*
X54525Y-50325D03*
X60925Y-52575D03*
X50775Y-54075D03*
X62250Y-56225D03*
X60025Y-60325D03*
X60925Y-58750D03*
X50775Y-47900D03*
X51675Y-46325D03*
X49450Y-50425D03*
X62650Y-59925D03*
X57450Y-57750D03*
X54250Y-48900D03*
X49050Y-46725D03*
X58975Y-60325D03*
X52725Y-46325D03*
G54D20*
X57100Y-51300D02*
X56950Y-51300D01*
X60125Y-55325D02*
X60125Y-55375D01*
X60125Y-55375D02*
X60375Y-55625D01*
X60375Y-55625D02*
X61081Y-55625D01*
X61081Y-55625D02*
X61387Y-55931D01*
X56950Y-51300D02*
X56600Y-50950D01*
X56350Y-50700D02*
X56600Y-50950D01*
X56500Y-50950D02*
X56225Y-50675D01*
X56725Y-45025D02*
X57100Y-45025D01*
X56225Y-45525D02*
X56225Y-50675D01*
X56725Y-45025D02*
X56225Y-45525D01*
X56600Y-50950D02*
X56500Y-50950D01*
X55100Y-55700D02*
X55200Y-55700D01*
X54975Y-61625D02*
X55475Y-61125D01*
X55475Y-61125D02*
X55475Y-55975D01*
X54975Y-61625D02*
X54600Y-61625D01*
X55200Y-55700D02*
X55475Y-55975D01*
X55350Y-55950D02*
X55100Y-55700D01*
X54750Y-55350D02*
X55100Y-55700D01*
X50618Y-51025D02*
X50312Y-50718D01*
X51325Y-51025D02*
X50618Y-51025D01*
X51575Y-51275D02*
X51325Y-51025D01*
X51575Y-51325D02*
X51575Y-51275D01*
X54600Y-55350D02*
X54750Y-55350D01*
X61607Y-55712D02*
X61607Y-55707D01*
X61607Y-55712D02*
X61607Y-55707D01*
X61344Y-55450D02*
X61607Y-55712D01*
X61344Y-55450D02*
X61607Y-55712D01*
X61537Y-55712D02*
X61275Y-55450D01*
X61275Y-55450D02*
X60875Y-55450D01*
X60875Y-55450D02*
X60750Y-55325D01*
X61607Y-55712D02*
X61537Y-55712D01*
X50092Y-50937D02*
X50162Y-50937D01*
X50825Y-51200D02*
X50950Y-51325D01*
X50425Y-51200D02*
X50825Y-51200D01*
X50162Y-50937D02*
X50425Y-51200D01*
X50355Y-51200D02*
X50092Y-50937D01*
X50355Y-51200D02*
X50092Y-50937D01*
X50092Y-50937D02*
X50092Y-50942D01*
X50092Y-50937D02*
X50092Y-50942D01*
X61150Y-55025D02*
X61194Y-55025D01*
X61194Y-55025D02*
X61615Y-54603D01*
X50505Y-51625D02*
X50084Y-52046D01*
X50550Y-51625D02*
X50505Y-51625D01*
X60950Y-54825D02*
X61393Y-54381D01*
X60950Y-54825D02*
X61393Y-54381D01*
X60900Y-54825D02*
X60950Y-54825D01*
X50800Y-51825D02*
X50749Y-51825D01*
X50749Y-51825D02*
X50306Y-52268D01*
X50749Y-51825D02*
X50306Y-52268D01*
X60703Y-54625D02*
X61170Y-54158D01*
X60703Y-54625D02*
X61170Y-54158D01*
X60300Y-54625D02*
X60703Y-54625D01*
X51400Y-52025D02*
X50996Y-52025D01*
X50996Y-52025D02*
X50529Y-52491D01*
X50996Y-52025D02*
X50529Y-52491D01*
X60684Y-54200D02*
X60948Y-53936D01*
X59850Y-54200D02*
X60684Y-54200D01*
X51850Y-52450D02*
X51015Y-52450D01*
X51015Y-52450D02*
X50751Y-52713D01*
X62075Y-59275D02*
X62075Y-58850D01*
X62075Y-58850D02*
X62075Y-58250D01*
X62018Y-58193D02*
X62075Y-58250D01*
X62075Y-57975D02*
X62150Y-57900D01*
X62150Y-57900D02*
X62150Y-57225D01*
X62150Y-57225D02*
X62075Y-57150D01*
X62075Y-57150D02*
X60824Y-57150D01*
X60824Y-57150D02*
X60497Y-56822D01*
X62075Y-58250D02*
X62075Y-57975D01*
X49625Y-48400D02*
X49625Y-48675D01*
X50875Y-49500D02*
X51202Y-49827D01*
X49625Y-49500D02*
X50875Y-49500D01*
X49550Y-49425D02*
X49625Y-49500D01*
X49550Y-48750D02*
X49550Y-49425D01*
X49625Y-48675D02*
X49550Y-48750D01*
X49681Y-48456D02*
X49625Y-48400D01*
X49625Y-47800D02*
X49625Y-48400D01*
X49625Y-47375D02*
X49625Y-47800D01*
X59725Y-55325D02*
X60225Y-55825D01*
X60225Y-55825D02*
X60828Y-55825D01*
X60828Y-55825D02*
X61161Y-56157D01*
X50871Y-50825D02*
X50538Y-50492D01*
X51475Y-50825D02*
X50871Y-50825D01*
X51975Y-51325D02*
X51475Y-50825D01*
X60750Y-52950D02*
X60750Y-53243D01*
X60750Y-53243D02*
X60502Y-53490D01*
X56850Y-46450D02*
X56525Y-46775D01*
X61350Y-46450D02*
X56850Y-46450D01*
X61600Y-50550D02*
X61650Y-50500D01*
X61650Y-50500D02*
X61650Y-46750D01*
X61650Y-46750D02*
X61350Y-46450D01*
X61600Y-50950D02*
X61600Y-50550D01*
X56850Y-50025D02*
X56525Y-49700D01*
X57100Y-50025D02*
X56850Y-50025D01*
X60675Y-52875D02*
X60675Y-51875D01*
X60675Y-51875D02*
X61600Y-50950D01*
X60750Y-52950D02*
X60675Y-52875D01*
X56525Y-49700D02*
X56525Y-46775D01*
X55175Y-56950D02*
X55175Y-59875D01*
X50950Y-53700D02*
X51025Y-53775D01*
X51025Y-54775D02*
X50100Y-55700D01*
X51025Y-53775D02*
X51025Y-54775D01*
X54600Y-56625D02*
X54850Y-56625D01*
X54850Y-56625D02*
X55175Y-56950D01*
X50100Y-55700D02*
X50100Y-56100D01*
X50050Y-59900D02*
X50350Y-60200D01*
X50050Y-56150D02*
X50050Y-59900D01*
X50100Y-56100D02*
X50050Y-56150D01*
X50350Y-60200D02*
X54850Y-60200D01*
X54850Y-60200D02*
X55175Y-59875D01*
X50950Y-53406D02*
X51197Y-53159D01*
X50950Y-53700D02*
X50950Y-53406D01*
X60600Y-50850D02*
X61000Y-50450D01*
X61000Y-50450D02*
X61350Y-50450D01*
X61350Y-50450D02*
X61516Y-50283D01*
X61516Y-50283D02*
X61516Y-46850D01*
X61516Y-46850D02*
X61250Y-46583D01*
X61250Y-46583D02*
X56905Y-46583D01*
X56905Y-46583D02*
X56675Y-46813D01*
X56675Y-46813D02*
X56675Y-48600D01*
X56675Y-48600D02*
X57100Y-49025D01*
X60600Y-50950D02*
X60600Y-50850D01*
X57100Y-49025D02*
X58100Y-50025D01*
X60279Y-53262D02*
X60550Y-52991D01*
X60525Y-52966D02*
X60525Y-50975D01*
X60550Y-51000D02*
X60600Y-50950D01*
X60279Y-53267D02*
X60279Y-53262D01*
X51420Y-53382D02*
X51420Y-53387D01*
X51150Y-55650D02*
X51100Y-55700D01*
X51175Y-53683D02*
X51175Y-55675D01*
X51420Y-53387D02*
X51150Y-53658D01*
X54600Y-57625D02*
X53600Y-56625D01*
X51100Y-55700D02*
X51100Y-55800D01*
X55025Y-58050D02*
X54600Y-57625D01*
X55025Y-59836D02*
X55025Y-58050D01*
X54794Y-60066D02*
X55025Y-59836D01*
X50450Y-60066D02*
X54794Y-60066D01*
X50183Y-59800D02*
X50450Y-60066D01*
X50183Y-56366D02*
X50183Y-59800D01*
X50350Y-56200D02*
X50183Y-56366D01*
X50700Y-56200D02*
X50350Y-56200D01*
X51100Y-55800D02*
X50700Y-56200D01*
X58495Y-56804D02*
X58775Y-56525D01*
X58775Y-56525D02*
X58775Y-56325D01*
X58775Y-56325D02*
X58325Y-55875D01*
X58325Y-55875D02*
X58325Y-55650D01*
X58495Y-56829D02*
X58495Y-56804D01*
X53204Y-49820D02*
X53204Y-49845D01*
X53375Y-50775D02*
X53375Y-51000D01*
X52925Y-50325D02*
X53375Y-50775D01*
X52925Y-50125D02*
X52925Y-50325D01*
X53204Y-49845D02*
X52925Y-50125D01*
X59150Y-58350D02*
X58400Y-57600D01*
X58400Y-57600D02*
X58400Y-57378D01*
X58400Y-57378D02*
X58722Y-57055D01*
X59500Y-58350D02*
X59150Y-58350D01*
X59275Y-60825D02*
X59600Y-61150D01*
X59600Y-61150D02*
X60000Y-61150D01*
X59275Y-60325D02*
X59275Y-60825D01*
X52425Y-46325D02*
X52425Y-45825D01*
X52100Y-45500D02*
X51700Y-45500D01*
X52425Y-45825D02*
X52100Y-45500D01*
X52200Y-48300D02*
X52550Y-48300D01*
X53300Y-49271D02*
X52977Y-49594D01*
X53300Y-49050D02*
X53300Y-49271D01*
X52550Y-48300D02*
X53300Y-49050D01*
X59282Y-57282D02*
X60000Y-58000D01*
X60000Y-58000D02*
X60000Y-58850D01*
X60000Y-58850D02*
X60500Y-59350D01*
X58948Y-57282D02*
X59282Y-57282D01*
X52751Y-49367D02*
X52417Y-49367D01*
X51700Y-47800D02*
X51200Y-47300D01*
X51700Y-48650D02*
X51700Y-47800D01*
X52417Y-49367D02*
X51700Y-48650D01*
X59650Y-57275D02*
X59650Y-57275D01*
X60044Y-57275D02*
X59650Y-57275D01*
X51655Y-49374D02*
X52049Y-49374D01*
X52049Y-49374D02*
X52050Y-49375D01*
X59250Y-53850D02*
X59250Y-55750D01*
X59250Y-55750D02*
X59575Y-56075D01*
X60054Y-53045D02*
X59250Y-53850D01*
X60057Y-53045D02*
X60054Y-53045D01*
X51642Y-53604D02*
X51645Y-53604D01*
X51645Y-53604D02*
X52450Y-52800D01*
X52450Y-50900D02*
X52125Y-50575D01*
X52450Y-52800D02*
X52450Y-50900D01*
X59600Y-52393D02*
X58920Y-53073D01*
X59600Y-50950D02*
X59600Y-52393D01*
X57100Y-48350D02*
X57100Y-48025D01*
X57275Y-48525D02*
X58375Y-48525D01*
X57100Y-48350D02*
X57275Y-48525D01*
X59600Y-50950D02*
X59600Y-48800D01*
X59325Y-48525D02*
X58875Y-48525D01*
X59600Y-48800D02*
X59325Y-48525D01*
X52100Y-57850D02*
X52375Y-58125D01*
X52375Y-58125D02*
X52825Y-58125D01*
X52100Y-55700D02*
X52100Y-57850D01*
X54600Y-58300D02*
X54425Y-58125D01*
X54425Y-58125D02*
X53325Y-58125D01*
X54600Y-58300D02*
X54600Y-58625D01*
X52100Y-55700D02*
X52100Y-54256D01*
X52100Y-54256D02*
X52779Y-53576D01*
X58925Y-52250D02*
X58400Y-52775D01*
X58925Y-51275D02*
X58925Y-52250D01*
X58722Y-53270D02*
X58720Y-53270D01*
X58400Y-52950D02*
X58400Y-52775D01*
X58720Y-53270D02*
X58400Y-52950D01*
X58600Y-50950D02*
X58925Y-51275D01*
X57100Y-47375D02*
X57250Y-47525D01*
X57250Y-47525D02*
X58400Y-47525D01*
X58400Y-47525D02*
X58600Y-47725D01*
X58600Y-47725D02*
X58600Y-50950D01*
X57100Y-47025D02*
X57100Y-47375D01*
X54600Y-59625D02*
X54600Y-59275D01*
X53100Y-58925D02*
X53100Y-55700D01*
X53300Y-59125D02*
X53100Y-58925D01*
X54450Y-59125D02*
X53300Y-59125D01*
X54600Y-59275D02*
X54450Y-59125D01*
X53100Y-55700D02*
X52775Y-55375D01*
X52979Y-53379D02*
X53300Y-53700D01*
X53300Y-53700D02*
X53300Y-53875D01*
X52977Y-53379D02*
X52979Y-53379D01*
X52775Y-55375D02*
X52775Y-54400D01*
X52775Y-54400D02*
X53300Y-53875D01*
X57385Y-55639D02*
X58150Y-54875D01*
X57600Y-51375D02*
X57600Y-50950D01*
X57600Y-51375D02*
X57550Y-51425D01*
X57550Y-51425D02*
X57550Y-52175D01*
X57385Y-55719D02*
X57385Y-55639D01*
X56375Y-46375D02*
X56375Y-49950D01*
X56725Y-46025D02*
X56375Y-46375D01*
X57100Y-46025D02*
X56725Y-46025D01*
X57375Y-50950D02*
X56375Y-49950D01*
X57600Y-50950D02*
X57375Y-50950D01*
X54100Y-55700D02*
X54325Y-55700D01*
X54325Y-55700D02*
X55325Y-56700D01*
X54600Y-60625D02*
X54975Y-60625D01*
X54975Y-60625D02*
X55325Y-60275D01*
X55325Y-60275D02*
X55325Y-56700D01*
X54314Y-50930D02*
X54314Y-51010D01*
X54150Y-55225D02*
X54150Y-54475D01*
X54100Y-55275D02*
X54150Y-55225D01*
X54100Y-55275D02*
X54100Y-55700D01*
X54314Y-51010D02*
X53550Y-51775D01*
X57561Y-55938D02*
X57175Y-56325D01*
X57604Y-55938D02*
X57561Y-55938D01*
X54095Y-50711D02*
X54138Y-50711D01*
X54138Y-50711D02*
X54525Y-50325D01*
X56375Y-53850D02*
X56375Y-52625D01*
X56375Y-52625D02*
X56575Y-52425D01*
X56837Y-54312D02*
X56375Y-53850D01*
X57925Y-52425D02*
X56575Y-52425D01*
X57801Y-56189D02*
X57441Y-56550D01*
X57441Y-56550D02*
X57050Y-56550D01*
X57050Y-56550D02*
X56837Y-56337D01*
X57806Y-56189D02*
X57801Y-56189D01*
X56837Y-56337D02*
X56837Y-54312D01*
X58293Y-52056D02*
X57925Y-52425D01*
X58293Y-51950D02*
X58293Y-52056D01*
X53406Y-54700D02*
X53406Y-54593D01*
X53406Y-54593D02*
X53775Y-54225D01*
X54862Y-50312D02*
X54862Y-52337D01*
X53893Y-50460D02*
X53898Y-50460D01*
X54650Y-50100D02*
X54862Y-50312D01*
X54258Y-50100D02*
X54650Y-50100D01*
X53898Y-50460D02*
X54258Y-50100D01*
X53775Y-54225D02*
X55125Y-54225D01*
X54862Y-52337D02*
X55325Y-52800D01*
X55325Y-54025D02*
X55125Y-54225D01*
X55325Y-52800D02*
X55325Y-54025D01*
X58000Y-58525D02*
X58000Y-57875D01*
X58000Y-57875D02*
X57425Y-57300D01*
X57425Y-57300D02*
X56625Y-57300D01*
X56625Y-57300D02*
X56525Y-57200D01*
X56525Y-57200D02*
X56525Y-56825D01*
X56525Y-56825D02*
X56650Y-56700D01*
X56650Y-56700D02*
X57734Y-56700D01*
X57734Y-56700D02*
X58050Y-56384D01*
X58500Y-59350D02*
X58500Y-59140D01*
X58500Y-59025D02*
X58000Y-58525D01*
X58500Y-59350D02*
X58500Y-59025D01*
X53200Y-47300D02*
X53200Y-47625D01*
X53200Y-47625D02*
X53700Y-48125D01*
X53200Y-47300D02*
X53200Y-47509D01*
X53965Y-49950D02*
X53649Y-50265D01*
X55050Y-49950D02*
X53965Y-49950D01*
X55175Y-49825D02*
X55050Y-49950D01*
X55175Y-49450D02*
X55175Y-49825D01*
X55075Y-49350D02*
X55175Y-49450D01*
X54275Y-49350D02*
X55075Y-49350D01*
X53700Y-48775D02*
X54275Y-49350D01*
X53700Y-48125D02*
X53700Y-48775D01*
X57872Y-57000D02*
X58269Y-56603D01*
X56925Y-57000D02*
X57872Y-57000D01*
X54775Y-49650D02*
X53827Y-49650D01*
X53827Y-49650D02*
X53430Y-50046D01*
X60950Y-52600D02*
X60925Y-52575D01*
X61375Y-52600D02*
X60950Y-52600D01*
X50325Y-54050D02*
X50750Y-54050D01*
X50750Y-54050D02*
X50775Y-54075D01*
X61250Y-53187D02*
X60724Y-53712D01*
X61250Y-53150D02*
X61250Y-53187D01*
X61250Y-53400D02*
X62250Y-54400D01*
X62250Y-54400D02*
X62250Y-56225D01*
X61250Y-53150D02*
X61250Y-53400D01*
X61375Y-59200D02*
X60925Y-58750D01*
X61375Y-59225D02*
X61375Y-59200D01*
X50325Y-47425D02*
X50325Y-47450D01*
X50325Y-47450D02*
X50775Y-47900D01*
X50450Y-53500D02*
X50450Y-53250D01*
X49450Y-52250D02*
X49450Y-50425D01*
X50450Y-53250D02*
X49450Y-52250D01*
X50450Y-53500D02*
X50450Y-53462D01*
X50450Y-53462D02*
X50975Y-52937D01*
X57815Y-53159D02*
X57275Y-53700D01*
X57275Y-53700D02*
X57275Y-54100D01*
X57815Y-52915D02*
X57815Y-53159D01*
X57275Y-54100D02*
X57584Y-54409D01*
X54425Y-52549D02*
X54115Y-52240D01*
X53884Y-53734D02*
X53884Y-53490D01*
X54425Y-52950D02*
X54425Y-52549D01*
X53884Y-53490D02*
X54425Y-52950D01*
X56634Y-53855D02*
X57386Y-54607D01*
X56634Y-52915D02*
X56634Y-53855D01*
X55065Y-53734D02*
X55065Y-52794D01*
X55065Y-52794D02*
X54313Y-52042D01*
X61816Y-56825D02*
X61641Y-57000D01*
X61641Y-57000D02*
X61112Y-57000D01*
X61112Y-57000D02*
X60716Y-56603D01*
X61875Y-56825D02*
X61816Y-56825D01*
X49825Y-49825D02*
X49883Y-49825D01*
X50587Y-49650D02*
X50983Y-50046D01*
X50058Y-49650D02*
X50587Y-49650D01*
X49883Y-49825D02*
X50058Y-49650D01*
X56650Y-57875D02*
X56925Y-57600D01*
X56650Y-58050D02*
X56650Y-57875D01*
X55050Y-48600D02*
X55050Y-48775D01*
X55050Y-48775D02*
X54775Y-49050D01*
X58252Y-53741D02*
X58252Y-53752D01*
X58252Y-53752D02*
X58252Y-53741D01*
G54D21*
X62362Y-58850D02*
X62362Y-58362D01*
X62362Y-59587D02*
X62362Y-58850D01*
X58277Y-53727D02*
X58575Y-54025D01*
X58575Y-54025D02*
X58575Y-54900D01*
X59275Y-56600D02*
X59821Y-56600D01*
X58575Y-55900D02*
X59275Y-56600D01*
X58575Y-54900D02*
X58575Y-55900D01*
X59821Y-56600D02*
X60270Y-57048D01*
X58277Y-53716D02*
X58277Y-53727D01*
X57836Y-54161D02*
X58575Y-54900D01*
X57831Y-54161D02*
X57836Y-54161D01*
X60600Y-57725D02*
X60600Y-57378D01*
X60600Y-57378D02*
X60270Y-57048D01*
X60887Y-58012D02*
X60600Y-57725D01*
X58000Y-59556D02*
X58000Y-58850D01*
X58268Y-59825D02*
X61675Y-59825D01*
X58000Y-59556D02*
X58268Y-59825D01*
X58000Y-58850D02*
X57500Y-58350D01*
X62100Y-53450D02*
X62725Y-54075D01*
X62475Y-57875D02*
X62362Y-57987D01*
X62362Y-58362D02*
X62362Y-57987D01*
X62100Y-53050D02*
X62100Y-53450D01*
X58975Y-60325D02*
X58975Y-60350D01*
X58975Y-60350D02*
X59000Y-60375D01*
X58975Y-60575D02*
X58400Y-61150D01*
X58400Y-61150D02*
X58000Y-61150D01*
X58975Y-60325D02*
X58975Y-60575D01*
X62362Y-59737D02*
X62275Y-59825D01*
X61775Y-59825D02*
X61675Y-59825D01*
X62275Y-59825D02*
X61775Y-59825D01*
X62362Y-59587D02*
X62362Y-59737D01*
X62650Y-57875D02*
X62725Y-57800D01*
X62725Y-57800D02*
X62725Y-54075D01*
X62475Y-57875D02*
X62650Y-57875D01*
X60975Y-57925D02*
X60887Y-58012D01*
X61750Y-57925D02*
X60975Y-57925D01*
X61850Y-57825D02*
X61750Y-57925D01*
X61875Y-57500D02*
X61850Y-57825D01*
X62400Y-58850D02*
X62362Y-58850D01*
X62362Y-58850D02*
X62400Y-58850D01*
X62675Y-58850D02*
X62362Y-58850D01*
X61775Y-58900D02*
X60887Y-58012D01*
X61775Y-59825D02*
X61775Y-58900D01*
X61775Y-59825D02*
X61375Y-59825D01*
X49925Y-46825D02*
X50325Y-46825D01*
X49925Y-46825D02*
X49925Y-47750D01*
X49925Y-47750D02*
X50812Y-48637D01*
X49025Y-47800D02*
X49337Y-47800D01*
X49337Y-47800D02*
X49300Y-47800D01*
X49300Y-47800D02*
X49337Y-47800D01*
X49825Y-49150D02*
X49850Y-48825D01*
X49850Y-48825D02*
X49950Y-48725D01*
X49950Y-48725D02*
X50725Y-48725D01*
X50725Y-48725D02*
X50812Y-48637D01*
X49225Y-48775D02*
X49050Y-48775D01*
X48975Y-48850D02*
X48975Y-52575D01*
X49050Y-48775D02*
X48975Y-48850D01*
X49337Y-47062D02*
X49337Y-46912D01*
X49425Y-46825D02*
X49925Y-46825D01*
X49925Y-46825D02*
X50025Y-46825D01*
X49337Y-46912D02*
X49425Y-46825D01*
X52725Y-46325D02*
X52725Y-46075D01*
X53300Y-45500D02*
X53700Y-45500D01*
X52725Y-46075D02*
X53300Y-45500D01*
X52725Y-46300D02*
X52700Y-46275D01*
X52725Y-46325D02*
X52725Y-46300D01*
X49600Y-53600D02*
X49600Y-53200D01*
X49337Y-48287D02*
X49337Y-48662D01*
X49225Y-48775D02*
X49337Y-48662D01*
X49600Y-53200D02*
X48975Y-52575D01*
X53700Y-47800D02*
X54200Y-48300D01*
X53700Y-47093D02*
X53431Y-46825D01*
X53431Y-46825D02*
X50025Y-46825D01*
X53700Y-47093D02*
X53700Y-47800D01*
X50812Y-48637D02*
X51100Y-48925D01*
X51100Y-49271D02*
X51429Y-49601D01*
X51100Y-48925D02*
X51100Y-49271D01*
X53868Y-52488D02*
X53863Y-52488D01*
X53863Y-52488D02*
X53125Y-51750D01*
X53422Y-52933D02*
X53422Y-52922D01*
X51878Y-50050D02*
X51429Y-49601D01*
X53125Y-51750D02*
X53125Y-50750D01*
X53125Y-50750D02*
X52425Y-50050D01*
X52425Y-50050D02*
X51878Y-50050D01*
X53125Y-52625D02*
X53125Y-51750D01*
X53422Y-52922D02*
X53125Y-52625D01*
X49337Y-47062D02*
X49337Y-47800D01*
X49337Y-47800D02*
X49337Y-48287D01*
G54D20*
X53447Y-52897D02*
X53447Y-52908D01*
X53447Y-52908D02*
X53447Y-52897D01*
G54D10*
G36*
X55470Y-62045D02*
X54000Y-62045D01*
X54000Y-61545D01*
X53939Y-61398D01*
X53827Y-61285D01*
X53679Y-61224D01*
X53520Y-61224D01*
X53373Y-61285D01*
X53260Y-61397D01*
X53199Y-61545D01*
X53199Y-61704D01*
X53260Y-61851D01*
X53372Y-61964D01*
X53520Y-62025D01*
X53679Y-62025D01*
X53826Y-61964D01*
X53939Y-61852D01*
X54000Y-61704D01*
X54000Y-61545D01*
X54000Y-62045D01*
X53000Y-62045D01*
X53000Y-61545D01*
X52939Y-61398D01*
X52827Y-61285D01*
X52679Y-61224D01*
X52520Y-61224D01*
X52373Y-61285D01*
X52260Y-61397D01*
X52199Y-61545D01*
X52199Y-61704D01*
X52260Y-61851D01*
X52372Y-61964D01*
X52520Y-62025D01*
X52679Y-62025D01*
X52826Y-61964D01*
X52939Y-61852D01*
X53000Y-61704D01*
X53000Y-61545D01*
X53000Y-62045D01*
X52000Y-62045D01*
X52000Y-61545D01*
X51939Y-61398D01*
X51827Y-61285D01*
X51679Y-61224D01*
X51520Y-61224D01*
X51373Y-61285D01*
X51260Y-61397D01*
X51199Y-61545D01*
X51199Y-61704D01*
X51260Y-61851D01*
X51372Y-61964D01*
X51520Y-62025D01*
X51679Y-62025D01*
X51826Y-61964D01*
X51939Y-61852D01*
X52000Y-61704D01*
X52000Y-61545D01*
X52000Y-62045D01*
X51000Y-62045D01*
X51000Y-61545D01*
X50939Y-61398D01*
X50827Y-61285D01*
X50679Y-61224D01*
X50520Y-61224D01*
X50373Y-61285D01*
X50260Y-61397D01*
X50199Y-61545D01*
X50199Y-61704D01*
X50260Y-61851D01*
X50372Y-61964D01*
X50520Y-62025D01*
X50679Y-62025D01*
X50826Y-61964D01*
X50939Y-61852D01*
X51000Y-61704D01*
X51000Y-61545D01*
X51000Y-62045D01*
X50000Y-62045D01*
X50000Y-61545D01*
X50000Y-60545D01*
X49939Y-60398D01*
X49827Y-60285D01*
X49679Y-60224D01*
X49520Y-60224D01*
X49373Y-60285D01*
X49260Y-60397D01*
X49199Y-60545D01*
X49199Y-60704D01*
X49260Y-60851D01*
X49372Y-60964D01*
X49520Y-61025D01*
X49679Y-61025D01*
X49826Y-60964D01*
X49939Y-60852D01*
X50000Y-60704D01*
X50000Y-60545D01*
X50000Y-61545D01*
X49939Y-61398D01*
X49827Y-61285D01*
X49679Y-61224D01*
X49520Y-61224D01*
X49373Y-61285D01*
X49260Y-61397D01*
X49199Y-61545D01*
X49199Y-61704D01*
X49260Y-61851D01*
X49372Y-61964D01*
X49520Y-62025D01*
X49679Y-62025D01*
X49826Y-61964D01*
X49939Y-61852D01*
X50000Y-61704D01*
X50000Y-61545D01*
X50000Y-62045D01*
X48729Y-62045D01*
X48729Y-56126D01*
X48774Y-56144D01*
X48914Y-56144D01*
X48952Y-56107D01*
X48952Y-55847D01*
X48926Y-55847D01*
X48926Y-55552D01*
X48952Y-55552D01*
X48952Y-55292D01*
X48914Y-55255D01*
X48774Y-55255D01*
X48729Y-55273D01*
X48729Y-46554D01*
X51375Y-46554D01*
X51387Y-46552D01*
X51400Y-46552D01*
X51476Y-46537D01*
X51523Y-46517D01*
X51551Y-46499D01*
X51555Y-46503D01*
X51632Y-46535D01*
X51716Y-46535D01*
X51794Y-46503D01*
X51825Y-46472D01*
X51855Y-46503D01*
X51932Y-46535D01*
X52016Y-46535D01*
X52094Y-46503D01*
X52153Y-46444D01*
X52185Y-46367D01*
X52185Y-46283D01*
X52153Y-46205D01*
X52094Y-46146D01*
X52017Y-46114D01*
X51933Y-46114D01*
X51855Y-46146D01*
X51824Y-46177D01*
X51794Y-46146D01*
X51717Y-46114D01*
X51683Y-46114D01*
X51667Y-46076D01*
X51667Y-46076D01*
X51624Y-46011D01*
X51624Y-46011D01*
X51606Y-45993D01*
X51588Y-45975D01*
X51588Y-45975D01*
X51523Y-45932D01*
X51476Y-45912D01*
X51400Y-45897D01*
X51387Y-45897D01*
X51375Y-45895D01*
X50792Y-45895D01*
X50926Y-45839D01*
X51039Y-45727D01*
X51100Y-45579D01*
X51100Y-45420D01*
X51039Y-45273D01*
X50927Y-45160D01*
X50779Y-45099D01*
X50620Y-45099D01*
X50473Y-45160D01*
X50360Y-45272D01*
X50299Y-45420D01*
X50299Y-45579D01*
X50360Y-45726D01*
X50472Y-45839D01*
X50607Y-45895D01*
X50156Y-45895D01*
X50156Y-45455D01*
X50138Y-45366D01*
X50084Y-45327D01*
X49912Y-45500D01*
X50084Y-45672D01*
X50138Y-45633D01*
X50156Y-45455D01*
X50156Y-45895D01*
X49864Y-45895D01*
X49872Y-45884D01*
X49872Y-45115D01*
X49833Y-45061D01*
X49655Y-45043D01*
X49566Y-45061D01*
X49527Y-45115D01*
X49700Y-45287D01*
X49872Y-45115D01*
X49872Y-45884D01*
X49700Y-45712D01*
X49527Y-45884D01*
X49535Y-45895D01*
X49279Y-45895D01*
X49279Y-45646D01*
X49315Y-45672D01*
X49487Y-45500D01*
X49315Y-45327D01*
X49279Y-45353D01*
X49279Y-44604D01*
X55120Y-44604D01*
X55120Y-45845D01*
X55089Y-45845D01*
X55100Y-45819D01*
X55100Y-45780D01*
X55100Y-45180D01*
X55085Y-45143D01*
X55056Y-45114D01*
X55019Y-45099D01*
X54980Y-45099D01*
X54380Y-45099D01*
X54343Y-45114D01*
X54314Y-45143D01*
X54299Y-45180D01*
X54299Y-45219D01*
X54299Y-45819D01*
X54310Y-45845D01*
X53913Y-45845D01*
X53926Y-45839D01*
X54039Y-45727D01*
X54100Y-45579D01*
X54100Y-45420D01*
X54039Y-45273D01*
X53927Y-45160D01*
X53779Y-45099D01*
X53620Y-45099D01*
X53473Y-45160D01*
X53360Y-45272D01*
X53328Y-45349D01*
X53300Y-45349D01*
X53242Y-45361D01*
X53193Y-45393D01*
X53100Y-45486D01*
X53100Y-45420D01*
X53039Y-45273D01*
X52927Y-45160D01*
X52779Y-45099D01*
X52620Y-45099D01*
X52473Y-45160D01*
X52360Y-45272D01*
X52299Y-45420D01*
X52299Y-45510D01*
X52194Y-45405D01*
X52151Y-45376D01*
X52100Y-45366D01*
X52077Y-45366D01*
X52039Y-45273D01*
X51927Y-45160D01*
X51779Y-45099D01*
X51620Y-45099D01*
X51473Y-45160D01*
X51360Y-45272D01*
X51299Y-45420D01*
X51299Y-45579D01*
X51360Y-45726D01*
X51472Y-45839D01*
X51620Y-45900D01*
X51779Y-45900D01*
X51926Y-45839D01*
X52039Y-45727D01*
X52068Y-45657D01*
X52291Y-45880D01*
X52291Y-46161D01*
X52246Y-46205D01*
X52214Y-46282D01*
X52214Y-46366D01*
X52246Y-46444D01*
X52305Y-46503D01*
X52382Y-46535D01*
X52466Y-46535D01*
X52544Y-46503D01*
X52575Y-46472D01*
X52605Y-46503D01*
X52682Y-46535D01*
X52766Y-46535D01*
X52844Y-46503D01*
X52855Y-46491D01*
X52891Y-46515D01*
X52891Y-46515D01*
X52891Y-46515D01*
X52938Y-46535D01*
X52938Y-46535D01*
X53024Y-46552D01*
X53037Y-46552D01*
X53050Y-46554D01*
X55470Y-46554D01*
X55470Y-46900D01*
X55328Y-46842D01*
X55171Y-46842D01*
X55025Y-46902D01*
X54914Y-47013D01*
X54854Y-47158D01*
X54853Y-47316D01*
X54913Y-47461D01*
X55025Y-47573D01*
X55170Y-47633D01*
X55327Y-47633D01*
X55470Y-47574D01*
X55470Y-55337D01*
X55452Y-55319D01*
X55415Y-55304D01*
X55375Y-55304D01*
X55303Y-55304D01*
X55303Y-55132D01*
X55303Y-55092D01*
X55303Y-54698D01*
X55288Y-54661D01*
X55260Y-54633D01*
X55223Y-54618D01*
X55183Y-54618D01*
X54907Y-54618D01*
X54870Y-54633D01*
X54842Y-54661D01*
X54827Y-54698D01*
X54827Y-54738D01*
X54827Y-55132D01*
X54842Y-55169D01*
X54870Y-55197D01*
X54907Y-55212D01*
X54947Y-55212D01*
X55223Y-55212D01*
X55260Y-55197D01*
X55288Y-55169D01*
X55303Y-55132D01*
X55303Y-55304D01*
X54893Y-55304D01*
X54844Y-55255D01*
X54801Y-55226D01*
X54767Y-55219D01*
X54767Y-55219D01*
X54761Y-55214D01*
X54778Y-55197D01*
X54801Y-55142D01*
X54801Y-55082D01*
X54801Y-55051D01*
X54801Y-54779D01*
X54801Y-54748D01*
X54801Y-54688D01*
X54778Y-54634D01*
X54736Y-54591D01*
X54681Y-54569D01*
X54600Y-54569D01*
X54563Y-54606D01*
X54563Y-54817D01*
X54764Y-54817D01*
X54801Y-54779D01*
X54801Y-55051D01*
X54764Y-55013D01*
X54563Y-55013D01*
X54563Y-55088D01*
X54386Y-55088D01*
X54386Y-55013D01*
X54301Y-55013D01*
X54301Y-54817D01*
X54386Y-54817D01*
X54386Y-54606D01*
X54349Y-54569D01*
X54338Y-54569D01*
X54360Y-54517D01*
X54360Y-54433D01*
X54329Y-54358D01*
X55125Y-54358D01*
X55176Y-54348D01*
X55176Y-54348D01*
X55219Y-54319D01*
X55419Y-54119D01*
X55419Y-54119D01*
X55439Y-54090D01*
X55448Y-54076D01*
X55448Y-54076D01*
X55458Y-54025D01*
X55458Y-54025D01*
X55458Y-52800D01*
X55448Y-52748D01*
X55448Y-52748D01*
X55439Y-52734D01*
X55424Y-52712D01*
X55424Y-48154D01*
X55424Y-48099D01*
X55424Y-47900D01*
X55424Y-47845D01*
X55401Y-47790D01*
X55359Y-47748D01*
X55304Y-47725D01*
X55245Y-47725D01*
X55199Y-47725D01*
X55162Y-47762D01*
X55162Y-47937D01*
X55387Y-47937D01*
X55424Y-47900D01*
X55424Y-48099D01*
X55387Y-48062D01*
X55162Y-48062D01*
X55162Y-48237D01*
X55199Y-48274D01*
X55245Y-48274D01*
X55304Y-48274D01*
X55359Y-48251D01*
X55401Y-48209D01*
X55424Y-48154D01*
X55424Y-52712D01*
X55419Y-52705D01*
X55419Y-52705D01*
X54996Y-52282D01*
X54996Y-50312D01*
X54986Y-50261D01*
X54957Y-50217D01*
X54823Y-50083D01*
X55050Y-50083D01*
X55101Y-50073D01*
X55101Y-50073D01*
X55144Y-50044D01*
X55269Y-49919D01*
X55298Y-49876D01*
X55308Y-49825D01*
X55308Y-49450D01*
X55300Y-49407D01*
X55298Y-49398D01*
X55298Y-49398D01*
X55269Y-49355D01*
X55169Y-49255D01*
X55126Y-49226D01*
X55090Y-49219D01*
X55100Y-49194D01*
X55100Y-49155D01*
X55100Y-48913D01*
X55144Y-48869D01*
X55173Y-48826D01*
X55173Y-48826D01*
X55173Y-48825D01*
X55294Y-48825D01*
X55331Y-48810D01*
X55360Y-48781D01*
X55375Y-48744D01*
X55375Y-48705D01*
X55375Y-48455D01*
X55360Y-48418D01*
X55331Y-48389D01*
X55294Y-48374D01*
X55255Y-48374D01*
X54937Y-48374D01*
X54937Y-48237D01*
X54937Y-48062D01*
X54937Y-47937D01*
X54937Y-47762D01*
X54900Y-47725D01*
X54854Y-47725D01*
X54795Y-47725D01*
X54740Y-47748D01*
X54698Y-47790D01*
X54675Y-47845D01*
X54675Y-47900D01*
X54712Y-47937D01*
X54937Y-47937D01*
X54937Y-48062D01*
X54712Y-48062D01*
X54675Y-48099D01*
X54675Y-48154D01*
X54698Y-48209D01*
X54740Y-48251D01*
X54795Y-48274D01*
X54854Y-48274D01*
X54900Y-48274D01*
X54937Y-48237D01*
X54937Y-48374D01*
X54805Y-48374D01*
X54768Y-48389D01*
X54739Y-48418D01*
X54724Y-48455D01*
X54724Y-48494D01*
X54724Y-48744D01*
X54739Y-48781D01*
X54768Y-48810D01*
X54803Y-48824D01*
X54649Y-48824D01*
X54649Y-47629D01*
X54649Y-47570D01*
X54649Y-47487D01*
X54649Y-47112D01*
X54649Y-47029D01*
X54649Y-46970D01*
X54626Y-46915D01*
X54584Y-46873D01*
X54529Y-46850D01*
X54387Y-46850D01*
X54350Y-46887D01*
X54350Y-47150D01*
X54612Y-47150D01*
X54649Y-47112D01*
X54649Y-47487D01*
X54612Y-47450D01*
X54350Y-47450D01*
X54350Y-47712D01*
X54387Y-47749D01*
X54529Y-47749D01*
X54584Y-47726D01*
X54626Y-47684D01*
X54649Y-47629D01*
X54649Y-48824D01*
X54530Y-48824D01*
X54493Y-48839D01*
X54464Y-48868D01*
X54449Y-48905D01*
X54449Y-48944D01*
X54449Y-49194D01*
X54458Y-49216D01*
X54330Y-49216D01*
X53833Y-48719D01*
X53833Y-48462D01*
X53860Y-48526D01*
X53972Y-48639D01*
X54120Y-48700D01*
X54279Y-48700D01*
X54426Y-48639D01*
X54539Y-48527D01*
X54600Y-48379D01*
X54600Y-48220D01*
X54539Y-48073D01*
X54427Y-47960D01*
X54279Y-47899D01*
X54120Y-47899D01*
X54043Y-47931D01*
X53856Y-47743D01*
X53870Y-47749D01*
X54012Y-47749D01*
X54050Y-47712D01*
X54050Y-47450D01*
X54026Y-47450D01*
X54026Y-47150D01*
X54050Y-47150D01*
X54050Y-46887D01*
X54012Y-46850D01*
X53870Y-46850D01*
X53815Y-46873D01*
X53773Y-46915D01*
X53762Y-46942D01*
X53538Y-46718D01*
X53489Y-46686D01*
X53431Y-46674D01*
X50648Y-46674D01*
X50635Y-46643D01*
X50606Y-46614D01*
X50569Y-46599D01*
X50530Y-46599D01*
X50080Y-46599D01*
X50043Y-46614D01*
X50014Y-46643D01*
X50001Y-46674D01*
X49925Y-46674D01*
X49425Y-46674D01*
X49367Y-46686D01*
X49318Y-46718D01*
X49231Y-46806D01*
X49209Y-46837D01*
X49179Y-46825D01*
X49124Y-46825D01*
X49087Y-46862D01*
X49087Y-47087D01*
X49150Y-47087D01*
X49150Y-47312D01*
X49087Y-47312D01*
X49087Y-47373D01*
X48962Y-47373D01*
X48962Y-47312D01*
X48962Y-47087D01*
X48962Y-46862D01*
X48925Y-46825D01*
X48870Y-46825D01*
X48815Y-46848D01*
X48773Y-46890D01*
X48750Y-46945D01*
X48750Y-47004D01*
X48750Y-47050D01*
X48787Y-47087D01*
X48962Y-47087D01*
X48962Y-47312D01*
X48787Y-47312D01*
X48750Y-47349D01*
X48750Y-47395D01*
X48750Y-47454D01*
X48773Y-47509D01*
X48805Y-47541D01*
X48799Y-47555D01*
X48799Y-47594D01*
X48799Y-48044D01*
X48805Y-48058D01*
X48773Y-48090D01*
X48750Y-48145D01*
X48750Y-48204D01*
X48750Y-48250D01*
X48787Y-48287D01*
X48962Y-48287D01*
X48962Y-48226D01*
X49087Y-48226D01*
X49087Y-48287D01*
X49150Y-48287D01*
X49150Y-48512D01*
X49087Y-48512D01*
X49087Y-48573D01*
X48962Y-48573D01*
X48962Y-48512D01*
X48787Y-48512D01*
X48750Y-48549D01*
X48750Y-48595D01*
X48750Y-48654D01*
X48773Y-48709D01*
X48815Y-48751D01*
X48852Y-48767D01*
X48836Y-48792D01*
X48824Y-48850D01*
X48824Y-52575D01*
X48836Y-52632D01*
X48868Y-52681D01*
X49425Y-53238D01*
X49373Y-53260D01*
X49260Y-53372D01*
X49199Y-53520D01*
X49199Y-53679D01*
X49260Y-53826D01*
X49372Y-53939D01*
X49520Y-54000D01*
X49679Y-54000D01*
X49826Y-53939D01*
X49939Y-53827D01*
X50000Y-53679D01*
X50000Y-53520D01*
X49939Y-53373D01*
X49827Y-53260D01*
X49750Y-53228D01*
X49750Y-53200D01*
X49738Y-53142D01*
X49706Y-53093D01*
X49125Y-52512D01*
X49125Y-50199D01*
X49162Y-50162D01*
X49162Y-49937D01*
X49125Y-49937D01*
X49125Y-49712D01*
X49162Y-49712D01*
X49162Y-49487D01*
X49162Y-49487D01*
X49162Y-49487D01*
X49162Y-49262D01*
X49125Y-49262D01*
X49125Y-49037D01*
X49162Y-49037D01*
X49162Y-48976D01*
X49287Y-48976D01*
X49287Y-49037D01*
X49350Y-49037D01*
X49350Y-49262D01*
X49287Y-49262D01*
X49287Y-49487D01*
X49287Y-49487D01*
X49287Y-49487D01*
X49287Y-49712D01*
X49462Y-49712D01*
X49499Y-49675D01*
X49499Y-49629D01*
X49499Y-49570D01*
X49494Y-49559D01*
X49530Y-49594D01*
X49573Y-49623D01*
X49599Y-49628D01*
X49599Y-50069D01*
X49614Y-50106D01*
X49643Y-50135D01*
X49680Y-50150D01*
X49719Y-50150D01*
X49969Y-50150D01*
X50006Y-50135D01*
X50035Y-50106D01*
X50050Y-50069D01*
X50050Y-50030D01*
X50050Y-49847D01*
X50113Y-49783D01*
X50509Y-49783D01*
X50457Y-49805D01*
X50431Y-49831D01*
X50431Y-49884D01*
X50671Y-50124D01*
X50703Y-50093D01*
X50937Y-50327D01*
X50905Y-50358D01*
X51146Y-50599D01*
X51199Y-50599D01*
X51225Y-50573D01*
X51247Y-50518D01*
X51247Y-50476D01*
X51256Y-50472D01*
X51284Y-50444D01*
X51409Y-50319D01*
X51424Y-50282D01*
X51424Y-50268D01*
X51438Y-50268D01*
X51475Y-50253D01*
X51503Y-50225D01*
X51628Y-50099D01*
X51644Y-50063D01*
X51644Y-50042D01*
X51657Y-50042D01*
X51771Y-50156D01*
X51820Y-50188D01*
X51878Y-50200D01*
X52362Y-50200D01*
X52974Y-50812D01*
X52974Y-51750D01*
X52974Y-52625D01*
X52982Y-52666D01*
X52954Y-52666D01*
X52899Y-52688D01*
X52873Y-52714D01*
X52873Y-52767D01*
X53114Y-53008D01*
X53145Y-52976D01*
X53379Y-53210D01*
X53348Y-53242D01*
X53588Y-53482D01*
X53641Y-53482D01*
X53667Y-53456D01*
X53690Y-53401D01*
X53690Y-53361D01*
X53695Y-53359D01*
X53723Y-53331D01*
X53848Y-53206D01*
X53850Y-53201D01*
X53890Y-53201D01*
X53945Y-53178D01*
X53971Y-53152D01*
X53971Y-53099D01*
X53731Y-52859D01*
X53699Y-52890D01*
X53465Y-52656D01*
X53497Y-52625D01*
X53491Y-52619D01*
X53554Y-52557D01*
X53559Y-52562D01*
X53590Y-52531D01*
X53824Y-52765D01*
X53793Y-52796D01*
X54034Y-53037D01*
X54086Y-53037D01*
X54112Y-53011D01*
X54135Y-52956D01*
X54135Y-52916D01*
X54140Y-52914D01*
X54168Y-52885D01*
X54291Y-52763D01*
X54291Y-52894D01*
X53789Y-53395D01*
X53762Y-53437D01*
X53726Y-53437D01*
X53689Y-53452D01*
X53661Y-53480D01*
X53646Y-53517D01*
X53646Y-53557D01*
X53646Y-53951D01*
X53661Y-53988D01*
X53689Y-54016D01*
X53726Y-54031D01*
X53766Y-54031D01*
X54042Y-54031D01*
X54079Y-54016D01*
X54107Y-53988D01*
X54122Y-53951D01*
X54122Y-53911D01*
X54122Y-53517D01*
X54107Y-53480D01*
X54095Y-53468D01*
X54519Y-53044D01*
X54548Y-53001D01*
X54548Y-53001D01*
X54550Y-52992D01*
X54558Y-52950D01*
X54558Y-52950D01*
X54558Y-52549D01*
X54550Y-52507D01*
X54548Y-52498D01*
X54548Y-52498D01*
X54538Y-52484D01*
X54549Y-52484D01*
X54560Y-52479D01*
X54931Y-52850D01*
X54931Y-53437D01*
X54907Y-53437D01*
X54870Y-53452D01*
X54842Y-53480D01*
X54827Y-53517D01*
X54827Y-53557D01*
X54827Y-53951D01*
X54842Y-53988D01*
X54870Y-54016D01*
X54907Y-54031D01*
X54947Y-54031D01*
X55129Y-54031D01*
X55069Y-54091D01*
X54801Y-54091D01*
X54801Y-53961D01*
X54801Y-53901D01*
X54801Y-53870D01*
X54801Y-53598D01*
X54801Y-53567D01*
X54801Y-53507D01*
X54778Y-53452D01*
X54736Y-53410D01*
X54681Y-53388D01*
X54600Y-53388D01*
X54563Y-53425D01*
X54563Y-53636D01*
X54764Y-53636D01*
X54801Y-53598D01*
X54801Y-53870D01*
X54764Y-53832D01*
X54563Y-53832D01*
X54563Y-54043D01*
X54600Y-54080D01*
X54681Y-54080D01*
X54736Y-54058D01*
X54778Y-54015D01*
X54801Y-53961D01*
X54801Y-54091D01*
X54386Y-54091D01*
X54386Y-54043D01*
X54386Y-53832D01*
X54386Y-53636D01*
X54386Y-53425D01*
X54349Y-53388D01*
X54268Y-53388D01*
X54213Y-53410D01*
X54171Y-53452D01*
X54148Y-53507D01*
X54148Y-53567D01*
X54148Y-53598D01*
X54185Y-53636D01*
X54386Y-53636D01*
X54386Y-53832D01*
X54185Y-53832D01*
X54148Y-53870D01*
X54148Y-53901D01*
X54148Y-53961D01*
X54171Y-54015D01*
X54213Y-54058D01*
X54268Y-54080D01*
X54349Y-54080D01*
X54386Y-54043D01*
X54386Y-54091D01*
X53775Y-54091D01*
X53732Y-54099D01*
X53723Y-54101D01*
X53680Y-54130D01*
X53456Y-54354D01*
X53045Y-54354D01*
X53008Y-54369D01*
X52980Y-54397D01*
X52964Y-54434D01*
X52964Y-54474D01*
X52964Y-55065D01*
X52980Y-55102D01*
X53008Y-55130D01*
X53045Y-55145D01*
X53085Y-55145D01*
X53651Y-55145D01*
X53661Y-55169D01*
X53689Y-55197D01*
X53726Y-55212D01*
X53766Y-55212D01*
X53983Y-55212D01*
X53976Y-55223D01*
X53966Y-55275D01*
X53966Y-55304D01*
X53784Y-55304D01*
X53747Y-55319D01*
X53719Y-55347D01*
X53704Y-55384D01*
X53704Y-55424D01*
X53704Y-56015D01*
X53719Y-56052D01*
X53747Y-56080D01*
X53784Y-56095D01*
X53824Y-56095D01*
X54415Y-56095D01*
X54452Y-56080D01*
X54480Y-56052D01*
X54482Y-56046D01*
X54660Y-56224D01*
X54520Y-56224D01*
X54373Y-56285D01*
X54260Y-56397D01*
X54199Y-56545D01*
X54199Y-56704D01*
X54260Y-56851D01*
X54372Y-56964D01*
X54520Y-57025D01*
X54679Y-57025D01*
X54826Y-56964D01*
X54913Y-56877D01*
X55041Y-57005D01*
X55041Y-57876D01*
X54961Y-57797D01*
X55000Y-57704D01*
X55000Y-57545D01*
X54939Y-57398D01*
X54827Y-57285D01*
X54679Y-57224D01*
X54520Y-57224D01*
X54427Y-57263D01*
X54000Y-56836D01*
X54000Y-56305D01*
X53985Y-56268D01*
X53956Y-56239D01*
X53919Y-56224D01*
X53880Y-56224D01*
X53280Y-56224D01*
X53243Y-56239D01*
X53233Y-56249D01*
X53233Y-56095D01*
X53415Y-56095D01*
X53452Y-56080D01*
X53480Y-56052D01*
X53495Y-56015D01*
X53495Y-55975D01*
X53495Y-55384D01*
X53480Y-55347D01*
X53452Y-55319D01*
X53415Y-55304D01*
X53375Y-55304D01*
X52908Y-55304D01*
X52908Y-54455D01*
X53394Y-53969D01*
X53423Y-53926D01*
X53433Y-53875D01*
X53433Y-53700D01*
X53423Y-53648D01*
X53423Y-53648D01*
X53422Y-53646D01*
X53445Y-53646D01*
X53500Y-53624D01*
X53526Y-53598D01*
X53526Y-53545D01*
X53285Y-53304D01*
X53254Y-53336D01*
X53020Y-53102D01*
X53051Y-53070D01*
X52811Y-52830D01*
X52758Y-52830D01*
X52732Y-52856D01*
X52709Y-52911D01*
X52709Y-52951D01*
X52704Y-52953D01*
X52676Y-52981D01*
X52551Y-53106D01*
X52535Y-53143D01*
X52535Y-53160D01*
X52518Y-53160D01*
X52481Y-53176D01*
X52453Y-53204D01*
X52328Y-53329D01*
X52313Y-53366D01*
X52313Y-53406D01*
X52328Y-53443D01*
X52356Y-53471D01*
X52526Y-53640D01*
X52005Y-54161D01*
X51976Y-54205D01*
X51966Y-54256D01*
X51966Y-55304D01*
X51784Y-55304D01*
X51747Y-55319D01*
X51719Y-55347D01*
X51704Y-55384D01*
X51704Y-55424D01*
X51704Y-56015D01*
X51719Y-56052D01*
X51747Y-56080D01*
X51784Y-56095D01*
X51824Y-56095D01*
X51966Y-56095D01*
X51966Y-56470D01*
X51812Y-56625D01*
X51966Y-56779D01*
X51966Y-57470D01*
X51812Y-57625D01*
X51966Y-57779D01*
X51966Y-57850D01*
X51976Y-57901D01*
X52005Y-57944D01*
X52280Y-58219D01*
X52323Y-58248D01*
X52323Y-58248D01*
X52332Y-58250D01*
X52375Y-58258D01*
X52437Y-58258D01*
X52373Y-58285D01*
X52260Y-58397D01*
X52199Y-58545D01*
X52199Y-58704D01*
X52260Y-58851D01*
X52372Y-58964D01*
X52520Y-59025D01*
X52679Y-59025D01*
X52826Y-58964D01*
X52939Y-58852D01*
X52966Y-58787D01*
X52966Y-58925D01*
X52976Y-58976D01*
X53005Y-59019D01*
X53205Y-59219D01*
X53205Y-59219D01*
X53234Y-59239D01*
X53248Y-59248D01*
X53248Y-59248D01*
X53300Y-59258D01*
X53437Y-59258D01*
X53373Y-59285D01*
X53260Y-59397D01*
X53199Y-59545D01*
X53199Y-59704D01*
X53260Y-59851D01*
X53341Y-59932D01*
X52858Y-59932D01*
X52939Y-59852D01*
X53000Y-59704D01*
X53000Y-59545D01*
X52939Y-59398D01*
X52827Y-59285D01*
X52679Y-59224D01*
X52520Y-59224D01*
X52373Y-59285D01*
X52260Y-59397D01*
X52199Y-59545D01*
X52199Y-59704D01*
X52260Y-59851D01*
X52341Y-59932D01*
X51858Y-59932D01*
X51939Y-59852D01*
X52000Y-59704D01*
X52000Y-59545D01*
X52000Y-58545D01*
X51939Y-58398D01*
X51827Y-58285D01*
X51772Y-58262D01*
X51772Y-58009D01*
X51772Y-57240D01*
X51772Y-57009D01*
X51772Y-56240D01*
X51733Y-56186D01*
X51555Y-56168D01*
X51466Y-56186D01*
X51427Y-56240D01*
X51600Y-56412D01*
X51772Y-56240D01*
X51772Y-57009D01*
X51600Y-56837D01*
X51427Y-57009D01*
X51466Y-57063D01*
X51644Y-57081D01*
X51733Y-57063D01*
X51772Y-57009D01*
X51772Y-57240D01*
X51733Y-57186D01*
X51555Y-57168D01*
X51466Y-57186D01*
X51427Y-57240D01*
X51600Y-57412D01*
X51772Y-57240D01*
X51772Y-58009D01*
X51600Y-57837D01*
X51427Y-58009D01*
X51466Y-58063D01*
X51644Y-58081D01*
X51733Y-58063D01*
X51772Y-58009D01*
X51772Y-58262D01*
X51679Y-58224D01*
X51520Y-58224D01*
X51387Y-58279D01*
X51387Y-57625D01*
X51387Y-56625D01*
X51215Y-56452D01*
X51161Y-56491D01*
X51143Y-56669D01*
X51161Y-56758D01*
X51215Y-56797D01*
X51387Y-56625D01*
X51387Y-57625D01*
X51215Y-57452D01*
X51161Y-57491D01*
X51143Y-57669D01*
X51161Y-57758D01*
X51215Y-57797D01*
X51387Y-57625D01*
X51387Y-58279D01*
X51373Y-58285D01*
X51260Y-58397D01*
X51199Y-58545D01*
X51199Y-58704D01*
X51260Y-58851D01*
X51372Y-58964D01*
X51520Y-59025D01*
X51679Y-59025D01*
X51826Y-58964D01*
X51939Y-58852D01*
X52000Y-58704D01*
X52000Y-58545D01*
X52000Y-59545D01*
X51939Y-59398D01*
X51827Y-59285D01*
X51679Y-59224D01*
X51520Y-59224D01*
X51373Y-59285D01*
X51260Y-59397D01*
X51199Y-59545D01*
X51199Y-59704D01*
X51260Y-59851D01*
X51341Y-59932D01*
X50858Y-59932D01*
X50939Y-59852D01*
X51000Y-59704D01*
X51000Y-59545D01*
X50939Y-59398D01*
X50827Y-59285D01*
X50679Y-59224D01*
X50520Y-59224D01*
X50373Y-59285D01*
X50317Y-59341D01*
X50317Y-58908D01*
X50372Y-58964D01*
X50520Y-59025D01*
X50679Y-59025D01*
X50826Y-58964D01*
X50939Y-58852D01*
X51000Y-58704D01*
X51000Y-58545D01*
X50939Y-58398D01*
X50827Y-58285D01*
X50679Y-58224D01*
X50520Y-58224D01*
X50373Y-58285D01*
X50317Y-58341D01*
X50317Y-57908D01*
X50372Y-57964D01*
X50520Y-58025D01*
X50679Y-58025D01*
X50826Y-57964D01*
X50939Y-57852D01*
X51000Y-57704D01*
X51000Y-57545D01*
X50939Y-57398D01*
X50827Y-57285D01*
X50679Y-57224D01*
X50520Y-57224D01*
X50373Y-57285D01*
X50317Y-57341D01*
X50317Y-56908D01*
X50372Y-56964D01*
X50520Y-57025D01*
X50679Y-57025D01*
X50826Y-56964D01*
X50939Y-56852D01*
X51000Y-56704D01*
X51000Y-56545D01*
X50939Y-56398D01*
X50827Y-56285D01*
X50810Y-56278D01*
X50993Y-56095D01*
X51415Y-56095D01*
X51452Y-56080D01*
X51480Y-56052D01*
X51495Y-56015D01*
X51495Y-55975D01*
X51495Y-55384D01*
X51480Y-55347D01*
X51452Y-55319D01*
X51415Y-55304D01*
X51375Y-55304D01*
X51308Y-55304D01*
X51308Y-53969D01*
X51370Y-54030D01*
X51407Y-54046D01*
X51447Y-54046D01*
X51484Y-54030D01*
X51512Y-54002D01*
X52068Y-53446D01*
X52084Y-53409D01*
X52084Y-53369D01*
X52079Y-53359D01*
X52544Y-52894D01*
X52573Y-52851D01*
X52583Y-52800D01*
X52583Y-50900D01*
X52575Y-50857D01*
X52573Y-50848D01*
X52573Y-50848D01*
X52544Y-50805D01*
X52544Y-50805D01*
X52335Y-50596D01*
X52335Y-50533D01*
X52303Y-50455D01*
X52244Y-50396D01*
X52167Y-50364D01*
X52083Y-50364D01*
X52005Y-50396D01*
X51946Y-50455D01*
X51914Y-50532D01*
X51914Y-50616D01*
X51946Y-50694D01*
X52005Y-50753D01*
X52082Y-50785D01*
X52146Y-50785D01*
X52316Y-50955D01*
X52316Y-52744D01*
X52185Y-52875D01*
X52185Y-51283D01*
X52153Y-51205D01*
X52094Y-51146D01*
X52017Y-51114D01*
X51953Y-51114D01*
X51569Y-50730D01*
X51526Y-50701D01*
X51475Y-50691D01*
X51083Y-50691D01*
X51083Y-50661D01*
X50843Y-50421D01*
X50811Y-50452D01*
X50577Y-50218D01*
X50609Y-50187D01*
X50368Y-49946D01*
X50315Y-49946D01*
X50289Y-49972D01*
X50267Y-50027D01*
X50267Y-50065D01*
X50265Y-50066D01*
X50237Y-50094D01*
X50112Y-50219D01*
X50097Y-50256D01*
X50097Y-50277D01*
X50076Y-50277D01*
X50039Y-50292D01*
X50011Y-50320D01*
X49886Y-50445D01*
X49870Y-50482D01*
X49870Y-50496D01*
X49857Y-50496D01*
X49820Y-50511D01*
X49792Y-50539D01*
X49666Y-50665D01*
X49651Y-50701D01*
X49651Y-50741D01*
X49666Y-50778D01*
X49695Y-50807D01*
X50251Y-51363D01*
X50288Y-51378D01*
X50328Y-51378D01*
X50365Y-51363D01*
X50393Y-51335D01*
X50400Y-51328D01*
X50425Y-51333D01*
X50739Y-51333D01*
X50739Y-51366D01*
X50771Y-51444D01*
X50830Y-51503D01*
X50907Y-51535D01*
X50991Y-51535D01*
X51069Y-51503D01*
X51128Y-51444D01*
X51160Y-51367D01*
X51160Y-51283D01*
X51128Y-51205D01*
X51081Y-51158D01*
X51269Y-51158D01*
X51372Y-51262D01*
X51364Y-51282D01*
X51364Y-51366D01*
X51396Y-51444D01*
X51455Y-51503D01*
X51532Y-51535D01*
X51616Y-51535D01*
X51694Y-51503D01*
X51753Y-51444D01*
X51775Y-51392D01*
X51796Y-51444D01*
X51855Y-51503D01*
X51932Y-51535D01*
X52016Y-51535D01*
X52094Y-51503D01*
X52153Y-51444D01*
X52185Y-51367D01*
X52185Y-51283D01*
X52185Y-52875D01*
X51891Y-53169D01*
X51878Y-53163D01*
X51861Y-53163D01*
X51861Y-53147D01*
X51846Y-53110D01*
X51818Y-53081D01*
X51693Y-52956D01*
X51656Y-52941D01*
X51638Y-52941D01*
X51638Y-52923D01*
X51623Y-52886D01*
X51595Y-52858D01*
X51469Y-52733D01*
X51432Y-52718D01*
X51416Y-52718D01*
X51416Y-52701D01*
X51401Y-52664D01*
X51372Y-52636D01*
X51320Y-52583D01*
X51686Y-52583D01*
X51730Y-52628D01*
X51807Y-52660D01*
X51891Y-52660D01*
X51969Y-52628D01*
X52028Y-52569D01*
X52060Y-52492D01*
X52060Y-52408D01*
X52028Y-52330D01*
X51969Y-52271D01*
X51892Y-52239D01*
X51808Y-52239D01*
X51730Y-52271D01*
X51685Y-52316D01*
X51052Y-52316D01*
X51024Y-52287D01*
X50987Y-52272D01*
X50971Y-52272D01*
X50971Y-52256D01*
X50966Y-52244D01*
X51052Y-52158D01*
X51236Y-52158D01*
X51280Y-52203D01*
X51357Y-52235D01*
X51441Y-52235D01*
X51519Y-52203D01*
X51578Y-52144D01*
X51610Y-52067D01*
X51610Y-51983D01*
X51578Y-51905D01*
X51519Y-51846D01*
X51442Y-51814D01*
X51358Y-51814D01*
X51280Y-51846D01*
X51235Y-51891D01*
X51000Y-51891D01*
X51010Y-51867D01*
X51010Y-51783D01*
X50978Y-51705D01*
X50919Y-51646D01*
X50842Y-51614D01*
X50760Y-51614D01*
X50760Y-51583D01*
X50728Y-51505D01*
X50669Y-51446D01*
X50592Y-51414D01*
X50508Y-51414D01*
X50430Y-51446D01*
X50371Y-51505D01*
X50339Y-51582D01*
X50339Y-51601D01*
X50331Y-51609D01*
X50319Y-51605D01*
X50280Y-51605D01*
X50243Y-51620D01*
X50214Y-51648D01*
X49658Y-52205D01*
X49643Y-52242D01*
X49643Y-52253D01*
X49583Y-52194D01*
X49583Y-50588D01*
X49628Y-50544D01*
X49660Y-50467D01*
X49660Y-50383D01*
X49628Y-50305D01*
X49569Y-50246D01*
X49499Y-50217D01*
X49499Y-50079D01*
X49499Y-50020D01*
X49499Y-49974D01*
X49462Y-49937D01*
X49287Y-49937D01*
X49287Y-50162D01*
X49324Y-50199D01*
X49379Y-50199D01*
X49434Y-50176D01*
X49476Y-50134D01*
X49499Y-50079D01*
X49499Y-50217D01*
X49492Y-50214D01*
X49408Y-50214D01*
X49330Y-50246D01*
X49271Y-50305D01*
X49239Y-50382D01*
X49239Y-50466D01*
X49271Y-50544D01*
X49316Y-50589D01*
X49316Y-52250D01*
X49326Y-52301D01*
X49355Y-52344D01*
X50235Y-53224D01*
X50105Y-53224D01*
X50068Y-53239D01*
X50039Y-53268D01*
X50024Y-53305D01*
X50024Y-53344D01*
X50024Y-53594D01*
X50039Y-53631D01*
X50068Y-53660D01*
X50105Y-53675D01*
X50144Y-53675D01*
X50594Y-53675D01*
X50631Y-53660D01*
X50660Y-53631D01*
X50675Y-53594D01*
X50675Y-53555D01*
X50675Y-53426D01*
X50728Y-53373D01*
X50739Y-53378D01*
X50756Y-53378D01*
X50756Y-53394D01*
X50771Y-53431D01*
X50799Y-53460D01*
X50816Y-53476D01*
X50816Y-53700D01*
X50826Y-53751D01*
X50855Y-53794D01*
X50891Y-53830D01*
X50891Y-53895D01*
X50817Y-53864D01*
X50733Y-53864D01*
X50669Y-53890D01*
X50660Y-53868D01*
X50631Y-53839D01*
X50594Y-53824D01*
X50555Y-53824D01*
X50105Y-53824D01*
X50068Y-53839D01*
X50039Y-53868D01*
X50024Y-53905D01*
X50024Y-53944D01*
X50024Y-54194D01*
X50039Y-54231D01*
X50068Y-54260D01*
X50105Y-54275D01*
X50144Y-54275D01*
X50594Y-54275D01*
X50631Y-54260D01*
X50647Y-54244D01*
X50655Y-54253D01*
X50732Y-54285D01*
X50816Y-54285D01*
X50891Y-54254D01*
X50891Y-54719D01*
X50734Y-54876D01*
X50734Y-54564D01*
X50734Y-54484D01*
X50734Y-54424D01*
X50711Y-54370D01*
X50669Y-54327D01*
X50614Y-54305D01*
X50474Y-54305D01*
X50437Y-54342D01*
X50437Y-54602D01*
X50696Y-54602D01*
X50734Y-54564D01*
X50734Y-54876D01*
X50705Y-54905D01*
X50696Y-54897D01*
X50437Y-54897D01*
X50437Y-55157D01*
X50445Y-55165D01*
X50306Y-55304D01*
X50141Y-55304D01*
X50141Y-55157D01*
X50141Y-54897D01*
X50116Y-54897D01*
X50116Y-54602D01*
X50141Y-54602D01*
X50141Y-54342D01*
X50104Y-54305D01*
X50049Y-54305D01*
X50049Y-54270D01*
X50026Y-54215D01*
X49984Y-54173D01*
X49929Y-54150D01*
X49870Y-54150D01*
X49787Y-54150D01*
X49750Y-54187D01*
X49750Y-54450D01*
X49773Y-54450D01*
X49773Y-54750D01*
X49750Y-54750D01*
X49750Y-55012D01*
X49787Y-55049D01*
X49844Y-55049D01*
X49844Y-55075D01*
X49867Y-55129D01*
X49909Y-55172D01*
X49964Y-55194D01*
X50104Y-55194D01*
X50141Y-55157D01*
X50141Y-55304D01*
X49784Y-55304D01*
X49747Y-55319D01*
X49719Y-55347D01*
X49704Y-55384D01*
X49704Y-55424D01*
X49704Y-56015D01*
X49719Y-56052D01*
X49747Y-56080D01*
X49784Y-56095D01*
X49824Y-56095D01*
X49928Y-56095D01*
X49926Y-56098D01*
X49916Y-56150D01*
X49916Y-56374D01*
X49827Y-56285D01*
X49679Y-56224D01*
X49544Y-56224D01*
X49544Y-56025D01*
X49544Y-55965D01*
X49544Y-55885D01*
X49544Y-55514D01*
X49544Y-55434D01*
X49544Y-55374D01*
X49522Y-55320D01*
X49479Y-55277D01*
X49450Y-55265D01*
X49450Y-55012D01*
X49450Y-54750D01*
X49450Y-54450D01*
X49450Y-54187D01*
X49412Y-54150D01*
X49329Y-54150D01*
X49270Y-54150D01*
X49215Y-54173D01*
X49173Y-54215D01*
X49150Y-54270D01*
X49150Y-54412D01*
X49187Y-54450D01*
X49450Y-54450D01*
X49450Y-54750D01*
X49187Y-54750D01*
X49150Y-54787D01*
X49150Y-54929D01*
X49173Y-54984D01*
X49215Y-55026D01*
X49270Y-55049D01*
X49329Y-55049D01*
X49412Y-55049D01*
X49450Y-55012D01*
X49450Y-55265D01*
X49425Y-55255D01*
X49285Y-55255D01*
X49247Y-55292D01*
X49247Y-55552D01*
X49507Y-55552D01*
X49544Y-55514D01*
X49544Y-55885D01*
X49507Y-55847D01*
X49247Y-55847D01*
X49247Y-56107D01*
X49285Y-56144D01*
X49425Y-56144D01*
X49479Y-56122D01*
X49522Y-56079D01*
X49544Y-56025D01*
X49544Y-56224D01*
X49520Y-56224D01*
X49373Y-56285D01*
X49260Y-56397D01*
X49199Y-56545D01*
X49199Y-56704D01*
X49260Y-56851D01*
X49372Y-56964D01*
X49520Y-57025D01*
X49679Y-57025D01*
X49826Y-56964D01*
X49916Y-56875D01*
X49916Y-57374D01*
X49827Y-57285D01*
X49679Y-57224D01*
X49520Y-57224D01*
X49373Y-57285D01*
X49260Y-57397D01*
X49199Y-57545D01*
X49199Y-57704D01*
X49260Y-57851D01*
X49372Y-57964D01*
X49520Y-58025D01*
X49679Y-58025D01*
X49826Y-57964D01*
X49916Y-57875D01*
X49916Y-58374D01*
X49827Y-58285D01*
X49679Y-58224D01*
X49520Y-58224D01*
X49373Y-58285D01*
X49260Y-58397D01*
X49199Y-58545D01*
X49199Y-58704D01*
X49260Y-58851D01*
X49372Y-58964D01*
X49520Y-59025D01*
X49679Y-59025D01*
X49826Y-58964D01*
X49916Y-58875D01*
X49916Y-59374D01*
X49827Y-59285D01*
X49679Y-59224D01*
X49520Y-59224D01*
X49373Y-59285D01*
X49260Y-59397D01*
X49199Y-59545D01*
X49199Y-59704D01*
X49260Y-59851D01*
X49372Y-59964D01*
X49520Y-60025D01*
X49679Y-60025D01*
X49826Y-59964D01*
X49916Y-59875D01*
X49916Y-59900D01*
X49926Y-59951D01*
X49955Y-59994D01*
X50255Y-60294D01*
X50298Y-60323D01*
X50329Y-60329D01*
X50260Y-60397D01*
X50199Y-60545D01*
X50199Y-60704D01*
X50260Y-60851D01*
X50372Y-60964D01*
X50520Y-61025D01*
X50679Y-61025D01*
X50826Y-60964D01*
X50939Y-60852D01*
X51000Y-60704D01*
X51000Y-60545D01*
X50939Y-60398D01*
X50875Y-60333D01*
X51324Y-60333D01*
X51260Y-60397D01*
X51199Y-60545D01*
X51199Y-60704D01*
X51260Y-60851D01*
X51372Y-60964D01*
X51520Y-61025D01*
X51679Y-61025D01*
X51826Y-60964D01*
X51939Y-60852D01*
X52000Y-60704D01*
X52000Y-60545D01*
X51939Y-60398D01*
X51875Y-60333D01*
X52324Y-60333D01*
X52260Y-60397D01*
X52199Y-60545D01*
X52199Y-60704D01*
X52260Y-60851D01*
X52372Y-60964D01*
X52520Y-61025D01*
X52679Y-61025D01*
X52826Y-60964D01*
X52939Y-60852D01*
X53000Y-60704D01*
X53000Y-60545D01*
X52939Y-60398D01*
X52875Y-60333D01*
X53324Y-60333D01*
X53260Y-60397D01*
X53199Y-60545D01*
X53199Y-60704D01*
X53260Y-60851D01*
X53372Y-60964D01*
X53520Y-61025D01*
X53679Y-61025D01*
X53826Y-60964D01*
X53939Y-60852D01*
X54000Y-60704D01*
X54000Y-60545D01*
X53939Y-60398D01*
X53875Y-60333D01*
X54324Y-60333D01*
X54260Y-60397D01*
X54199Y-60545D01*
X54199Y-60704D01*
X54260Y-60851D01*
X54372Y-60964D01*
X54520Y-61025D01*
X54679Y-61025D01*
X54826Y-60964D01*
X54939Y-60852D01*
X54978Y-60758D01*
X55026Y-60748D01*
X55026Y-60748D01*
X55069Y-60719D01*
X55341Y-60448D01*
X55341Y-61069D01*
X54960Y-61449D01*
X54939Y-61398D01*
X54827Y-61285D01*
X54679Y-61224D01*
X54520Y-61224D01*
X54373Y-61285D01*
X54260Y-61397D01*
X54199Y-61545D01*
X54199Y-61704D01*
X54260Y-61851D01*
X54372Y-61964D01*
X54520Y-62025D01*
X54679Y-62025D01*
X54826Y-61964D01*
X54939Y-61852D01*
X54978Y-61758D01*
X55026Y-61748D01*
X55026Y-61748D01*
X55069Y-61719D01*
X55470Y-61319D01*
X55470Y-62045D01*
X55470Y-62045D01*
G37*
G54D22*
X55470Y-62045D02*
X54000Y-62045D01*
X54000Y-61545D01*
X53939Y-61398D01*
X53827Y-61285D01*
X53679Y-61224D01*
X53520Y-61224D01*
X53373Y-61285D01*
X53260Y-61397D01*
X53199Y-61545D01*
X53199Y-61704D01*
X53260Y-61851D01*
X53372Y-61964D01*
X53520Y-62025D01*
X53679Y-62025D01*
X53826Y-61964D01*
X53939Y-61852D01*
X54000Y-61704D01*
X54000Y-61545D01*
X54000Y-62045D01*
X53000Y-62045D01*
X53000Y-61545D01*
X52939Y-61398D01*
X52827Y-61285D01*
X52679Y-61224D01*
X52520Y-61224D01*
X52373Y-61285D01*
X52260Y-61397D01*
X52199Y-61545D01*
X52199Y-61704D01*
X52260Y-61851D01*
X52372Y-61964D01*
X52520Y-62025D01*
X52679Y-62025D01*
X52826Y-61964D01*
X52939Y-61852D01*
X53000Y-61704D01*
X53000Y-61545D01*
X53000Y-62045D01*
X52000Y-62045D01*
X52000Y-61545D01*
X51939Y-61398D01*
X51827Y-61285D01*
X51679Y-61224D01*
X51520Y-61224D01*
X51373Y-61285D01*
X51260Y-61397D01*
X51199Y-61545D01*
X51199Y-61704D01*
X51260Y-61851D01*
X51372Y-61964D01*
X51520Y-62025D01*
X51679Y-62025D01*
X51826Y-61964D01*
X51939Y-61852D01*
X52000Y-61704D01*
X52000Y-61545D01*
X52000Y-62045D01*
X51000Y-62045D01*
X51000Y-61545D01*
X50939Y-61398D01*
X50827Y-61285D01*
X50679Y-61224D01*
X50520Y-61224D01*
X50373Y-61285D01*
X50260Y-61397D01*
X50199Y-61545D01*
X50199Y-61704D01*
X50260Y-61851D01*
X50372Y-61964D01*
X50520Y-62025D01*
X50679Y-62025D01*
X50826Y-61964D01*
X50939Y-61852D01*
X51000Y-61704D01*
X51000Y-61545D01*
X51000Y-62045D01*
X50000Y-62045D01*
X50000Y-61545D01*
X50000Y-60545D01*
X49939Y-60398D01*
X49827Y-60285D01*
X49679Y-60224D01*
X49520Y-60224D01*
X49373Y-60285D01*
X49260Y-60397D01*
X49199Y-60545D01*
X49199Y-60704D01*
X49260Y-60851D01*
X49372Y-60964D01*
X49520Y-61025D01*
X49679Y-61025D01*
X49826Y-60964D01*
X49939Y-60852D01*
X50000Y-60704D01*
X50000Y-60545D01*
X50000Y-61545D01*
X49939Y-61398D01*
X49827Y-61285D01*
X49679Y-61224D01*
X49520Y-61224D01*
X49373Y-61285D01*
X49260Y-61397D01*
X49199Y-61545D01*
X49199Y-61704D01*
X49260Y-61851D01*
X49372Y-61964D01*
X49520Y-62025D01*
X49679Y-62025D01*
X49826Y-61964D01*
X49939Y-61852D01*
X50000Y-61704D01*
X50000Y-61545D01*
X50000Y-62045D01*
X48729Y-62045D01*
X48729Y-56126D01*
X48774Y-56144D01*
X48914Y-56144D01*
X48952Y-56107D01*
X48952Y-55847D01*
X48926Y-55847D01*
X48926Y-55552D01*
X48952Y-55552D01*
X48952Y-55292D01*
X48914Y-55255D01*
X48774Y-55255D01*
X48729Y-55273D01*
X48729Y-46554D01*
X51375Y-46554D01*
X51387Y-46552D01*
X51400Y-46552D01*
X51476Y-46537D01*
X51523Y-46517D01*
X51551Y-46499D01*
X51555Y-46503D01*
X51632Y-46535D01*
X51716Y-46535D01*
X51794Y-46503D01*
X51825Y-46472D01*
X51855Y-46503D01*
X51932Y-46535D01*
X52016Y-46535D01*
X52094Y-46503D01*
X52153Y-46444D01*
X52185Y-46367D01*
X52185Y-46283D01*
X52153Y-46205D01*
X52094Y-46146D01*
X52017Y-46114D01*
X51933Y-46114D01*
X51855Y-46146D01*
X51824Y-46177D01*
X51794Y-46146D01*
X51717Y-46114D01*
X51683Y-46114D01*
X51667Y-46076D01*
X51667Y-46076D01*
X51624Y-46011D01*
X51624Y-46011D01*
X51606Y-45993D01*
X51588Y-45975D01*
X51588Y-45975D01*
X51523Y-45932D01*
X51476Y-45912D01*
X51400Y-45897D01*
X51387Y-45897D01*
X51375Y-45895D01*
X50792Y-45895D01*
X50926Y-45839D01*
X51039Y-45727D01*
X51100Y-45579D01*
X51100Y-45420D01*
X51039Y-45273D01*
X50927Y-45160D01*
X50779Y-45099D01*
X50620Y-45099D01*
X50473Y-45160D01*
X50360Y-45272D01*
X50299Y-45420D01*
X50299Y-45579D01*
X50360Y-45726D01*
X50472Y-45839D01*
X50607Y-45895D01*
X50156Y-45895D01*
X50156Y-45455D01*
X50138Y-45366D01*
X50084Y-45327D01*
X49912Y-45500D01*
X50084Y-45672D01*
X50138Y-45633D01*
X50156Y-45455D01*
X50156Y-45895D01*
X49864Y-45895D01*
X49872Y-45884D01*
X49872Y-45115D01*
X49833Y-45061D01*
X49655Y-45043D01*
X49566Y-45061D01*
X49527Y-45115D01*
X49700Y-45287D01*
X49872Y-45115D01*
X49872Y-45884D01*
X49700Y-45712D01*
X49527Y-45884D01*
X49535Y-45895D01*
X49279Y-45895D01*
X49279Y-45646D01*
X49315Y-45672D01*
X49487Y-45500D01*
X49315Y-45327D01*
X49279Y-45353D01*
X49279Y-44604D01*
X55120Y-44604D01*
X55120Y-45845D01*
X55089Y-45845D01*
X55100Y-45819D01*
X55100Y-45780D01*
X55100Y-45180D01*
X55085Y-45143D01*
X55056Y-45114D01*
X55019Y-45099D01*
X54980Y-45099D01*
X54380Y-45099D01*
X54343Y-45114D01*
X54314Y-45143D01*
X54299Y-45180D01*
X54299Y-45219D01*
X54299Y-45819D01*
X54310Y-45845D01*
X53913Y-45845D01*
X53926Y-45839D01*
X54039Y-45727D01*
X54100Y-45579D01*
X54100Y-45420D01*
X54039Y-45273D01*
X53927Y-45160D01*
X53779Y-45099D01*
X53620Y-45099D01*
X53473Y-45160D01*
X53360Y-45272D01*
X53328Y-45349D01*
X53300Y-45349D01*
X53242Y-45361D01*
X53193Y-45393D01*
X53100Y-45486D01*
X53100Y-45420D01*
X53039Y-45273D01*
X52927Y-45160D01*
X52779Y-45099D01*
X52620Y-45099D01*
X52473Y-45160D01*
X52360Y-45272D01*
X52299Y-45420D01*
X52299Y-45510D01*
X52194Y-45405D01*
X52151Y-45376D01*
X52100Y-45366D01*
X52077Y-45366D01*
X52039Y-45273D01*
X51927Y-45160D01*
X51779Y-45099D01*
X51620Y-45099D01*
X51473Y-45160D01*
X51360Y-45272D01*
X51299Y-45420D01*
X51299Y-45579D01*
X51360Y-45726D01*
X51472Y-45839D01*
X51620Y-45900D01*
X51779Y-45900D01*
X51926Y-45839D01*
X52039Y-45727D01*
X52068Y-45657D01*
X52291Y-45880D01*
X52291Y-46161D01*
X52246Y-46205D01*
X52214Y-46282D01*
X52214Y-46366D01*
X52246Y-46444D01*
X52305Y-46503D01*
X52382Y-46535D01*
X52466Y-46535D01*
X52544Y-46503D01*
X52575Y-46472D01*
X52605Y-46503D01*
X52682Y-46535D01*
X52766Y-46535D01*
X52844Y-46503D01*
X52855Y-46491D01*
X52891Y-46515D01*
X52891Y-46515D01*
X52891Y-46515D01*
X52938Y-46535D01*
X52938Y-46535D01*
X53024Y-46552D01*
X53037Y-46552D01*
X53050Y-46554D01*
X55470Y-46554D01*
X55470Y-46900D01*
X55328Y-46842D01*
X55171Y-46842D01*
X55025Y-46902D01*
X54914Y-47013D01*
X54854Y-47158D01*
X54853Y-47316D01*
X54913Y-47461D01*
X55025Y-47573D01*
X55170Y-47633D01*
X55327Y-47633D01*
X55470Y-47574D01*
X55470Y-55337D01*
X55452Y-55319D01*
X55415Y-55304D01*
X55375Y-55304D01*
X55303Y-55304D01*
X55303Y-55132D01*
X55303Y-55092D01*
X55303Y-54698D01*
X55288Y-54661D01*
X55260Y-54633D01*
X55223Y-54618D01*
X55183Y-54618D01*
X54907Y-54618D01*
X54870Y-54633D01*
X54842Y-54661D01*
X54827Y-54698D01*
X54827Y-54738D01*
X54827Y-55132D01*
X54842Y-55169D01*
X54870Y-55197D01*
X54907Y-55212D01*
X54947Y-55212D01*
X55223Y-55212D01*
X55260Y-55197D01*
X55288Y-55169D01*
X55303Y-55132D01*
X55303Y-55304D01*
X54893Y-55304D01*
X54844Y-55255D01*
X54801Y-55226D01*
X54767Y-55219D01*
X54767Y-55219D01*
X54761Y-55214D01*
X54778Y-55197D01*
X54801Y-55142D01*
X54801Y-55082D01*
X54801Y-55051D01*
X54801Y-54779D01*
X54801Y-54748D01*
X54801Y-54688D01*
X54778Y-54634D01*
X54736Y-54591D01*
X54681Y-54569D01*
X54600Y-54569D01*
X54563Y-54606D01*
X54563Y-54817D01*
X54764Y-54817D01*
X54801Y-54779D01*
X54801Y-55051D01*
X54764Y-55013D01*
X54563Y-55013D01*
X54563Y-55088D01*
X54386Y-55088D01*
X54386Y-55013D01*
X54301Y-55013D01*
X54301Y-54817D01*
X54386Y-54817D01*
X54386Y-54606D01*
X54349Y-54569D01*
X54338Y-54569D01*
X54360Y-54517D01*
X54360Y-54433D01*
X54329Y-54358D01*
X55125Y-54358D01*
X55176Y-54348D01*
X55176Y-54348D01*
X55219Y-54319D01*
X55419Y-54119D01*
X55419Y-54119D01*
X55439Y-54090D01*
X55448Y-54076D01*
X55448Y-54076D01*
X55458Y-54025D01*
X55458Y-54025D01*
X55458Y-52800D01*
X55448Y-52748D01*
X55448Y-52748D01*
X55439Y-52734D01*
X55424Y-52712D01*
X55424Y-48154D01*
X55424Y-48099D01*
X55424Y-47900D01*
X55424Y-47845D01*
X55401Y-47790D01*
X55359Y-47748D01*
X55304Y-47725D01*
X55245Y-47725D01*
X55199Y-47725D01*
X55162Y-47762D01*
X55162Y-47937D01*
X55387Y-47937D01*
X55424Y-47900D01*
X55424Y-48099D01*
X55387Y-48062D01*
X55162Y-48062D01*
X55162Y-48237D01*
X55199Y-48274D01*
X55245Y-48274D01*
X55304Y-48274D01*
X55359Y-48251D01*
X55401Y-48209D01*
X55424Y-48154D01*
X55424Y-52712D01*
X55419Y-52705D01*
X55419Y-52705D01*
X54996Y-52282D01*
X54996Y-50312D01*
X54986Y-50261D01*
X54957Y-50217D01*
X54823Y-50083D01*
X55050Y-50083D01*
X55101Y-50073D01*
X55101Y-50073D01*
X55144Y-50044D01*
X55269Y-49919D01*
X55298Y-49876D01*
X55308Y-49825D01*
X55308Y-49450D01*
X55300Y-49407D01*
X55298Y-49398D01*
X55298Y-49398D01*
X55269Y-49355D01*
X55169Y-49255D01*
X55126Y-49226D01*
X55090Y-49219D01*
X55100Y-49194D01*
X55100Y-49155D01*
X55100Y-48913D01*
X55144Y-48869D01*
X55173Y-48826D01*
X55173Y-48826D01*
X55173Y-48825D01*
X55294Y-48825D01*
X55331Y-48810D01*
X55360Y-48781D01*
X55375Y-48744D01*
X55375Y-48705D01*
X55375Y-48455D01*
X55360Y-48418D01*
X55331Y-48389D01*
X55294Y-48374D01*
X55255Y-48374D01*
X54937Y-48374D01*
X54937Y-48237D01*
X54937Y-48062D01*
X54937Y-47937D01*
X54937Y-47762D01*
X54900Y-47725D01*
X54854Y-47725D01*
X54795Y-47725D01*
X54740Y-47748D01*
X54698Y-47790D01*
X54675Y-47845D01*
X54675Y-47900D01*
X54712Y-47937D01*
X54937Y-47937D01*
X54937Y-48062D01*
X54712Y-48062D01*
X54675Y-48099D01*
X54675Y-48154D01*
X54698Y-48209D01*
X54740Y-48251D01*
X54795Y-48274D01*
X54854Y-48274D01*
X54900Y-48274D01*
X54937Y-48237D01*
X54937Y-48374D01*
X54805Y-48374D01*
X54768Y-48389D01*
X54739Y-48418D01*
X54724Y-48455D01*
X54724Y-48494D01*
X54724Y-48744D01*
X54739Y-48781D01*
X54768Y-48810D01*
X54803Y-48824D01*
X54649Y-48824D01*
X54649Y-47629D01*
X54649Y-47570D01*
X54649Y-47487D01*
X54649Y-47112D01*
X54649Y-47029D01*
X54649Y-46970D01*
X54626Y-46915D01*
X54584Y-46873D01*
X54529Y-46850D01*
X54387Y-46850D01*
X54350Y-46887D01*
X54350Y-47150D01*
X54612Y-47150D01*
X54649Y-47112D01*
X54649Y-47487D01*
X54612Y-47450D01*
X54350Y-47450D01*
X54350Y-47712D01*
X54387Y-47749D01*
X54529Y-47749D01*
X54584Y-47726D01*
X54626Y-47684D01*
X54649Y-47629D01*
X54649Y-48824D01*
X54530Y-48824D01*
X54493Y-48839D01*
X54464Y-48868D01*
X54449Y-48905D01*
X54449Y-48944D01*
X54449Y-49194D01*
X54458Y-49216D01*
X54330Y-49216D01*
X53833Y-48719D01*
X53833Y-48462D01*
X53860Y-48526D01*
X53972Y-48639D01*
X54120Y-48700D01*
X54279Y-48700D01*
X54426Y-48639D01*
X54539Y-48527D01*
X54600Y-48379D01*
X54600Y-48220D01*
X54539Y-48073D01*
X54427Y-47960D01*
X54279Y-47899D01*
X54120Y-47899D01*
X54043Y-47931D01*
X53856Y-47743D01*
X53870Y-47749D01*
X54012Y-47749D01*
X54050Y-47712D01*
X54050Y-47450D01*
X54026Y-47450D01*
X54026Y-47150D01*
X54050Y-47150D01*
X54050Y-46887D01*
X54012Y-46850D01*
X53870Y-46850D01*
X53815Y-46873D01*
X53773Y-46915D01*
X53762Y-46942D01*
X53538Y-46718D01*
X53489Y-46686D01*
X53431Y-46674D01*
X50648Y-46674D01*
X50635Y-46643D01*
X50606Y-46614D01*
X50569Y-46599D01*
X50530Y-46599D01*
X50080Y-46599D01*
X50043Y-46614D01*
X50014Y-46643D01*
X50001Y-46674D01*
X49925Y-46674D01*
X49425Y-46674D01*
X49367Y-46686D01*
X49318Y-46718D01*
X49231Y-46806D01*
X49209Y-46837D01*
X49179Y-46825D01*
X49124Y-46825D01*
X49087Y-46862D01*
X49087Y-47087D01*
X49150Y-47087D01*
X49150Y-47312D01*
X49087Y-47312D01*
X49087Y-47373D01*
X48962Y-47373D01*
X48962Y-47312D01*
X48962Y-47087D01*
X48962Y-46862D01*
X48925Y-46825D01*
X48870Y-46825D01*
X48815Y-46848D01*
X48773Y-46890D01*
X48750Y-46945D01*
X48750Y-47004D01*
X48750Y-47050D01*
X48787Y-47087D01*
X48962Y-47087D01*
X48962Y-47312D01*
X48787Y-47312D01*
X48750Y-47349D01*
X48750Y-47395D01*
X48750Y-47454D01*
X48773Y-47509D01*
X48805Y-47541D01*
X48799Y-47555D01*
X48799Y-47594D01*
X48799Y-48044D01*
X48805Y-48058D01*
X48773Y-48090D01*
X48750Y-48145D01*
X48750Y-48204D01*
X48750Y-48250D01*
X48787Y-48287D01*
X48962Y-48287D01*
X48962Y-48226D01*
X49087Y-48226D01*
X49087Y-48287D01*
X49150Y-48287D01*
X49150Y-48512D01*
X49087Y-48512D01*
X49087Y-48573D01*
X48962Y-48573D01*
X48962Y-48512D01*
X48787Y-48512D01*
X48750Y-48549D01*
X48750Y-48595D01*
X48750Y-48654D01*
X48773Y-48709D01*
X48815Y-48751D01*
X48852Y-48767D01*
X48836Y-48792D01*
X48824Y-48850D01*
X48824Y-52575D01*
X48836Y-52632D01*
X48868Y-52681D01*
X49425Y-53238D01*
X49373Y-53260D01*
X49260Y-53372D01*
X49199Y-53520D01*
X49199Y-53679D01*
X49260Y-53826D01*
X49372Y-53939D01*
X49520Y-54000D01*
X49679Y-54000D01*
X49826Y-53939D01*
X49939Y-53827D01*
X50000Y-53679D01*
X50000Y-53520D01*
X49939Y-53373D01*
X49827Y-53260D01*
X49750Y-53228D01*
X49750Y-53200D01*
X49738Y-53142D01*
X49706Y-53093D01*
X49125Y-52512D01*
X49125Y-50199D01*
X49162Y-50162D01*
X49162Y-49937D01*
X49125Y-49937D01*
X49125Y-49712D01*
X49162Y-49712D01*
X49162Y-49487D01*
X49162Y-49487D01*
X49162Y-49487D01*
X49162Y-49262D01*
X49125Y-49262D01*
X49125Y-49037D01*
X49162Y-49037D01*
X49162Y-48976D01*
X49287Y-48976D01*
X49287Y-49037D01*
X49350Y-49037D01*
X49350Y-49262D01*
X49287Y-49262D01*
X49287Y-49487D01*
X49287Y-49487D01*
X49287Y-49487D01*
X49287Y-49712D01*
X49462Y-49712D01*
X49499Y-49675D01*
X49499Y-49629D01*
X49499Y-49570D01*
X49494Y-49559D01*
X49530Y-49594D01*
X49573Y-49623D01*
X49599Y-49628D01*
X49599Y-50069D01*
X49614Y-50106D01*
X49643Y-50135D01*
X49680Y-50150D01*
X49719Y-50150D01*
X49969Y-50150D01*
X50006Y-50135D01*
X50035Y-50106D01*
X50050Y-50069D01*
X50050Y-50030D01*
X50050Y-49847D01*
X50113Y-49783D01*
X50509Y-49783D01*
X50457Y-49805D01*
X50431Y-49831D01*
X50431Y-49884D01*
X50671Y-50124D01*
X50703Y-50093D01*
X50937Y-50327D01*
X50905Y-50358D01*
X51146Y-50599D01*
X51199Y-50599D01*
X51225Y-50573D01*
X51247Y-50518D01*
X51247Y-50476D01*
X51256Y-50472D01*
X51284Y-50444D01*
X51409Y-50319D01*
X51424Y-50282D01*
X51424Y-50268D01*
X51438Y-50268D01*
X51475Y-50253D01*
X51503Y-50225D01*
X51628Y-50099D01*
X51644Y-50063D01*
X51644Y-50042D01*
X51657Y-50042D01*
X51771Y-50156D01*
X51820Y-50188D01*
X51878Y-50200D01*
X52362Y-50200D01*
X52974Y-50812D01*
X52974Y-51750D01*
X52974Y-52625D01*
X52982Y-52666D01*
X52954Y-52666D01*
X52899Y-52688D01*
X52873Y-52714D01*
X52873Y-52767D01*
X53114Y-53008D01*
X53145Y-52976D01*
X53379Y-53210D01*
X53348Y-53242D01*
X53588Y-53482D01*
X53641Y-53482D01*
X53667Y-53456D01*
X53690Y-53401D01*
X53690Y-53361D01*
X53695Y-53359D01*
X53723Y-53331D01*
X53848Y-53206D01*
X53850Y-53201D01*
X53890Y-53201D01*
X53945Y-53178D01*
X53971Y-53152D01*
X53971Y-53099D01*
X53731Y-52859D01*
X53699Y-52890D01*
X53465Y-52656D01*
X53497Y-52625D01*
X53491Y-52619D01*
X53554Y-52557D01*
X53559Y-52562D01*
X53590Y-52531D01*
X53824Y-52765D01*
X53793Y-52796D01*
X54034Y-53037D01*
X54086Y-53037D01*
X54112Y-53011D01*
X54135Y-52956D01*
X54135Y-52916D01*
X54140Y-52914D01*
X54168Y-52885D01*
X54291Y-52763D01*
X54291Y-52894D01*
X53789Y-53395D01*
X53762Y-53437D01*
X53726Y-53437D01*
X53689Y-53452D01*
X53661Y-53480D01*
X53646Y-53517D01*
X53646Y-53557D01*
X53646Y-53951D01*
X53661Y-53988D01*
X53689Y-54016D01*
X53726Y-54031D01*
X53766Y-54031D01*
X54042Y-54031D01*
X54079Y-54016D01*
X54107Y-53988D01*
X54122Y-53951D01*
X54122Y-53911D01*
X54122Y-53517D01*
X54107Y-53480D01*
X54095Y-53468D01*
X54519Y-53044D01*
X54548Y-53001D01*
X54548Y-53001D01*
X54550Y-52992D01*
X54558Y-52950D01*
X54558Y-52950D01*
X54558Y-52549D01*
X54550Y-52507D01*
X54548Y-52498D01*
X54548Y-52498D01*
X54538Y-52484D01*
X54549Y-52484D01*
X54560Y-52479D01*
X54931Y-52850D01*
X54931Y-53437D01*
X54907Y-53437D01*
X54870Y-53452D01*
X54842Y-53480D01*
X54827Y-53517D01*
X54827Y-53557D01*
X54827Y-53951D01*
X54842Y-53988D01*
X54870Y-54016D01*
X54907Y-54031D01*
X54947Y-54031D01*
X55129Y-54031D01*
X55069Y-54091D01*
X54801Y-54091D01*
X54801Y-53961D01*
X54801Y-53901D01*
X54801Y-53870D01*
X54801Y-53598D01*
X54801Y-53567D01*
X54801Y-53507D01*
X54778Y-53452D01*
X54736Y-53410D01*
X54681Y-53388D01*
X54600Y-53388D01*
X54563Y-53425D01*
X54563Y-53636D01*
X54764Y-53636D01*
X54801Y-53598D01*
X54801Y-53870D01*
X54764Y-53832D01*
X54563Y-53832D01*
X54563Y-54043D01*
X54600Y-54080D01*
X54681Y-54080D01*
X54736Y-54058D01*
X54778Y-54015D01*
X54801Y-53961D01*
X54801Y-54091D01*
X54386Y-54091D01*
X54386Y-54043D01*
X54386Y-53832D01*
X54386Y-53636D01*
X54386Y-53425D01*
X54349Y-53388D01*
X54268Y-53388D01*
X54213Y-53410D01*
X54171Y-53452D01*
X54148Y-53507D01*
X54148Y-53567D01*
X54148Y-53598D01*
X54185Y-53636D01*
X54386Y-53636D01*
X54386Y-53832D01*
X54185Y-53832D01*
X54148Y-53870D01*
X54148Y-53901D01*
X54148Y-53961D01*
X54171Y-54015D01*
X54213Y-54058D01*
X54268Y-54080D01*
X54349Y-54080D01*
X54386Y-54043D01*
X54386Y-54091D01*
X53775Y-54091D01*
X53732Y-54099D01*
X53723Y-54101D01*
X53680Y-54130D01*
X53456Y-54354D01*
X53045Y-54354D01*
X53008Y-54369D01*
X52980Y-54397D01*
X52964Y-54434D01*
X52964Y-54474D01*
X52964Y-55065D01*
X52980Y-55102D01*
X53008Y-55130D01*
X53045Y-55145D01*
X53085Y-55145D01*
X53651Y-55145D01*
X53661Y-55169D01*
X53689Y-55197D01*
X53726Y-55212D01*
X53766Y-55212D01*
X53983Y-55212D01*
X53976Y-55223D01*
X53966Y-55275D01*
X53966Y-55304D01*
X53784Y-55304D01*
X53747Y-55319D01*
X53719Y-55347D01*
X53704Y-55384D01*
X53704Y-55424D01*
X53704Y-56015D01*
X53719Y-56052D01*
X53747Y-56080D01*
X53784Y-56095D01*
X53824Y-56095D01*
X54415Y-56095D01*
X54452Y-56080D01*
X54480Y-56052D01*
X54482Y-56046D01*
X54660Y-56224D01*
X54520Y-56224D01*
X54373Y-56285D01*
X54260Y-56397D01*
X54199Y-56545D01*
X54199Y-56704D01*
X54260Y-56851D01*
X54372Y-56964D01*
X54520Y-57025D01*
X54679Y-57025D01*
X54826Y-56964D01*
X54913Y-56877D01*
X55041Y-57005D01*
X55041Y-57876D01*
X54961Y-57797D01*
X55000Y-57704D01*
X55000Y-57545D01*
X54939Y-57398D01*
X54827Y-57285D01*
X54679Y-57224D01*
X54520Y-57224D01*
X54427Y-57263D01*
X54000Y-56836D01*
X54000Y-56305D01*
X53985Y-56268D01*
X53956Y-56239D01*
X53919Y-56224D01*
X53880Y-56224D01*
X53280Y-56224D01*
X53243Y-56239D01*
X53233Y-56249D01*
X53233Y-56095D01*
X53415Y-56095D01*
X53452Y-56080D01*
X53480Y-56052D01*
X53495Y-56015D01*
X53495Y-55975D01*
X53495Y-55384D01*
X53480Y-55347D01*
X53452Y-55319D01*
X53415Y-55304D01*
X53375Y-55304D01*
X52908Y-55304D01*
X52908Y-54455D01*
X53394Y-53969D01*
X53423Y-53926D01*
X53433Y-53875D01*
X53433Y-53700D01*
X53423Y-53648D01*
X53423Y-53648D01*
X53422Y-53646D01*
X53445Y-53646D01*
X53500Y-53624D01*
X53526Y-53598D01*
X53526Y-53545D01*
X53285Y-53304D01*
X53254Y-53336D01*
X53020Y-53102D01*
X53051Y-53070D01*
X52811Y-52830D01*
X52758Y-52830D01*
X52732Y-52856D01*
X52709Y-52911D01*
X52709Y-52951D01*
X52704Y-52953D01*
X52676Y-52981D01*
X52551Y-53106D01*
X52535Y-53143D01*
X52535Y-53160D01*
X52518Y-53160D01*
X52481Y-53176D01*
X52453Y-53204D01*
X52328Y-53329D01*
X52313Y-53366D01*
X52313Y-53406D01*
X52328Y-53443D01*
X52356Y-53471D01*
X52526Y-53640D01*
X52005Y-54161D01*
X51976Y-54205D01*
X51966Y-54256D01*
X51966Y-55304D01*
X51784Y-55304D01*
X51747Y-55319D01*
X51719Y-55347D01*
X51704Y-55384D01*
X51704Y-55424D01*
X51704Y-56015D01*
X51719Y-56052D01*
X51747Y-56080D01*
X51784Y-56095D01*
X51824Y-56095D01*
X51966Y-56095D01*
X51966Y-56470D01*
X51812Y-56625D01*
X51966Y-56779D01*
X51966Y-57470D01*
X51812Y-57625D01*
X51966Y-57779D01*
X51966Y-57850D01*
X51976Y-57901D01*
X52005Y-57944D01*
X52280Y-58219D01*
X52323Y-58248D01*
X52323Y-58248D01*
X52332Y-58250D01*
X52375Y-58258D01*
X52437Y-58258D01*
X52373Y-58285D01*
X52260Y-58397D01*
X52199Y-58545D01*
X52199Y-58704D01*
X52260Y-58851D01*
X52372Y-58964D01*
X52520Y-59025D01*
X52679Y-59025D01*
X52826Y-58964D01*
X52939Y-58852D01*
X52966Y-58787D01*
X52966Y-58925D01*
X52976Y-58976D01*
X53005Y-59019D01*
X53205Y-59219D01*
X53205Y-59219D01*
X53234Y-59239D01*
X53248Y-59248D01*
X53248Y-59248D01*
X53300Y-59258D01*
X53437Y-59258D01*
X53373Y-59285D01*
X53260Y-59397D01*
X53199Y-59545D01*
X53199Y-59704D01*
X53260Y-59851D01*
X53341Y-59932D01*
X52858Y-59932D01*
X52939Y-59852D01*
X53000Y-59704D01*
X53000Y-59545D01*
X52939Y-59398D01*
X52827Y-59285D01*
X52679Y-59224D01*
X52520Y-59224D01*
X52373Y-59285D01*
X52260Y-59397D01*
X52199Y-59545D01*
X52199Y-59704D01*
X52260Y-59851D01*
X52341Y-59932D01*
X51858Y-59932D01*
X51939Y-59852D01*
X52000Y-59704D01*
X52000Y-59545D01*
X52000Y-58545D01*
X51939Y-58398D01*
X51827Y-58285D01*
X51772Y-58262D01*
X51772Y-58009D01*
X51772Y-57240D01*
X51772Y-57009D01*
X51772Y-56240D01*
X51733Y-56186D01*
X51555Y-56168D01*
X51466Y-56186D01*
X51427Y-56240D01*
X51600Y-56412D01*
X51772Y-56240D01*
X51772Y-57009D01*
X51600Y-56837D01*
X51427Y-57009D01*
X51466Y-57063D01*
X51644Y-57081D01*
X51733Y-57063D01*
X51772Y-57009D01*
X51772Y-57240D01*
X51733Y-57186D01*
X51555Y-57168D01*
X51466Y-57186D01*
X51427Y-57240D01*
X51600Y-57412D01*
X51772Y-57240D01*
X51772Y-58009D01*
X51600Y-57837D01*
X51427Y-58009D01*
X51466Y-58063D01*
X51644Y-58081D01*
X51733Y-58063D01*
X51772Y-58009D01*
X51772Y-58262D01*
X51679Y-58224D01*
X51520Y-58224D01*
X51387Y-58279D01*
X51387Y-57625D01*
X51387Y-56625D01*
X51215Y-56452D01*
X51161Y-56491D01*
X51143Y-56669D01*
X51161Y-56758D01*
X51215Y-56797D01*
X51387Y-56625D01*
X51387Y-57625D01*
X51215Y-57452D01*
X51161Y-57491D01*
X51143Y-57669D01*
X51161Y-57758D01*
X51215Y-57797D01*
X51387Y-57625D01*
X51387Y-58279D01*
X51373Y-58285D01*
X51260Y-58397D01*
X51199Y-58545D01*
X51199Y-58704D01*
X51260Y-58851D01*
X51372Y-58964D01*
X51520Y-59025D01*
X51679Y-59025D01*
X51826Y-58964D01*
X51939Y-58852D01*
X52000Y-58704D01*
X52000Y-58545D01*
X52000Y-59545D01*
X51939Y-59398D01*
X51827Y-59285D01*
X51679Y-59224D01*
X51520Y-59224D01*
X51373Y-59285D01*
X51260Y-59397D01*
X51199Y-59545D01*
X51199Y-59704D01*
X51260Y-59851D01*
X51341Y-59932D01*
X50858Y-59932D01*
X50939Y-59852D01*
X51000Y-59704D01*
X51000Y-59545D01*
X50939Y-59398D01*
X50827Y-59285D01*
X50679Y-59224D01*
X50520Y-59224D01*
X50373Y-59285D01*
X50317Y-59341D01*
X50317Y-58908D01*
X50372Y-58964D01*
X50520Y-59025D01*
X50679Y-59025D01*
X50826Y-58964D01*
X50939Y-58852D01*
X51000Y-58704D01*
X51000Y-58545D01*
X50939Y-58398D01*
X50827Y-58285D01*
X50679Y-58224D01*
X50520Y-58224D01*
X50373Y-58285D01*
X50317Y-58341D01*
X50317Y-57908D01*
X50372Y-57964D01*
X50520Y-58025D01*
X50679Y-58025D01*
X50826Y-57964D01*
X50939Y-57852D01*
X51000Y-57704D01*
X51000Y-57545D01*
X50939Y-57398D01*
X50827Y-57285D01*
X50679Y-57224D01*
X50520Y-57224D01*
X50373Y-57285D01*
X50317Y-57341D01*
X50317Y-56908D01*
X50372Y-56964D01*
X50520Y-57025D01*
X50679Y-57025D01*
X50826Y-56964D01*
X50939Y-56852D01*
X51000Y-56704D01*
X51000Y-56545D01*
X50939Y-56398D01*
X50827Y-56285D01*
X50810Y-56278D01*
X50993Y-56095D01*
X51415Y-56095D01*
X51452Y-56080D01*
X51480Y-56052D01*
X51495Y-56015D01*
X51495Y-55975D01*
X51495Y-55384D01*
X51480Y-55347D01*
X51452Y-55319D01*
X51415Y-55304D01*
X51375Y-55304D01*
X51308Y-55304D01*
X51308Y-53969D01*
X51370Y-54030D01*
X51407Y-54046D01*
X51447Y-54046D01*
X51484Y-54030D01*
X51512Y-54002D01*
X52068Y-53446D01*
X52084Y-53409D01*
X52084Y-53369D01*
X52079Y-53359D01*
X52544Y-52894D01*
X52573Y-52851D01*
X52583Y-52800D01*
X52583Y-50900D01*
X52575Y-50857D01*
X52573Y-50848D01*
X52573Y-50848D01*
X52544Y-50805D01*
X52544Y-50805D01*
X52335Y-50596D01*
X52335Y-50533D01*
X52303Y-50455D01*
X52244Y-50396D01*
X52167Y-50364D01*
X52083Y-50364D01*
X52005Y-50396D01*
X51946Y-50455D01*
X51914Y-50532D01*
X51914Y-50616D01*
X51946Y-50694D01*
X52005Y-50753D01*
X52082Y-50785D01*
X52146Y-50785D01*
X52316Y-50955D01*
X52316Y-52744D01*
X52185Y-52875D01*
X52185Y-51283D01*
X52153Y-51205D01*
X52094Y-51146D01*
X52017Y-51114D01*
X51953Y-51114D01*
X51569Y-50730D01*
X51526Y-50701D01*
X51475Y-50691D01*
X51083Y-50691D01*
X51083Y-50661D01*
X50843Y-50421D01*
X50811Y-50452D01*
X50577Y-50218D01*
X50609Y-50187D01*
X50368Y-49946D01*
X50315Y-49946D01*
X50289Y-49972D01*
X50267Y-50027D01*
X50267Y-50065D01*
X50265Y-50066D01*
X50237Y-50094D01*
X50112Y-50219D01*
X50097Y-50256D01*
X50097Y-50277D01*
X50076Y-50277D01*
X50039Y-50292D01*
X50011Y-50320D01*
X49886Y-50445D01*
X49870Y-50482D01*
X49870Y-50496D01*
X49857Y-50496D01*
X49820Y-50511D01*
X49792Y-50539D01*
X49666Y-50665D01*
X49651Y-50701D01*
X49651Y-50741D01*
X49666Y-50778D01*
X49695Y-50807D01*
X50251Y-51363D01*
X50288Y-51378D01*
X50328Y-51378D01*
X50365Y-51363D01*
X50393Y-51335D01*
X50400Y-51328D01*
X50425Y-51333D01*
X50739Y-51333D01*
X50739Y-51366D01*
X50771Y-51444D01*
X50830Y-51503D01*
X50907Y-51535D01*
X50991Y-51535D01*
X51069Y-51503D01*
X51128Y-51444D01*
X51160Y-51367D01*
X51160Y-51283D01*
X51128Y-51205D01*
X51081Y-51158D01*
X51269Y-51158D01*
X51372Y-51262D01*
X51364Y-51282D01*
X51364Y-51366D01*
X51396Y-51444D01*
X51455Y-51503D01*
X51532Y-51535D01*
X51616Y-51535D01*
X51694Y-51503D01*
X51753Y-51444D01*
X51775Y-51392D01*
X51796Y-51444D01*
X51855Y-51503D01*
X51932Y-51535D01*
X52016Y-51535D01*
X52094Y-51503D01*
X52153Y-51444D01*
X52185Y-51367D01*
X52185Y-51283D01*
X52185Y-52875D01*
X51891Y-53169D01*
X51878Y-53163D01*
X51861Y-53163D01*
X51861Y-53147D01*
X51846Y-53110D01*
X51818Y-53081D01*
X51693Y-52956D01*
X51656Y-52941D01*
X51638Y-52941D01*
X51638Y-52923D01*
X51623Y-52886D01*
X51595Y-52858D01*
X51469Y-52733D01*
X51432Y-52718D01*
X51416Y-52718D01*
X51416Y-52701D01*
X51401Y-52664D01*
X51372Y-52636D01*
X51320Y-52583D01*
X51686Y-52583D01*
X51730Y-52628D01*
X51807Y-52660D01*
X51891Y-52660D01*
X51969Y-52628D01*
X52028Y-52569D01*
X52060Y-52492D01*
X52060Y-52408D01*
X52028Y-52330D01*
X51969Y-52271D01*
X51892Y-52239D01*
X51808Y-52239D01*
X51730Y-52271D01*
X51685Y-52316D01*
X51052Y-52316D01*
X51024Y-52287D01*
X50987Y-52272D01*
X50971Y-52272D01*
X50971Y-52256D01*
X50966Y-52244D01*
X51052Y-52158D01*
X51236Y-52158D01*
X51280Y-52203D01*
X51357Y-52235D01*
X51441Y-52235D01*
X51519Y-52203D01*
X51578Y-52144D01*
X51610Y-52067D01*
X51610Y-51983D01*
X51578Y-51905D01*
X51519Y-51846D01*
X51442Y-51814D01*
X51358Y-51814D01*
X51280Y-51846D01*
X51235Y-51891D01*
X51000Y-51891D01*
X51010Y-51867D01*
X51010Y-51783D01*
X50978Y-51705D01*
X50919Y-51646D01*
X50842Y-51614D01*
X50760Y-51614D01*
X50760Y-51583D01*
X50728Y-51505D01*
X50669Y-51446D01*
X50592Y-51414D01*
X50508Y-51414D01*
X50430Y-51446D01*
X50371Y-51505D01*
X50339Y-51582D01*
X50339Y-51601D01*
X50331Y-51609D01*
X50319Y-51605D01*
X50280Y-51605D01*
X50243Y-51620D01*
X50214Y-51648D01*
X49658Y-52205D01*
X49643Y-52242D01*
X49643Y-52253D01*
X49583Y-52194D01*
X49583Y-50588D01*
X49628Y-50544D01*
X49660Y-50467D01*
X49660Y-50383D01*
X49628Y-50305D01*
X49569Y-50246D01*
X49499Y-50217D01*
X49499Y-50079D01*
X49499Y-50020D01*
X49499Y-49974D01*
X49462Y-49937D01*
X49287Y-49937D01*
X49287Y-50162D01*
X49324Y-50199D01*
X49379Y-50199D01*
X49434Y-50176D01*
X49476Y-50134D01*
X49499Y-50079D01*
X49499Y-50217D01*
X49492Y-50214D01*
X49408Y-50214D01*
X49330Y-50246D01*
X49271Y-50305D01*
X49239Y-50382D01*
X49239Y-50466D01*
X49271Y-50544D01*
X49316Y-50589D01*
X49316Y-52250D01*
X49326Y-52301D01*
X49355Y-52344D01*
X50235Y-53224D01*
X50105Y-53224D01*
X50068Y-53239D01*
X50039Y-53268D01*
X50024Y-53305D01*
X50024Y-53344D01*
X50024Y-53594D01*
X50039Y-53631D01*
X50068Y-53660D01*
X50105Y-53675D01*
X50144Y-53675D01*
X50594Y-53675D01*
X50631Y-53660D01*
X50660Y-53631D01*
X50675Y-53594D01*
X50675Y-53555D01*
X50675Y-53426D01*
X50728Y-53373D01*
X50739Y-53378D01*
X50756Y-53378D01*
X50756Y-53394D01*
X50771Y-53431D01*
X50799Y-53460D01*
X50816Y-53476D01*
X50816Y-53700D01*
X50826Y-53751D01*
X50855Y-53794D01*
X50891Y-53830D01*
X50891Y-53895D01*
X50817Y-53864D01*
X50733Y-53864D01*
X50669Y-53890D01*
X50660Y-53868D01*
X50631Y-53839D01*
X50594Y-53824D01*
X50555Y-53824D01*
X50105Y-53824D01*
X50068Y-53839D01*
X50039Y-53868D01*
X50024Y-53905D01*
X50024Y-53944D01*
X50024Y-54194D01*
X50039Y-54231D01*
X50068Y-54260D01*
X50105Y-54275D01*
X50144Y-54275D01*
X50594Y-54275D01*
X50631Y-54260D01*
X50647Y-54244D01*
X50655Y-54253D01*
X50732Y-54285D01*
X50816Y-54285D01*
X50891Y-54254D01*
X50891Y-54719D01*
X50734Y-54876D01*
X50734Y-54564D01*
X50734Y-54484D01*
X50734Y-54424D01*
X50711Y-54370D01*
X50669Y-54327D01*
X50614Y-54305D01*
X50474Y-54305D01*
X50437Y-54342D01*
X50437Y-54602D01*
X50696Y-54602D01*
X50734Y-54564D01*
X50734Y-54876D01*
X50705Y-54905D01*
X50696Y-54897D01*
X50437Y-54897D01*
X50437Y-55157D01*
X50445Y-55165D01*
X50306Y-55304D01*
X50141Y-55304D01*
X50141Y-55157D01*
X50141Y-54897D01*
X50116Y-54897D01*
X50116Y-54602D01*
X50141Y-54602D01*
X50141Y-54342D01*
X50104Y-54305D01*
X50049Y-54305D01*
X50049Y-54270D01*
X50026Y-54215D01*
X49984Y-54173D01*
X49929Y-54150D01*
X49870Y-54150D01*
X49787Y-54150D01*
X49750Y-54187D01*
X49750Y-54450D01*
X49773Y-54450D01*
X49773Y-54750D01*
X49750Y-54750D01*
X49750Y-55012D01*
X49787Y-55049D01*
X49844Y-55049D01*
X49844Y-55075D01*
X49867Y-55129D01*
X49909Y-55172D01*
X49964Y-55194D01*
X50104Y-55194D01*
X50141Y-55157D01*
X50141Y-55304D01*
X49784Y-55304D01*
X49747Y-55319D01*
X49719Y-55347D01*
X49704Y-55384D01*
X49704Y-55424D01*
X49704Y-56015D01*
X49719Y-56052D01*
X49747Y-56080D01*
X49784Y-56095D01*
X49824Y-56095D01*
X49928Y-56095D01*
X49926Y-56098D01*
X49916Y-56150D01*
X49916Y-56374D01*
X49827Y-56285D01*
X49679Y-56224D01*
X49544Y-56224D01*
X49544Y-56025D01*
X49544Y-55965D01*
X49544Y-55885D01*
X49544Y-55514D01*
X49544Y-55434D01*
X49544Y-55374D01*
X49522Y-55320D01*
X49479Y-55277D01*
X49450Y-55265D01*
X49450Y-55012D01*
X49450Y-54750D01*
X49450Y-54450D01*
X49450Y-54187D01*
X49412Y-54150D01*
X49329Y-54150D01*
X49270Y-54150D01*
X49215Y-54173D01*
X49173Y-54215D01*
X49150Y-54270D01*
X49150Y-54412D01*
X49187Y-54450D01*
X49450Y-54450D01*
X49450Y-54750D01*
X49187Y-54750D01*
X49150Y-54787D01*
X49150Y-54929D01*
X49173Y-54984D01*
X49215Y-55026D01*
X49270Y-55049D01*
X49329Y-55049D01*
X49412Y-55049D01*
X49450Y-55012D01*
X49450Y-55265D01*
X49425Y-55255D01*
X49285Y-55255D01*
X49247Y-55292D01*
X49247Y-55552D01*
X49507Y-55552D01*
X49544Y-55514D01*
X49544Y-55885D01*
X49507Y-55847D01*
X49247Y-55847D01*
X49247Y-56107D01*
X49285Y-56144D01*
X49425Y-56144D01*
X49479Y-56122D01*
X49522Y-56079D01*
X49544Y-56025D01*
X49544Y-56224D01*
X49520Y-56224D01*
X49373Y-56285D01*
X49260Y-56397D01*
X49199Y-56545D01*
X49199Y-56704D01*
X49260Y-56851D01*
X49372Y-56964D01*
X49520Y-57025D01*
X49679Y-57025D01*
X49826Y-56964D01*
X49916Y-56875D01*
X49916Y-57374D01*
X49827Y-57285D01*
X49679Y-57224D01*
X49520Y-57224D01*
X49373Y-57285D01*
X49260Y-57397D01*
X49199Y-57545D01*
X49199Y-57704D01*
X49260Y-57851D01*
X49372Y-57964D01*
X49520Y-58025D01*
X49679Y-58025D01*
X49826Y-57964D01*
X49916Y-57875D01*
X49916Y-58374D01*
X49827Y-58285D01*
X49679Y-58224D01*
X49520Y-58224D01*
X49373Y-58285D01*
X49260Y-58397D01*
X49199Y-58545D01*
X49199Y-58704D01*
X49260Y-58851D01*
X49372Y-58964D01*
X49520Y-59025D01*
X49679Y-59025D01*
X49826Y-58964D01*
X49916Y-58875D01*
X49916Y-59374D01*
X49827Y-59285D01*
X49679Y-59224D01*
X49520Y-59224D01*
X49373Y-59285D01*
X49260Y-59397D01*
X49199Y-59545D01*
X49199Y-59704D01*
X49260Y-59851D01*
X49372Y-59964D01*
X49520Y-60025D01*
X49679Y-60025D01*
X49826Y-59964D01*
X49916Y-59875D01*
X49916Y-59900D01*
X49926Y-59951D01*
X49955Y-59994D01*
X50255Y-60294D01*
X50298Y-60323D01*
X50329Y-60329D01*
X50260Y-60397D01*
X50199Y-60545D01*
X50199Y-60704D01*
X50260Y-60851D01*
X50372Y-60964D01*
X50520Y-61025D01*
X50679Y-61025D01*
X50826Y-60964D01*
X50939Y-60852D01*
X51000Y-60704D01*
X51000Y-60545D01*
X50939Y-60398D01*
X50875Y-60333D01*
X51324Y-60333D01*
X51260Y-60397D01*
X51199Y-60545D01*
X51199Y-60704D01*
X51260Y-60851D01*
X51372Y-60964D01*
X51520Y-61025D01*
X51679Y-61025D01*
X51826Y-60964D01*
X51939Y-60852D01*
X52000Y-60704D01*
X52000Y-60545D01*
X51939Y-60398D01*
X51875Y-60333D01*
X52324Y-60333D01*
X52260Y-60397D01*
X52199Y-60545D01*
X52199Y-60704D01*
X52260Y-60851D01*
X52372Y-60964D01*
X52520Y-61025D01*
X52679Y-61025D01*
X52826Y-60964D01*
X52939Y-60852D01*
X53000Y-60704D01*
X53000Y-60545D01*
X52939Y-60398D01*
X52875Y-60333D01*
X53324Y-60333D01*
X53260Y-60397D01*
X53199Y-60545D01*
X53199Y-60704D01*
X53260Y-60851D01*
X53372Y-60964D01*
X53520Y-61025D01*
X53679Y-61025D01*
X53826Y-60964D01*
X53939Y-60852D01*
X54000Y-60704D01*
X54000Y-60545D01*
X53939Y-60398D01*
X53875Y-60333D01*
X54324Y-60333D01*
X54260Y-60397D01*
X54199Y-60545D01*
X54199Y-60704D01*
X54260Y-60851D01*
X54372Y-60964D01*
X54520Y-61025D01*
X54679Y-61025D01*
X54826Y-60964D01*
X54939Y-60852D01*
X54978Y-60758D01*
X55026Y-60748D01*
X55026Y-60748D01*
X55069Y-60719D01*
X55341Y-60448D01*
X55341Y-61069D01*
X54960Y-61449D01*
X54939Y-61398D01*
X54827Y-61285D01*
X54679Y-61224D01*
X54520Y-61224D01*
X54373Y-61285D01*
X54260Y-61397D01*
X54199Y-61545D01*
X54199Y-61704D01*
X54260Y-61851D01*
X54372Y-61964D01*
X54520Y-62025D01*
X54679Y-62025D01*
X54826Y-61964D01*
X54939Y-61852D01*
X54978Y-61758D01*
X55026Y-61748D01*
X55026Y-61748D01*
X55069Y-61719D01*
X55470Y-61319D01*
X55470Y-62045D01*
G54D10*
G36*
X56229Y-44604D02*
X57699Y-44604D01*
X57699Y-45104D01*
X57760Y-45251D01*
X57872Y-45364D01*
X58020Y-45425D01*
X58179Y-45425D01*
X58326Y-45364D01*
X58439Y-45252D01*
X58500Y-45104D01*
X58500Y-44945D01*
X58439Y-44798D01*
X58327Y-44685D01*
X58179Y-44624D01*
X58020Y-44624D01*
X57873Y-44685D01*
X57760Y-44797D01*
X57699Y-44945D01*
X57699Y-45104D01*
X57699Y-44604D01*
X58699Y-44604D01*
X58699Y-45104D01*
X58760Y-45251D01*
X58872Y-45364D01*
X59020Y-45425D01*
X59179Y-45425D01*
X59326Y-45364D01*
X59439Y-45252D01*
X59500Y-45104D01*
X59500Y-44945D01*
X59439Y-44798D01*
X59327Y-44685D01*
X59179Y-44624D01*
X59020Y-44624D01*
X58873Y-44685D01*
X58760Y-44797D01*
X58699Y-44945D01*
X58699Y-45104D01*
X58699Y-44604D01*
X59699Y-44604D01*
X59699Y-45104D01*
X59760Y-45251D01*
X59872Y-45364D01*
X60020Y-45425D01*
X60179Y-45425D01*
X60326Y-45364D01*
X60439Y-45252D01*
X60500Y-45104D01*
X60500Y-44945D01*
X60439Y-44798D01*
X60327Y-44685D01*
X60179Y-44624D01*
X60020Y-44624D01*
X59873Y-44685D01*
X59760Y-44797D01*
X59699Y-44945D01*
X59699Y-45104D01*
X59699Y-44604D01*
X60699Y-44604D01*
X60699Y-45104D01*
X60760Y-45251D01*
X60872Y-45364D01*
X61020Y-45425D01*
X61179Y-45425D01*
X61326Y-45364D01*
X61439Y-45252D01*
X61500Y-45104D01*
X61500Y-44945D01*
X61439Y-44798D01*
X61327Y-44685D01*
X61179Y-44624D01*
X61020Y-44624D01*
X60873Y-44685D01*
X60760Y-44797D01*
X60699Y-44945D01*
X60699Y-45104D01*
X60699Y-44604D01*
X61699Y-44604D01*
X61699Y-45104D01*
X61699Y-46104D01*
X61760Y-46251D01*
X61872Y-46364D01*
X62020Y-46425D01*
X62179Y-46425D01*
X62326Y-46364D01*
X62439Y-46252D01*
X62500Y-46104D01*
X62500Y-45945D01*
X62439Y-45798D01*
X62327Y-45685D01*
X62179Y-45624D01*
X62020Y-45624D01*
X61873Y-45685D01*
X61760Y-45797D01*
X61699Y-45945D01*
X61699Y-46104D01*
X61699Y-45104D01*
X61760Y-45251D01*
X61872Y-45364D01*
X62020Y-45425D01*
X62179Y-45425D01*
X62326Y-45364D01*
X62439Y-45252D01*
X62500Y-45104D01*
X62500Y-44945D01*
X62439Y-44798D01*
X62327Y-44685D01*
X62179Y-44624D01*
X62020Y-44624D01*
X61873Y-44685D01*
X61760Y-44797D01*
X61699Y-44945D01*
X61699Y-45104D01*
X61699Y-44604D01*
X62970Y-44604D01*
X62970Y-50523D01*
X62925Y-50505D01*
X62785Y-50505D01*
X62747Y-50542D01*
X62747Y-50802D01*
X62773Y-50802D01*
X62773Y-51097D01*
X62747Y-51097D01*
X62747Y-51357D01*
X62785Y-51394D01*
X62925Y-51394D01*
X62970Y-51376D01*
X62970Y-60095D01*
X60325Y-60095D01*
X60312Y-60097D01*
X60299Y-60097D01*
X60223Y-60112D01*
X60176Y-60132D01*
X60148Y-60150D01*
X60144Y-60146D01*
X60067Y-60114D01*
X59983Y-60114D01*
X59905Y-60146D01*
X59874Y-60177D01*
X59844Y-60146D01*
X59767Y-60114D01*
X59683Y-60114D01*
X59605Y-60146D01*
X59546Y-60205D01*
X59514Y-60282D01*
X59514Y-60366D01*
X59546Y-60444D01*
X59605Y-60503D01*
X59682Y-60535D01*
X59766Y-60535D01*
X59844Y-60503D01*
X59875Y-60472D01*
X59905Y-60503D01*
X59982Y-60535D01*
X60016Y-60535D01*
X60032Y-60573D01*
X60032Y-60573D01*
X60075Y-60638D01*
X60075Y-60638D01*
X60093Y-60656D01*
X60111Y-60674D01*
X60111Y-60674D01*
X60176Y-60717D01*
X60223Y-60737D01*
X60299Y-60752D01*
X60312Y-60752D01*
X60325Y-60754D01*
X60907Y-60754D01*
X60773Y-60810D01*
X60660Y-60922D01*
X60599Y-61070D01*
X60599Y-61229D01*
X60660Y-61376D01*
X60772Y-61489D01*
X60920Y-61550D01*
X61079Y-61550D01*
X61226Y-61489D01*
X61339Y-61377D01*
X61400Y-61229D01*
X61400Y-61070D01*
X61339Y-60923D01*
X61227Y-60810D01*
X61092Y-60754D01*
X61543Y-60754D01*
X61543Y-61194D01*
X61561Y-61283D01*
X61615Y-61322D01*
X61787Y-61150D01*
X61615Y-60977D01*
X61561Y-61016D01*
X61543Y-61194D01*
X61543Y-60754D01*
X61835Y-60754D01*
X61827Y-60765D01*
X61827Y-61534D01*
X61866Y-61588D01*
X62044Y-61606D01*
X62133Y-61588D01*
X62172Y-61534D01*
X62000Y-61362D01*
X61827Y-61534D01*
X61827Y-60765D01*
X62000Y-60937D01*
X62172Y-60765D01*
X62164Y-60754D01*
X62420Y-60754D01*
X62420Y-61003D01*
X62384Y-60977D01*
X62212Y-61150D01*
X62384Y-61322D01*
X62420Y-61296D01*
X62420Y-62045D01*
X56579Y-62045D01*
X56579Y-60804D01*
X56610Y-60804D01*
X56599Y-60830D01*
X56599Y-60869D01*
X56599Y-61469D01*
X56614Y-61506D01*
X56643Y-61535D01*
X56680Y-61550D01*
X56719Y-61550D01*
X57319Y-61550D01*
X57356Y-61535D01*
X57385Y-61506D01*
X57400Y-61469D01*
X57400Y-61430D01*
X57400Y-60830D01*
X57389Y-60804D01*
X57786Y-60804D01*
X57773Y-60810D01*
X57660Y-60922D01*
X57599Y-61070D01*
X57599Y-61229D01*
X57660Y-61376D01*
X57772Y-61489D01*
X57920Y-61550D01*
X58079Y-61550D01*
X58226Y-61489D01*
X58339Y-61377D01*
X58371Y-61300D01*
X58400Y-61300D01*
X58457Y-61288D01*
X58506Y-61256D01*
X58599Y-61163D01*
X58599Y-61229D01*
X58660Y-61376D01*
X58772Y-61489D01*
X58920Y-61550D01*
X59079Y-61550D01*
X59226Y-61489D01*
X59339Y-61377D01*
X59400Y-61229D01*
X59400Y-61139D01*
X59505Y-61244D01*
X59548Y-61273D01*
X59600Y-61283D01*
X59622Y-61283D01*
X59660Y-61376D01*
X59772Y-61489D01*
X59920Y-61550D01*
X60079Y-61550D01*
X60226Y-61489D01*
X60339Y-61377D01*
X60400Y-61229D01*
X60400Y-61070D01*
X60339Y-60923D01*
X60227Y-60810D01*
X60079Y-60749D01*
X59920Y-60749D01*
X59773Y-60810D01*
X59660Y-60922D01*
X59631Y-60992D01*
X59408Y-60769D01*
X59408Y-60488D01*
X59453Y-60444D01*
X59485Y-60367D01*
X59485Y-60283D01*
X59453Y-60205D01*
X59394Y-60146D01*
X59317Y-60114D01*
X59233Y-60114D01*
X59155Y-60146D01*
X59124Y-60177D01*
X59094Y-60146D01*
X59017Y-60114D01*
X58933Y-60114D01*
X58855Y-60146D01*
X58844Y-60158D01*
X58808Y-60134D01*
X58808Y-60134D01*
X58808Y-60134D01*
X58761Y-60114D01*
X58761Y-60114D01*
X58675Y-60097D01*
X58662Y-60097D01*
X58650Y-60095D01*
X56229Y-60095D01*
X56229Y-59749D01*
X56371Y-59807D01*
X56528Y-59807D01*
X56674Y-59747D01*
X56785Y-59636D01*
X56845Y-59491D01*
X56846Y-59333D01*
X56786Y-59188D01*
X56674Y-59076D01*
X56529Y-59016D01*
X56372Y-59016D01*
X56229Y-59075D01*
X56229Y-51312D01*
X56247Y-51330D01*
X56284Y-51345D01*
X56324Y-51345D01*
X56396Y-51345D01*
X56396Y-51517D01*
X56396Y-51557D01*
X56396Y-51951D01*
X56411Y-51988D01*
X56439Y-52016D01*
X56476Y-52031D01*
X56516Y-52031D01*
X56792Y-52031D01*
X56829Y-52016D01*
X56857Y-51988D01*
X56872Y-51951D01*
X56872Y-51911D01*
X56872Y-51517D01*
X56857Y-51480D01*
X56829Y-51452D01*
X56792Y-51437D01*
X56752Y-51437D01*
X56476Y-51437D01*
X56439Y-51452D01*
X56411Y-51480D01*
X56396Y-51517D01*
X56396Y-51345D01*
X56806Y-51345D01*
X56855Y-51394D01*
X56898Y-51423D01*
X56932Y-51430D01*
X56932Y-51430D01*
X56938Y-51435D01*
X56921Y-51452D01*
X56898Y-51507D01*
X56898Y-51567D01*
X56898Y-51598D01*
X56898Y-51870D01*
X56898Y-51901D01*
X56898Y-51961D01*
X56921Y-52015D01*
X56963Y-52058D01*
X57018Y-52080D01*
X57099Y-52080D01*
X57136Y-52043D01*
X57136Y-51832D01*
X56935Y-51832D01*
X56898Y-51870D01*
X56898Y-51598D01*
X56935Y-51636D01*
X57136Y-51636D01*
X57136Y-51561D01*
X57313Y-51561D01*
X57313Y-51636D01*
X57398Y-51636D01*
X57398Y-51832D01*
X57313Y-51832D01*
X57313Y-52043D01*
X57350Y-52080D01*
X57361Y-52080D01*
X57339Y-52132D01*
X57339Y-52216D01*
X57370Y-52291D01*
X56575Y-52291D01*
X56523Y-52301D01*
X56523Y-52301D01*
X56480Y-52330D01*
X56280Y-52530D01*
X56280Y-52530D01*
X56260Y-52559D01*
X56251Y-52573D01*
X56251Y-52573D01*
X56241Y-52625D01*
X56241Y-52625D01*
X56241Y-53850D01*
X56251Y-53901D01*
X56251Y-53901D01*
X56260Y-53915D01*
X56275Y-53937D01*
X56275Y-58495D01*
X56275Y-58550D01*
X56275Y-58749D01*
X56275Y-58804D01*
X56298Y-58859D01*
X56340Y-58901D01*
X56395Y-58924D01*
X56454Y-58924D01*
X56500Y-58924D01*
X56537Y-58887D01*
X56537Y-58712D01*
X56312Y-58712D01*
X56275Y-58749D01*
X56275Y-58550D01*
X56312Y-58587D01*
X56537Y-58587D01*
X56537Y-58412D01*
X56500Y-58375D01*
X56454Y-58375D01*
X56395Y-58375D01*
X56340Y-58398D01*
X56298Y-58440D01*
X56275Y-58495D01*
X56275Y-53937D01*
X56280Y-53944D01*
X56280Y-53944D01*
X56703Y-54367D01*
X56703Y-56337D01*
X56713Y-56388D01*
X56742Y-56432D01*
X56876Y-56566D01*
X56650Y-56566D01*
X56598Y-56576D01*
X56598Y-56576D01*
X56555Y-56605D01*
X56430Y-56730D01*
X56401Y-56773D01*
X56391Y-56825D01*
X56391Y-57200D01*
X56399Y-57242D01*
X56401Y-57251D01*
X56401Y-57251D01*
X56430Y-57294D01*
X56530Y-57394D01*
X56573Y-57423D01*
X56609Y-57430D01*
X56599Y-57455D01*
X56599Y-57494D01*
X56599Y-57736D01*
X56555Y-57780D01*
X56526Y-57823D01*
X56526Y-57823D01*
X56526Y-57824D01*
X56405Y-57824D01*
X56368Y-57839D01*
X56339Y-57868D01*
X56324Y-57905D01*
X56324Y-57944D01*
X56324Y-58194D01*
X56339Y-58231D01*
X56368Y-58260D01*
X56405Y-58275D01*
X56444Y-58275D01*
X56762Y-58275D01*
X56762Y-58412D01*
X56762Y-58587D01*
X56762Y-58712D01*
X56762Y-58887D01*
X56799Y-58924D01*
X56845Y-58924D01*
X56904Y-58924D01*
X56959Y-58901D01*
X57001Y-58859D01*
X57024Y-58804D01*
X57024Y-58749D01*
X56987Y-58712D01*
X56762Y-58712D01*
X56762Y-58587D01*
X56987Y-58587D01*
X57024Y-58550D01*
X57024Y-58495D01*
X57001Y-58440D01*
X56959Y-58398D01*
X56904Y-58375D01*
X56845Y-58375D01*
X56799Y-58375D01*
X56762Y-58412D01*
X56762Y-58275D01*
X56894Y-58275D01*
X56931Y-58260D01*
X56960Y-58231D01*
X56975Y-58194D01*
X56975Y-58155D01*
X56975Y-57905D01*
X56960Y-57868D01*
X56931Y-57839D01*
X56896Y-57825D01*
X57050Y-57825D01*
X57050Y-59020D01*
X57050Y-59079D01*
X57050Y-59162D01*
X57050Y-59537D01*
X57050Y-59620D01*
X57050Y-59679D01*
X57073Y-59734D01*
X57115Y-59776D01*
X57170Y-59799D01*
X57312Y-59799D01*
X57350Y-59762D01*
X57350Y-59500D01*
X57087Y-59500D01*
X57050Y-59537D01*
X57050Y-59162D01*
X57087Y-59200D01*
X57350Y-59200D01*
X57350Y-58937D01*
X57312Y-58900D01*
X57170Y-58900D01*
X57115Y-58923D01*
X57073Y-58965D01*
X57050Y-59020D01*
X57050Y-57825D01*
X57169Y-57825D01*
X57206Y-57810D01*
X57235Y-57781D01*
X57250Y-57744D01*
X57250Y-57705D01*
X57250Y-57455D01*
X57241Y-57433D01*
X57369Y-57433D01*
X57866Y-57930D01*
X57866Y-58187D01*
X57839Y-58123D01*
X57727Y-58010D01*
X57579Y-57949D01*
X57420Y-57949D01*
X57273Y-58010D01*
X57160Y-58122D01*
X57099Y-58270D01*
X57099Y-58429D01*
X57160Y-58576D01*
X57272Y-58689D01*
X57420Y-58750D01*
X57579Y-58750D01*
X57656Y-58718D01*
X57843Y-58906D01*
X57829Y-58900D01*
X57687Y-58900D01*
X57650Y-58937D01*
X57650Y-59200D01*
X57673Y-59200D01*
X57673Y-59500D01*
X57650Y-59500D01*
X57650Y-59762D01*
X57687Y-59799D01*
X57829Y-59799D01*
X57884Y-59776D01*
X57926Y-59734D01*
X57937Y-59707D01*
X58161Y-59931D01*
X58210Y-59963D01*
X58268Y-59975D01*
X61051Y-59975D01*
X61064Y-60006D01*
X61093Y-60035D01*
X61130Y-60050D01*
X61169Y-60050D01*
X61619Y-60050D01*
X61656Y-60035D01*
X61685Y-60006D01*
X61698Y-59975D01*
X61775Y-59975D01*
X62275Y-59975D01*
X62332Y-59963D01*
X62381Y-59931D01*
X62468Y-59843D01*
X62490Y-59812D01*
X62520Y-59824D01*
X62575Y-59824D01*
X62612Y-59787D01*
X62612Y-59562D01*
X62550Y-59562D01*
X62550Y-59337D01*
X62612Y-59337D01*
X62612Y-59276D01*
X62737Y-59276D01*
X62737Y-59337D01*
X62737Y-59562D01*
X62737Y-59787D01*
X62774Y-59824D01*
X62829Y-59824D01*
X62884Y-59801D01*
X62926Y-59759D01*
X62949Y-59704D01*
X62949Y-59645D01*
X62949Y-59599D01*
X62912Y-59562D01*
X62737Y-59562D01*
X62737Y-59337D01*
X62912Y-59337D01*
X62949Y-59300D01*
X62949Y-59254D01*
X62949Y-59195D01*
X62926Y-59140D01*
X62894Y-59108D01*
X62900Y-59094D01*
X62900Y-59055D01*
X62900Y-58605D01*
X62894Y-58591D01*
X62926Y-58559D01*
X62949Y-58504D01*
X62949Y-58445D01*
X62949Y-58399D01*
X62912Y-58362D01*
X62737Y-58362D01*
X62737Y-58423D01*
X62612Y-58423D01*
X62612Y-58362D01*
X62550Y-58362D01*
X62550Y-58137D01*
X62612Y-58137D01*
X62612Y-58076D01*
X62737Y-58076D01*
X62737Y-58137D01*
X62912Y-58137D01*
X62949Y-58100D01*
X62949Y-58054D01*
X62949Y-57995D01*
X62926Y-57940D01*
X62884Y-57898D01*
X62847Y-57882D01*
X62863Y-57857D01*
X62875Y-57800D01*
X62875Y-54075D01*
X62863Y-54017D01*
X62831Y-53968D01*
X62274Y-53411D01*
X62326Y-53389D01*
X62439Y-53277D01*
X62500Y-53129D01*
X62500Y-52970D01*
X62439Y-52823D01*
X62327Y-52710D01*
X62179Y-52649D01*
X62020Y-52649D01*
X61873Y-52710D01*
X61760Y-52822D01*
X61699Y-52970D01*
X61699Y-53129D01*
X61760Y-53276D01*
X61872Y-53389D01*
X61949Y-53421D01*
X61949Y-53450D01*
X61961Y-53507D01*
X61993Y-53556D01*
X62574Y-54137D01*
X62574Y-56450D01*
X62537Y-56487D01*
X62537Y-56712D01*
X62574Y-56712D01*
X62574Y-56937D01*
X62537Y-56937D01*
X62537Y-57162D01*
X62537Y-57162D01*
X62537Y-57162D01*
X62537Y-57387D01*
X62574Y-57387D01*
X62574Y-57612D01*
X62537Y-57612D01*
X62537Y-57673D01*
X62412Y-57673D01*
X62412Y-57612D01*
X62350Y-57612D01*
X62350Y-57387D01*
X62412Y-57387D01*
X62412Y-57162D01*
X62412Y-57162D01*
X62412Y-57162D01*
X62412Y-56937D01*
X62237Y-56937D01*
X62200Y-56974D01*
X62200Y-57020D01*
X62200Y-57079D01*
X62205Y-57090D01*
X62169Y-57055D01*
X62126Y-57026D01*
X62100Y-57021D01*
X62100Y-56580D01*
X62085Y-56543D01*
X62056Y-56514D01*
X62019Y-56499D01*
X61980Y-56499D01*
X61730Y-56499D01*
X61693Y-56514D01*
X61664Y-56543D01*
X61649Y-56580D01*
X61649Y-56619D01*
X61649Y-56802D01*
X61586Y-56866D01*
X61190Y-56866D01*
X61242Y-56844D01*
X61268Y-56818D01*
X61268Y-56765D01*
X61028Y-56525D01*
X60996Y-56556D01*
X60762Y-56322D01*
X60794Y-56291D01*
X60553Y-56050D01*
X60500Y-56050D01*
X60474Y-56076D01*
X60452Y-56131D01*
X60452Y-56173D01*
X60443Y-56177D01*
X60415Y-56205D01*
X60290Y-56330D01*
X60275Y-56367D01*
X60275Y-56381D01*
X60261Y-56381D01*
X60224Y-56396D01*
X60196Y-56424D01*
X60071Y-56550D01*
X60055Y-56586D01*
X60055Y-56607D01*
X60042Y-56607D01*
X59928Y-56493D01*
X59879Y-56461D01*
X59821Y-56449D01*
X59337Y-56449D01*
X58725Y-55837D01*
X58725Y-54900D01*
X58725Y-54025D01*
X58717Y-53983D01*
X58745Y-53983D01*
X58800Y-53961D01*
X58826Y-53935D01*
X58826Y-53882D01*
X58585Y-53641D01*
X58554Y-53673D01*
X58320Y-53439D01*
X58351Y-53407D01*
X58111Y-53167D01*
X58058Y-53167D01*
X58032Y-53193D01*
X58009Y-53248D01*
X58009Y-53288D01*
X58004Y-53290D01*
X57976Y-53318D01*
X57851Y-53443D01*
X57849Y-53448D01*
X57809Y-53448D01*
X57754Y-53471D01*
X57728Y-53497D01*
X57728Y-53550D01*
X57968Y-53790D01*
X58000Y-53759D01*
X58234Y-53993D01*
X58202Y-54024D01*
X58208Y-54030D01*
X58145Y-54092D01*
X58140Y-54087D01*
X58109Y-54118D01*
X57875Y-53884D01*
X57906Y-53853D01*
X57665Y-53612D01*
X57613Y-53612D01*
X57587Y-53638D01*
X57564Y-53693D01*
X57564Y-53733D01*
X57559Y-53735D01*
X57531Y-53764D01*
X57408Y-53886D01*
X57408Y-53755D01*
X57910Y-53254D01*
X57937Y-53212D01*
X57973Y-53212D01*
X58010Y-53197D01*
X58038Y-53169D01*
X58053Y-53132D01*
X58053Y-53092D01*
X58053Y-52698D01*
X58038Y-52661D01*
X58010Y-52633D01*
X57973Y-52618D01*
X57933Y-52618D01*
X57657Y-52618D01*
X57620Y-52633D01*
X57592Y-52661D01*
X57577Y-52698D01*
X57577Y-52738D01*
X57577Y-53132D01*
X57592Y-53169D01*
X57604Y-53181D01*
X57180Y-53605D01*
X57151Y-53648D01*
X57151Y-53648D01*
X57149Y-53657D01*
X57141Y-53700D01*
X57141Y-53700D01*
X57141Y-54100D01*
X57149Y-54142D01*
X57151Y-54151D01*
X57151Y-54151D01*
X57161Y-54165D01*
X57150Y-54165D01*
X57139Y-54170D01*
X56768Y-53799D01*
X56768Y-53212D01*
X56792Y-53212D01*
X56829Y-53197D01*
X56857Y-53169D01*
X56872Y-53132D01*
X56872Y-53092D01*
X56872Y-52698D01*
X56857Y-52661D01*
X56829Y-52633D01*
X56792Y-52618D01*
X56752Y-52618D01*
X56570Y-52618D01*
X56630Y-52558D01*
X56898Y-52558D01*
X56898Y-52688D01*
X56898Y-52748D01*
X56898Y-52779D01*
X56898Y-53051D01*
X56898Y-53082D01*
X56898Y-53142D01*
X56921Y-53197D01*
X56963Y-53239D01*
X57018Y-53261D01*
X57099Y-53261D01*
X57136Y-53224D01*
X57136Y-53013D01*
X56935Y-53013D01*
X56898Y-53051D01*
X56898Y-52779D01*
X56935Y-52817D01*
X57136Y-52817D01*
X57136Y-52606D01*
X57099Y-52569D01*
X57018Y-52569D01*
X56963Y-52591D01*
X56921Y-52634D01*
X56898Y-52688D01*
X56898Y-52558D01*
X57313Y-52558D01*
X57313Y-52606D01*
X57313Y-52817D01*
X57313Y-53013D01*
X57313Y-53224D01*
X57350Y-53261D01*
X57431Y-53261D01*
X57486Y-53239D01*
X57528Y-53197D01*
X57551Y-53142D01*
X57551Y-53082D01*
X57551Y-53051D01*
X57514Y-53013D01*
X57313Y-53013D01*
X57313Y-52817D01*
X57514Y-52817D01*
X57551Y-52779D01*
X57551Y-52748D01*
X57551Y-52688D01*
X57528Y-52634D01*
X57486Y-52591D01*
X57431Y-52569D01*
X57350Y-52569D01*
X57313Y-52606D01*
X57313Y-52558D01*
X57925Y-52558D01*
X57967Y-52550D01*
X57976Y-52548D01*
X58019Y-52519D01*
X58243Y-52295D01*
X58654Y-52295D01*
X58691Y-52280D01*
X58719Y-52252D01*
X58735Y-52215D01*
X58735Y-52175D01*
X58735Y-51584D01*
X58719Y-51547D01*
X58691Y-51519D01*
X58654Y-51504D01*
X58614Y-51504D01*
X58048Y-51504D01*
X58038Y-51480D01*
X58010Y-51452D01*
X57973Y-51437D01*
X57933Y-51437D01*
X57716Y-51437D01*
X57723Y-51426D01*
X57733Y-51375D01*
X57733Y-51345D01*
X57915Y-51345D01*
X57952Y-51330D01*
X57980Y-51302D01*
X57995Y-51265D01*
X57995Y-51225D01*
X57995Y-50634D01*
X57980Y-50597D01*
X57952Y-50569D01*
X57915Y-50554D01*
X57875Y-50554D01*
X57284Y-50554D01*
X57247Y-50569D01*
X57219Y-50597D01*
X57217Y-50603D01*
X57039Y-50425D01*
X57179Y-50425D01*
X57326Y-50364D01*
X57439Y-50252D01*
X57500Y-50104D01*
X57500Y-49945D01*
X57439Y-49798D01*
X57327Y-49685D01*
X57179Y-49624D01*
X57020Y-49624D01*
X56873Y-49685D01*
X56786Y-49772D01*
X56658Y-49644D01*
X56658Y-48773D01*
X56738Y-48852D01*
X56699Y-48945D01*
X56699Y-49104D01*
X56760Y-49251D01*
X56872Y-49364D01*
X57020Y-49425D01*
X57179Y-49425D01*
X57272Y-49386D01*
X57699Y-49813D01*
X57699Y-50344D01*
X57714Y-50381D01*
X57743Y-50410D01*
X57780Y-50425D01*
X57819Y-50425D01*
X58419Y-50425D01*
X58456Y-50410D01*
X58466Y-50400D01*
X58466Y-50554D01*
X58284Y-50554D01*
X58247Y-50569D01*
X58219Y-50597D01*
X58204Y-50634D01*
X58204Y-50674D01*
X58204Y-51265D01*
X58219Y-51302D01*
X58247Y-51330D01*
X58284Y-51345D01*
X58324Y-51345D01*
X58791Y-51345D01*
X58791Y-52194D01*
X58305Y-52680D01*
X58276Y-52723D01*
X58266Y-52775D01*
X58266Y-52950D01*
X58276Y-53001D01*
X58276Y-53001D01*
X58277Y-53003D01*
X58254Y-53003D01*
X58199Y-53025D01*
X58173Y-53051D01*
X58173Y-53104D01*
X58414Y-53345D01*
X58445Y-53313D01*
X58679Y-53547D01*
X58648Y-53579D01*
X58888Y-53819D01*
X58941Y-53819D01*
X58967Y-53793D01*
X58990Y-53738D01*
X58990Y-53698D01*
X58995Y-53696D01*
X59023Y-53668D01*
X59148Y-53543D01*
X59164Y-53506D01*
X59164Y-53489D01*
X59181Y-53489D01*
X59218Y-53473D01*
X59246Y-53445D01*
X59371Y-53320D01*
X59386Y-53283D01*
X59386Y-53243D01*
X59371Y-53206D01*
X59343Y-53178D01*
X59173Y-53009D01*
X59694Y-52488D01*
X59723Y-52444D01*
X59733Y-52393D01*
X59733Y-51345D01*
X59915Y-51345D01*
X59952Y-51330D01*
X59980Y-51302D01*
X59995Y-51265D01*
X59995Y-51225D01*
X59995Y-50634D01*
X59980Y-50597D01*
X59952Y-50569D01*
X59915Y-50554D01*
X59875Y-50554D01*
X59733Y-50554D01*
X59733Y-50179D01*
X59887Y-50025D01*
X59733Y-49870D01*
X59733Y-49179D01*
X59887Y-49025D01*
X59733Y-48870D01*
X59733Y-48800D01*
X59723Y-48748D01*
X59694Y-48705D01*
X59419Y-48430D01*
X59376Y-48401D01*
X59376Y-48401D01*
X59367Y-48399D01*
X59325Y-48391D01*
X59262Y-48391D01*
X59326Y-48364D01*
X59439Y-48252D01*
X59500Y-48104D01*
X59500Y-47945D01*
X59439Y-47798D01*
X59327Y-47685D01*
X59179Y-47624D01*
X59020Y-47624D01*
X58873Y-47685D01*
X58760Y-47797D01*
X58733Y-47862D01*
X58733Y-47725D01*
X58723Y-47673D01*
X58694Y-47630D01*
X58494Y-47430D01*
X58494Y-47430D01*
X58465Y-47410D01*
X58451Y-47401D01*
X58451Y-47401D01*
X58400Y-47391D01*
X58262Y-47391D01*
X58326Y-47364D01*
X58439Y-47252D01*
X58500Y-47104D01*
X58500Y-46945D01*
X58439Y-46798D01*
X58358Y-46717D01*
X58841Y-46717D01*
X58760Y-46797D01*
X58699Y-46945D01*
X58699Y-47104D01*
X58760Y-47251D01*
X58872Y-47364D01*
X59020Y-47425D01*
X59179Y-47425D01*
X59326Y-47364D01*
X59439Y-47252D01*
X59500Y-47104D01*
X59500Y-46945D01*
X59439Y-46798D01*
X59358Y-46717D01*
X59841Y-46717D01*
X59760Y-46797D01*
X59699Y-46945D01*
X59699Y-47104D01*
X59699Y-48104D01*
X59760Y-48251D01*
X59872Y-48364D01*
X59927Y-48387D01*
X59927Y-48640D01*
X59927Y-49409D01*
X59927Y-49640D01*
X59927Y-50409D01*
X59966Y-50463D01*
X60144Y-50481D01*
X60233Y-50463D01*
X60272Y-50409D01*
X60100Y-50237D01*
X59927Y-50409D01*
X59927Y-49640D01*
X60100Y-49812D01*
X60272Y-49640D01*
X60233Y-49586D01*
X60055Y-49568D01*
X59966Y-49586D01*
X59927Y-49640D01*
X59927Y-49409D01*
X59966Y-49463D01*
X60144Y-49481D01*
X60233Y-49463D01*
X60272Y-49409D01*
X60100Y-49237D01*
X59927Y-49409D01*
X59927Y-48640D01*
X60100Y-48812D01*
X60272Y-48640D01*
X60233Y-48586D01*
X60055Y-48568D01*
X59966Y-48586D01*
X59927Y-48640D01*
X59927Y-48387D01*
X60020Y-48425D01*
X60179Y-48425D01*
X60312Y-48370D01*
X60312Y-49025D01*
X60312Y-50025D01*
X60484Y-50197D01*
X60538Y-50158D01*
X60556Y-49980D01*
X60538Y-49891D01*
X60484Y-49852D01*
X60312Y-50025D01*
X60312Y-49025D01*
X60484Y-49197D01*
X60538Y-49158D01*
X60556Y-48980D01*
X60538Y-48891D01*
X60484Y-48852D01*
X60312Y-49025D01*
X60312Y-48370D01*
X60326Y-48364D01*
X60439Y-48252D01*
X60500Y-48104D01*
X60500Y-47945D01*
X60439Y-47798D01*
X60327Y-47685D01*
X60179Y-47624D01*
X60020Y-47624D01*
X59873Y-47685D01*
X59760Y-47797D01*
X59699Y-47945D01*
X59699Y-48104D01*
X59699Y-47104D01*
X59760Y-47251D01*
X59872Y-47364D01*
X60020Y-47425D01*
X60179Y-47425D01*
X60326Y-47364D01*
X60439Y-47252D01*
X60500Y-47104D01*
X60500Y-46945D01*
X60439Y-46798D01*
X60358Y-46717D01*
X60841Y-46717D01*
X60760Y-46797D01*
X60699Y-46945D01*
X60699Y-47104D01*
X60760Y-47251D01*
X60872Y-47364D01*
X61020Y-47425D01*
X61179Y-47425D01*
X61326Y-47364D01*
X61382Y-47308D01*
X61382Y-47741D01*
X61327Y-47685D01*
X61179Y-47624D01*
X61020Y-47624D01*
X60873Y-47685D01*
X60760Y-47797D01*
X60699Y-47945D01*
X60699Y-48104D01*
X60760Y-48251D01*
X60872Y-48364D01*
X61020Y-48425D01*
X61179Y-48425D01*
X61326Y-48364D01*
X61382Y-48308D01*
X61382Y-48741D01*
X61327Y-48685D01*
X61179Y-48624D01*
X61020Y-48624D01*
X60873Y-48685D01*
X60760Y-48797D01*
X60699Y-48945D01*
X60699Y-49104D01*
X60760Y-49251D01*
X60872Y-49364D01*
X61020Y-49425D01*
X61179Y-49425D01*
X61326Y-49364D01*
X61382Y-49308D01*
X61382Y-49741D01*
X61327Y-49685D01*
X61179Y-49624D01*
X61020Y-49624D01*
X60873Y-49685D01*
X60760Y-49797D01*
X60699Y-49945D01*
X60699Y-50104D01*
X60760Y-50251D01*
X60872Y-50364D01*
X60889Y-50371D01*
X60706Y-50554D01*
X60284Y-50554D01*
X60247Y-50569D01*
X60219Y-50597D01*
X60204Y-50634D01*
X60204Y-50674D01*
X60204Y-51265D01*
X60219Y-51302D01*
X60247Y-51330D01*
X60284Y-51345D01*
X60324Y-51345D01*
X60391Y-51345D01*
X60391Y-52680D01*
X60329Y-52619D01*
X60292Y-52603D01*
X60252Y-52603D01*
X60215Y-52619D01*
X60187Y-52647D01*
X59631Y-53203D01*
X59615Y-53240D01*
X59615Y-53280D01*
X59620Y-53290D01*
X59155Y-53755D01*
X59126Y-53798D01*
X59116Y-53850D01*
X59116Y-55750D01*
X59124Y-55792D01*
X59126Y-55801D01*
X59126Y-55801D01*
X59155Y-55844D01*
X59155Y-55844D01*
X59364Y-56053D01*
X59364Y-56116D01*
X59396Y-56194D01*
X59455Y-56253D01*
X59532Y-56285D01*
X59616Y-56285D01*
X59694Y-56253D01*
X59753Y-56194D01*
X59785Y-56117D01*
X59785Y-56033D01*
X59753Y-55955D01*
X59694Y-55896D01*
X59617Y-55864D01*
X59553Y-55864D01*
X59383Y-55694D01*
X59383Y-53905D01*
X59514Y-53774D01*
X59514Y-55366D01*
X59546Y-55444D01*
X59605Y-55503D01*
X59682Y-55535D01*
X59746Y-55535D01*
X60130Y-55919D01*
X60173Y-55948D01*
X60225Y-55958D01*
X60616Y-55958D01*
X60616Y-55988D01*
X60856Y-56228D01*
X60888Y-56197D01*
X61122Y-56431D01*
X61090Y-56462D01*
X61331Y-56703D01*
X61384Y-56703D01*
X61410Y-56677D01*
X61432Y-56622D01*
X61432Y-56584D01*
X61434Y-56583D01*
X61462Y-56555D01*
X61587Y-56430D01*
X61602Y-56393D01*
X61602Y-56372D01*
X61623Y-56372D01*
X61660Y-56357D01*
X61688Y-56329D01*
X61813Y-56204D01*
X61829Y-56167D01*
X61829Y-56153D01*
X61842Y-56153D01*
X61879Y-56138D01*
X61907Y-56110D01*
X62033Y-55984D01*
X62048Y-55948D01*
X62048Y-55908D01*
X62033Y-55871D01*
X62004Y-55842D01*
X61448Y-55286D01*
X61411Y-55271D01*
X61371Y-55271D01*
X61334Y-55286D01*
X61306Y-55314D01*
X61299Y-55321D01*
X61275Y-55316D01*
X60960Y-55316D01*
X60960Y-55283D01*
X60928Y-55205D01*
X60869Y-55146D01*
X60792Y-55114D01*
X60708Y-55114D01*
X60630Y-55146D01*
X60571Y-55205D01*
X60539Y-55282D01*
X60539Y-55366D01*
X60571Y-55444D01*
X60618Y-55491D01*
X60430Y-55491D01*
X60327Y-55387D01*
X60335Y-55367D01*
X60335Y-55283D01*
X60303Y-55205D01*
X60244Y-55146D01*
X60167Y-55114D01*
X60083Y-55114D01*
X60005Y-55146D01*
X59946Y-55205D01*
X59924Y-55257D01*
X59903Y-55205D01*
X59844Y-55146D01*
X59767Y-55114D01*
X59683Y-55114D01*
X59605Y-55146D01*
X59546Y-55205D01*
X59514Y-55282D01*
X59514Y-55366D01*
X59514Y-53774D01*
X59808Y-53480D01*
X59821Y-53486D01*
X59838Y-53486D01*
X59838Y-53502D01*
X59853Y-53539D01*
X59881Y-53568D01*
X60006Y-53693D01*
X60043Y-53708D01*
X60061Y-53708D01*
X60061Y-53726D01*
X60076Y-53763D01*
X60104Y-53791D01*
X60230Y-53916D01*
X60267Y-53931D01*
X60283Y-53931D01*
X60283Y-53948D01*
X60298Y-53985D01*
X60327Y-54013D01*
X60379Y-54066D01*
X60013Y-54066D01*
X59969Y-54021D01*
X59892Y-53989D01*
X59808Y-53989D01*
X59730Y-54021D01*
X59671Y-54080D01*
X59639Y-54157D01*
X59639Y-54241D01*
X59671Y-54319D01*
X59730Y-54378D01*
X59807Y-54410D01*
X59891Y-54410D01*
X59969Y-54378D01*
X60014Y-54333D01*
X60647Y-54333D01*
X60675Y-54362D01*
X60712Y-54377D01*
X60728Y-54377D01*
X60728Y-54393D01*
X60733Y-54405D01*
X60647Y-54491D01*
X60463Y-54491D01*
X60419Y-54446D01*
X60342Y-54414D01*
X60258Y-54414D01*
X60180Y-54446D01*
X60121Y-54505D01*
X60089Y-54582D01*
X60089Y-54666D01*
X60121Y-54744D01*
X60180Y-54803D01*
X60257Y-54835D01*
X60341Y-54835D01*
X60419Y-54803D01*
X60464Y-54758D01*
X60699Y-54758D01*
X60689Y-54782D01*
X60689Y-54866D01*
X60721Y-54944D01*
X60780Y-55003D01*
X60857Y-55035D01*
X60939Y-55035D01*
X60939Y-55066D01*
X60971Y-55144D01*
X61030Y-55203D01*
X61107Y-55235D01*
X61191Y-55235D01*
X61269Y-55203D01*
X61328Y-55144D01*
X61360Y-55067D01*
X61360Y-55048D01*
X61368Y-55040D01*
X61380Y-55044D01*
X61419Y-55044D01*
X61456Y-55029D01*
X61485Y-55001D01*
X62041Y-54444D01*
X62056Y-54407D01*
X62056Y-54396D01*
X62116Y-54455D01*
X62116Y-56061D01*
X62071Y-56105D01*
X62039Y-56182D01*
X62039Y-56266D01*
X62071Y-56344D01*
X62130Y-56403D01*
X62200Y-56432D01*
X62200Y-56570D01*
X62200Y-56629D01*
X62200Y-56675D01*
X62237Y-56712D01*
X62412Y-56712D01*
X62412Y-56487D01*
X62375Y-56450D01*
X62320Y-56450D01*
X62265Y-56473D01*
X62223Y-56515D01*
X62200Y-56570D01*
X62200Y-56432D01*
X62207Y-56435D01*
X62291Y-56435D01*
X62369Y-56403D01*
X62428Y-56344D01*
X62460Y-56267D01*
X62460Y-56183D01*
X62428Y-56105D01*
X62383Y-56060D01*
X62383Y-54400D01*
X62373Y-54348D01*
X62344Y-54305D01*
X61464Y-53425D01*
X61594Y-53425D01*
X61631Y-53410D01*
X61660Y-53381D01*
X61675Y-53344D01*
X61675Y-53305D01*
X61675Y-53055D01*
X61660Y-53018D01*
X61631Y-52989D01*
X61594Y-52974D01*
X61555Y-52974D01*
X61105Y-52974D01*
X61068Y-52989D01*
X61039Y-53018D01*
X61024Y-53055D01*
X61024Y-53094D01*
X61024Y-53223D01*
X60971Y-53276D01*
X60960Y-53271D01*
X60943Y-53271D01*
X60943Y-53255D01*
X60928Y-53218D01*
X60900Y-53189D01*
X60883Y-53173D01*
X60883Y-52950D01*
X60873Y-52898D01*
X60844Y-52855D01*
X60808Y-52819D01*
X60808Y-52754D01*
X60882Y-52785D01*
X60966Y-52785D01*
X61030Y-52759D01*
X61039Y-52781D01*
X61068Y-52810D01*
X61105Y-52825D01*
X61144Y-52825D01*
X61594Y-52825D01*
X61631Y-52810D01*
X61660Y-52781D01*
X61675Y-52744D01*
X61675Y-52705D01*
X61675Y-52455D01*
X61660Y-52418D01*
X61631Y-52389D01*
X61594Y-52374D01*
X61555Y-52374D01*
X61105Y-52374D01*
X61068Y-52389D01*
X61052Y-52405D01*
X61044Y-52396D01*
X60967Y-52364D01*
X60883Y-52364D01*
X60808Y-52395D01*
X60808Y-51930D01*
X60965Y-51773D01*
X60965Y-52085D01*
X60965Y-52165D01*
X60965Y-52225D01*
X60988Y-52279D01*
X61030Y-52322D01*
X61085Y-52344D01*
X61225Y-52344D01*
X61262Y-52307D01*
X61262Y-52047D01*
X61003Y-52047D01*
X60965Y-52085D01*
X60965Y-51773D01*
X60994Y-51744D01*
X61003Y-51752D01*
X61262Y-51752D01*
X61262Y-51492D01*
X61254Y-51484D01*
X61393Y-51345D01*
X61558Y-51345D01*
X61558Y-51492D01*
X61558Y-51752D01*
X61583Y-51752D01*
X61583Y-52047D01*
X61558Y-52047D01*
X61558Y-52307D01*
X61595Y-52344D01*
X61650Y-52344D01*
X61650Y-52379D01*
X61673Y-52434D01*
X61715Y-52476D01*
X61770Y-52499D01*
X61829Y-52499D01*
X61912Y-52499D01*
X61950Y-52462D01*
X61950Y-52200D01*
X61926Y-52200D01*
X61926Y-51900D01*
X61950Y-51900D01*
X61950Y-51637D01*
X61912Y-51600D01*
X61855Y-51600D01*
X61855Y-51574D01*
X61832Y-51520D01*
X61790Y-51477D01*
X61735Y-51455D01*
X61595Y-51455D01*
X61558Y-51492D01*
X61558Y-51345D01*
X61915Y-51345D01*
X61952Y-51330D01*
X61980Y-51302D01*
X61995Y-51265D01*
X61995Y-51225D01*
X61995Y-50634D01*
X61980Y-50597D01*
X61952Y-50569D01*
X61915Y-50554D01*
X61875Y-50554D01*
X61771Y-50554D01*
X61773Y-50551D01*
X61783Y-50500D01*
X61783Y-50275D01*
X61872Y-50364D01*
X62020Y-50425D01*
X62155Y-50425D01*
X62155Y-50624D01*
X62155Y-50684D01*
X62155Y-50764D01*
X62155Y-51135D01*
X62155Y-51215D01*
X62155Y-51275D01*
X62177Y-51329D01*
X62220Y-51372D01*
X62250Y-51384D01*
X62250Y-51637D01*
X62250Y-51900D01*
X62250Y-52200D01*
X62250Y-52462D01*
X62287Y-52499D01*
X62370Y-52499D01*
X62429Y-52499D01*
X62484Y-52476D01*
X62526Y-52434D01*
X62549Y-52379D01*
X62549Y-52237D01*
X62512Y-52200D01*
X62250Y-52200D01*
X62250Y-51900D01*
X62512Y-51900D01*
X62549Y-51862D01*
X62549Y-51720D01*
X62526Y-51665D01*
X62484Y-51623D01*
X62429Y-51600D01*
X62370Y-51600D01*
X62287Y-51600D01*
X62250Y-51637D01*
X62250Y-51384D01*
X62274Y-51394D01*
X62414Y-51394D01*
X62452Y-51357D01*
X62452Y-51097D01*
X62192Y-51097D01*
X62155Y-51135D01*
X62155Y-50764D01*
X62192Y-50802D01*
X62452Y-50802D01*
X62452Y-50542D01*
X62414Y-50505D01*
X62274Y-50505D01*
X62220Y-50527D01*
X62177Y-50570D01*
X62155Y-50624D01*
X62155Y-50425D01*
X62179Y-50425D01*
X62326Y-50364D01*
X62439Y-50252D01*
X62500Y-50104D01*
X62500Y-49945D01*
X62439Y-49798D01*
X62327Y-49685D01*
X62179Y-49624D01*
X62020Y-49624D01*
X61873Y-49685D01*
X61783Y-49774D01*
X61783Y-49275D01*
X61872Y-49364D01*
X62020Y-49425D01*
X62179Y-49425D01*
X62326Y-49364D01*
X62439Y-49252D01*
X62500Y-49104D01*
X62500Y-48945D01*
X62439Y-48798D01*
X62327Y-48685D01*
X62179Y-48624D01*
X62020Y-48624D01*
X61873Y-48685D01*
X61783Y-48774D01*
X61783Y-48275D01*
X61872Y-48364D01*
X62020Y-48425D01*
X62179Y-48425D01*
X62326Y-48364D01*
X62439Y-48252D01*
X62500Y-48104D01*
X62500Y-47945D01*
X62439Y-47798D01*
X62327Y-47685D01*
X62179Y-47624D01*
X62020Y-47624D01*
X61873Y-47685D01*
X61783Y-47774D01*
X61783Y-47275D01*
X61872Y-47364D01*
X62020Y-47425D01*
X62179Y-47425D01*
X62326Y-47364D01*
X62439Y-47252D01*
X62500Y-47104D01*
X62500Y-46945D01*
X62439Y-46798D01*
X62327Y-46685D01*
X62179Y-46624D01*
X62020Y-46624D01*
X61873Y-46685D01*
X61783Y-46774D01*
X61783Y-46750D01*
X61773Y-46698D01*
X61744Y-46655D01*
X61444Y-46355D01*
X61401Y-46326D01*
X61370Y-46320D01*
X61439Y-46252D01*
X61500Y-46104D01*
X61500Y-45945D01*
X61439Y-45798D01*
X61327Y-45685D01*
X61179Y-45624D01*
X61020Y-45624D01*
X60873Y-45685D01*
X60760Y-45797D01*
X60699Y-45945D01*
X60699Y-46104D01*
X60760Y-46251D01*
X60824Y-46316D01*
X60375Y-46316D01*
X60439Y-46252D01*
X60500Y-46104D01*
X60500Y-45945D01*
X60439Y-45798D01*
X60327Y-45685D01*
X60179Y-45624D01*
X60020Y-45624D01*
X59873Y-45685D01*
X59760Y-45797D01*
X59699Y-45945D01*
X59699Y-46104D01*
X59760Y-46251D01*
X59824Y-46316D01*
X59375Y-46316D01*
X59439Y-46252D01*
X59500Y-46104D01*
X59500Y-45945D01*
X59439Y-45798D01*
X59327Y-45685D01*
X59179Y-45624D01*
X59020Y-45624D01*
X58873Y-45685D01*
X58760Y-45797D01*
X58699Y-45945D01*
X58699Y-46104D01*
X58760Y-46251D01*
X58824Y-46316D01*
X58375Y-46316D01*
X58439Y-46252D01*
X58500Y-46104D01*
X58500Y-45945D01*
X58439Y-45798D01*
X58327Y-45685D01*
X58179Y-45624D01*
X58020Y-45624D01*
X57873Y-45685D01*
X57760Y-45797D01*
X57699Y-45945D01*
X57699Y-46104D01*
X57760Y-46251D01*
X57824Y-46316D01*
X57375Y-46316D01*
X57439Y-46252D01*
X57500Y-46104D01*
X57500Y-45945D01*
X57439Y-45798D01*
X57327Y-45685D01*
X57179Y-45624D01*
X57020Y-45624D01*
X56873Y-45685D01*
X56760Y-45797D01*
X56721Y-45891D01*
X56673Y-45901D01*
X56673Y-45901D01*
X56630Y-45930D01*
X56358Y-46201D01*
X56358Y-45580D01*
X56739Y-45200D01*
X56760Y-45251D01*
X56872Y-45364D01*
X57020Y-45425D01*
X57179Y-45425D01*
X57326Y-45364D01*
X57439Y-45252D01*
X57500Y-45104D01*
X57500Y-44945D01*
X57439Y-44798D01*
X57327Y-44685D01*
X57179Y-44624D01*
X57020Y-44624D01*
X56873Y-44685D01*
X56760Y-44797D01*
X56721Y-44891D01*
X56673Y-44901D01*
X56673Y-44901D01*
X56630Y-44930D01*
X56229Y-45330D01*
X56229Y-44604D01*
X56229Y-44604D01*
G37*
G54D22*
X56229Y-44604D02*
X57699Y-44604D01*
X57699Y-45104D01*
X57760Y-45251D01*
X57872Y-45364D01*
X58020Y-45425D01*
X58179Y-45425D01*
X58326Y-45364D01*
X58439Y-45252D01*
X58500Y-45104D01*
X58500Y-44945D01*
X58439Y-44798D01*
X58327Y-44685D01*
X58179Y-44624D01*
X58020Y-44624D01*
X57873Y-44685D01*
X57760Y-44797D01*
X57699Y-44945D01*
X57699Y-45104D01*
X57699Y-44604D01*
X58699Y-44604D01*
X58699Y-45104D01*
X58760Y-45251D01*
X58872Y-45364D01*
X59020Y-45425D01*
X59179Y-45425D01*
X59326Y-45364D01*
X59439Y-45252D01*
X59500Y-45104D01*
X59500Y-44945D01*
X59439Y-44798D01*
X59327Y-44685D01*
X59179Y-44624D01*
X59020Y-44624D01*
X58873Y-44685D01*
X58760Y-44797D01*
X58699Y-44945D01*
X58699Y-45104D01*
X58699Y-44604D01*
X59699Y-44604D01*
X59699Y-45104D01*
X59760Y-45251D01*
X59872Y-45364D01*
X60020Y-45425D01*
X60179Y-45425D01*
X60326Y-45364D01*
X60439Y-45252D01*
X60500Y-45104D01*
X60500Y-44945D01*
X60439Y-44798D01*
X60327Y-44685D01*
X60179Y-44624D01*
X60020Y-44624D01*
X59873Y-44685D01*
X59760Y-44797D01*
X59699Y-44945D01*
X59699Y-45104D01*
X59699Y-44604D01*
X60699Y-44604D01*
X60699Y-45104D01*
X60760Y-45251D01*
X60872Y-45364D01*
X61020Y-45425D01*
X61179Y-45425D01*
X61326Y-45364D01*
X61439Y-45252D01*
X61500Y-45104D01*
X61500Y-44945D01*
X61439Y-44798D01*
X61327Y-44685D01*
X61179Y-44624D01*
X61020Y-44624D01*
X60873Y-44685D01*
X60760Y-44797D01*
X60699Y-44945D01*
X60699Y-45104D01*
X60699Y-44604D01*
X61699Y-44604D01*
X61699Y-45104D01*
X61699Y-46104D01*
X61760Y-46251D01*
X61872Y-46364D01*
X62020Y-46425D01*
X62179Y-46425D01*
X62326Y-46364D01*
X62439Y-46252D01*
X62500Y-46104D01*
X62500Y-45945D01*
X62439Y-45798D01*
X62327Y-45685D01*
X62179Y-45624D01*
X62020Y-45624D01*
X61873Y-45685D01*
X61760Y-45797D01*
X61699Y-45945D01*
X61699Y-46104D01*
X61699Y-45104D01*
X61760Y-45251D01*
X61872Y-45364D01*
X62020Y-45425D01*
X62179Y-45425D01*
X62326Y-45364D01*
X62439Y-45252D01*
X62500Y-45104D01*
X62500Y-44945D01*
X62439Y-44798D01*
X62327Y-44685D01*
X62179Y-44624D01*
X62020Y-44624D01*
X61873Y-44685D01*
X61760Y-44797D01*
X61699Y-44945D01*
X61699Y-45104D01*
X61699Y-44604D01*
X62970Y-44604D01*
X62970Y-50523D01*
X62925Y-50505D01*
X62785Y-50505D01*
X62747Y-50542D01*
X62747Y-50802D01*
X62773Y-50802D01*
X62773Y-51097D01*
X62747Y-51097D01*
X62747Y-51357D01*
X62785Y-51394D01*
X62925Y-51394D01*
X62970Y-51376D01*
X62970Y-60095D01*
X60325Y-60095D01*
X60312Y-60097D01*
X60299Y-60097D01*
X60223Y-60112D01*
X60176Y-60132D01*
X60148Y-60150D01*
X60144Y-60146D01*
X60067Y-60114D01*
X59983Y-60114D01*
X59905Y-60146D01*
X59874Y-60177D01*
X59844Y-60146D01*
X59767Y-60114D01*
X59683Y-60114D01*
X59605Y-60146D01*
X59546Y-60205D01*
X59514Y-60282D01*
X59514Y-60366D01*
X59546Y-60444D01*
X59605Y-60503D01*
X59682Y-60535D01*
X59766Y-60535D01*
X59844Y-60503D01*
X59875Y-60472D01*
X59905Y-60503D01*
X59982Y-60535D01*
X60016Y-60535D01*
X60032Y-60573D01*
X60032Y-60573D01*
X60075Y-60638D01*
X60075Y-60638D01*
X60093Y-60656D01*
X60111Y-60674D01*
X60111Y-60674D01*
X60176Y-60717D01*
X60223Y-60737D01*
X60299Y-60752D01*
X60312Y-60752D01*
X60325Y-60754D01*
X60907Y-60754D01*
X60773Y-60810D01*
X60660Y-60922D01*
X60599Y-61070D01*
X60599Y-61229D01*
X60660Y-61376D01*
X60772Y-61489D01*
X60920Y-61550D01*
X61079Y-61550D01*
X61226Y-61489D01*
X61339Y-61377D01*
X61400Y-61229D01*
X61400Y-61070D01*
X61339Y-60923D01*
X61227Y-60810D01*
X61092Y-60754D01*
X61543Y-60754D01*
X61543Y-61194D01*
X61561Y-61283D01*
X61615Y-61322D01*
X61787Y-61150D01*
X61615Y-60977D01*
X61561Y-61016D01*
X61543Y-61194D01*
X61543Y-60754D01*
X61835Y-60754D01*
X61827Y-60765D01*
X61827Y-61534D01*
X61866Y-61588D01*
X62044Y-61606D01*
X62133Y-61588D01*
X62172Y-61534D01*
X62000Y-61362D01*
X61827Y-61534D01*
X61827Y-60765D01*
X62000Y-60937D01*
X62172Y-60765D01*
X62164Y-60754D01*
X62420Y-60754D01*
X62420Y-61003D01*
X62384Y-60977D01*
X62212Y-61150D01*
X62384Y-61322D01*
X62420Y-61296D01*
X62420Y-62045D01*
X56579Y-62045D01*
X56579Y-60804D01*
X56610Y-60804D01*
X56599Y-60830D01*
X56599Y-60869D01*
X56599Y-61469D01*
X56614Y-61506D01*
X56643Y-61535D01*
X56680Y-61550D01*
X56719Y-61550D01*
X57319Y-61550D01*
X57356Y-61535D01*
X57385Y-61506D01*
X57400Y-61469D01*
X57400Y-61430D01*
X57400Y-60830D01*
X57389Y-60804D01*
X57786Y-60804D01*
X57773Y-60810D01*
X57660Y-60922D01*
X57599Y-61070D01*
X57599Y-61229D01*
X57660Y-61376D01*
X57772Y-61489D01*
X57920Y-61550D01*
X58079Y-61550D01*
X58226Y-61489D01*
X58339Y-61377D01*
X58371Y-61300D01*
X58400Y-61300D01*
X58457Y-61288D01*
X58506Y-61256D01*
X58599Y-61163D01*
X58599Y-61229D01*
X58660Y-61376D01*
X58772Y-61489D01*
X58920Y-61550D01*
X59079Y-61550D01*
X59226Y-61489D01*
X59339Y-61377D01*
X59400Y-61229D01*
X59400Y-61139D01*
X59505Y-61244D01*
X59548Y-61273D01*
X59600Y-61283D01*
X59622Y-61283D01*
X59660Y-61376D01*
X59772Y-61489D01*
X59920Y-61550D01*
X60079Y-61550D01*
X60226Y-61489D01*
X60339Y-61377D01*
X60400Y-61229D01*
X60400Y-61070D01*
X60339Y-60923D01*
X60227Y-60810D01*
X60079Y-60749D01*
X59920Y-60749D01*
X59773Y-60810D01*
X59660Y-60922D01*
X59631Y-60992D01*
X59408Y-60769D01*
X59408Y-60488D01*
X59453Y-60444D01*
X59485Y-60367D01*
X59485Y-60283D01*
X59453Y-60205D01*
X59394Y-60146D01*
X59317Y-60114D01*
X59233Y-60114D01*
X59155Y-60146D01*
X59124Y-60177D01*
X59094Y-60146D01*
X59017Y-60114D01*
X58933Y-60114D01*
X58855Y-60146D01*
X58844Y-60158D01*
X58808Y-60134D01*
X58808Y-60134D01*
X58808Y-60134D01*
X58761Y-60114D01*
X58761Y-60114D01*
X58675Y-60097D01*
X58662Y-60097D01*
X58650Y-60095D01*
X56229Y-60095D01*
X56229Y-59749D01*
X56371Y-59807D01*
X56528Y-59807D01*
X56674Y-59747D01*
X56785Y-59636D01*
X56845Y-59491D01*
X56846Y-59333D01*
X56786Y-59188D01*
X56674Y-59076D01*
X56529Y-59016D01*
X56372Y-59016D01*
X56229Y-59075D01*
X56229Y-51312D01*
X56247Y-51330D01*
X56284Y-51345D01*
X56324Y-51345D01*
X56396Y-51345D01*
X56396Y-51517D01*
X56396Y-51557D01*
X56396Y-51951D01*
X56411Y-51988D01*
X56439Y-52016D01*
X56476Y-52031D01*
X56516Y-52031D01*
X56792Y-52031D01*
X56829Y-52016D01*
X56857Y-51988D01*
X56872Y-51951D01*
X56872Y-51911D01*
X56872Y-51517D01*
X56857Y-51480D01*
X56829Y-51452D01*
X56792Y-51437D01*
X56752Y-51437D01*
X56476Y-51437D01*
X56439Y-51452D01*
X56411Y-51480D01*
X56396Y-51517D01*
X56396Y-51345D01*
X56806Y-51345D01*
X56855Y-51394D01*
X56898Y-51423D01*
X56932Y-51430D01*
X56932Y-51430D01*
X56938Y-51435D01*
X56921Y-51452D01*
X56898Y-51507D01*
X56898Y-51567D01*
X56898Y-51598D01*
X56898Y-51870D01*
X56898Y-51901D01*
X56898Y-51961D01*
X56921Y-52015D01*
X56963Y-52058D01*
X57018Y-52080D01*
X57099Y-52080D01*
X57136Y-52043D01*
X57136Y-51832D01*
X56935Y-51832D01*
X56898Y-51870D01*
X56898Y-51598D01*
X56935Y-51636D01*
X57136Y-51636D01*
X57136Y-51561D01*
X57313Y-51561D01*
X57313Y-51636D01*
X57398Y-51636D01*
X57398Y-51832D01*
X57313Y-51832D01*
X57313Y-52043D01*
X57350Y-52080D01*
X57361Y-52080D01*
X57339Y-52132D01*
X57339Y-52216D01*
X57370Y-52291D01*
X56575Y-52291D01*
X56523Y-52301D01*
X56523Y-52301D01*
X56480Y-52330D01*
X56280Y-52530D01*
X56280Y-52530D01*
X56260Y-52559D01*
X56251Y-52573D01*
X56251Y-52573D01*
X56241Y-52625D01*
X56241Y-52625D01*
X56241Y-53850D01*
X56251Y-53901D01*
X56251Y-53901D01*
X56260Y-53915D01*
X56275Y-53937D01*
X56275Y-58495D01*
X56275Y-58550D01*
X56275Y-58749D01*
X56275Y-58804D01*
X56298Y-58859D01*
X56340Y-58901D01*
X56395Y-58924D01*
X56454Y-58924D01*
X56500Y-58924D01*
X56537Y-58887D01*
X56537Y-58712D01*
X56312Y-58712D01*
X56275Y-58749D01*
X56275Y-58550D01*
X56312Y-58587D01*
X56537Y-58587D01*
X56537Y-58412D01*
X56500Y-58375D01*
X56454Y-58375D01*
X56395Y-58375D01*
X56340Y-58398D01*
X56298Y-58440D01*
X56275Y-58495D01*
X56275Y-53937D01*
X56280Y-53944D01*
X56280Y-53944D01*
X56703Y-54367D01*
X56703Y-56337D01*
X56713Y-56388D01*
X56742Y-56432D01*
X56876Y-56566D01*
X56650Y-56566D01*
X56598Y-56576D01*
X56598Y-56576D01*
X56555Y-56605D01*
X56430Y-56730D01*
X56401Y-56773D01*
X56391Y-56825D01*
X56391Y-57200D01*
X56399Y-57242D01*
X56401Y-57251D01*
X56401Y-57251D01*
X56430Y-57294D01*
X56530Y-57394D01*
X56573Y-57423D01*
X56609Y-57430D01*
X56599Y-57455D01*
X56599Y-57494D01*
X56599Y-57736D01*
X56555Y-57780D01*
X56526Y-57823D01*
X56526Y-57823D01*
X56526Y-57824D01*
X56405Y-57824D01*
X56368Y-57839D01*
X56339Y-57868D01*
X56324Y-57905D01*
X56324Y-57944D01*
X56324Y-58194D01*
X56339Y-58231D01*
X56368Y-58260D01*
X56405Y-58275D01*
X56444Y-58275D01*
X56762Y-58275D01*
X56762Y-58412D01*
X56762Y-58587D01*
X56762Y-58712D01*
X56762Y-58887D01*
X56799Y-58924D01*
X56845Y-58924D01*
X56904Y-58924D01*
X56959Y-58901D01*
X57001Y-58859D01*
X57024Y-58804D01*
X57024Y-58749D01*
X56987Y-58712D01*
X56762Y-58712D01*
X56762Y-58587D01*
X56987Y-58587D01*
X57024Y-58550D01*
X57024Y-58495D01*
X57001Y-58440D01*
X56959Y-58398D01*
X56904Y-58375D01*
X56845Y-58375D01*
X56799Y-58375D01*
X56762Y-58412D01*
X56762Y-58275D01*
X56894Y-58275D01*
X56931Y-58260D01*
X56960Y-58231D01*
X56975Y-58194D01*
X56975Y-58155D01*
X56975Y-57905D01*
X56960Y-57868D01*
X56931Y-57839D01*
X56896Y-57825D01*
X57050Y-57825D01*
X57050Y-59020D01*
X57050Y-59079D01*
X57050Y-59162D01*
X57050Y-59537D01*
X57050Y-59620D01*
X57050Y-59679D01*
X57073Y-59734D01*
X57115Y-59776D01*
X57170Y-59799D01*
X57312Y-59799D01*
X57350Y-59762D01*
X57350Y-59500D01*
X57087Y-59500D01*
X57050Y-59537D01*
X57050Y-59162D01*
X57087Y-59200D01*
X57350Y-59200D01*
X57350Y-58937D01*
X57312Y-58900D01*
X57170Y-58900D01*
X57115Y-58923D01*
X57073Y-58965D01*
X57050Y-59020D01*
X57050Y-57825D01*
X57169Y-57825D01*
X57206Y-57810D01*
X57235Y-57781D01*
X57250Y-57744D01*
X57250Y-57705D01*
X57250Y-57455D01*
X57241Y-57433D01*
X57369Y-57433D01*
X57866Y-57930D01*
X57866Y-58187D01*
X57839Y-58123D01*
X57727Y-58010D01*
X57579Y-57949D01*
X57420Y-57949D01*
X57273Y-58010D01*
X57160Y-58122D01*
X57099Y-58270D01*
X57099Y-58429D01*
X57160Y-58576D01*
X57272Y-58689D01*
X57420Y-58750D01*
X57579Y-58750D01*
X57656Y-58718D01*
X57843Y-58906D01*
X57829Y-58900D01*
X57687Y-58900D01*
X57650Y-58937D01*
X57650Y-59200D01*
X57673Y-59200D01*
X57673Y-59500D01*
X57650Y-59500D01*
X57650Y-59762D01*
X57687Y-59799D01*
X57829Y-59799D01*
X57884Y-59776D01*
X57926Y-59734D01*
X57937Y-59707D01*
X58161Y-59931D01*
X58210Y-59963D01*
X58268Y-59975D01*
X61051Y-59975D01*
X61064Y-60006D01*
X61093Y-60035D01*
X61130Y-60050D01*
X61169Y-60050D01*
X61619Y-60050D01*
X61656Y-60035D01*
X61685Y-60006D01*
X61698Y-59975D01*
X61775Y-59975D01*
X62275Y-59975D01*
X62332Y-59963D01*
X62381Y-59931D01*
X62468Y-59843D01*
X62490Y-59812D01*
X62520Y-59824D01*
X62575Y-59824D01*
X62612Y-59787D01*
X62612Y-59562D01*
X62550Y-59562D01*
X62550Y-59337D01*
X62612Y-59337D01*
X62612Y-59276D01*
X62737Y-59276D01*
X62737Y-59337D01*
X62737Y-59562D01*
X62737Y-59787D01*
X62774Y-59824D01*
X62829Y-59824D01*
X62884Y-59801D01*
X62926Y-59759D01*
X62949Y-59704D01*
X62949Y-59645D01*
X62949Y-59599D01*
X62912Y-59562D01*
X62737Y-59562D01*
X62737Y-59337D01*
X62912Y-59337D01*
X62949Y-59300D01*
X62949Y-59254D01*
X62949Y-59195D01*
X62926Y-59140D01*
X62894Y-59108D01*
X62900Y-59094D01*
X62900Y-59055D01*
X62900Y-58605D01*
X62894Y-58591D01*
X62926Y-58559D01*
X62949Y-58504D01*
X62949Y-58445D01*
X62949Y-58399D01*
X62912Y-58362D01*
X62737Y-58362D01*
X62737Y-58423D01*
X62612Y-58423D01*
X62612Y-58362D01*
X62550Y-58362D01*
X62550Y-58137D01*
X62612Y-58137D01*
X62612Y-58076D01*
X62737Y-58076D01*
X62737Y-58137D01*
X62912Y-58137D01*
X62949Y-58100D01*
X62949Y-58054D01*
X62949Y-57995D01*
X62926Y-57940D01*
X62884Y-57898D01*
X62847Y-57882D01*
X62863Y-57857D01*
X62875Y-57800D01*
X62875Y-54075D01*
X62863Y-54017D01*
X62831Y-53968D01*
X62274Y-53411D01*
X62326Y-53389D01*
X62439Y-53277D01*
X62500Y-53129D01*
X62500Y-52970D01*
X62439Y-52823D01*
X62327Y-52710D01*
X62179Y-52649D01*
X62020Y-52649D01*
X61873Y-52710D01*
X61760Y-52822D01*
X61699Y-52970D01*
X61699Y-53129D01*
X61760Y-53276D01*
X61872Y-53389D01*
X61949Y-53421D01*
X61949Y-53450D01*
X61961Y-53507D01*
X61993Y-53556D01*
X62574Y-54137D01*
X62574Y-56450D01*
X62537Y-56487D01*
X62537Y-56712D01*
X62574Y-56712D01*
X62574Y-56937D01*
X62537Y-56937D01*
X62537Y-57162D01*
X62537Y-57162D01*
X62537Y-57162D01*
X62537Y-57387D01*
X62574Y-57387D01*
X62574Y-57612D01*
X62537Y-57612D01*
X62537Y-57673D01*
X62412Y-57673D01*
X62412Y-57612D01*
X62350Y-57612D01*
X62350Y-57387D01*
X62412Y-57387D01*
X62412Y-57162D01*
X62412Y-57162D01*
X62412Y-57162D01*
X62412Y-56937D01*
X62237Y-56937D01*
X62200Y-56974D01*
X62200Y-57020D01*
X62200Y-57079D01*
X62205Y-57090D01*
X62169Y-57055D01*
X62126Y-57026D01*
X62100Y-57021D01*
X62100Y-56580D01*
X62085Y-56543D01*
X62056Y-56514D01*
X62019Y-56499D01*
X61980Y-56499D01*
X61730Y-56499D01*
X61693Y-56514D01*
X61664Y-56543D01*
X61649Y-56580D01*
X61649Y-56619D01*
X61649Y-56802D01*
X61586Y-56866D01*
X61190Y-56866D01*
X61242Y-56844D01*
X61268Y-56818D01*
X61268Y-56765D01*
X61028Y-56525D01*
X60996Y-56556D01*
X60762Y-56322D01*
X60794Y-56291D01*
X60553Y-56050D01*
X60500Y-56050D01*
X60474Y-56076D01*
X60452Y-56131D01*
X60452Y-56173D01*
X60443Y-56177D01*
X60415Y-56205D01*
X60290Y-56330D01*
X60275Y-56367D01*
X60275Y-56381D01*
X60261Y-56381D01*
X60224Y-56396D01*
X60196Y-56424D01*
X60071Y-56550D01*
X60055Y-56586D01*
X60055Y-56607D01*
X60042Y-56607D01*
X59928Y-56493D01*
X59879Y-56461D01*
X59821Y-56449D01*
X59337Y-56449D01*
X58725Y-55837D01*
X58725Y-54900D01*
X58725Y-54025D01*
X58717Y-53983D01*
X58745Y-53983D01*
X58800Y-53961D01*
X58826Y-53935D01*
X58826Y-53882D01*
X58585Y-53641D01*
X58554Y-53673D01*
X58320Y-53439D01*
X58351Y-53407D01*
X58111Y-53167D01*
X58058Y-53167D01*
X58032Y-53193D01*
X58009Y-53248D01*
X58009Y-53288D01*
X58004Y-53290D01*
X57976Y-53318D01*
X57851Y-53443D01*
X57849Y-53448D01*
X57809Y-53448D01*
X57754Y-53471D01*
X57728Y-53497D01*
X57728Y-53550D01*
X57968Y-53790D01*
X58000Y-53759D01*
X58234Y-53993D01*
X58202Y-54024D01*
X58208Y-54030D01*
X58145Y-54092D01*
X58140Y-54087D01*
X58109Y-54118D01*
X57875Y-53884D01*
X57906Y-53853D01*
X57665Y-53612D01*
X57613Y-53612D01*
X57587Y-53638D01*
X57564Y-53693D01*
X57564Y-53733D01*
X57559Y-53735D01*
X57531Y-53764D01*
X57408Y-53886D01*
X57408Y-53755D01*
X57910Y-53254D01*
X57937Y-53212D01*
X57973Y-53212D01*
X58010Y-53197D01*
X58038Y-53169D01*
X58053Y-53132D01*
X58053Y-53092D01*
X58053Y-52698D01*
X58038Y-52661D01*
X58010Y-52633D01*
X57973Y-52618D01*
X57933Y-52618D01*
X57657Y-52618D01*
X57620Y-52633D01*
X57592Y-52661D01*
X57577Y-52698D01*
X57577Y-52738D01*
X57577Y-53132D01*
X57592Y-53169D01*
X57604Y-53181D01*
X57180Y-53605D01*
X57151Y-53648D01*
X57151Y-53648D01*
X57149Y-53657D01*
X57141Y-53700D01*
X57141Y-53700D01*
X57141Y-54100D01*
X57149Y-54142D01*
X57151Y-54151D01*
X57151Y-54151D01*
X57161Y-54165D01*
X57150Y-54165D01*
X57139Y-54170D01*
X56768Y-53799D01*
X56768Y-53212D01*
X56792Y-53212D01*
X56829Y-53197D01*
X56857Y-53169D01*
X56872Y-53132D01*
X56872Y-53092D01*
X56872Y-52698D01*
X56857Y-52661D01*
X56829Y-52633D01*
X56792Y-52618D01*
X56752Y-52618D01*
X56570Y-52618D01*
X56630Y-52558D01*
X56898Y-52558D01*
X56898Y-52688D01*
X56898Y-52748D01*
X56898Y-52779D01*
X56898Y-53051D01*
X56898Y-53082D01*
X56898Y-53142D01*
X56921Y-53197D01*
X56963Y-53239D01*
X57018Y-53261D01*
X57099Y-53261D01*
X57136Y-53224D01*
X57136Y-53013D01*
X56935Y-53013D01*
X56898Y-53051D01*
X56898Y-52779D01*
X56935Y-52817D01*
X57136Y-52817D01*
X57136Y-52606D01*
X57099Y-52569D01*
X57018Y-52569D01*
X56963Y-52591D01*
X56921Y-52634D01*
X56898Y-52688D01*
X56898Y-52558D01*
X57313Y-52558D01*
X57313Y-52606D01*
X57313Y-52817D01*
X57313Y-53013D01*
X57313Y-53224D01*
X57350Y-53261D01*
X57431Y-53261D01*
X57486Y-53239D01*
X57528Y-53197D01*
X57551Y-53142D01*
X57551Y-53082D01*
X57551Y-53051D01*
X57514Y-53013D01*
X57313Y-53013D01*
X57313Y-52817D01*
X57514Y-52817D01*
X57551Y-52779D01*
X57551Y-52748D01*
X57551Y-52688D01*
X57528Y-52634D01*
X57486Y-52591D01*
X57431Y-52569D01*
X57350Y-52569D01*
X57313Y-52606D01*
X57313Y-52558D01*
X57925Y-52558D01*
X57967Y-52550D01*
X57976Y-52548D01*
X58019Y-52519D01*
X58243Y-52295D01*
X58654Y-52295D01*
X58691Y-52280D01*
X58719Y-52252D01*
X58735Y-52215D01*
X58735Y-52175D01*
X58735Y-51584D01*
X58719Y-51547D01*
X58691Y-51519D01*
X58654Y-51504D01*
X58614Y-51504D01*
X58048Y-51504D01*
X58038Y-51480D01*
X58010Y-51452D01*
X57973Y-51437D01*
X57933Y-51437D01*
X57716Y-51437D01*
X57723Y-51426D01*
X57733Y-51375D01*
X57733Y-51345D01*
X57915Y-51345D01*
X57952Y-51330D01*
X57980Y-51302D01*
X57995Y-51265D01*
X57995Y-51225D01*
X57995Y-50634D01*
X57980Y-50597D01*
X57952Y-50569D01*
X57915Y-50554D01*
X57875Y-50554D01*
X57284Y-50554D01*
X57247Y-50569D01*
X57219Y-50597D01*
X57217Y-50603D01*
X57039Y-50425D01*
X57179Y-50425D01*
X57326Y-50364D01*
X57439Y-50252D01*
X57500Y-50104D01*
X57500Y-49945D01*
X57439Y-49798D01*
X57327Y-49685D01*
X57179Y-49624D01*
X57020Y-49624D01*
X56873Y-49685D01*
X56786Y-49772D01*
X56658Y-49644D01*
X56658Y-48773D01*
X56738Y-48852D01*
X56699Y-48945D01*
X56699Y-49104D01*
X56760Y-49251D01*
X56872Y-49364D01*
X57020Y-49425D01*
X57179Y-49425D01*
X57272Y-49386D01*
X57699Y-49813D01*
X57699Y-50344D01*
X57714Y-50381D01*
X57743Y-50410D01*
X57780Y-50425D01*
X57819Y-50425D01*
X58419Y-50425D01*
X58456Y-50410D01*
X58466Y-50400D01*
X58466Y-50554D01*
X58284Y-50554D01*
X58247Y-50569D01*
X58219Y-50597D01*
X58204Y-50634D01*
X58204Y-50674D01*
X58204Y-51265D01*
X58219Y-51302D01*
X58247Y-51330D01*
X58284Y-51345D01*
X58324Y-51345D01*
X58791Y-51345D01*
X58791Y-52194D01*
X58305Y-52680D01*
X58276Y-52723D01*
X58266Y-52775D01*
X58266Y-52950D01*
X58276Y-53001D01*
X58276Y-53001D01*
X58277Y-53003D01*
X58254Y-53003D01*
X58199Y-53025D01*
X58173Y-53051D01*
X58173Y-53104D01*
X58414Y-53345D01*
X58445Y-53313D01*
X58679Y-53547D01*
X58648Y-53579D01*
X58888Y-53819D01*
X58941Y-53819D01*
X58967Y-53793D01*
X58990Y-53738D01*
X58990Y-53698D01*
X58995Y-53696D01*
X59023Y-53668D01*
X59148Y-53543D01*
X59164Y-53506D01*
X59164Y-53489D01*
X59181Y-53489D01*
X59218Y-53473D01*
X59246Y-53445D01*
X59371Y-53320D01*
X59386Y-53283D01*
X59386Y-53243D01*
X59371Y-53206D01*
X59343Y-53178D01*
X59173Y-53009D01*
X59694Y-52488D01*
X59723Y-52444D01*
X59733Y-52393D01*
X59733Y-51345D01*
X59915Y-51345D01*
X59952Y-51330D01*
X59980Y-51302D01*
X59995Y-51265D01*
X59995Y-51225D01*
X59995Y-50634D01*
X59980Y-50597D01*
X59952Y-50569D01*
X59915Y-50554D01*
X59875Y-50554D01*
X59733Y-50554D01*
X59733Y-50179D01*
X59887Y-50025D01*
X59733Y-49870D01*
X59733Y-49179D01*
X59887Y-49025D01*
X59733Y-48870D01*
X59733Y-48800D01*
X59723Y-48748D01*
X59694Y-48705D01*
X59419Y-48430D01*
X59376Y-48401D01*
X59376Y-48401D01*
X59367Y-48399D01*
X59325Y-48391D01*
X59262Y-48391D01*
X59326Y-48364D01*
X59439Y-48252D01*
X59500Y-48104D01*
X59500Y-47945D01*
X59439Y-47798D01*
X59327Y-47685D01*
X59179Y-47624D01*
X59020Y-47624D01*
X58873Y-47685D01*
X58760Y-47797D01*
X58733Y-47862D01*
X58733Y-47725D01*
X58723Y-47673D01*
X58694Y-47630D01*
X58494Y-47430D01*
X58494Y-47430D01*
X58465Y-47410D01*
X58451Y-47401D01*
X58451Y-47401D01*
X58400Y-47391D01*
X58262Y-47391D01*
X58326Y-47364D01*
X58439Y-47252D01*
X58500Y-47104D01*
X58500Y-46945D01*
X58439Y-46798D01*
X58358Y-46717D01*
X58841Y-46717D01*
X58760Y-46797D01*
X58699Y-46945D01*
X58699Y-47104D01*
X58760Y-47251D01*
X58872Y-47364D01*
X59020Y-47425D01*
X59179Y-47425D01*
X59326Y-47364D01*
X59439Y-47252D01*
X59500Y-47104D01*
X59500Y-46945D01*
X59439Y-46798D01*
X59358Y-46717D01*
X59841Y-46717D01*
X59760Y-46797D01*
X59699Y-46945D01*
X59699Y-47104D01*
X59699Y-48104D01*
X59760Y-48251D01*
X59872Y-48364D01*
X59927Y-48387D01*
X59927Y-48640D01*
X59927Y-49409D01*
X59927Y-49640D01*
X59927Y-50409D01*
X59966Y-50463D01*
X60144Y-50481D01*
X60233Y-50463D01*
X60272Y-50409D01*
X60100Y-50237D01*
X59927Y-50409D01*
X59927Y-49640D01*
X60100Y-49812D01*
X60272Y-49640D01*
X60233Y-49586D01*
X60055Y-49568D01*
X59966Y-49586D01*
X59927Y-49640D01*
X59927Y-49409D01*
X59966Y-49463D01*
X60144Y-49481D01*
X60233Y-49463D01*
X60272Y-49409D01*
X60100Y-49237D01*
X59927Y-49409D01*
X59927Y-48640D01*
X60100Y-48812D01*
X60272Y-48640D01*
X60233Y-48586D01*
X60055Y-48568D01*
X59966Y-48586D01*
X59927Y-48640D01*
X59927Y-48387D01*
X60020Y-48425D01*
X60179Y-48425D01*
X60312Y-48370D01*
X60312Y-49025D01*
X60312Y-50025D01*
X60484Y-50197D01*
X60538Y-50158D01*
X60556Y-49980D01*
X60538Y-49891D01*
X60484Y-49852D01*
X60312Y-50025D01*
X60312Y-49025D01*
X60484Y-49197D01*
X60538Y-49158D01*
X60556Y-48980D01*
X60538Y-48891D01*
X60484Y-48852D01*
X60312Y-49025D01*
X60312Y-48370D01*
X60326Y-48364D01*
X60439Y-48252D01*
X60500Y-48104D01*
X60500Y-47945D01*
X60439Y-47798D01*
X60327Y-47685D01*
X60179Y-47624D01*
X60020Y-47624D01*
X59873Y-47685D01*
X59760Y-47797D01*
X59699Y-47945D01*
X59699Y-48104D01*
X59699Y-47104D01*
X59760Y-47251D01*
X59872Y-47364D01*
X60020Y-47425D01*
X60179Y-47425D01*
X60326Y-47364D01*
X60439Y-47252D01*
X60500Y-47104D01*
X60500Y-46945D01*
X60439Y-46798D01*
X60358Y-46717D01*
X60841Y-46717D01*
X60760Y-46797D01*
X60699Y-46945D01*
X60699Y-47104D01*
X60760Y-47251D01*
X60872Y-47364D01*
X61020Y-47425D01*
X61179Y-47425D01*
X61326Y-47364D01*
X61382Y-47308D01*
X61382Y-47741D01*
X61327Y-47685D01*
X61179Y-47624D01*
X61020Y-47624D01*
X60873Y-47685D01*
X60760Y-47797D01*
X60699Y-47945D01*
X60699Y-48104D01*
X60760Y-48251D01*
X60872Y-48364D01*
X61020Y-48425D01*
X61179Y-48425D01*
X61326Y-48364D01*
X61382Y-48308D01*
X61382Y-48741D01*
X61327Y-48685D01*
X61179Y-48624D01*
X61020Y-48624D01*
X60873Y-48685D01*
X60760Y-48797D01*
X60699Y-48945D01*
X60699Y-49104D01*
X60760Y-49251D01*
X60872Y-49364D01*
X61020Y-49425D01*
X61179Y-49425D01*
X61326Y-49364D01*
X61382Y-49308D01*
X61382Y-49741D01*
X61327Y-49685D01*
X61179Y-49624D01*
X61020Y-49624D01*
X60873Y-49685D01*
X60760Y-49797D01*
X60699Y-49945D01*
X60699Y-50104D01*
X60760Y-50251D01*
X60872Y-50364D01*
X60889Y-50371D01*
X60706Y-50554D01*
X60284Y-50554D01*
X60247Y-50569D01*
X60219Y-50597D01*
X60204Y-50634D01*
X60204Y-50674D01*
X60204Y-51265D01*
X60219Y-51302D01*
X60247Y-51330D01*
X60284Y-51345D01*
X60324Y-51345D01*
X60391Y-51345D01*
X60391Y-52680D01*
X60329Y-52619D01*
X60292Y-52603D01*
X60252Y-52603D01*
X60215Y-52619D01*
X60187Y-52647D01*
X59631Y-53203D01*
X59615Y-53240D01*
X59615Y-53280D01*
X59620Y-53290D01*
X59155Y-53755D01*
X59126Y-53798D01*
X59116Y-53850D01*
X59116Y-55750D01*
X59124Y-55792D01*
X59126Y-55801D01*
X59126Y-55801D01*
X59155Y-55844D01*
X59155Y-55844D01*
X59364Y-56053D01*
X59364Y-56116D01*
X59396Y-56194D01*
X59455Y-56253D01*
X59532Y-56285D01*
X59616Y-56285D01*
X59694Y-56253D01*
X59753Y-56194D01*
X59785Y-56117D01*
X59785Y-56033D01*
X59753Y-55955D01*
X59694Y-55896D01*
X59617Y-55864D01*
X59553Y-55864D01*
X59383Y-55694D01*
X59383Y-53905D01*
X59514Y-53774D01*
X59514Y-55366D01*
X59546Y-55444D01*
X59605Y-55503D01*
X59682Y-55535D01*
X59746Y-55535D01*
X60130Y-55919D01*
X60173Y-55948D01*
X60225Y-55958D01*
X60616Y-55958D01*
X60616Y-55988D01*
X60856Y-56228D01*
X60888Y-56197D01*
X61122Y-56431D01*
X61090Y-56462D01*
X61331Y-56703D01*
X61384Y-56703D01*
X61410Y-56677D01*
X61432Y-56622D01*
X61432Y-56584D01*
X61434Y-56583D01*
X61462Y-56555D01*
X61587Y-56430D01*
X61602Y-56393D01*
X61602Y-56372D01*
X61623Y-56372D01*
X61660Y-56357D01*
X61688Y-56329D01*
X61813Y-56204D01*
X61829Y-56167D01*
X61829Y-56153D01*
X61842Y-56153D01*
X61879Y-56138D01*
X61907Y-56110D01*
X62033Y-55984D01*
X62048Y-55948D01*
X62048Y-55908D01*
X62033Y-55871D01*
X62004Y-55842D01*
X61448Y-55286D01*
X61411Y-55271D01*
X61371Y-55271D01*
X61334Y-55286D01*
X61306Y-55314D01*
X61299Y-55321D01*
X61275Y-55316D01*
X60960Y-55316D01*
X60960Y-55283D01*
X60928Y-55205D01*
X60869Y-55146D01*
X60792Y-55114D01*
X60708Y-55114D01*
X60630Y-55146D01*
X60571Y-55205D01*
X60539Y-55282D01*
X60539Y-55366D01*
X60571Y-55444D01*
X60618Y-55491D01*
X60430Y-55491D01*
X60327Y-55387D01*
X60335Y-55367D01*
X60335Y-55283D01*
X60303Y-55205D01*
X60244Y-55146D01*
X60167Y-55114D01*
X60083Y-55114D01*
X60005Y-55146D01*
X59946Y-55205D01*
X59924Y-55257D01*
X59903Y-55205D01*
X59844Y-55146D01*
X59767Y-55114D01*
X59683Y-55114D01*
X59605Y-55146D01*
X59546Y-55205D01*
X59514Y-55282D01*
X59514Y-55366D01*
X59514Y-53774D01*
X59808Y-53480D01*
X59821Y-53486D01*
X59838Y-53486D01*
X59838Y-53502D01*
X59853Y-53539D01*
X59881Y-53568D01*
X60006Y-53693D01*
X60043Y-53708D01*
X60061Y-53708D01*
X60061Y-53726D01*
X60076Y-53763D01*
X60104Y-53791D01*
X60230Y-53916D01*
X60267Y-53931D01*
X60283Y-53931D01*
X60283Y-53948D01*
X60298Y-53985D01*
X60327Y-54013D01*
X60379Y-54066D01*
X60013Y-54066D01*
X59969Y-54021D01*
X59892Y-53989D01*
X59808Y-53989D01*
X59730Y-54021D01*
X59671Y-54080D01*
X59639Y-54157D01*
X59639Y-54241D01*
X59671Y-54319D01*
X59730Y-54378D01*
X59807Y-54410D01*
X59891Y-54410D01*
X59969Y-54378D01*
X60014Y-54333D01*
X60647Y-54333D01*
X60675Y-54362D01*
X60712Y-54377D01*
X60728Y-54377D01*
X60728Y-54393D01*
X60733Y-54405D01*
X60647Y-54491D01*
X60463Y-54491D01*
X60419Y-54446D01*
X60342Y-54414D01*
X60258Y-54414D01*
X60180Y-54446D01*
X60121Y-54505D01*
X60089Y-54582D01*
X60089Y-54666D01*
X60121Y-54744D01*
X60180Y-54803D01*
X60257Y-54835D01*
X60341Y-54835D01*
X60419Y-54803D01*
X60464Y-54758D01*
X60699Y-54758D01*
X60689Y-54782D01*
X60689Y-54866D01*
X60721Y-54944D01*
X60780Y-55003D01*
X60857Y-55035D01*
X60939Y-55035D01*
X60939Y-55066D01*
X60971Y-55144D01*
X61030Y-55203D01*
X61107Y-55235D01*
X61191Y-55235D01*
X61269Y-55203D01*
X61328Y-55144D01*
X61360Y-55067D01*
X61360Y-55048D01*
X61368Y-55040D01*
X61380Y-55044D01*
X61419Y-55044D01*
X61456Y-55029D01*
X61485Y-55001D01*
X62041Y-54444D01*
X62056Y-54407D01*
X62056Y-54396D01*
X62116Y-54455D01*
X62116Y-56061D01*
X62071Y-56105D01*
X62039Y-56182D01*
X62039Y-56266D01*
X62071Y-56344D01*
X62130Y-56403D01*
X62200Y-56432D01*
X62200Y-56570D01*
X62200Y-56629D01*
X62200Y-56675D01*
X62237Y-56712D01*
X62412Y-56712D01*
X62412Y-56487D01*
X62375Y-56450D01*
X62320Y-56450D01*
X62265Y-56473D01*
X62223Y-56515D01*
X62200Y-56570D01*
X62200Y-56432D01*
X62207Y-56435D01*
X62291Y-56435D01*
X62369Y-56403D01*
X62428Y-56344D01*
X62460Y-56267D01*
X62460Y-56183D01*
X62428Y-56105D01*
X62383Y-56060D01*
X62383Y-54400D01*
X62373Y-54348D01*
X62344Y-54305D01*
X61464Y-53425D01*
X61594Y-53425D01*
X61631Y-53410D01*
X61660Y-53381D01*
X61675Y-53344D01*
X61675Y-53305D01*
X61675Y-53055D01*
X61660Y-53018D01*
X61631Y-52989D01*
X61594Y-52974D01*
X61555Y-52974D01*
X61105Y-52974D01*
X61068Y-52989D01*
X61039Y-53018D01*
X61024Y-53055D01*
X61024Y-53094D01*
X61024Y-53223D01*
X60971Y-53276D01*
X60960Y-53271D01*
X60943Y-53271D01*
X60943Y-53255D01*
X60928Y-53218D01*
X60900Y-53189D01*
X60883Y-53173D01*
X60883Y-52950D01*
X60873Y-52898D01*
X60844Y-52855D01*
X60808Y-52819D01*
X60808Y-52754D01*
X60882Y-52785D01*
X60966Y-52785D01*
X61030Y-52759D01*
X61039Y-52781D01*
X61068Y-52810D01*
X61105Y-52825D01*
X61144Y-52825D01*
X61594Y-52825D01*
X61631Y-52810D01*
X61660Y-52781D01*
X61675Y-52744D01*
X61675Y-52705D01*
X61675Y-52455D01*
X61660Y-52418D01*
X61631Y-52389D01*
X61594Y-52374D01*
X61555Y-52374D01*
X61105Y-52374D01*
X61068Y-52389D01*
X61052Y-52405D01*
X61044Y-52396D01*
X60967Y-52364D01*
X60883Y-52364D01*
X60808Y-52395D01*
X60808Y-51930D01*
X60965Y-51773D01*
X60965Y-52085D01*
X60965Y-52165D01*
X60965Y-52225D01*
X60988Y-52279D01*
X61030Y-52322D01*
X61085Y-52344D01*
X61225Y-52344D01*
X61262Y-52307D01*
X61262Y-52047D01*
X61003Y-52047D01*
X60965Y-52085D01*
X60965Y-51773D01*
X60994Y-51744D01*
X61003Y-51752D01*
X61262Y-51752D01*
X61262Y-51492D01*
X61254Y-51484D01*
X61393Y-51345D01*
X61558Y-51345D01*
X61558Y-51492D01*
X61558Y-51752D01*
X61583Y-51752D01*
X61583Y-52047D01*
X61558Y-52047D01*
X61558Y-52307D01*
X61595Y-52344D01*
X61650Y-52344D01*
X61650Y-52379D01*
X61673Y-52434D01*
X61715Y-52476D01*
X61770Y-52499D01*
X61829Y-52499D01*
X61912Y-52499D01*
X61950Y-52462D01*
X61950Y-52200D01*
X61926Y-52200D01*
X61926Y-51900D01*
X61950Y-51900D01*
X61950Y-51637D01*
X61912Y-51600D01*
X61855Y-51600D01*
X61855Y-51574D01*
X61832Y-51520D01*
X61790Y-51477D01*
X61735Y-51455D01*
X61595Y-51455D01*
X61558Y-51492D01*
X61558Y-51345D01*
X61915Y-51345D01*
X61952Y-51330D01*
X61980Y-51302D01*
X61995Y-51265D01*
X61995Y-51225D01*
X61995Y-50634D01*
X61980Y-50597D01*
X61952Y-50569D01*
X61915Y-50554D01*
X61875Y-50554D01*
X61771Y-50554D01*
X61773Y-50551D01*
X61783Y-50500D01*
X61783Y-50275D01*
X61872Y-50364D01*
X62020Y-50425D01*
X62155Y-50425D01*
X62155Y-50624D01*
X62155Y-50684D01*
X62155Y-50764D01*
X62155Y-51135D01*
X62155Y-51215D01*
X62155Y-51275D01*
X62177Y-51329D01*
X62220Y-51372D01*
X62250Y-51384D01*
X62250Y-51637D01*
X62250Y-51900D01*
X62250Y-52200D01*
X62250Y-52462D01*
X62287Y-52499D01*
X62370Y-52499D01*
X62429Y-52499D01*
X62484Y-52476D01*
X62526Y-52434D01*
X62549Y-52379D01*
X62549Y-52237D01*
X62512Y-52200D01*
X62250Y-52200D01*
X62250Y-51900D01*
X62512Y-51900D01*
X62549Y-51862D01*
X62549Y-51720D01*
X62526Y-51665D01*
X62484Y-51623D01*
X62429Y-51600D01*
X62370Y-51600D01*
X62287Y-51600D01*
X62250Y-51637D01*
X62250Y-51384D01*
X62274Y-51394D01*
X62414Y-51394D01*
X62452Y-51357D01*
X62452Y-51097D01*
X62192Y-51097D01*
X62155Y-51135D01*
X62155Y-50764D01*
X62192Y-50802D01*
X62452Y-50802D01*
X62452Y-50542D01*
X62414Y-50505D01*
X62274Y-50505D01*
X62220Y-50527D01*
X62177Y-50570D01*
X62155Y-50624D01*
X62155Y-50425D01*
X62179Y-50425D01*
X62326Y-50364D01*
X62439Y-50252D01*
X62500Y-50104D01*
X62500Y-49945D01*
X62439Y-49798D01*
X62327Y-49685D01*
X62179Y-49624D01*
X62020Y-49624D01*
X61873Y-49685D01*
X61783Y-49774D01*
X61783Y-49275D01*
X61872Y-49364D01*
X62020Y-49425D01*
X62179Y-49425D01*
X62326Y-49364D01*
X62439Y-49252D01*
X62500Y-49104D01*
X62500Y-48945D01*
X62439Y-48798D01*
X62327Y-48685D01*
X62179Y-48624D01*
X62020Y-48624D01*
X61873Y-48685D01*
X61783Y-48774D01*
X61783Y-48275D01*
X61872Y-48364D01*
X62020Y-48425D01*
X62179Y-48425D01*
X62326Y-48364D01*
X62439Y-48252D01*
X62500Y-48104D01*
X62500Y-47945D01*
X62439Y-47798D01*
X62327Y-47685D01*
X62179Y-47624D01*
X62020Y-47624D01*
X61873Y-47685D01*
X61783Y-47774D01*
X61783Y-47275D01*
X61872Y-47364D01*
X62020Y-47425D01*
X62179Y-47425D01*
X62326Y-47364D01*
X62439Y-47252D01*
X62500Y-47104D01*
X62500Y-46945D01*
X62439Y-46798D01*
X62327Y-46685D01*
X62179Y-46624D01*
X62020Y-46624D01*
X61873Y-46685D01*
X61783Y-46774D01*
X61783Y-46750D01*
X61773Y-46698D01*
X61744Y-46655D01*
X61444Y-46355D01*
X61401Y-46326D01*
X61370Y-46320D01*
X61439Y-46252D01*
X61500Y-46104D01*
X61500Y-45945D01*
X61439Y-45798D01*
X61327Y-45685D01*
X61179Y-45624D01*
X61020Y-45624D01*
X60873Y-45685D01*
X60760Y-45797D01*
X60699Y-45945D01*
X60699Y-46104D01*
X60760Y-46251D01*
X60824Y-46316D01*
X60375Y-46316D01*
X60439Y-46252D01*
X60500Y-46104D01*
X60500Y-45945D01*
X60439Y-45798D01*
X60327Y-45685D01*
X60179Y-45624D01*
X60020Y-45624D01*
X59873Y-45685D01*
X59760Y-45797D01*
X59699Y-45945D01*
X59699Y-46104D01*
X59760Y-46251D01*
X59824Y-46316D01*
X59375Y-46316D01*
X59439Y-46252D01*
X59500Y-46104D01*
X59500Y-45945D01*
X59439Y-45798D01*
X59327Y-45685D01*
X59179Y-45624D01*
X59020Y-45624D01*
X58873Y-45685D01*
X58760Y-45797D01*
X58699Y-45945D01*
X58699Y-46104D01*
X58760Y-46251D01*
X58824Y-46316D01*
X58375Y-46316D01*
X58439Y-46252D01*
X58500Y-46104D01*
X58500Y-45945D01*
X58439Y-45798D01*
X58327Y-45685D01*
X58179Y-45624D01*
X58020Y-45624D01*
X57873Y-45685D01*
X57760Y-45797D01*
X57699Y-45945D01*
X57699Y-46104D01*
X57760Y-46251D01*
X57824Y-46316D01*
X57375Y-46316D01*
X57439Y-46252D01*
X57500Y-46104D01*
X57500Y-45945D01*
X57439Y-45798D01*
X57327Y-45685D01*
X57179Y-45624D01*
X57020Y-45624D01*
X56873Y-45685D01*
X56760Y-45797D01*
X56721Y-45891D01*
X56673Y-45901D01*
X56673Y-45901D01*
X56630Y-45930D01*
X56358Y-46201D01*
X56358Y-45580D01*
X56739Y-45200D01*
X56760Y-45251D01*
X56872Y-45364D01*
X57020Y-45425D01*
X57179Y-45425D01*
X57326Y-45364D01*
X57439Y-45252D01*
X57500Y-45104D01*
X57500Y-44945D01*
X57439Y-44798D01*
X57327Y-44685D01*
X57179Y-44624D01*
X57020Y-44624D01*
X56873Y-44685D01*
X56760Y-44797D01*
X56721Y-44891D01*
X56673Y-44901D01*
X56673Y-44901D01*
X56630Y-44930D01*
X56229Y-45330D01*
X56229Y-44604D01*
M02*
