  0
SECTION
  2
HEADER
  9
$ACADVER
  1
AC1014
  9
$HANDSEED
  5
FFFF
  9
$MEASUREMENT
 70
     1
  0
ENDSEC
  0
SECTION
  2
TABLES
  0
TABLE
  2
VPORT
  5
8
330
0
100
AcDbSymbolTable
 70
     4
  0
VPORT
  5
2E
330
8
100
AcDbSymbolTableRecord
100
AcDbViewportTableRecord
  2
*ACTIVE
 70
     0
 10
0.0
 20
0.0
 11
1.0
 21
1.0
 12
210.0
 22
148.5
 13
0.0
 23
0.0
 14
10.0
 24
10.0
 15
10.0
 25
10.0
 16
0.0
 26
0.0
 36
1.0
 17
0.0
 27
0.0
 37
0.0
 40
341.0
 41
1.24
 42
50.0
 43
0.0
 44
0.0
 50
0.0
 51
0.0
 71
     0
 72
   100
 73
     1
 74
     3
 75
     0
 76
     0
 77
     0
 78
     0
  0
ENDTAB
  0
TABLE
  2
LTYPE
  5
5
330
0
100
AcDbSymbolTable
 70
     1
  0
LTYPE
  5
14
330
5
100
AcDbSymbolTableRecord
100
AcDbLinetypeTableRecord
  2
BYBLOCK
 70
     0
  3

 72
    65
 73
     0
 40
0.0
  0
LTYPE
  5
15
330
5
100
AcDbSymbolTableRecord
100
AcDbLinetypeTableRecord
  2
BYLAYER
 70
     0
  3

 72
    65
 73
     0
 40
0.0
  0
LTYPE
  5
16
330
5
100
AcDbSymbolTableRecord
100
AcDbLinetypeTableRecord
  2
CONTINUOUS
 70
     0
  3
Solid line
 72
    65
 73
     0
 40
0.0
  0
ENDTAB
  0
TABLE
  2
LAYER
  5
2
100
AcDbSymbolTable
 70
1
  0
LAYER
  5
50
100
AcDbSymbolTableRecord
100
AcDbLayerTableRecord
  2
0
 70
0
  6
CONTINUOUS
  0
ENDTAB
  0
TABLE
  2
STYLE
  5
3
330
0
100
AcDbSymbolTable
 70
     1
  0
STYLE
  5
11
330
3
100
AcDbSymbolTableRecord
100
AcDbTextStyleTableRecord
  2
STANDARD
 70
     0
 40
0.0
 41
1.0
 50
0.0
 71
     0
 42
2.5
  3
txt
  4

  0
ENDTAB
  0
TABLE
  2
VIEW
  5
6
330
0
100
AcDbSymbolTable
 70
     0
  0
ENDTAB
  0
TABLE
  2
UCS
  5
7
330
0
100
AcDbSymbolTable
 70
     0
  0
ENDTAB
  0
TABLE
  2
APPID
  5
9
330
0
100
AcDbSymbolTable
 70
     2
  0
APPID
  5
12
330
9
100
AcDbSymbolTableRecord
100
AcDbRegAppTableRecord
  2
ACAD
 70
     0
  0
ENDTAB
  0
TABLE
  2
DIMSTYLE
  5
A
330
0
100
AcDbSymbolTable
 70
     1
  0
DIMSTYLE
105
27
330
A
100
AcDbSymbolTableRecord
100
AcDbDimStyleTableRecord
  2
ISO-25
 70
     0
  3

  4

  5

  6

  7

 40
1.0
 41
2.5
 42
0.625
 43
3.75
 44
1.25
 45
0.0
 46
0.0
 47
0.0
 48
0.0
140
2.5
141
2.5
142
0.0
143
0.03937007874016
144
1.0
145
0.0
146
1.0
147
0.625
 71
     0
 72
     0
 73
     0
 74
     0
 75
     0
 76
     0
 77
     1
 78
     8
170
     0
171
     3
172
     1
173
     0
174
     0
175
     0
176
     0
177
     0
178
     0
270
     2
271
     2
272
     2
273
     2
274
     3
340
11
275
     0
280
     0
281
     0
282
     0
283
     0
284
     8
285
     0
286
     0
287
     3
288
     0
  0
ENDTAB
  0
TABLE
  2
BLOCK_RECORD
  5
1
330
0
100
AcDbSymbolTable
 70
     1
  0
BLOCK_RECORD
  5
1F
330
1
100
AcDbSymbolTableRecord
100
AcDbBlockTableRecord
  2
*MODEL_SPACE
  0
BLOCK_RECORD
  5
1B
330
1
100
AcDbSymbolTableRecord
100
AcDbBlockTableRecord
  2
*PAPER_SPACE
  0
ENDTAB
  0
ENDSEC
  0
SECTION
  2
BLOCKS
  0
BLOCK
  5
20
330
1F
100
AcDbEntity
  8
0
100
AcDbBlockBegin
  2
*MODEL_SPACE
 70
     0
 10
0.0
 20
0.0
 30
0.0
  3
*MODEL_SPACE
  1

  0
ENDBLK
  5
21
330
1F
100
AcDbEntity
  8
0
100
AcDbBlockEnd
  0
BLOCK
  5
1C
330
1B
100
AcDbEntity
 67
     1
  8
0
100
AcDbBlockBegin
  2
*PAPER_SPACE
  1

  0
ENDBLK
  5
1D
330
1B
100
AcDbEntity
 67
     1
  8
0
100
AcDbBlockEnd
  0
ENDSEC
  0
SECTION
  2
ENTITIES
  0
LWPOLYLINE
  5
100
100
AcDbEntity
  8
0
 62
7
100
AcDbPolyline
 90
3
 70
0
 10
2028.197301
 20
-1962.478761
 30
0.0
 10
2028.197301
 20
-1959.374316
 30
0.0
 10
2028.197301
 20
-1962.478761
 30
0.0
  0
LWPOLYLINE
  5
101
100
AcDbEntity
  8
0
 62
7
100
AcDbPolyline
 90
5
 70
0
 10
1093.195079
 20
-2252.038761
 30
0.0
 10
1214.832857
 20
-2252.038761
 30
0.0
 10
1214.832857
 20
-2317.232094
 30
0.0
 10
1093.195079
 20
-2317.232094
 30
0.0
 10
1093.195079
 20
-2252.038761
 30
0.0
  0
LWPOLYLINE
  5
102
100
AcDbEntity
  8
0
 62
7
100
AcDbPolyline
 90
5
 70
0
 10
1093.195079
 20
-2082.705427
 30
0.0
 10
1214.832857
 20
-2082.705427
 30
0.0
 10
1214.832857
 20
-2147.898761
 30
0.0
 10
1093.195079
 20
-2147.898761
 30
0.0
 10
1093.195079
 20
-2082.705427
 30
0.0
  0
LWPOLYLINE
  5
103
100
AcDbEntity
  8
0
 62
7
100
AcDbPolyline
 90
5
 70
0
 10
1924.057301
 20
-902.452094
 30
0.0
 10
1770.810634
 20
-1055.416538
 30
0.0
 10
1739.483968
 20
-1024.089872
 30
0.0
 10
1892.730634
 20
-870.843205
 30
0.0
 10
1924.057301
 20
-902.452094
 30
0.0
  0
LWPOLYLINE
  5
104
100
AcDbEntity
  8
0
 62
7
100
AcDbPolyline
 90
5
 70
0
 10
1987.839523
 20
-966.234316
 30
0.0
 10
1834.875079
 20
-1119.480983
 30
0.0
 10
1803.266190
 20
-1087.872094
 30
0.0
 10
1956.512857
 20
-934.907650
 30
0.0
 10
1987.839523
 20
-966.234316
 30
0.0
  0
LWPOLYLINE
  5
105
100
AcDbEntity
  8
0
 62
7
100
AcDbPolyline
 90
5
 70
0
 10
2051.903968
 20
-1030.016538
 30
0.0
 10
1898.657301
 20
-1183.263205
 30
0.0
 10
1867.330634
 20
-1151.936538
 30
0.0
 10
2020.295079
 20
-998.689872
 30
0.0
 10
2051.903968
 20
-1030.016538
 30
0.0
  0
LWPOLYLINE
  5
106
100
AcDbEntity
  8
0
 62
7
100
AcDbPolyline
 90
5
 70
0
 10
2115.686190
 20
-1093.798761
 30
0.0
 10
1962.439523
 20
-1247.045427
 30
0.0
 10
1931.112857
 20
-1215.718761
 30
0.0
 10
2084.359523
 20
-1062.472094
 30
0.0
 10
2115.686190
 20
-1093.798761
 30
0.0
  0
LWPOLYLINE
  5
107
100
AcDbEntity
  8
0
 62
7
100
AcDbPolyline
 90
5
 70
0
 10
2177.492857
 20
-1155.887650
 30
0.0
 10
2024.246190
 20
-1308.852094
 30
0.0
 10
1992.919523
 20
-1277.525427
 30
0.0
 10
2146.166190
 20
-1124.278761
 30
0.0
 10
2177.492857
 20
-1155.887650
 30
0.0
  0
LWPOLYLINE
  5
108
100
AcDbEntity
  8
0
 62
7
100
AcDbPolyline
 90
5
 70
0
 10
2239.299523
 20
-1217.694316
 30
0.0
 10
2086.335079
 20
-1370.658761
 30
0.0
 10
2054.726190
 20
-1339.332094
 30
0.0
 10
2207.972857
 20
-1186.367650
 30
0.0
 10
2239.299523
 20
-1217.694316
 30
0.0
  0
LWPOLYLINE
  5
109
100
AcDbEntity
  8
0
 62
7
100
AcDbPolyline
 90
5
 70
0
 10
2303.363968
 20
-1281.476538
 30
0.0
 10
2150.117301
 20
-1434.723205
 30
0.0
 10
2118.790634
 20
-1403.114316
 30
0.0
 10
2271.755079
 20
-1250.149872
 30
0.0
 10
2303.363968
 20
-1281.476538
 30
0.0
  0
LWPOLYLINE
  5
10a
100
AcDbEntity
  8
0
 62
7
100
AcDbPolyline
 90
5
 70
0
 10
2365.170634
 20
-1343.283205
 30
0.0
 10
2211.923968
 20
-1496.529872
 30
0.0
 10
2180.597301
 20
-1465.203205
 30
0.0
 10
2333.561746
 20
-1311.956538
 30
0.0
 10
2365.170634
 20
-1343.283205
 30
0.0
  0
LWPOLYLINE
  5
10b
100
AcDbEntity
  8
0
 62
7
100
AcDbPolyline
 90
5
 70
0
 10
1171.370634
 20
-1658.243205
 30
0.0
 10
1018.123968
 20
-1811.489872
 30
0.0
 10
986.797301
 20
-1780.163205
 30
0.0
 10
1140.043968
 20
-1626.916538
 30
0.0
 10
1171.370634
 20
-1658.243205
 30
0.0
  0
LWPOLYLINE
  5
10c
100
AcDbEntity
  8
0
 62
7
100
AcDbPolyline
 90
5
 70
0
 10
1234.023968
 20
-1720.896538
 30
0.0
 10
1080.777301
 20
-1874.143205
 30
0.0
 10
1049.450634
 20
-1842.816538
 30
0.0
 10
1202.697301
 20
-1689.569872
 30
0.0
 10
1234.023968
 20
-1720.896538
 30
0.0
  0
LWPOLYLINE
  5
10d
100
AcDbEntity
  8
0
 62
7
100
AcDbPolyline
 90
5
 70
0
 10
1296.959523
 20
-1784.114316
 30
0.0
 10
1143.995079
 20
-1937.078761
 30
0.0
 10
1112.386190
 20
-1905.752094
 30
0.0
 10
1265.632857
 20
-1752.505427
 30
0.0
 10
1296.959523
 20
-1784.114316
 30
0.0
  0
LWPOLYLINE
  5
10e
100
AcDbEntity
  8
0
 62
7
100
AcDbPolyline
 90
5
 70
0
 10
1359.612857
 20
-1846.767650
 30
0.0
 10
1206.648412
 20
-1999.732094
 30
0.0
 10
1175.039523
 20
-1968.405427
 30
0.0
 10
1328.286190
 20
-1815.158761
 30
0.0
 10
1359.612857
 20
-1846.767650
 30
0.0
  0
LWPOLYLINE
  5
10f
100
AcDbEntity
  8
0
 62
7
100
AcDbPolyline
 90
5
 70
0
 10
1422.830634
 20
-1909.703205
 30
0.0
 10
1269.583968
 20
-2062.949872
 30
0.0
 10
1238.257301
 20
-2031.340983
 30
0.0
 10
1391.503968
 20
-1878.376538
 30
0.0
 10
1422.830634
 20
-1909.703205
 30
0.0
  0
LWPOLYLINE
  5
110
100
AcDbEntity
  8
0
 62
7
100
AcDbPolyline
 90
5
 70
0
 10
1485.483968
 20
-1972.356538
 30
0.0
 10
1332.237301
 20
-2125.603205
 30
0.0
 10
1300.910634
 20
-2093.994316
 30
0.0
 10
1454.157301
 20
-1941.029872
 30
0.0
 10
1485.483968
 20
-1972.356538
 30
0.0
  0
LWPOLYLINE
  5
111
100
AcDbEntity
  8
0
 62
7
100
AcDbPolyline
 90
5
 70
0
 10
1548.419523
 20
-2035.574316
 30
0.0
 10
1395.455079
 20
-2188.538761
 30
0.0
 10
1363.846190
 20
-2157.212094
 30
0.0
 10
1517.092857
 20
-2003.965427
 30
0.0
 10
1548.419523
 20
-2035.574316
 30
0.0
  0
LWPOLYLINE
  5
112
100
AcDbEntity
  8
0
 62
7
100
AcDbPolyline
 90
5
 70
0
 10
1611.072857
 20
-2098.227650
 30
0.0
 10
1458.108412
 20
-2251.192094
 30
0.0
 10
1426.499523
 20
-2219.865427
 30
0.0
 10
1579.746190
 20
-2066.618761
 30
0.0
 10
1611.072857
 20
-2098.227650
 30
0.0
  0
LWPOLYLINE
  5
113
100
AcDbEntity
  8
0
 62
7
100
AcDbPolyline
 90
5
 70
0
 10
1235.435079
 20
-1405.372094
 30
0.0
 10
1204.108412
 20
-1436.698761
 30
0.0
 10
1051.143968
 20
-1283.452094
 30
0.0
 10
1082.470634
 20
-1252.125427
 30
0.0
 10
1235.435079
 20
-1405.372094
 30
0.0
  0
LWPOLYLINE
  5
114
100
AcDbEntity
  8
0
 62
7
100
AcDbPolyline
 90
5
 70
0
 10
1299.499523
 20
-1341.307650
 30
0.0
 10
1268.172857
 20
-1372.916538
 30
0.0
 10
1114.926190
 20
-1219.669872
 30
0.0
 10
1146.252857
 20
-1188.343205
 30
0.0
 10
1299.499523
 20
-1341.307650
 30
0.0
  0
LWPOLYLINE
  5
115
100
AcDbEntity
  8
0
 62
7
100
AcDbPolyline
 90
5
 70
0
 10
1361.306190
 20
-1279.500983
 30
0.0
 10
1329.979523
 20
-1310.827650
 30
0.0
 10
1176.732857
 20
-1157.863205
 30
0.0
 10
1208.059523
 20
-1126.536538
 30
0.0
 10
1361.306190
 20
-1279.500983
 30
0.0
  0
LWPOLYLINE
  5
116
100
AcDbEntity
  8
0
 62
7
100
AcDbPolyline
 90
5
 70
0
 10
1425.088412
 20
-1215.718761
 30
0.0
 10
1393.761746
 20
-1247.045427
 30
0.0
 10
1240.515079
 20
-1093.798761
 30
0.0
 10
1272.123968
 20
-1062.472094
 30
0.0
 10
1425.088412
 20
-1215.718761
 30
0.0
  0
LWPOLYLINE
  5
117
100
AcDbEntity
  8
0
 62
7
100
AcDbPolyline
 90
5
 70
0
 10
1486.895079
 20
-1153.912094
 30
0.0
 10
1455.568412
 20
-1185.238761
 30
0.0
 10
1302.603968
 20
-1031.992094
 30
0.0
 10
1333.930634
 20
-1000.665427
 30
0.0
 10
1486.895079
 20
-1153.912094
 30
0.0
  0
LWPOLYLINE
  5
118
100
AcDbEntity
  8
0
 62
7
100
AcDbPolyline
 90
5
 70
0
 10
1550.959523
 20
-1089.847650
 30
0.0
 10
1519.350634
 20
-1121.456538
 30
0.0
 10
1366.386190
 20
-968.209872
 30
0.0
 10
1397.712857
 20
-936.883205
 30
0.0
 10
1550.959523
 20
-1089.847650
 30
0.0
  0
LWPOLYLINE
  5
119
100
AcDbEntity
  8
0
 62
7
100
AcDbPolyline
 90
5
 70
0
 10
1614.741746
 20
-1026.065427
 30
0.0
 10
1583.415079
 20
-1057.392094
 30
0.0
 10
1430.168412
 20
-904.427650
 30
0.0
 10
1461.495079
 20
-872.818761
 30
0.0
 10
1614.741746
 20
-1026.065427
 30
0.0
  0
LWPOLYLINE
  5
11a
100
AcDbEntity
  8
0
 62
7
100
AcDbPolyline
 90
5
 70
0
 10
1173.628412
 20
-1467.178761
 30
0.0
 10
1142.301746
 20
-1498.505427
 30
0.0
 10
989.055079
 20
-1345.258761
 30
0.0
 10
1020.663968
 20
-1313.932094
 30
0.0
 10
1173.628412
 20
-1467.178761
 30
0.0
  0
LWPOLYLINE
  5
11b
100
AcDbEntity
  8
0
 62
7
100
AcDbPolyline
 90
5
 70
0
 10
1924.903968
 20
-2219.018761
 30
0.0
 10
1893.577301
 20
-2250.345427
 30
0.0
 10
1740.330634
 20
-2097.380983
 30
0.0
 10
1771.657301
 20
-2066.054316
 30
0.0
 10
1924.903968
 20
-2219.018761
 30
0.0
  0
LWPOLYLINE
  5
11c
100
AcDbEntity
  8
0
 62
7
100
AcDbPolyline
 90
5
 70
0
 10
1987.839523
 20
-2156.083205
 30
0.0
 10
1956.230634
 20
-2187.692094
 30
0.0
 10
1803.266190
 20
-2034.445427
 30
0.0
 10
1834.592857
 20
-2003.118761
 30
0.0
 10
1987.839523
 20
-2156.083205
 30
0.0
  0
LWPOLYLINE
  5
11d
100
AcDbEntity
  8
0
 62
7
100
AcDbPolyline
 90
5
 70
0
 10
2050.492857
 20
-2093.429872
 30
0.0
 10
2019.166190
 20
-2124.756538
 30
0.0
 10
1865.919523
 20
-1971.509872
 30
0.0
 10
1897.528412
 20
-1940.183205
 30
0.0
 10
2050.492857
 20
-2093.429872
 30
0.0
  0
LWPOLYLINE
  5
11e
100
AcDbEntity
  8
0
 62
7
100
AcDbPolyline
 90
5
 70
0
 10
2113.428412
 20
-2030.494316
 30
0.0
 10
2082.101746
 20
-2061.820983
 30
0.0
 10
1928.855079
 20
-1908.856538
 30
0.0
 10
1960.181746
 20
-1877.247650
 30
0.0
 10
2113.428412
 20
-2030.494316
 30
0.0
  0
LWPOLYLINE
  5
11f
100
AcDbEntity
  8
0
 62
7
100
AcDbPolyline
 90
5
 70
0
 10
2176.363968
 20
-1967.558761
 30
0.0
 10
2145.037301
 20
-1998.885427
 30
0.0
 10
1991.790634
 20
-1845.920983
 30
0.0
 10
2023.117301
 20
-1814.594316
 30
0.0
 10
2176.363968
 20
-1967.558761
 30
0.0
  0
LWPOLYLINE
  5
120
100
AcDbEntity
  8
0
 62
7
100
AcDbPolyline
 90
5
 70
0
 10
2239.299523
 20
-1904.623205
 30
0.0
 10
2207.690634
 20
-1936.232094
 30
0.0
 10
2054.726190
 20
-1782.985427
 30
0.0
 10
2086.052857
 20
-1751.658761
 30
0.0
 10
2239.299523
 20
-1904.623205
 30
0.0
  0
LWPOLYLINE
  5
121
100
AcDbEntity
  8
0
 62
7
100
AcDbPolyline
 90
5
 70
0
 10
2301.952857
 20
-1841.969872
 30
0.0
 10
2270.626190
 20
-1873.296538
 30
0.0
 10
2117.379523
 20
-1720.049872
 30
0.0
 10
2148.988412
 20
-1688.723205
 30
0.0
 10
2301.952857
 20
-1841.969872
 30
0.0
  0
LWPOLYLINE
  5
122
100
AcDbEntity
  8
0
 62
7
100
AcDbPolyline
 90
5
 70
0
 10
2364.888412
 20
-1779.034316
 30
0.0
 10
2333.561746
 20
-1810.360983
 30
0.0
 10
2180.315079
 20
-1657.396538
 30
0.0
 10
2211.641746
 20
-1625.787650
 30
0.0
 10
2364.888412
 20
-1779.034316
 30
0.0
  0
LWPOLYLINE
  5
123
100
AcDbEntity
  8
0
 62
7
100
AcDbPolyline
 90
5
 70
0
 10
812.666190
 20
-629.260983
 30
0.0
 10
812.666190
 20
-750.898761
 30
0.0
 10
747.472857
 20
-750.898761
 30
0.0
 10
747.472857
 20
-629.260983
 30
0.0
 10
812.666190
 20
-629.260983
 30
0.0
  0
LWPOLYLINE
  5
124
100
AcDbEntity
  8
0
 62
7
100
AcDbPolyline
 90
5
 70
0
 10
981.999523
 20
-629.260983
 30
0.0
 10
981.999523
 20
-750.898761
 30
0.0
 10
916.806190
 20
-750.898761
 30
0.0
 10
916.806190
 20
-629.260983
 30
0.0
 10
981.999523
 20
-629.260983
 30
0.0
  0
LWPOLYLINE
  5
125
100
AcDbEntity
  8
0
 62
7
100
AcDbPolyline
 90
5
 70
0
 10
916.806190
 20
-581.565427
 30
0.0
 10
916.806190
 20
-459.927650
 30
0.0
 10
981.999523
 20
-459.927650
 30
0.0
 10
981.999523
 20
-581.565427
 30
0.0
 10
916.806190
 20
-581.565427
 30
0.0
  0
LWPOLYLINE
  5
126
100
AcDbEntity
  8
0
 62
7
100
AcDbPolyline
 90
5
 70
0
 10
747.472857
 20
-581.565427
 30
0.0
 10
747.472857
 20
-459.927650
 30
0.0
 10
812.666190
 20
-459.927650
 30
0.0
 10
812.666190
 20
-581.565427
 30
0.0
 10
747.472857
 20
-581.565427
 30
0.0
  0
LWPOLYLINE
  5
127
100
AcDbEntity
  8
0
 62
7
100
AcDbPolyline
 90
5
 70
0
 10
1086.139523
 20
-382.316538
 30
0.0
 10
1207.777301
 20
-382.316538
 30
0.0
 10
1207.777301
 20
-447.509872
 30
0.0
 10
1086.139523
 20
-447.509872
 30
0.0
 10
1086.139523
 20
-382.316538
 30
0.0
  0
LWPOLYLINE
  5
128
100
AcDbEntity
  8
0
 62
7
100
AcDbPolyline
 90
5
 70
0
 10
1086.139523
 20
-212.983205
 30
0.0
 10
1207.777301
 20
-212.983205
 30
0.0
 10
1207.777301
 20
-278.176538
 30
0.0
 10
1086.139523
 20
-278.176538
 30
0.0
 10
1086.139523
 20
-212.983205
 30
0.0
  0
LWPOLYLINE
  5
129
100
AcDbEntity
  8
0
 62
7
100
AcDbPolyline
 90
5
 70
0
 10
973.250634
 20
-962.565427
 30
0.0
 10
973.250634
 20
-840.927650
 30
0.0
 10
1038.443968
 20
-840.927650
 30
0.0
 10
1038.443968
 20
-962.565427
 30
0.0
 10
973.250634
 20
-962.565427
 30
0.0
  0
LWPOLYLINE
  5
12a
100
AcDbEntity
  8
0
 62
7
100
AcDbPolyline
 90
5
 70
0
 10
803.917301
 20
-962.565427
 30
0.0
 10
803.917301
 20
-840.927650
 30
0.0
 10
869.110634
 20
-840.927650
 30
0.0
 10
869.110634
 20
-962.565427
 30
0.0
 10
803.917301
 20
-962.565427
 30
0.0
  0
LWPOLYLINE
  5
12b
100
AcDbEntity
  8
0
 62
7
100
AcDbPolyline
 90
5
 70
0
 10
973.250634
 20
-1153.065427
 30
0.0
 10
973.250634
 20
-1031.427650
 30
0.0
 10
1038.443968
 20
-1031.427650
 30
0.0
 10
1038.443968
 20
-1153.065427
 30
0.0
 10
973.250634
 20
-1153.065427
 30
0.0
  0
LWPOLYLINE
  5
12c
100
AcDbEntity
  8
0
 62
7
100
AcDbPolyline
 90
5
 70
0
 10
803.917301
 20
-1153.065427
 30
0.0
 10
803.917301
 20
-1031.427650
 30
0.0
 10
869.110634
 20
-1031.427650
 30
0.0
 10
869.110634
 20
-1153.065427
 30
0.0
 10
803.917301
 20
-1153.065427
 30
0.0
  0
LWPOLYLINE
  5
12d
100
AcDbEntity
  8
0
 62
7
100
AcDbPolyline
 90
5
 70
0
 10
2541.277301
 20
-609.787650
 30
0.0
 10
2419.639523
 20
-609.787650
 30
0.0
 10
2419.639523
 20
-544.594316
 30
0.0
 10
2541.277301
 20
-544.594316
 30
0.0
 10
2541.277301
 20
-609.787650
 30
0.0
  0
LWPOLYLINE
  5
12e
100
AcDbEntity
  8
0
 62
7
100
AcDbPolyline
 90
5
 70
0
 10
2541.277301
 20
-779.120983
 30
0.0
 10
2419.639523
 20
-779.120983
 30
0.0
 10
2419.639523
 20
-713.927650
 30
0.0
 10
2541.277301
 20
-713.927650
 30
0.0
 10
2541.277301
 20
-779.120983
 30
0.0
  0
LWPOLYLINE
  5
12f
100
AcDbEntity
  8
0
 62
7
100
AcDbPolyline
 90
5
 70
0
 10
2342.028412
 20
-1010.260983
 30
0.0
 10
2463.666190
 20
-1010.260983
 30
0.0
 10
2463.666190
 20
-1075.454316
 30
0.0
 10
2342.028412
 20
-1075.454316
 30
0.0
 10
2342.028412
 20
-1010.260983
 30
0.0
  0
LWPOLYLINE
  5
130
100
AcDbEntity
  8
0
 62
7
100
AcDbPolyline
 90
5
 70
0
 10
2342.028412
 20
-840.927650
 30
0.0
 10
2463.666190
 20
-840.927650
 30
0.0
 10
2463.666190
 20
-906.120983
 30
0.0
 10
2342.028412
 20
-906.120983
 30
0.0
 10
2342.028412
 20
-840.927650
 30
0.0
  0
LWPOLYLINE
  5
131
100
AcDbEntity
  8
0
 62
7
100
AcDbPolyline
 90
5
 70
0
 10
812.666190
 20
-290.594316
 30
0.0
 10
812.666190
 20
-412.232094
 30
0.0
 10
747.472857
 20
-412.232094
 30
0.0
 10
747.472857
 20
-290.594316
 30
0.0
 10
812.666190
 20
-290.594316
 30
0.0
  0
LWPOLYLINE
  5
132
100
AcDbEntity
  8
0
 62
7
100
AcDbPolyline
 90
5
 70
0
 10
981.999523
 20
-290.594316
 30
0.0
 10
981.999523
 20
-412.232094
 30
0.0
 10
916.806190
 20
-412.232094
 30
0.0
 10
916.806190
 20
-290.594316
 30
0.0
 10
981.999523
 20
-290.594316
 30
0.0
  0
LWPOLYLINE
  5
133
100
AcDbEntity
  8
0
 62
7
100
AcDbPolyline
 90
5
 70
0
 10
2115.403968
 20
-2248.369872
 30
0.0
 10
2115.403968
 20
-2142.818761
 30
0.0
 10
2187.652857
 20
-2142.818761
 30
0.0
 10
2187.652857
 20
-2248.369872
 30
0.0
 10
2115.403968
 20
-2248.369872
 30
0.0
  0
LWPOLYLINE
  5
134
100
AcDbEntity
  8
0
 62
7
100
AcDbPolyline
 90
5
 70
0
 10
2270.908412
 20
-2248.369872
 30
0.0
 10
2270.908412
 20
-2142.818761
 30
0.0
 10
2365.452857
 20
-2142.818761
 30
0.0
 10
2365.452857
 20
-2248.369872
 30
0.0
 10
2270.908412
 20
-2248.369872
 30
0.0
  0
LWPOLYLINE
  5
135
100
AcDbEntity
  8
0
 62
7
100
AcDbPolyline
 90
5
 70
0
 10
2448.708412
 20
-2248.369872
 30
0.0
 10
2448.708412
 20
-2142.818761
 30
0.0
 10
2520.957301
 20
-2142.818761
 30
0.0
 10
2520.957301
 20
-2248.369872
 30
0.0
 10
2448.708412
 20
-2248.369872
 30
0.0
  0
LWPOLYLINE
  5
136
100
AcDbEntity
  8
0
 62
7
100
AcDbPolyline
 90
5
 70
0
 10
2448.708412
 20
-2581.674316
 30
0.0
 10
2448.708412
 20
-2476.123205
 30
0.0
 10
2520.957301
 20
-2476.123205
 30
0.0
 10
2520.957301
 20
-2581.674316
 30
0.0
 10
2448.708412
 20
-2581.674316
 30
0.0
  0
LWPOLYLINE
  5
137
100
AcDbEntity
  8
0
 62
7
100
AcDbPolyline
 90
5
 70
0
 10
2270.908412
 20
-2581.674316
 30
0.0
 10
2270.908412
 20
-2476.123205
 30
0.0
 10
2365.452857
 20
-2476.123205
 30
0.0
 10
2365.452857
 20
-2581.674316
 30
0.0
 10
2270.908412
 20
-2581.674316
 30
0.0
  0
LWPOLYLINE
  5
138
100
AcDbEntity
  8
0
 62
7
100
AcDbPolyline
 90
5
 70
0
 10
2115.403968
 20
-2581.674316
 30
0.0
 10
2115.403968
 20
-2476.123205
 30
0.0
 10
2187.652857
 20
-2476.123205
 30
0.0
 10
2187.652857
 20
-2581.674316
 30
0.0
 10
2115.403968
 20
-2581.674316
 30
0.0
  0
LWPOLYLINE
  5
139
100
AcDbEntity
  8
0
 62
7
100
AcDbPolyline
 90
5
 70
0
 10
1217.655079
 20
-2401.616538
 30
0.0
 10
1217.655079
 20
-2562.765427
 30
0.0
 10
1056.506190
 20
-2562.765427
 30
0.0
 10
1056.506190
 20
-2401.616538
 30
0.0
 10
1217.655079
 20
-2401.616538
 30
0.0
  0
LWPOLYLINE
  5
13a
100
AcDbEntity
  8
0
 62
7
100
AcDbPolyline
 90
5
 70
0
 10
2084.077301
 20
-2401.616538
 30
0.0
 10
2084.077301
 20
-2562.765427
 30
0.0
 10
1923.210634
 20
-2562.765427
 30
0.0
 10
1923.210634
 20
-2401.616538
 30
0.0
 10
2084.077301
 20
-2401.616538
 30
0.0
  0
LWPOLYLINE
  5
13b
100
AcDbEntity
  8
0
 62
7
100
AcDbPolyline
 90
5
 70
0
 10
1166.855087
 20
-3021.298391
 30
0.0
 10
1166.855087
 20
-3058.536202
 30
0.0
 10
1260.929180
 20
-3058.536202
 30
0.0
 10
1260.929180
 20
-3021.298391
 30
0.0
 10
1166.855087
 20
-3021.298391
 30
0.0
  0
LWPOLYLINE
  5
13c
100
AcDbEntity
  8
0
 62
7
100
AcDbPolyline
 90
5
 70
0
 10
827.796414
 20
-3098.713640
 30
0.0
 10
827.796414
 20
-3192.787620
 30
0.0
 10
865.034084
 20
-3192.787620
 30
0.0
 10
865.034084
 20
-3098.713640
 30
0.0
 10
827.796414
 20
-3098.713640
 30
0.0
  0
LWPOLYLINE
  5
13d
100
AcDbEntity
  8
0
 62
7
100
AcDbPolyline
 90
5
 70
0
 10
997.325751
 20
-3098.713640
 30
0.0
 10
997.325751
 20
-3192.787620
 30
0.0
 10
1034.563421
 20
-3192.787620
 30
0.0
 10
1034.563421
 20
-3098.713640
 30
0.0
 10
997.325751
 20
-3098.713640
 30
0.0
  0
LWPOLYLINE
  5
13e
100
AcDbEntity
  8
0
 62
7
100
AcDbPolyline
 90
5
 70
0
 10
1166.855087
 20
-3190.827869
 30
0.0
 10
1166.855087
 20
-3228.065398
 30
0.0
 10
1260.929180
 20
-3228.065398
 30
0.0
 10
1260.929180
 20
-3190.827869
 30
0.0
 10
1166.855087
 20
-3190.827869
 30
0.0
  0
LWPOLYLINE
  5
13f
100
AcDbEntity
  8
0
 62
7
100
AcDbPolyline
 90
5
 70
0
 10
827.796414
 20
-3268.242836
 30
0.0
 10
827.796414
 20
-3362.317098
 30
0.0
 10
865.034084
 20
-3362.317098
 30
0.0
 10
865.034084
 20
-3268.242836
 30
0.0
 10
827.796414
 20
-3268.242836
 30
0.0
  0
LWPOLYLINE
  5
140
100
AcDbEntity
  8
0
 62
7
100
AcDbPolyline
 90
5
 70
0
 10
997.325751
 20
-3268.242836
 30
0.0
 10
997.325751
 20
-3362.317098
 30
0.0
 10
1034.563421
 20
-3362.317098
 30
0.0
 10
1034.563421
 20
-3268.242836
 30
0.0
 10
997.325751
 20
-3268.242836
 30
0.0
  0
LWPOLYLINE
  5
141
100
AcDbEntity
  8
0
 62
7
100
AcDbPolyline
 90
5
 70
0
 10
2500.551175
 20
-3352.517496
 30
0.0
 10
2500.551175
 20
-3390.735182
 30
0.0
 10
2593.645336
 20
-3390.735182
 30
0.0
 10
2593.645336
 20
-3352.517496
 30
0.0
 10
2500.551175
 20
-3352.517496
 30
0.0
  0
LWPOLYLINE
  5
142
100
AcDbEntity
  8
0
 62
7
100
AcDbPolyline
 90
5
 70
0
 10
827.796414
 20
-3437.772313
 30
0.0
 10
827.796414
 20
-3531.846293
 30
0.0
 10
865.034084
 20
-3531.846293
 30
0.0
 10
865.034084
 20
-3437.772313
 30
0.0
 10
827.796414
 20
-3437.772313
 30
0.0
  0
LWPOLYLINE
  5
143
100
AcDbEntity
  8
0
 62
7
100
AcDbPolyline
 90
5
 70
0
 10
997.325751
 20
-3437.772313
 30
0.0
 10
997.325751
 20
-3531.846293
 30
0.0
 10
1034.563421
 20
-3531.846293
 30
0.0
 10
1034.563421
 20
-3437.772313
 30
0.0
 10
997.325751
 20
-3437.772313
 30
0.0
  0
LWPOLYLINE
  5
144
100
AcDbEntity
  8
0
 62
7
100
AcDbPolyline
 90
5
 70
0
 10
2500.551175
 20
-3522.046973
 30
0.0
 10
2500.551175
 20
-3559.284502
 30
0.0
 10
2593.645336
 20
-3559.284502
 30
0.0
 10
2593.645336
 20
-3522.046973
 30
0.0
 10
2500.551175
 20
-3522.046973
 30
0.0
  0
LWPOLYLINE
  5
145
100
AcDbEntity
  8
0
 62
7
100
AcDbPolyline
 90
5
 70
0
 10
884.632837
 20
-3649.438980
 30
0.0
 10
884.632837
 20
-3743.512960
 30
0.0
 10
921.870507
 20
-3743.512960
 30
0.0
 10
921.870507
 20
-3649.438980
 30
0.0
 10
884.632837
 20
-3649.438980
 30
0.0
  0
LWPOLYLINE
  5
146
100
AcDbEntity
  8
0
 62
7
100
AcDbPolyline
 90
5
 70
0
 10
1054.162174
 20
-3649.438980
 30
0.0
 10
1054.162174
 20
-3743.512960
 30
0.0
 10
1091.399844
 20
-3743.512960
 30
0.0
 10
1091.399844
 20
-3649.438980
 30
0.0
 10
1054.162174
 20
-3649.438980
 30
0.0
  0
LWPOLYLINE
  5
147
100
AcDbEntity
  8
0
 62
7
100
AcDbPolyline
 90
5
 70
0
 10
2422.156107
 20
-3649.438980
 30
0.0
 10
2422.156107
 20
-3686.676509
 30
0.0
 10
2516.230200
 20
-3686.676509
 30
0.0
 10
2516.230200
 20
-3649.438980
 30
0.0
 10
2422.156107
 20
-3649.438980
 30
0.0
  0
LWPOLYLINE
  5
148
100
AcDbEntity
  8
0
 62
7
100
AcDbPolyline
 90
5
 70
0
 10
1959.625212
 20
-3684.716758
 30
0.0
 10
1825.373653
 20
-3818.968176
 30
0.0
 10
1837.132922
 20
-3830.727529
 30
0.0
 10
1971.384480
 20
-3696.476111
 30
0.0
 10
1959.625212
 20
-3684.716758
 30
0.0
  0
LWPOLYLINE
  5
149
100
AcDbEntity
  8
0
 62
7
100
AcDbPolyline
 90
5
 70
0
 10
1528.452338
 20
-3686.676509
 30
0.0
 10
1516.693097
 20
-3698.435862
 30
0.0
 10
1649.964696
 20
-3832.687280
 30
0.0
 10
1661.723965
 20
-3820.928209
 30
0.0
 10
1528.452338
 20
-3686.676509
 30
0.0
  0
LWPOLYLINE
  5
14a
100
AcDbEntity
  8
0
 62
7
100
AcDbPolyline
 90
5
 70
0
 10
2023.321215
 20
-3749.392778
 30
0.0
 10
1889.069656
 20
-3882.664320
 30
0.0
 10
1901.808857
 20
-3894.423391
 30
0.0
 10
2035.080484
 20
-3761.151849
 30
0.0
 10
2023.321215
 20
-3749.392778
 30
0.0
  0
LWPOLYLINE
  5
14b
100
AcDbEntity
  8
0
 62
7
100
AcDbPolyline
 90
5
 70
0
 10
1464.756363
 20
-3751.352529
 30
0.0
 10
1452.997094
 20
-3763.111882
 30
0.0
 10
1586.268693
 20
-3896.383424
 30
0.0
 10
1598.027961
 20
-3884.624071
 30
0.0
 10
1464.756363
 20
-3751.352529
 30
0.0
  0
LWPOLYLINE
  5
14c
100
AcDbEntity
  8
0
 62
7
100
AcDbPolyline
 90
5
 70
0
 10
2087.017190
 20
-3813.088640
 30
0.0
 10
1953.745592
 20
-3946.360182
 30
0.0
 10
1965.504860
 20
-3958.119536
 30
0.0
 10
2098.776459
 20
-3824.847993
 30
0.0
 10
2087.017190
 20
-3813.088640
 30
0.0
  0
LWPOLYLINE
  5
14d
100
AcDbEntity
  8
0
 62
7
100
AcDbPolyline
 90
5
 70
0
 10
1400.080427
 20
-3815.048391
 30
0.0
 10
1388.321159
 20
-3826.807744
 30
0.0
 10
1522.572718
 20
-3960.079287
 30
0.0
 10
1533.352026
 20
-3948.320216
 30
0.0
 10
1400.080427
 20
-3815.048391
 30
0.0
  0
LWPOLYLINE
  5
14e
100
AcDbEntity
  8
0
 62
7
100
AcDbPolyline
 90
5
 70
0
 10
2422.156107
 20
-3818.968176
 30
0.0
 10
2422.156107
 20
-3856.205987
 30
0.0
 10
2516.230200
 20
-3856.205987
 30
0.0
 10
2516.230200
 20
-3818.968176
 30
0.0
 10
2422.156107
 20
-3818.968176
 30
0.0
  0
LWPOLYLINE
  5
14f
100
AcDbEntity
  8
0
 62
7
100
AcDbPolyline
 90
5
 70
0
 10
884.632837
 20
-3839.546973
 30
0.0
 10
884.632837
 20
-3933.620953
 30
0.0
 10
921.870507
 20
-3933.620953
 30
0.0
 10
921.870507
 20
-3839.546973
 30
0.0
 10
884.632837
 20
-3839.546973
 30
0.0
  0
LWPOLYLINE
  5
150
100
AcDbEntity
  8
0
 62
7
100
AcDbPolyline
 90
5
 70
0
 10
1054.162174
 20
-3839.546973
 30
0.0
 10
1054.162174
 20
-3933.620953
 30
0.0
 10
1091.399844
 20
-3933.620953
 30
0.0
 10
1091.399844
 20
-3839.546973
 30
0.0
 10
1054.162174
 20
-3839.546973
 30
0.0
  0
LWPOLYLINE
  5
151
100
AcDbEntity
  8
0
 62
7
100
AcDbPolyline
 90
5
 70
0
 10
1338.344316
 20
-3876.784502
 30
0.0
 10
1326.585048
 20
-3888.543856
 30
0.0
 10
1459.856646
 20
-4021.815398
 30
0.0
 10
1471.615915
 20
-4010.056327
 30
0.0
 10
1338.344316
 20
-3876.784502
 30
0.0
  0
LWPOLYLINE
  5
152
100
AcDbEntity
  8
0
 62
7
100
AcDbPolyline
 90
5
 70
0
 10
2150.713194
 20
-3876.784502
 30
0.0
 10
2017.441567
 20
-4010.056327
 30
0.0
 10
2029.200835
 20
-4021.815398
 30
0.0
 10
2162.472462
 20
-3888.543856
 30
0.0
 10
2150.713194
 20
-3876.784502
 30
0.0
  0
LWPOLYLINE
  5
153
100
AcDbEntity
  8
0
 62
7
100
AcDbPolyline
 90
5
 70
0
 10
2212.449305
 20
-3938.520896
 30
0.0
 10
2079.177706
 20
-4071.792438
 30
0.0
 10
2090.936946
 20
-4083.551509
 30
0.0
 10
2224.208573
 20
-3950.279967
 30
0.0
 10
2212.449305
 20
-3938.520896
 30
0.0
  0
LWPOLYLINE
  5
154
100
AcDbEntity
  8
0
 62
7
100
AcDbPolyline
 90
5
 70
0
 10
1274.648313
 20
-3940.480647
 30
0.0
 10
1262.889044
 20
-3952.240000
 30
0.0
 10
1396.160671
 20
-4085.511542
 30
0.0
 10
1407.919940
 20
-4073.752189
 30
0.0
 10
1274.648313
 20
-3940.480647
 30
0.0
  0
LWPOLYLINE
  5
155
100
AcDbEntity
  8
0
 62
7
100
AcDbPolyline
 90
5
 70
0
 10
2274.185416
 20
-4000.257007
 30
0.0
 10
2140.913817
 20
-4133.528549
 30
0.0
 10
2152.673086
 20
-4145.287620
 30
0.0
 10
2285.944684
 20
-4012.016078
 30
0.0
 10
2274.185416
 20
-4000.257007
 30
0.0
  0
LWPOLYLINE
  5
156
100
AcDbEntity
  8
0
 62
7
100
AcDbPolyline
 90
5
 70
0
 10
1212.912202
 20
-4002.216758
 30
0.0
 10
1201.152933
 20
-4013.976111
 30
0.0
 10
1334.424560
 20
-4147.247653
 30
0.0
 10
1346.183800
 20
-4135.488300
 30
0.0
 10
1212.912202
 20
-4002.216758
 30
0.0
  0
LWPOLYLINE
  5
157
100
AcDbEntity
  8
0
 62
7
100
AcDbPolyline
 90
5
 70
0
 10
2337.881419
 20
-4063.952869
 30
0.0
 10
2204.609792
 20
-4197.224411
 30
0.0
 10
2216.369061
 20
-4209.963640
 30
0.0
 10
2350.620620
 20
-4075.712222
 30
0.0
 10
2337.881419
 20
-4063.952869
 30
0.0
  0
LWPOLYLINE
  5
158
100
AcDbEntity
  8
0
 62
7
100
AcDbPolyline
 90
5
 70
0
 10
1149.216198
 20
-4065.912620
 30
0.0
 10
1137.456930
 20
-4077.671973
 30
0.0
 10
1270.728557
 20
-4211.923673
 30
0.0
 10
1282.487825
 20
-4200.164320
 30
0.0
 10
1149.216198
 20
-4065.912620
 30
0.0
  0
LWPOLYLINE
  5
159
100
AcDbEntity
  8
0
 62
7
100
AcDbPolyline
 90
5
 70
0
 10
2400.597462
 20
-4125.688980
 30
0.0
 10
2266.345932
 20
-4259.940398
 30
0.0
 10
2278.105172
 20
-4271.699751
 30
0.0
 10
2412.356731
 20
-4137.448333
 30
0.0
 10
2400.597462
 20
-4125.688980
 30
0.0
  0
LWPOLYLINE
  5
15a
100
AcDbEntity
  8
0
 62
7
100
AcDbPolyline
 90
5
 70
0
 10
1087.480087
 20
-4127.648731
 30
0.0
 10
1075.720819
 20
-4139.408084
 30
0.0
 10
1208.992446
 20
-4273.659784
 30
0.0
 10
1220.751714
 20
-4261.900431
 30
0.0
 10
1087.480087
 20
-4127.648731
 30
0.0
  0
LWPOLYLINE
  5
15b
100
AcDbEntity
  8
0
 62
7
100
AcDbPolyline
 90
5
 70
0
 10
2278.105172
 20
-4440.249071
 30
0.0
 10
2266.345932
 20
-4452.008424
 30
0.0
 10
2400.597462
 20
-4585.279967
 30
0.0
 10
2411.376799
 20
-4573.520896
 30
0.0
 10
2278.105172
 20
-4440.249071
 30
0.0
  0
LWPOLYLINE
  5
15c
100
AcDbEntity
  8
0
 62
7
100
AcDbPolyline
 90
5
 70
0
 10
1207.032553
 20
-4441.229229
 30
0.0
 10
1072.781023
 20
-4574.500771
 30
0.0
 10
1084.540263
 20
-4586.260124
 30
0.0
 10
1217.811890
 20
-4452.988300
 30
0.0
 10
1207.032553
 20
-4441.229229
 30
0.0
  0
LWPOLYLINE
  5
15d
100
AcDbEntity
  8
0
 62
7
100
AcDbPolyline
 90
5
 70
0
 10
2215.389129
 20
-4502.965340
 30
0.0
 10
2203.629860
 20
-4514.724411
 30
0.0
 10
2336.901487
 20
-4647.996236
 30
0.0
 10
2348.660756
 20
-4636.236882
 30
0.0
 10
2215.389129
 20
-4502.965340
 30
0.0
  0
LWPOLYLINE
  5
15e
100
AcDbEntity
  8
0
 62
7
100
AcDbPolyline
 90
5
 70
0
 10
1269.748625
 20
-4503.945216
 30
0.0
 10
1135.497066
 20
-4637.216758
 30
0.0
 10
1147.256334
 20
-4648.976111
 30
0.0
 10
1280.527933
 20
-4515.704569
 30
0.0
 10
1269.748625
 20
-4503.945216
 30
0.0
  0
LWPOLYLINE
  5
15f
100
AcDbEntity
  8
0
 62
7
100
AcDbPolyline
 90
5
 70
0
 10
2152.673086
 20
-4565.681327
 30
0.0
 10
2140.913817
 20
-4577.440680
 30
0.0
 10
2274.185416
 20
-4710.712222
 30
0.0
 10
2285.944684
 20
-4698.952869
 30
0.0
 10
2152.673086
 20
-4565.681327
 30
0.0
  0
LWPOLYLINE
  5
160
100
AcDbEntity
  8
0
 62
7
100
AcDbPolyline
 90
5
 70
0
 10
1332.464668
 20
-4566.661202
 30
0.0
 10
1198.213109
 20
-4699.932744
 30
0.0
 10
1210.952310
 20
-4711.692098
 30
0.0
 10
1344.223936
 20
-4578.420556
 30
0.0
 10
1332.464668
 20
-4566.661202
 30
0.0
  0
LWPOLYLINE
  5
161
100
AcDbEntity
  8
0
 62
7
100
AcDbPolyline
 90
5
 70
0
 10
2089.957014
 20
-4628.397313
 30
0.0
 10
2078.197746
 20
-4640.156667
 30
0.0
 10
2211.469373
 20
-4773.428209
 30
0.0
 10
2223.228641
 20
-4761.668856
 30
0.0
 10
2089.957014
 20
-4628.397313
 30
0.0
  0
LWPOLYLINE
  5
162
100
AcDbEntity
  8
0
 62
7
100
AcDbPolyline
 90
5
 70
0
 10
1395.180739
 20
-4629.377189
 30
0.0
 10
1260.929180
 20
-4762.649013
 30
0.0
 10
1272.688421
 20
-4774.408084
 30
0.0
 10
1406.939980
 20
-4641.136542
 30
0.0
 10
1395.180739
 20
-4629.377189
 30
0.0
  0
LWPOLYLINE
  5
163
100
AcDbEntity
  8
0
 62
7
100
AcDbPolyline
 90
5
 70
0
 10
2027.240971
 20
-4691.113300
 30
0.0
 10
2015.481703
 20
-4702.872653
 30
0.0
 10
2148.753330
 20
-4837.124353
 30
0.0
 10
2160.512570
 20
-4825.365000
 30
0.0
 10
2027.240971
 20
-4691.113300
 30
0.0
  0
LWPOLYLINE
  5
164
100
AcDbEntity
  8
0
 62
7
100
AcDbPolyline
 90
5
 70
0
 10
1457.896782
 20
-4692.093458
 30
0.0
 10
1324.625155
 20
-4826.344876
 30
0.0
 10
1336.384424
 20
-4838.104229
 30
0.0
 10
1469.656051
 20
-4703.852529
 30
0.0
 10
1457.896782
 20
-4692.093458
 30
0.0
  0
LWPOLYLINE
  5
165
100
AcDbEntity
  8
0
 62
7
100
AcDbPolyline
 90
5
 70
0
 10
1964.524900
 20
-4753.829569
 30
0.0
 10
1951.785699
 20
-4765.588640
 30
0.0
 10
2086.037258
 20
-4899.840340
 30
0.0
 10
2097.796527
 20
-4888.080987
 30
0.0
 10
1964.524900
 20
-4753.829569
 30
0.0
  0
LWPOLYLINE
  5
166
100
AcDbEntity
  8
0
 62
7
100
AcDbPolyline
 90
5
 70
0
 10
1520.612825
 20
-4754.809444
 30
0.0
 10
1387.341227
 20
-4888.080987
 30
0.0
 10
1399.100495
 20
-4900.820216
 30
0.0
 10
1532.372094
 20
-4766.568798
 30
0.0
 10
1520.612825
 20
-4754.809444
 30
0.0
  0
LWPOLYLINE
  5
167
100
AcDbEntity
  8
0
 62
7
100
AcDbPolyline
 90
5
 70
0
 10
1900.828925
 20
-4817.525431
 30
0.0
 10
1889.069656
 20
-4829.284784
 30
0.0
 10
2022.341283
 20
-4962.556327
 30
0.0
 10
2035.080484
 20
-4950.796973
 30
0.0
 10
1900.828925
 20
-4817.525431
 30
0.0
  0
LWPOLYLINE
  5
168
100
AcDbEntity
  8
0
 62
7
100
AcDbPolyline
 90
5
 70
0
 10
1583.328897
 20
-4818.505307
 30
0.0
 10
1450.057270
 20
-4951.777131
 30
0.0
 10
1461.816538
 20
-4963.536202
 30
0.0
 10
1595.088165
 20
-4830.264660
 30
0.0
 10
1583.328897
 20
-4818.505307
 30
0.0
  0
LWPOLYLINE
  5
169
100
AcDbEntity
  8
0
 62
7
100
AcDbPolyline
 90
5
 70
0
 10
1838.112854
 20
-4880.241418
 30
0.0
 10
1826.353613
 20
-4892.000771
 30
0.0
 10
1960.605144
 20
-5025.272313
 30
0.0
 10
1971.384480
 20
-5013.513242
 30
0.0
 10
1838.112854
 20
-4880.241418
 30
0.0
  0
LWPOLYLINE
  5
16a
100
AcDbEntity
  8
0
 62
7
100
AcDbPolyline
 90
5
 70
0
 10
1646.044940
 20
-4881.221576
 30
0.0
 10
1512.773341
 20
-5014.493118
 30
0.0
 10
1524.532582
 20
-5026.252189
 30
0.0
 10
1657.804208
 20
-4892.980647
 30
0.0
 10
1646.044940
 20
-4881.221576
 30
0.0
  0
LWPOLYLINE
  5
16b
100
AcDbEntity
  8
0
 62
7
100
AcDbPolyline
 90
5
 70
0
 10
1173.714668
 20
-4891.020896
 30
0.0
 10
1173.714668
 20
-4928.258424
 30
0.0
 10
1267.788732
 20
-4928.258424
 30
0.0
 10
1267.788732
 20
-4891.020896
 30
0.0
 10
1173.714668
 20
-4891.020896
 30
0.0
  0
LWPOLYLINE
  5
16c
100
AcDbEntity
  8
0
 62
7
100
AcDbPolyline
 90
5
 70
0
 10
2195.790348
 20
-4950.796973
 30
0.0
 10
2195.790348
 20
-5029.192098
 30
0.0
 10
2239.887598
 20
-5029.192098
 30
0.0
 10
2239.887598
 20
-4950.796973
 30
0.0
 10
2195.790348
 20
-4950.796973
 30
0.0
  0
LWPOLYLINE
  5
16d
100
AcDbEntity
  8
0
 62
7
100
AcDbPolyline
 90
5
 70
0
 10
2351.600552
 20
-4950.796973
 30
0.0
 10
2351.600552
 20
-5029.192098
 30
0.0
 10
2418.236379
 20
-5029.192098
 30
0.0
 10
2418.236379
 20
-4950.796973
 30
0.0
 10
2351.600552
 20
-4950.796973
 30
0.0
  0
LWPOLYLINE
  5
16e
100
AcDbEntity
  8
0
 62
7
100
AcDbPolyline
 90
5
 70
0
 10
2528.969401
 20
-4950.796973
 30
0.0
 10
2528.969401
 20
-5029.192098
 30
0.0
 10
2574.046555
 20
-5029.192098
 30
0.0
 10
2574.046555
 20
-4950.796973
 30
0.0
 10
2528.969401
 20
-4950.796973
 30
0.0
  0
LWPOLYLINE
  5
16f
100
AcDbEntity
  8
0
 62
7
100
AcDbPolyline
 90
5
 70
0
 10
1173.714668
 20
-5060.550091
 30
0.0
 10
1173.714668
 20
-5097.787902
 30
0.0
 10
1267.788732
 20
-5097.787902
 30
0.0
 10
1267.788732
 20
-5060.550091
 30
0.0
 10
1173.714668
 20
-5060.550091
 30
0.0
  0
LWPOLYLINE
  5
170
100
AcDbEntity
  8
0
 62
7
100
AcDbPolyline
 90
5
 70
0
 10
1136.476998
 20
-5210.480647
 30
0.0
 10
1136.476998
 20
-5343.752471
 30
0.0
 10
1270.728557
 20
-5343.752471
 30
0.0
 10
1270.728557
 20
-5210.480647
 30
0.0
 10
1136.476998
 20
-5210.480647
 30
0.0
  0
LWPOLYLINE
  5
171
100
AcDbEntity
  8
0
 62
7
100
AcDbPolyline
 90
5
 70
0
 10
2003.722434
 20
-5210.480647
 30
0.0
 10
2003.722434
 20
-5343.752471
 30
0.0
 10
2136.994061
 20
-5343.752471
 30
0.0
 10
2136.994061
 20
-5210.480647
 30
0.0
 10
2003.722434
 20
-5210.480647
 30
0.0
  0
LWPOLYLINE
  5
172
100
AcDbEntity
  8
0
 62
7
100
AcDbPolyline
 90
5
 70
0
 10
2195.790348
 20
-5284.955987
 30
0.0
 10
2195.790348
 20
-5362.371236
 30
0.0
 10
2239.887598
 20
-5362.371236
 30
0.0
 10
2239.887598
 20
-5284.955987
 30
0.0
 10
2195.790348
 20
-5284.955987
 30
0.0
  0
LWPOLYLINE
  5
173
100
AcDbEntity
  8
0
 62
7
100
AcDbPolyline
 90
5
 70
0
 10
2351.600552
 20
-5284.955987
 30
0.0
 10
2351.600552
 20
-5362.371236
 30
0.0
 10
2418.236379
 20
-5362.371236
 30
0.0
 10
2418.236379
 20
-5284.955987
 30
0.0
 10
2351.600552
 20
-5284.955987
 30
0.0
  0
LWPOLYLINE
  5
174
100
AcDbEntity
  8
0
 62
7
100
AcDbPolyline
 90
5
 70
0
 10
2528.969401
 20
-5284.955987
 30
0.0
 10
2528.969401
 20
-5362.371236
 30
0.0
 10
2574.046555
 20
-5362.371236
 30
0.0
 10
2574.046555
 20
-5284.955987
 30
0.0
 10
2528.969401
 20
-5284.955987
 30
0.0
  0
ENDSEC
  0
SECTION
  2
OBJECTS
  0
DICTIONARY
  5
C
330
0
100
AcDbDictionary
  3
ACAD_GROUP
350
D
  3
ACAD_MLINESTYLE
350
17
  0
DICTIONARY
  5
D
330
C
100
AcDbDictionary
  0
DICTIONARY
  5
1A
330
C
100
AcDbDictionary
  0
DICTIONARY
  5
17
330
C
100
AcDbDictionary
  3
STANDARD
350
18
  0
DICTIONARY
  5
19
330
C
100
AcDbDictionary
  0
ENDSEC
  0
EOF
