<?xml version="1.0" encoding="UTF-8" standalone="no"?>
<svg
   xmlns:dc="http://purl.org/dc/elements/1.1/"
   xmlns:cc="http://creativecommons.org/ns#"
   xmlns:rdf="http://www.w3.org/1999/02/22-rdf-syntax-ns#"
   xmlns:svg="http://www.w3.org/2000/svg"
   xmlns="http://www.w3.org/2000/svg"
   xmlns:sodipodi="http://sodipodi.sourceforge.net/DTD/sodipodi-0.dtd"
   xmlns:inkscape="http://www.inkscape.org/namespaces/inkscape"
   version="1.1"
   width="3.05816cm"
   height="4.89458cm"
   viewBox="0 0 12040 19270 "
   id="svg13716"
   inkscape:version="0.48.4 r9939"
   sodipodi:docname="131111_stencil.svg">
  <metadata
     id="metadata14654">
    <rdf:RDF>
      <cc:Work
         rdf:about="">
        <dc:format>image/svg+xml</dc:format>
        <dc:type
           rdf:resource="http://purl.org/dc/dcmitype/StillImage" />
        <dc:title>SVG Picture created as OLnodeV05-F_Cu.svg date 2013/11/11 13:51:29 </dc:title>
      </cc:Work>
    </rdf:RDF>
  </metadata>
  <defs
     id="defs14652" />
  <sodipodi:namedview
     pagecolor="#ffffff"
     bordercolor="#666666"
     borderopacity="1"
     objecttolerance="10"
     gridtolerance="10"
     guidetolerance="10"
     inkscape:pageopacity="0"
     inkscape:pageshadow="2"
     inkscape:window-width="1440"
     inkscape:window-height="850"
     id="namedview14650"
     showgrid="false"
     inkscape:zoom="87.089896"
     inkscape:cx="68.201914"
     inkscape:cy="20.024295"
     inkscape:window-x="0"
     inkscape:window-y="0"
     inkscape:window-maximized="1"
     inkscape:current-layer="svg13716" />
  <title
     id="title13718">SVG Picture created as OLnodeV05-F_Cu.svg date 2013/11/11 13:51:29 </title>
  <desc
     id="desc13720">Picture generated by PCBNEW </desc>
  <g
     style="fill:#000000; fill-opacity:1;stroke:#000000; stroke-opacity:1; stroke-linecap:round; stroke-linejoin:round; "
     transform="translate(0 0) scale(1 1)"
     id="g13722" />
  <g
     style="fill:#840000; fill-opacity:0.0;  stroke:#840000; stroke-width:19.685; stroke-opacity:1;  stroke-linecap:round; stroke-linejoin:round;"
     id="g13754" />
  <g
     style="fill:#840000;fill-opacity:1;stroke:#840000;stroke-width:66.92910004;stroke-linecap:round;stroke-linejoin:round;stroke-opacity:1"
     id="g14476"
     transform="translate(-115.47413,-2655.9051)">
    <path
       id="path14480"
       d="m 7302,9783 0,-11 m 0,0 0,11 m -3313,1026 431,0 0,231 -431,0 0,-231 m 0,-600 431,0 0,231 -431,0 0,-231 m 2944,-4182 -543,542 -111,-111 543,-543 111,112 m 226,226 -542,543 -112,-112 543,-542 111,111 m 227,226 -543,543 -111,-111 542,-543 112,111 m 226,226 -543,543 -111,-111 543,-543 111,111 m 219,220 -543,542 -111,-111 543,-543 111,112 m 219,219 -542,542 -112,-111 543,-542 111,111 m 227,226 -543,543 -111,-112 542,-542 112,111 m 219,219 -543,543 -111,-111 542,-543 112,111 m -4230,1116 -543,543 -111,-111 543,-543 111,111 m 222,222 -543,543 -111,-111 543,-543 111,111 m 223,224 -542,542 -112,-111 543,-543 111,112 m 222,222 -542,542 -112,-111 543,-543 111,112 m 224,223 -543,543 -111,-112 543,-542 111,111 m 222,222 -543,543 -111,-112 543,-542 111,111 m 223,224 -542,542 -112,-111 543,-543 111,112 m 222,222 -542,542 -112,-111 543,-543 111,112 m -1331,-2455 -111,111 -542,-543 111,-111 542,543 m 227,-227 -111,112 -543,-543 111,-111 543,542 m 219,-219 -111,111 -543,-542 111,-111 543,542 m 226,-226 -111,111 -543,-543 112,-111 542,543 m 219,-219 -111,111 -542,-543 111,-111 542,543 m 227,-227 -112,112 -542,-543 111,-111 543,542 m 226,-226 -111,111 -543,-542 111,-112 543,543 m -1563,1563 -111,111 -543,-543 112,-111 542,543 m 2662,2664 -111,111 -543,-542 111,-111 543,542 m 223,-223 -112,112 -542,-543 111,-111 543,542 m 222,-222 -111,111 -543,-543 112,-111 542,543 m 223,-223 -111,111 -543,-542 111,-112 543,543 m 223,-223 -111,111 -543,-542 111,-111 543,542 m 223,-223 -112,112 -542,-543 111,-111 543,542 m 222,-222 -111,111 -543,-543 112,-111 542,543 m 223,-223 -111,111 -543,-542 111,-112 543,543 m -5500,-4074 0,431 -231,0 0,-431 231,0 m 600,0 0,431 -231,0 0,-431 231,0 m -231,-169 0,-431 231,0 0,431 -231,0 m -600,0 0,-431 231,0 0,431 -231,0 m 1200,-706 431,0 0,231 -431,0 0,-231 m 0,-600 431,0 0,231 -431,0 0,-231 m -400,2656 0,-431 231,0 0,431 -231,0 m -600,0 0,-431 231,0 0,431 -231,0 m 600,675 0,-431 231,0 0,431 -231,0 m -600,0 0,-431 231,0 0,431 -231,0 m 6156,-1925 -431,0 0,-231 431,0 0,231 m 0,600 -431,0 0,-231 431,0 0,231 m -706,819 431,0 0,231 -431,0 0,-231 m 0,-600 431,0 0,231 -431,0 0,-231 m -5419,-1950 0,431 -231,0 0,-431 231,0 m 600,0 0,431 -231,0 0,-431 231,0 m 4016,6937 0,-374 256,0 0,374 -256,0 m 551,0 0,-374 335,0 0,374 -335,0 m 630,0 0,-374 256,0 0,374 -256,0 m 0,1181 0,-374 256,0 0,374 -256,0 m -630,0 0,-374 335,0 0,374 -335,0 m -551,0 0,-374 256,0 0,374 -256,0 m -3181,-638 0,571 -571,0 0,-571 571,0 m 3070,0 0,571 -570,0 0,-571 570,0"
       inkscape:connector-curvature="0" />
  </g>
  <g
     style="fill:#FFFFFF; fill-opacity:0.0;  stroke:#FFFFFF; stroke-width:19.685; stroke-opacity:1;  stroke-linecap:round; stroke-linejoin:round;"
     id="g14490" />
  <path
     style="fill:#ff00ff;fill-opacity:1;stroke:none"
     d="m 4134.5259,10878.818 0,131.945 333.3334,0 0,-131.945 z m -1201.389,274.306 0,333.333 131.9445,0 0,-333.333 z m 600.6945,0 0,333.333 131.9445,0 0,-333.333 z m 600.6945,326.389 0,131.944 333.3334,0 0,-131.944 z m -1201.389,274.305 0,333.334 131.9445,0 0,-333.334 z m 600.6945,0 0,333.334 131.9445,0 0,-333.334 z m 5326.3893,298.611 0,135.417 329.8612,0 0,-135.417 z m -5927.0838,302.084 0,333.333 131.9445,0 0,-333.333 z m 600.6945,0 0,333.333 131.9445,0 0,-333.333 z m 5326.3893,298.611 0,131.944 329.8612,0 0,-131.944 z m -5725.6949,451.389 0,333.333 131.9445,0 0,-333.333 z m 600.6945,0 0,333.333 131.9445,0 0,-333.333 z m 4847.2226,0 0,131.944 333.3334,0 0,-131.944 z m -1638.889,125 -475.6945,475.694 41.6667,41.667 475.6945,-475.694 z m -1527.7779,6.944 -41.6666,41.667 472.2222,475.694 41.6667,-41.666 z m 1753.4724,222.223 -475.6945,472.222 45.1389,41.666 472.2223,-472.222 z m -1979.1668,6.944 -41.6667,41.667 472.2222,472.222 41.6667,-41.667 z m 2204.8612,218.75 -472.2222,472.222 41.6667,41.667 472.2222,-472.222 z m -2434.0279,6.944 -41.6667,41.667 475.6945,472.222 38.1944,-41.666 z m 3621.528,13.889 0,131.945 333.3334,0 0,-131.945 z m -5447.9171,72.917 0,333.333 131.9445,0 0,-333.333 z m 600.6945,0 0,333.333 131.9445,0 0,-333.333 z m 1006.9446,131.944 -41.6667,41.667 472.2222,472.222 41.6667,-41.666 z m 2878.4724,0 -472.2223,472.223 41.6667,41.666 472.2223,-472.222 z m 218.75,218.751 -472.2222,472.222 41.6666,41.666 472.2223,-472.222 z m -3322.9169,6.944 -41.6667,41.667 472.2223,472.222 41.6667,-41.667 z m 3541.6669,211.806 -472.2222,472.222 41.6667,41.666 472.2222,-472.222 z m -3760.4169,6.944 -41.6667,41.667 472.2223,472.222 41.6666,-41.667 z m 3986.1114,218.75 -472.2223,472.222 41.6667,45.139 475.6945,-475.694 z m -4211.8059,6.944 -41.6667,41.667 472.2223,475.695 41.6667,-41.667 z m 4434.0281,211.806 -475.6944,475.694 41.6666,41.667 475.6945,-475.694 z m -4652.7781,6.944 -41.6667,41.667 472.2223,475.695 41.6667,-41.667 z m 4218.7503,1107.639 -41.6666,41.667 475.6944,472.222 38.1945,-41.666 z m -3795.1392,3.473 -475.6944,472.222 41.6666,41.667 472.2223,-472.223 z m 3572.917,218.75 -41.6667,41.666 472.2223,472.223 41.6667,-41.667 z m -3350.6947,3.472 -475.6945,472.222 41.6667,41.667 472.2222,-472.222 z m 3128.4725,218.75 -41.6667,41.667 472.2222,472.222 41.6667,-41.667 z m -2906.2503,3.472 -475.6945,472.222 45.1389,41.667 472.2223,-472.222 z m 2684.028,218.75 -41.6667,41.667 472.2223,472.222 41.6667,-41.667 z m -2461.8057,3.472 -475.6945,472.223 41.6666,41.666 475.6945,-472.222 z m 2239.5835,218.75 -41.6667,41.667 472.2223,475.695 41.6666,-41.667 z m -2017.3613,3.473 -472.2223,475.694 41.6667,41.667 472.2223,-475.695 z m 1795.139,218.75 -45.1389,41.666 475.6945,475.695 41.6667,-41.667 z m -1572.9168,3.472 -472.2222,472.222 41.6667,45.139 472.2222,-475.694 z m 1347.2224,222.222 -41.6667,41.667 472.2223,472.222 45.1389,-41.667 z m -1125.0001,3.472 -472.2223,472.223 41.6667,41.666 472.2223,-472.222 z m 902.7778,218.75 -41.6666,41.667 475.6944,472.222 38.1945,-41.666 z m -680.5556,3.473 -472.2222,472.222 41.6666,41.666 472.2223,-472.222 z m -1673.6112,34.722 0,131.944 333.3333,0 0,-131.944 z m 3621.528,211.805 0,277.778 156.2501,0 0,-277.778 z m 552.0834,0 0,277.778 236.1112,0 0,-277.778 z m 628.4723,0 0,277.778 159.7222,0 0,-277.778 z m -4802.0837,388.889 0,131.945 333.3333,0 0,-131.945 z m -131.9445,531.25 0,472.223 475.6945,0 0,-472.223 z m 3072.9169,0 0,472.223 472.2223,0 0,-472.223 z m 680.5556,263.889 0,274.306 156.2501,0 0,-274.306 z m 552.0834,0 0,274.306 236.1112,0 0,-274.306 z m 628.4723,0 0,274.306 159.7222,0 0,-274.306 z"
     id="path14480-8"
     inkscape:connector-curvature="0"
     sodipodi:nodetypes="cccccccccccccccccccccccccccccccccccccccccccccccccccccccccccccccccccccccccccccccccccccccccccccccccccccccccccccccccccccccccccccccccccccccccccccccccccccccccccccccccccccccccccccccccccccccccccccccccccccccccccccccccccccccccccccccccccccccccccccccccccccccccccccccccccccccccccccccccccccccccccccccccc" />
  <text
     xml:space="preserve"
     style="font-size:1951.12878418px;font-style:normal;font-variant:normal;font-weight:normal;font-stretch:normal;line-height:125%;letter-spacing:0px;word-spacing:0px;fill:#000000;fill-opacity:1;stroke:none;font-family:Arial;-inkscape-font-specification:Arial"
     x="-6239.4238"
     y="3339.6526"
     id="text15385"
     sodipodi:linespacing="125%"><tspan
       sodipodi:role="line"
       id="tspan15387"
       x="-6239.4238"
       y="3339.6526">original</tspan></text>
  <text
     xml:space="preserve"
     style="font-size:1687.70812988px;font-style:normal;font-variant:normal;font-weight:normal;font-stretch:normal;line-height:125%;letter-spacing:0px;word-spacing:0px;fill:#000000;fill-opacity:1;stroke:none;font-family:Arial;-inkscape-font-specification:Arial"
     x="-10826.76"
     y="13102.658"
     id="text15389"
     sodipodi:linespacing="125%"><tspan
       sodipodi:role="line"
       id="tspan15391"
       x="-10826.76"
       y="13102.658">0,25mm Border</tspan></text>
</svg>
