<?xml version="1.0" standalone="no"?>
 <!DOCTYPE svg PUBLIC "-//W3C//DTD SVG 1.1//EN" 
 "http://www.w3.org/Graphics/SVG/1.1/DTD/svg11.dtd"> 
<svg xmlns="http://www.w3.org/2000/svg" version="1.1" 
    width="3.05816cm" height="4.89458cm" viewBox="0 0 12040 19270 ">
<title>SVG Picture created as OLnodeV05-F_SilkS.svg date 2013/11/11 13:51:29 </title>
  <desc>Picture generated by PCBNEW </desc>
<g style="fill:#000000; fill-opacity:1;stroke:#000000; stroke-opacity:1;
stroke-linecap:round; stroke-linejoin:round; "
 transform="translate(0 0) scale(1 1)">
</g>
<g style="fill:#008484; fill-opacity:0.0; 
stroke:#008484; stroke-width:78.7402; stroke-opacity:1; 
stroke-linecap:round; stroke-linejoin:round;">
<path d="M4955 13475
L4955 14500
" />
<path d="M3955 14000
L8955 14000
" />
<path d="M4955 13075
L4930 13075
" />
<path d="M4930 13075
L4905 13075
" />
<path d="M5955 15000
L5955 13075
" />
<path d="M5955 15000
L3980 15000
" />
</g>
<g style="fill:#C1C100; fill-opacity:0.0; 
stroke:#C1C100; stroke-width:59.0551; stroke-opacity:1; 
stroke-linecap:round; stroke-linejoin:round;">
<path d="M3005 1350
L3005 2900
" />
<path d="M9105 1350
L3005 1350
" />
<path d="M9105 2850
L9105 1350
" />
<path d="M6905 2850
L9105 2850
" />
</g>
<g style="fill:#008484; fill-opacity:0.0; 
stroke:#008484; stroke-width:59.0551; stroke-opacity:1; 
stroke-linecap:round; stroke-linejoin:round;">
<path d="M3272 1467
L3242 1452
L3197 1452
L3152 1467
L3122 1497
L3107 1527
L3092 1587
L3092 1632
L3107 1692
L3122 1722
L3152 1752
L3197 1767
L3227 1767
L3272 1752
L3287 1737
L3287 1632
L3227 1632
" />
<path d="M3422 1767
L3422 1452
L3602 1767
L3602 1452
" />
<path d="M3752 1767
L3752 1452
L3827 1452
L3872 1467
L3902 1497
L3917 1527
L3932 1587
L3932 1632
L3917 1692
L3902 1722
L3872 1752
L3827 1767
L3752 1767
" />
<path d="M4487 1767
L4382 1617
" />
<path d="M4307 1767
L4307 1452
L4427 1452
L4457 1467
L4472 1482
L4487 1512
L4487 1557
L4472 1587
L4457 1602
L4427 1617
L4307 1617
" />
<path d="M4607 1752
L4652 1767
L4727 1767
L4757 1752
L4772 1737
L4787 1707
L4787 1677
L4772 1647
L4757 1632
L4727 1617
L4667 1602
L4637 1587
L4622 1572
L4607 1542
L4607 1512
L4622 1482
L4637 1467
L4667 1452
L4742 1452
L4787 1467
" />
<path d="M4877 1452
L5057 1452
" />
<path d="M4967 1767
L4967 1452
" />
<path d="M5402 1767
L5402 1452
L5507 1677
L5612 1452
L5612 1767
" />
<path d="M5822 1452
L5882 1452
L5912 1467
L5942 1497
L5957 1557
L5957 1662
L5942 1722
L5912 1752
L5882 1767
L5822 1767
L5792 1752
L5762 1722
L5747 1662
L5747 1557
L5762 1497
L5792 1467
L5822 1452
" />
<path d="M6317 1752
L6362 1767
L6437 1767
L6467 1752
L6482 1737
L6497 1707
L6497 1677
L6482 1647
L6467 1632
L6437 1617
L6377 1602
L6347 1587
L6332 1572
L6317 1542
L6317 1512
L6332 1482
L6347 1467
L6377 1452
L6452 1452
L6497 1467
" />
<path d="M6812 1737
L6797 1752
L6752 1767
L6722 1767
L6677 1752
L6647 1722
L6632 1692
L6617 1632
L6617 1587
L6632 1527
L6647 1497
L6677 1467
L6722 1452
L6752 1452
L6797 1467
L6812 1482
" />
<path d="M6947 1767
L6947 1452
" />
<path d="M7127 1767
L6992 1587
" />
<path d="M7127 1452
L6947 1632
" />
<path d="M7457 1452
L7562 1767
L7667 1452
" />
<path d="M7952 1737
L7937 1752
L7892 1767
L7862 1767
L7817 1752
L7787 1722
L7772 1692
L7757 1632
L7757 1587
L7772 1527
L7787 1497
L7817 1467
L7862 1452
L7892 1452
L7937 1467
L7952 1482
" />
<path d="M8267 1737
L8252 1752
L8207 1767
L8177 1767
L8132 1752
L8102 1722
L8087 1692
L8072 1632
L8072 1587
L8087 1527
L8102 1497
L8132 1467
L8177 1452
L8207 1452
L8252 1467
L8267 1482
" />
<path d="M8642 1767
L8642 1452
L8747 1677
L8852 1452
L8852 1767
" />
<path d="M9002 1767
L9002 1452
" />
</g>
<g style="fill:#C1C100; fill-opacity:0.0; 
stroke:#C1C100; stroke-width:59.0551; stroke-opacity:1; 
stroke-linecap:round; stroke-linejoin:round;">
<path d="M5230 2900
L3005 2900
" />
</g>
<g style="fill:#008484; fill-opacity:0.0; 
stroke:#008484; stroke-width:59.0551; stroke-opacity:1; 
stroke-linecap:round; stroke-linejoin:round;">
<path d="M9132 18914
L9132 18732
" />
<path d="M9222 18950
L8907 18823
L9222 18695
" />
<path d="M8907 18495
L8907 18459
L8922 18423
L8937 18404
L8967 18386
L9027 18368
L9102 18368
L9162 18386
L9192 18404
L9207 18423
L9222 18459
L9222 18495
L9207 18532
L9192 18550
L9162 18568
L9102 18586
L9027 18586
L8967 18568
L8937 18550
L8922 18532
L8907 18495
" />
<path d="M9222 17913
L8907 17913
L8907 17823
L8922 17768
L8952 17732
L8982 17713
L9042 17695
L9087 17695
L9147 17713
L9177 17732
L9207 17768
L9222 17823
L9222 17913
" />
<path d="M8907 17350
L8907 17532
L9057 17550
L9042 17532
L9027 17495
L9027 17404
L9042 17368
L9057 17350
L9087 17332
L9162 17332
L9192 17350
L9207 17368
L9222 17404
L9222 17495
L9207 17532
L9192 17550
" />
<path d="M9222 16877
L8907 16877
L8907 16786
L8922 16731
L8952 16695
L8982 16677
L9042 16659
L9087 16659
L9147 16677
L9177 16695
L9207 16731
L9222 16786
L9222 16877
" />
<path d="M9012 16331
L9222 16331
" />
<path d="M8892 16422
L9117 16513
L9117 16277
" />
<path d="M9222 15840
L8907 15840
L8907 15749
L8922 15695
L8952 15659
L8982 15640
L9042 15622
L9087 15622
L9147 15640
L9177 15659
L9207 15695
L9222 15749
L9222 15840
" />
<path d="M8907 15495
L8907 15258
L9027 15386
L9027 15331
L9042 15295
L9057 15277
L9087 15258
L9162 15258
L9192 15277
L9207 15295
L9222 15331
L9222 15440
L9207 15477
L9192 15495
" />
<path d="M9222 14804
L8907 14804
L8907 14713
L8922 14658
L8952 14622
L8982 14604
L9042 14586
L9087 14586
L9147 14604
L9177 14622
L9207 14658
L9222 14713
L9222 14804
" />
<path d="M9222 14222
L9222 14440
" />
<path d="M9222 14331
L8907 14331
L8952 14367
L8982 14404
L8997 14440
" />
<path d="M9222 13767
L8907 13767
L8907 13676
L8922 13622
L8952 13585
L8982 13567
L9042 13549
L9087 13549
L9147 13567
L9177 13585
L9207 13622
L9222 13676
L9222 13767
" />
<path d="M8907 13313
L8907 13276
L8922 13240
L8937 13222
L8967 13204
L9027 13185
L9102 13185
L9162 13204
L9192 13222
L9207 13240
L9222 13276
L9222 13313
L9207 13349
L9192 13367
L9162 13385
L9102 13404
L9027 13404
L8967 13385
L8937 13367
L8922 13349
L8907 13313
" />
</g>
<g style="fill:#C1C100; fill-opacity:0.0; 
stroke:#C1C100; stroke-width:59.0551; stroke-opacity:1; 
stroke-linecap:round; stroke-linejoin:round;">
<path d="M9455 19050
L9455 3300
" />
<path d="M6905 3300
L9455 3300
" />
<path d="M5230 3300
L2455 3300
" />
<path d="M5430.05 3100 A200 200 0.0 0 0 5230.05 2900 " />
<path d="M5230.05 3300 A200 200 0.0 0 0 5430.05 3100 " />
<path d="M6905.05 2850 A225 225 0.0 0 0 6680.05 3075 " />
<path d="M6680.05 3075 A225 225 0.0 0 0 6905.05 3300 " />
</g>
<g style="fill:#008484; fill-opacity:0.0; 
stroke:#008484; stroke-width:78.7402; stroke-opacity:1; 
stroke-linecap:round; stroke-linejoin:round;">
<path d="M9055 13075
L9455 13075
" />
<path d="M8455 13075
L8855 13075
" />
<path d="M7855 13075
L8255 13075
" />
<path d="M7255 13075
L7655 13075
" />
<path d="M6655 13075
L7055 13075
" />
<path d="M6055 13075
L6455 13075
" />
<path d="M5455 13075
L5855 13075
" />
<path d="M4855 13075
L5255 13075
" />
<path d="M4255 13075
L4655 13075
" />
<path d="M3655 13075
L4055 13075
" />
<path d="M3055 13075
L3455 13075
" />
<path d="M2455 13075
L2855 13075
" />
</g>
<g style="fill:#C1C100; fill-opacity:0.0; 
stroke:#C1C100; stroke-width:59.0551; stroke-opacity:1; 
stroke-linecap:round; stroke-linejoin:round;">
<path d="M9455 19050
L2455 19050
" />
<path d="M2455 19050
L2455 3300
" />
</g>
<g style="fill:#008484; fill-opacity:0.0; 
stroke:#008484; stroke-width:59.0551; stroke-opacity:1; 
stroke-linecap:round; stroke-linejoin:round;">
<path d="M2720 11817
L2685 11802
L2633 11802
L2581 11817
L2546 11847
L2529 11877
L2511 11937
L2511 11982
L2529 12042
L2546 12072
L2581 12102
L2633 12117
L2668 12117
L2720 12102
L2738 12087
L2738 11982
L2668 11982
" />
<path d="M2895 12117
L2895 11802
L3104 12117
L3104 11802
" />
<path d="M3278 12117
L3278 11802
L3365 11802
L3418 11817
L3453 11847
L3470 11877
L3487 11937
L3487 11982
L3470 12042
L3453 12072
L3418 12102
L3365 12117
L3278 12117
" />
<path d="M3923 12117
L3923 11802
L4011 11802
L4063 11817
L4098 11847
L4115 11877
L4133 11937
L4133 11982
L4115 12042
L4098 12072
L4063 12102
L4011 12117
L3923 12117
" />
<path d="M4359 11802
L4394 11802
L4429 11817
L4446 11832
L4464 11862
L4481 11922
L4481 11997
L4464 12057
L4446 12087
L4429 12102
L4394 12117
L4359 12117
L4324 12102
L4307 12087
L4289 12057
L4272 11997
L4272 11922
L4289 11862
L4307 11832
L4324 11817
L4359 11802
" />
<path d="M4917 12117
L4917 11802
L5004 11802
L5057 11817
L5092 11847
L5109 11877
L5126 11937
L5126 11982
L5109 12042
L5092 12072
L5057 12102
L5004 12117
L4917 12117
" />
<path d="M5475 12117
L5266 12117
" />
<path d="M5370 12117
L5370 11802
L5336 11847
L5301 11877
L5266 11892
" />
<path d="M5911 12117
L5911 11802
L5998 11802
L6050 11817
L6085 11847
L6103 11877
L6120 11937
L6120 11982
L6103 12042
L6085 12072
L6050 12102
L5998 12117
L5911 12117
" />
<path d="M6242 11802
L6469 11802
L6347 11922
L6399 11922
L6434 11937
L6451 11952
L6469 11982
L6469 12057
L6451 12087
L6434 12102
L6399 12117
L6295 12117
L6260 12102
L6242 12087
" />
<path d="M6905 12117
L6905 11802
L6992 11802
L7044 11817
L7079 11847
L7097 11877
L7114 11937
L7114 11982
L7097 12042
L7079 12072
L7044 12102
L6992 12117
L6905 12117
" />
<path d="M7428 11907
L7428 12117
" />
<path d="M7341 11787
L7253 12012
L7480 12012
" />
<path d="M7899 12117
L7899 11802
L7986 11802
L8038 11817
L8073 11847
L8090 11877
L8108 11937
L8108 11982
L8090 12042
L8073 12072
L8038 12102
L7986 12117
L7899 12117
" />
<path d="M8439 11802
L8265 11802
L8247 11952
L8265 11937
L8300 11922
L8387 11922
L8422 11937
L8439 11952
L8457 11982
L8457 12057
L8439 12087
L8422 12102
L8387 12117
L8300 12117
L8265 12102
L8247 12087
" />
<path d="M8875 12027
L9049 12027
" />
<path d="M8840 12117
L8962 11802
L9084 12117
" />
<path d="M9276 11802
L9311 11802
L9346 11817
L9363 11832
L9381 11862
L9398 11922
L9398 11997
L9381 12057
L9363 12087
L9346 12102
L9311 12117
L9276 12117
L9241 12102
L9224 12087
L9206 12057
L9189 11997
L9189 11922
L9206 11862
L9224 11832
L9241 11817
L9276 11802
" />
<path d="M2752 8900
L2737 8945
L2722 8960
L2692 8975
L2647 8975
L2617 8960
L2602 8945
L2587 8915
L2587 8795
L2902 8795
L2902 8900
L2887 8930
L2872 8945
L2842 8960
L2812 8960
L2782 8945
L2767 8930
L2752 8900
L2752 8795
" />
<path d="M2587 9244
L2752 9244
L2782 9229
L2797 9200
L2797 9140
L2782 9110
" />
<path d="M2602 9244
L2587 9214
L2587 9140
L2602 9110
L2632 9095
L2662 9095
L2692 9110
L2707 9140
L2707 9214
L2722 9244
" />
<path d="M2797 9349
L2797 9469
" />
<path d="M2902 9394
L2632 9394
L2602 9409
L2587 9439
L2587 9469
" />
<path d="M2797 9529
L2797 9649
" />
<path d="M2902 9574
L2632 9574
L2602 9589
L2587 9619
L2587 9649
" />
<path d="M8645 3652
L8795 3652
" />
<path d="M8615 3742
L8720 3427
L8825 3742
" />
<path d="M8930 3742
L8930 3427
L9110 3742
L9110 3427
" />
<path d="M9215 3427
L9395 3427
" />
<path d="M9305 3742
L9305 3427
" />
<path d="M2682 10225
L2682 10465
" />
<path d="M2562 10345
L2802 10345
" />
<path d="M2682 11334
L2682 11574
" />
<path d="M2777 13297
L2777 13479
" />
<path d="M2687 13260
L3002 13388
L2687 13515
" />
<path d="M2687 13842
L2687 13624
" />
<path d="M2687 13733
L3002 13733
L2957 13697
L2927 13660
L2912 13624
" />
<path d="M2777 14279
L2777 14461
" />
<path d="M2687 14242
L3002 14370
L2687 14497
" />
<path d="M2972 14606
L2987 14624
L3002 14661
L3002 14752
L2987 14788
L2972 14806
L2942 14824
L2912 14824
L2867 14806
L2687 14588
L2687 14824
" />
<path d="M2777 15261
L2777 15443
" />
<path d="M2687 15224
L3002 15352
L2687 15479
" />
<path d="M3002 15570
L3002 15806
L2882 15679
L2882 15734
L2867 15770
L2852 15788
L2822 15806
L2747 15806
L2717 15788
L2702 15770
L2687 15734
L2687 15624
L2702 15588
L2717 15570
" />
<path d="M2777 16243
L2777 16425
" />
<path d="M2687 16206
L3002 16334
L2687 16461
" />
<path d="M2897 16752
L2687 16752
" />
<path d="M3017 16661
L2792 16570
L2792 16806
" />
<path d="M2777 17225
L2777 17407
" />
<path d="M2687 17188
L3002 17316
L2687 17443
" />
<path d="M3002 17752
L3002 17570
L2852 17552
L2867 17570
L2882 17607
L2882 17698
L2867 17734
L2852 17752
L2822 17770
L2747 17770
L2717 17752
L2702 17734
L2687 17698
L2687 17607
L2702 17570
L2717 17552
" />
<path d="M2777 18207
L2777 18389
" />
<path d="M2687 18170
L3002 18298
L2687 18425
" />
<path d="M3002 18516
L3002 18770
L2687 18607
" />
<path d="M5155 11784
L5211 11803
L5305 11803
L5342 11784
L5361 11765
L5380 11728
L5380 11690
L5361 11653
L5342 11634
L5305 11615
L5230 11596
L5192 11578
L5173 11559
L5155 11521
L5155 11484
L5173 11446
L5192 11428
L5230 11409
L5323 11409
L5380 11428
" />
<path d="M5511 11409
L5605 11803
L5680 11521
L5755 11803
L5848 11409
" />
<path d="M6204 11803
L5980 11803
" />
<path d="M6092 11803
L6092 11409
L6055 11465
L6017 11503
L5980 11521
" />
<path d="M5155 11784
L5211 11803
L5305 11803
L5342 11784
L5361 11765
L5380 11728
L5380 11690
L5361 11653
L5342 11634
L5305 11615
L5230 11596
L5192 11578
L5173 11559
L5155 11521
L5155 11484
L5173 11446
L5192 11428
L5230 11409
L5323 11409
L5380 11428
" />
<path d="M5511 11409
L5605 11803
L5680 11521
L5755 11803
L5848 11409
" />
<path d="M6204 11803
L5980 11803
" />
<path d="M6092 11803
L6092 11409
L6055 11465
L6017 11503
L5980 11521
" />
<path d="M8011 10984
L8273 11378
" />
<path d="M8273 10984
L8011 11378
" />
<path d="M8630 11378
L8405 11378
" />
<path d="M8517 11378
L8517 10984
L8480 11040
L8442 11078
L8405 11096
" />
</g>
<g style="fill:#008484; fill-opacity:0.0; 
stroke:#008484; stroke-width:45; stroke-opacity:1; 
stroke-linecap:round; stroke-linejoin:round;">
<path d="M3150 4146
L3141 4155
L3115 4165
L3098 4165
L3072 4155
L3055 4136
L3047 4117
L3038 4079
L3038 4051
L3047 4013
L3055 3994
L3072 3975
L3098 3965
L3115 3965
L3141 3975
L3150 3984
" />
<path d="M3321 4165
L3218 4165
" />
<path d="M3270 4165
L3270 3965
L3252 3994
L3235 4013
L3218 4022
" />
<path d="M8720 6255
L8625 6315
" />
<path d="M8720 6357
L8520 6357
L8520 6289
L8530 6272
L8539 6263
L8558 6255
L8587 6255
L8606 6263
L8615 6272
L8625 6289
L8625 6357
" />
<path d="M8587 6100
L8720 6100
" />
<path d="M8511 6143
L8653 6186
L8653 6075
" />
<path d="M8995 5307
L8795 5307
L8795 5265
L8805 5239
L8824 5222
L8843 5213
L8881 5205
L8909 5205
L8947 5213
L8966 5222
L8986 5239
L8995 5265
L8995 5307
" />
<path d="M8995 5033
L8995 5136
" />
<path d="M8995 5085
L8795 5085
L8824 5102
L8843 5119
L8852 5136
" />
<path d="M3350 6771
L3341 6780
L3315 6790
L3298 6790
L3272 6780
L3255 6761
L3247 6742
L3238 6704
L3238 6676
L3247 6638
L3255 6619
L3272 6600
L3298 6590
L3315 6590
L3341 6600
L3350 6609
" />
<path d="M3418 6609
L3427 6600
L3444 6590
L3487 6590
L3504 6600
L3512 6609
L3521 6628
L3521 6647
L3512 6676
L3410 6790
L3521 6790
" />
<path d="M3350 6096
L3341 6105
L3315 6115
L3298 6115
L3272 6105
L3255 6086
L3247 6067
L3238 6029
L3238 6001
L3247 5963
L3255 5944
L3272 5925
L3298 5915
L3315 5915
L3341 5925
L3350 5934
" />
<path d="M3410 5915
L3521 5915
L3461 5991
L3487 5991
L3504 6001
L3512 6010
L3521 6029
L3521 6077
L3512 6096
L3504 6105
L3487 6115
L3435 6115
L3418 6105
L3410 6096
" />
<path d="M4270 4030
L4175 4090
" />
<path d="M4270 4132
L4070 4132
L4070 4064
L4080 4047
L4089 4038
L4108 4030
L4137 4030
L4156 4038
L4165 4047
L4175 4064
L4175 4132
" />
<path d="M4070 3970
L4070 3858
L4146 3918
L4146 3892
L4156 3875
L4165 3867
L4184 3858
L4232 3858
L4251 3867
L4261 3875
L4270 3892
L4270 3944
L4261 3961
L4251 3970
" />
<path d="M3150 4765
L3090 4670
" />
<path d="M3047 4765
L3047 4565
L3115 4565
L3132 4575
L3141 4584
L3150 4603
L3150 4632
L3141 4651
L3132 4660
L3115 4670
L3047 4670
" />
<path d="M3321 4765
L3218 4765
" />
<path d="M3270 4765
L3270 4565
L3252 4594
L3235 4613
L3218 4622
" />
<path d="M3150 5365
L3090 5270
" />
<path d="M3047 5365
L3047 5165
L3115 5165
L3132 5175
L3141 5184
L3150 5203
L3150 5232
L3141 5251
L3132 5260
L3115 5270
L3047 5270
" />
<path d="M3218 5184
L3227 5175
L3244 5165
L3287 5165
L3304 5175
L3312 5184
L3321 5203
L3321 5222
L3312 5251
L3210 5365
L3321 5365
" />
<path d="M4276 10655
L4286 10663
L4295 10689
L4295 10706
L4286 10732
L4266 10749
L4247 10757
L4209 10766
L4181 10766
L4143 10757
L4124 10749
L4105 10732
L4095 10706
L4095 10689
L4105 10663
L4114 10655
" />
<path d="M4162 10500
L4295 10500
" />
<path d="M4086 10543
L4228 10586
L4228 10475
" />
</g>
<g style="fill:#008484; fill-opacity:0.0; 
stroke:#008484; stroke-width:62.9921; stroke-opacity:1; 
stroke-linecap:round; stroke-linejoin:round;">
<path d="M7955 13000
L8955 13000
" />
<path d="M7955 13000
L7955 19000
" />
<path d="M8955 19000
L7955 19000
" />
<path d="M7955 14000
L7955 13000
" />
<path d="M3955 13000
L3955 14000
" />
</g>
<g style="fill:#008484; fill-opacity:0.0; 
stroke:#008484; stroke-width:120; stroke-opacity:1; 
stroke-linecap:round; stroke-linejoin:round;">
<path d="M9055 1875
L9055 2875
" />
<path d="M9055 2875
L3055 2875
" />
<path d="M3055 2875
L3055 1875
" />
<path d="M3055 1875
L9055 1875
" />
<path d="M8055 1875
L8055 2875
" />
</g>
<g style="fill:#008484; fill-opacity:0.0; 
stroke:#008484; stroke-width:62.9921; stroke-opacity:1; 
stroke-linecap:round; stroke-linejoin:round;">
<path d="M6861 12215
L4498 12215
" />
<path d="M4498 12215
L4498 11034
" />
<path d="M4498 11034
L6861 11034
" />
<path d="M6861 11034
L6861 12215
" />
<path d="M3955 13000
L3955 19000
" />
<path d="M2955 13000
L3955 13000
" />
<path d="M3955 19000
L2955 19000
" />
</g>
<g style="fill:#008484; fill-opacity:0.0; 
stroke:#008484; stroke-width:120; stroke-opacity:1; 
stroke-linecap:round; stroke-linejoin:round;">
<path d="M8555 5675
L4555 5675
" />
<path d="M4555 5675
L4555 3675
" />
<path d="M4555 3675
L8555 3675
" />
<path d="M8555 3675
L8555 5675
" />
</g>
<g style="fill:#008484; fill-opacity:0.0; 
stroke:#008484; stroke-width:59.0551; stroke-opacity:1; 
stroke-linecap:round; stroke-linejoin:round;">
<path d="M7542 10609
L9117 10609
" />
<path d="M9117 10609
L9117 11790
" />
<path d="M9117 11790
L7542 11790
" />
<path d="M7542 11790
L7542 10609
" />
</g>
<g style="fill:#008484; fill-opacity:0.0; 
stroke:#008484; stroke-width:50; stroke-opacity:1; 
stroke-linecap:round; stroke-linejoin:round;">
<path d="M3630 4325
L2730 4325
" />
<path d="M2730 4325
L2730 3825
" />
<path d="M2730 3825
L3630 3825
" />
<path d="M3630 3825
L3630 4325
" />
<path d="M8880 5775
L8880 6675
" />
<path d="M8880 6675
L8380 6675
" />
<path d="M8380 6675
L8380 5775
" />
<path d="M8380 5775
L8880 5775
" />
<path d="M8655 5625
L8655 4725
" />
<path d="M8655 4725
L9155 4725
" />
<path d="M9155 4725
L9155 5625
" />
<path d="M9155 5625
L8655 5625
" />
<path d="M2930 6450
L3830 6450
" />
<path d="M3830 6450
L3830 6950
" />
<path d="M3830 6950
L2930 6950
" />
<path d="M2930 6950
L2930 6450
" />
<path d="M2930 5775
L3830 5775
" />
<path d="M3830 5775
L3830 6275
" />
<path d="M3830 6275
L2930 6275
" />
<path d="M2930 6275
L2930 5775
" />
<path d="M4430 3550
L4430 4450
" />
<path d="M4430 4450
L3930 4450
" />
<path d="M3930 4450
L3930 3550
" />
<path d="M3930 3550
L4430 3550
" />
<path d="M2730 4425
L3630 4425
" />
<path d="M3630 4425
L3630 4925
" />
<path d="M3630 4925
L2730 4925
" />
<path d="M2730 4925
L2730 4425
" />
<path d="M3630 5525
L2730 5525
" />
<path d="M2730 5525
L2730 5025
" />
<path d="M2730 5025
L3630 5025
" />
<path d="M3630 5025
L3630 5525
" />
</g>
<g style="fill:#008484; fill-opacity:0.0; 
stroke:#008484; stroke-width:60; stroke-opacity:1; 
stroke-linecap:round; stroke-linejoin:round;">
<path d="M5425 6179
L5743 6497
" />
<path d="M3884 7720
L4195 8031
" />
<path d="M5425 6179
L3884 7720
" />
<path d="M6380 6469
L6684 6165
" />
<path d="M7950 8024
L8247 7727
" />
<path d="M8254 7734
L6691 6157
" />
<path d="M5432 10527
L3891 9000
" />
<path d="M6224 10344
L8225 8342
" />
<path d="M3891 8986
L4181 8696
" />
<path d="M5878 10336
L3912 8371
" />
<path d="M6076 6179
L3926 8328
" />
<path d="M8232 8335
L6111 6214
" />
<path d="M6663 10542
L8232 8972
" />
<path d="M8232 8972
L7914 8654
" />
<path d="M6214 10348
L5889 10348
" />
<path d="M6661 10540
L6342 10221
" />
<path d="M5750 10209
L5431 10529
" />
<circle cx="6049.4" cy="9936.75" r="188.68" /> 
</g>
<g style="fill:#008484; fill-opacity:0.0; 
stroke:#008484; stroke-width:50; stroke-opacity:1; 
stroke-linecap:round; stroke-linejoin:round;">
<path d="M4455 10175
L4455 11075
" />
<path d="M4455 11075
L3955 11075
" />
<path d="M3955 11075
L3955 10175
" />
<path d="M3955 10175
L4455 10175
" />
</g>
<g style="fill:#840000; fill-opacity:0.0; 
stroke:#840000; stroke-width:19.685; stroke-opacity:1; 
stroke-linecap:round; stroke-linejoin:round;">
</g>
<g style="fill:#840000; fill-opacity:1.0; 
stroke:#840000; stroke-width:19.685; stroke-opacity:1; 
stroke-linecap:round; stroke-linejoin:round;">
<circle cx="8455.05" cy="13500" r="290.157" /> 
<circle cx="8455.05" cy="14500" r="290.157" /> 
<circle cx="8455.05" cy="15500" r="290.157" /> 
<circle cx="8455.05" cy="16500" r="290.157" /> 
<circle cx="8455.05" cy="17500" r="290.157" /> 
<circle cx="8455.05" cy="18500" r="290.157" /> 
<polyline style="fill-rule:evenodd;"
points="7745,13209
7745,13790
7164,13790
7164,13209
7745,13209
" /> 
<polyline style="fill-rule:evenodd;"
points="6745,13209
6745,13790
6164,13790
6164,13209
6745,13209
" /> 
<circle cx="5455.05" cy="13500" r="290.157" /> 
<circle cx="4455.05" cy="13500" r="290.157" /> 
<polyline style="fill-rule:evenodd;"
points="8845,2084
8845,2665
8264,2665
8264,2084
8845,2084
" /> 
<circle cx="7555.05" cy="2375" r="290.157" /> 
<circle cx="6555.05" cy="2375" r="290.157" /> 
<circle cx="5555.05" cy="2375" r="290.157" /> 
<circle cx="4555.05" cy="2375" r="290.157" /> 
<circle cx="3555.05" cy="2375" r="290.157" /> 
<circle cx="4455.05" cy="14500" r="290.157" /> 
<circle cx="5455.05" cy="14500" r="290.157" /> 
<circle cx="4455.05" cy="15500" r="290.157" /> 
<circle cx="5455.05" cy="15500" r="290.157" /> 
<circle cx="4455.05" cy="16500" r="290.157" /> 
<circle cx="5455.05" cy="16500" r="290.157" /> 
<circle cx="4455.05" cy="17500" r="290.157" /> 
<circle cx="5455.05" cy="17500" r="290.157" /> 
<circle cx="4455.05" cy="18500" r="290.157" /> 
<circle cx="5455.05" cy="18500" r="290.157" /> 
<circle cx="7455.05" cy="18500" r="290.157" /> 
<circle cx="6455.05" cy="18500" r="290.157" /> 
<circle cx="7455.05" cy="17500" r="290.157" /> 
<circle cx="6455.05" cy="17500" r="290.157" /> 
<circle cx="7455.05" cy="16500" r="290.157" /> 
<circle cx="6455.05" cy="16500" r="290.157" /> 
<circle cx="7455.05" cy="15500" r="290.157" /> 
<circle cx="6455.05" cy="15500" r="290.157" /> 
<circle cx="7455.05" cy="14500" r="290.157" /> 
<circle cx="6455.05" cy="14500" r="290.157" /> 
<polyline style="fill-rule:evenodd;"
points="3745,11765
3164,11765
3164,11184
3745,11184
3745,11765
" /> 
<circle cx="3455.05" cy="10475" r="290.157" /> 
<circle cx="3455.05" cy="13500" r="290.157" /> 
<circle cx="3455.05" cy="14500" r="290.157" /> 
<circle cx="3455.05" cy="15500" r="290.157" /> 
<circle cx="3455.05" cy="16500" r="290.157" /> 
<circle cx="3455.05" cy="17500" r="290.157" /> 
<circle cx="3455.05" cy="18500" r="290.157" /> 
<polyline style="fill-rule:evenodd;"
points="8345,3884
8345,4465
7764,4465
7764,3884
8345,3884
" /> 
<circle cx="8055.05" cy="5175" r="290.157" /> 
<circle cx="7055.05" cy="4175" r="290.157" /> 
<circle cx="7055.05" cy="5175" r="290.157" /> 
<circle cx="6055.05" cy="4175" r="290.157" /> 
<circle cx="6055.05" cy="5175" r="290.157" /> 
<circle cx="5055.05" cy="4175" r="290.157" /> 
<circle cx="5055.05" cy="5175" r="290.157" /> 
</g> 
</svg>
