M48
;DRILL file {Pcbnew (2013-mar-13)-testing} date Di 12 Nov 2013 11:00:23 CET
;FORMAT={-:-/ absolute / metric / decimal}
FMAT,2
METRIC,TZ
T1C0.300
T2C0.800
T3C1.016
%
G90
G05
M71
T1
X124.587Y-118.681
X125.603Y-128.079
X128.397Y-131.127
X128.969Y-121.666
X128.969Y-137.35
X129.032Y-131.636
X129.413Y-130.365
X130.556Y-132.143
X131.Y-130.365
X131.255Y-117.665
X131.699Y-133.223
X132.017Y-117.665
X132.017Y-130.365
X132.207Y-125.412
X132.398Y-128.46
X133.159Y-117.665
X133.921Y-117.665
X134.175Y-147.637
X135.445Y-147.637
X135.572Y-129.54
X136.017Y-131.508
X137.541Y-138.367
X137.795Y-124.206
X138.493Y-127.825
X138.684Y-140.589
X145.034Y-130.302
X145.225Y-143.065
X145.923Y-146.685
X146.177Y-132.524
X147.701Y-139.382
X148.145Y-141.351
X148.272Y-123.253
X149.542Y-123.253
X149.796Y-153.225
X150.558Y-153.225
X151.32Y-142.43
X151.511Y-145.478
X151.701Y-140.525
X151.701Y-153.225
X152.019Y-137.668
X152.463Y-153.225
X152.718Y-140.525
X153.162Y-138.748
X154.305Y-140.525
X154.686Y-139.255
X154.749Y-133.54
X154.749Y-149.225
X155.321Y-139.763
X158.115Y-142.811
X159.131Y-152.209
T2
X140.334Y-119.984
X143.384Y-150.907
T3
X125.984Y-136.144
X125.984Y-138.684
X125.984Y-143.827
X125.984Y-146.368
X125.984Y-148.907
X125.984Y-151.447
X125.984Y-153.987
X125.984Y-156.528
X126.238Y-115.57
X128.524Y-143.827
X128.524Y-146.368
X128.524Y-148.907
X128.524Y-151.447
X128.524Y-153.987
X128.524Y-156.528
X128.778Y-115.57
X130.048Y-120.142
X130.048Y-122.682
X131.064Y-143.827
X131.064Y-146.368
X131.064Y-148.907
X131.064Y-151.447
X131.064Y-153.987
X131.064Y-156.528
X131.318Y-115.57
X132.588Y-120.142
X132.588Y-122.682
X133.604Y-143.827
X133.604Y-146.368
X133.604Y-148.907
X133.604Y-151.447
X133.604Y-153.987
X133.604Y-156.528
X133.858Y-115.57
X135.128Y-120.142
X135.128Y-122.682
X136.144Y-143.827
X136.144Y-146.368
X136.144Y-148.907
X136.144Y-151.447
X136.144Y-153.987
X136.144Y-156.528
X136.398Y-115.57
X137.668Y-120.142
X137.668Y-122.682
X138.684Y-143.827
X138.684Y-146.368
X138.684Y-148.907
X138.684Y-151.447
X138.684Y-153.987
X138.684Y-156.528
X138.938Y-115.57
X144.78Y-155.321
X145.034Y-114.363
X145.034Y-116.903
X145.034Y-119.444
X145.034Y-121.983
X145.034Y-124.523
X145.034Y-127.063
X146.05Y-148.209
X146.05Y-150.749
X147.32Y-155.321
X147.574Y-114.363
X147.574Y-116.903
X147.574Y-119.444
X147.574Y-121.983
X147.574Y-124.523
X147.574Y-127.063
X148.59Y-148.209
X148.59Y-150.749
X149.86Y-155.321
X150.114Y-114.363
X150.114Y-116.903
X150.114Y-119.444
X150.114Y-121.983
X150.114Y-124.523
X150.114Y-127.063
X151.13Y-148.209
X151.13Y-150.749
X152.4Y-155.321
X152.654Y-114.363
X152.654Y-116.903
X152.654Y-119.444
X152.654Y-121.983
X152.654Y-124.523
X152.654Y-127.063
X153.67Y-148.209
X153.67Y-150.749
X154.94Y-155.321
X155.194Y-114.363
X155.194Y-116.903
X155.194Y-119.444
X155.194Y-121.983
X155.194Y-124.523
X155.194Y-127.063
X157.48Y-155.321
X157.734Y-114.363
X157.734Y-116.903
X157.734Y-119.444
X157.734Y-121.983
X157.734Y-124.523
X157.734Y-127.063
X157.734Y-132.207
X157.734Y-134.747
T0
M30
