<?xml version="1.0" standalone="no"?>
 <!DOCTYPE svg PUBLIC "-//W3C//DTD SVG 1.1//EN" 
 "http://www.w3.org/Graphics/SVG/1.1/DTD/svg11.dtd"> 
<svg xmlns="http://www.w3.org/2000/svg" version="1.1" 
    width="3.05816cm" height="4.89458cm" viewBox="0 0 12040 19270 ">
<title>SVG Picture created as OLnodeV05-B_Cu.svg date 2013/11/11 13:51:29 </title>
  <desc>Picture generated by PCBNEW </desc>
<g style="fill:#000000; fill-opacity:1;stroke:#000000; stroke-opacity:1;
stroke-linecap:round; stroke-linejoin:round; "
 transform="translate(0 0) scale(1 1)">
</g>
<g style="fill:#C1C100; fill-opacity:0.0; 
stroke:#C1C100; stroke-width:59.0551; stroke-opacity:1; 
stroke-linecap:round; stroke-linejoin:round;">
<path d="M3005 1350
L3005 2900
" />
<path d="M9105 1350
L3005 1350
" />
<path d="M9105 2850
L9105 1350
" />
<path d="M6905 2850
L9105 2850
" />
<path d="M5230 2900
L3005 2900
" />
<path d="M9455 19050
L9455 3300
" />
<path d="M6905 3300
L9455 3300
" />
<path d="M5230 3300
L2455 3300
" />
<path d="M5430.05 3100 A200 200 0.0 0 0 5230.05 2900 " />
<path d="M5230.05 3300 A200 200 0.0 0 0 5430.05 3100 " />
<path d="M6905.05 2850 A225 225 0.0 0 0 6680.05 3075 " />
<path d="M6680.05 3075 A225 225 0.0 0 0 6905.05 3300 " />
<path d="M9455 19050
L2455 19050
" />
<path d="M2455 19050
L2455 3300
" />
</g>
<g style="fill:#840000; fill-opacity:0.0; 
stroke:#840000; stroke-width:19.685; stroke-opacity:1; 
stroke-linecap:round; stroke-linejoin:round;">
</g>
<g style="fill:#840000; fill-opacity:1.0; 
stroke:#840000; stroke-width:19.685; stroke-opacity:1; 
stroke-linecap:round; stroke-linejoin:round;">
<circle cx="8455.05" cy="13500" r="290.157" /> 
<circle cx="8455.05" cy="14500" r="290.157" /> 
<circle cx="8455.05" cy="15500" r="290.157" /> 
<circle cx="8455.05" cy="16500" r="290.157" /> 
<circle cx="8455.05" cy="17500" r="290.157" /> 
<circle cx="8455.05" cy="18500" r="290.157" /> 
<polyline style="fill-rule:evenodd;"
points="7745,13209
7745,13790
7164,13790
7164,13209
7745,13209
" /> 
<polyline style="fill-rule:evenodd;"
points="6745,13209
6745,13790
6164,13790
6164,13209
6745,13209
" /> 
<circle cx="5455.05" cy="13500" r="290.157" /> 
<circle cx="4455.05" cy="13500" r="290.157" /> 
<polyline style="fill-rule:evenodd;"
points="8845,2084
8845,2665
8264,2665
8264,2084
8845,2084
" /> 
<circle cx="7555.05" cy="2375" r="290.157" /> 
<circle cx="6555.05" cy="2375" r="290.157" /> 
<circle cx="5555.05" cy="2375" r="290.157" /> 
<circle cx="4555.05" cy="2375" r="290.157" /> 
<circle cx="3555.05" cy="2375" r="290.157" /> 
<circle cx="4455.05" cy="14500" r="290.157" /> 
<circle cx="5455.05" cy="14500" r="290.157" /> 
<circle cx="4455.05" cy="15500" r="290.157" /> 
<circle cx="5455.05" cy="15500" r="290.157" /> 
<circle cx="4455.05" cy="16500" r="290.157" /> 
<circle cx="5455.05" cy="16500" r="290.157" /> 
<circle cx="4455.05" cy="17500" r="290.157" /> 
<circle cx="5455.05" cy="17500" r="290.157" /> 
<circle cx="4455.05" cy="18500" r="290.157" /> 
<circle cx="5455.05" cy="18500" r="290.157" /> 
<circle cx="7455.05" cy="18500" r="290.157" /> 
<circle cx="6455.05" cy="18500" r="290.157" /> 
<circle cx="7455.05" cy="17500" r="290.157" /> 
<circle cx="6455.05" cy="17500" r="290.157" /> 
<circle cx="7455.05" cy="16500" r="290.157" /> 
<circle cx="6455.05" cy="16500" r="290.157" /> 
<circle cx="7455.05" cy="15500" r="290.157" /> 
<circle cx="6455.05" cy="15500" r="290.157" /> 
<circle cx="7455.05" cy="14500" r="290.157" /> 
<circle cx="6455.05" cy="14500" r="290.157" /> 
</g>
<g style="fill:#008400; fill-opacity:1.0; 
stroke:#008400; stroke-width:19.685; stroke-opacity:1; 
stroke-linecap:round; stroke-linejoin:round;">
<polyline style="fill-rule:evenodd;"
points="2520,9122
2520,8551
3287,8551
3287,9122
2520,9122
" /> 
<polyline style="fill-rule:evenodd;"
points="2520,8335
2520,7764
3287,7764
3287,8335
2520,8335
" /> 
<polyline style="fill-rule:evenodd;"
points="2520,4398
2520,3827
3287,3827
3287,4398
2520,4398
" /> 
<polyline style="fill-rule:evenodd;"
points="8622,9122
8622,8551
9390,8551
9390,9122
8622,9122
" /> 
<polyline style="fill-rule:evenodd;"
points="8622,8335
8622,7764
9390,7764
9390,8335
8622,8335
" /> 
<polyline style="fill-rule:evenodd;"
points="8622,7547
8622,6976
9390,6976
9390,7547
8622,7547
" /> 
<polyline style="fill-rule:evenodd;"
points="8622,5973
8622,5402
9390,5402
9390,5973
8622,5973
" /> 
<polyline style="fill-rule:evenodd;"
points="8622,5185
8622,4614
9390,4614
9390,5185
8622,5185
" /> 
</g>
<g style="fill:#840000; fill-opacity:1.0; 
stroke:#840000; stroke-width:19.685; stroke-opacity:1; 
stroke-linecap:round; stroke-linejoin:round;">
<circle cx="9104.66" cy="4112.8" r="285.433" /> 
<polyline style="fill-rule:evenodd;"
points="3745,11765
3164,11765
3164,11184
3745,11184
3745,11765
" /> 
<circle cx="3455.05" cy="10475" r="290.157" /> 
<circle cx="3455.05" cy="13500" r="290.157" /> 
<circle cx="3455.05" cy="14500" r="290.157" /> 
<circle cx="3455.05" cy="15500" r="290.157" /> 
<circle cx="3455.05" cy="16500" r="290.157" /> 
<circle cx="3455.05" cy="17500" r="290.157" /> 
<circle cx="3455.05" cy="18500" r="290.157" /> 
<polyline style="fill-rule:evenodd;"
points="8345,3884
8345,4465
7764,4465
7764,3884
8345,3884
" /> 
<circle cx="8055.05" cy="5175" r="290.157" /> 
<circle cx="7055.05" cy="4175" r="290.157" /> 
<circle cx="7055.05" cy="5175" r="290.157" /> 
<circle cx="6055.05" cy="4175" r="290.157" /> 
<circle cx="6055.05" cy="5175" r="290.157" /> 
<circle cx="5055.05" cy="4175" r="290.157" /> 
<circle cx="5055.05" cy="5175" r="290.157" /> 
</g>
<g style="fill:#008400; fill-opacity:1.0; 
stroke:#008400; stroke-width:19.685; stroke-opacity:1; 
stroke-linecap:round; stroke-linejoin:round;">
<polyline style="fill-rule:evenodd;"
points="2669,12860
2669,12289
3240,12289
3240,12860
2669,12860
" /> 
<polyline style="fill-rule:evenodd;"
points="3669,12860
3669,12289
4240,12289
4240,12860
3669,12860
" /> 
<polyline style="fill-rule:evenodd;"
points="4669,12860
4669,12289
5240,12289
5240,12860
4669,12860
" /> 
<polyline style="fill-rule:evenodd;"
points="5669,12860
5669,12289
6240,12289
6240,12860
5669,12860
" /> 
<polyline style="fill-rule:evenodd;"
points="6669,12860
6669,12289
7240,12289
7240,12860
6669,12860
" /> 
<polyline style="fill-rule:evenodd;"
points="7669,12860
7669,12289
8240,12289
8240,12860
7669,12860
" /> 
<polyline style="fill-rule:evenodd;"
points="8669,12860
8669,12289
9240,12289
9240,12860
8669,12860
" /> 
</g>
<g style="fill:#C1C1C1; fill-opacity:1.0; 
stroke:#C1C1C1; stroke-width:19.685; stroke-opacity:1; 
stroke-linecap:round; stroke-linejoin:round;">
<circle cx="5430.05" cy="8200" r="100.394" /> 
<circle cx="8455.05" cy="12225" r="100.394" /> 
<circle cx="4805.05" cy="8200" r="100.394" /> 
<circle cx="4405.05" cy="8500" r="100.394" /> 
<circle cx="4655.05" cy="8700" r="100.394" /> 
<circle cx="5255.05" cy="8900" r="100.394" /> 
<circle cx="5705.05" cy="9325" r="100.394" /> 
<circle cx="5830.05" cy="8200" r="100.394" /> 
<circle cx="7230.05" cy="7875" r="100.394" /> 
<circle cx="6280.05" cy="3200" r="100.394" /> 
<circle cx="5830.05" cy="3200" r="100.394" /> 
<circle cx="5905.05" cy="6250" r="100.394" /> 
<circle cx="5980.05" cy="7450" r="100.394" /> 
<circle cx="6680.05" cy="15000" r="100.394" /> 
<circle cx="7180.05" cy="15000" r="100.394" /> 
<circle cx="8005.05" cy="11350" r="100.394" /> 
<circle cx="7405.05" cy="8650" r="100.394" /> 
<circle cx="8380.05" cy="7200" r="100.394" /> 
<circle cx="4630.05" cy="10950" r="100.394" /> 
<circle cx="4630.05" cy="4775" r="100.394" /> 
<circle cx="5530.05" cy="3200" r="100.394" /> 
<circle cx="3305.05" cy="7300" r="100.394" /> 
<circle cx="8105.05" cy="5775" r="100.394" /> 
<circle cx="2905.05" cy="3600" r="100.394" /> 
<circle cx="6580.05" cy="3200" r="100.394" /> 
</g>
<g style="fill:#008400; fill-opacity:1.0; 
stroke:#008400; stroke-width:66.9291; stroke-opacity:1; 
stroke-linecap:round; stroke-linejoin:round;">
<path d="M8030 11800
L8455 12225
" />
<path d="M5930 10425
L5930 8700
" />
<path d="M5930 10425
L7305 11800
" />
<path d="M7305 11800
L8030 11800
" />
<path d="M5930 8700
L5430 8200
" />
<path d="M4080 8450
L4080 12075
" />
<path d="M4080 12075
L3955 12200
" />
<path d="M3955 12575
L3955 12200
" />
<path d="M4080 8450
L4330 8200
" />
<path d="M4805 8200
L4330 8200
" />
<path d="M3955 12575
L3955 13000
" />
<path d="M3955 13000
L3455 13500
" />
<path d="M5880 14691
L5880 13275
" />
<path d="M5430 13050
L4955 12575
" />
<path d="M5655 13050
L5430 13050
" />
<path d="M5880 13275
L5655 13050
" />
<path d="M3455 14500
L3430 14500
" />
<path d="M5646 14925
L5880 14691
" />
<path d="M3855 14925
L5646 14925
" />
<path d="M3430 14500
L3855 14925
" />
<path d="M4405 8725
L4230 8900
" />
<path d="M4230 11150
L4955 11875
" />
<path d="M4230 8900
L4230 11150
" />
<path d="M4955 12575
L4955 11875
" />
<path d="M4405 8500
L4405 8725
" />
<path d="M4655 8700
L4380 8975
" />
<path d="M4380 11000
L6030 12650
" />
<path d="M4380 8975
L4380 11000
" />
<path d="M6030 12650
L6030 14750
" />
<path d="M5705 15075
L3880 15075
" />
<path d="M3880 15075
L3455 15500
" />
<path d="M6030 14750
L5705 15075
" />
<path d="M4655 8700
L4655 8700
" />
<path d="M6955 13925
L7080 14050
" />
<path d="M7655 16000
L3955 16000
" />
<path d="M7880 15775
L7655 16000
" />
<path d="M7880 14275
L7880 15775
" />
<path d="M7655 14050
L7880 14275
" />
<path d="M7080 14050
L7655 14050
" />
<path d="M3455 16500
L3955 16000
" />
<path d="M6955 12575
L6955 13925
" />
<path d="M5255 10600
L5255 8900
" />
<path d="M5255 10600
L5255 10575
" />
<path d="M5255 10575
L5255 10600
" />
<path d="M6955 12575
L6955 12300
" />
<path d="M6955 12300
L5255 10600
" />
<path d="M7705 17000
L8030 16675
" />
<path d="M8030 12650
L7955 12575
" />
<path d="M8030 16675
L8030 12650
" />
<path d="M3455 17500
L3955 17000
" />
<path d="M3955 17000
L7705 17000
" />
<path d="M7955 12250
L7955 12575
" />
<path d="M5705 9325
L5705 10425
" />
<path d="M5705 10425
L7230 11950
" />
<path d="M7230 11950
L7655 11950
" />
<path d="M7655 11950
L7955 12250
" />
<path d="M3455 18500
L3955 18000
" />
<path d="M8680 18000
L8955 17725
" />
<path d="M3955 18000
L8680 18000
" />
<path d="M8955 12250
L8955 12575
" />
<path d="M8955 12575
L8955 17725
" />
<path d="M8355 11650
L8955 12250
" />
<path d="M6105 10375
L6105 8475
" />
<path d="M6105 10375
L7380 11650
" />
<path d="M7380 11650
L8355 11650
" />
<path d="M6105 8475
L5830 8200
" />
<path d="M8867 8837
L9006 8837
" />
<path d="M8355 8325
L8867 8837
" />
<path d="M7680 8325
L8355 8325
" />
<path d="M7230 7875
L7680 8325
" />
<path d="M6055 4850
L6530 4375
" />
<path d="M6530 4375
L6530 3925
" />
<path d="M6530 3925
L6280 3675
" />
<path d="M6280 3675
L6280 3200
" />
<path d="M6055 5175
L6055 4850
" />
<path d="M7480 7525
L5780 5825
" />
<path d="M8817 7262
L8555 7525
" />
<path d="M8555 7525
L7480 7525
" />
<path d="M9104 7262
L8817 7262
" />
<path d="M5780 5450
L6055 5175
" />
<path d="M5780 5825
L5780 5450
" />
<path d="M5830 3200
L5830 2775
" />
<path d="M5280 4175
L5830 3625
" />
<path d="M5830 3625
L5830 3200
" />
<path d="M5830 2775
L6030 2575
" />
<path d="M6030 2575
L6030 2175
" />
<path d="M6030 2175
L6280 1925
" />
<path d="M6280 1925
L8105 1925
" />
<path d="M8555 2375
L8105 1925
" />
<path d="M5280 4175
L5055 4175
" />
<path d="M5480 4795
L5480 6125
" />
<path d="M5480 6125
L6230 6875
" />
<path d="M5055 4175
L5055 4370
" />
<path d="M5055 4370
L5480 4795
" />
<path d="M3342 8837
L2903 8837
" />
<path d="M6030 7725
L4105 7725
" />
<path d="M6230 7525
L6230 6875
" />
<path d="M6030 7725
L6230 7525
" />
<path d="M4105 7725
L3480 8350
" />
<path d="M3480 8350
L3480 8700
" />
<path d="M3480 8700
L3342 8837
" />
<path d="M6555 2375
L6430 2375
" />
<path d="M6430 2375
L6055 2750
" />
<path d="M6055 4175
L6055 2750
" />
<path d="M9006 8049
L8879 8049
" />
<path d="M8879 8049
L9005 8175
" />
<path d="M6055 4175
L6055 4375
" />
<path d="M5630 5975
L5905 6250
" />
<path d="M5630 4800
L5630 5975
" />
<path d="M6055 4375
L5630 4800
" />
<path d="M5905 6250
L7830 8175
" />
<path d="M7830 8175
L9005 8175
" />
<path d="M5325 6270
L5325 5445
" />
<path d="M5325 5445
L5055 5175
" />
<path d="M5325 6270
L5980 6925
" />
<path d="M5980 6925
L5980 7450
" />
<path d="M5980 7450
L4055 7450
" />
<path d="M4055 7450
L3455 8049
" />
<path d="M2903 8049
L3455 8049
" />
<path d="M6680 15000
L7180 15000
" />
<path d="M8005 9250
L8005 11350
" />
<path d="M7405 8650
L8005 9250
" />
<path d="M7055 5875
L7055 5175
" />
<path d="M8380 7200
L7055 5875
" />
<path d="M6480 13475
L6455 13500
" />
<path d="M6480 12175
L6480 13475
" />
<path d="M6280 11975
L6480 12175
" />
<path d="M5655 11975
L6280 11975
" />
<path d="M4630 10950
L5655 11975
" />
<path d="M4955 2375
L4555 2375
" />
<path d="M5411 3693
L5530 3575
" />
<path d="M4861 3693
L5411 3693
" />
<path d="M5530 3575
L5530 3200
" />
<path d="M5530 3200
L5530 2950
" />
<path d="M5530 2950
L4955 2375
" />
<path d="M4630 5975
L4630 4775
" />
<path d="M4630 4775
L4630 3925
" />
<path d="M4630 3925
L4861 3693
" />
<path d="M4630 5975
L3305 7300
" />
<path d="M9006 5687
L8192 5687
" />
<path d="M8192 5687
L8105 5775
" />
<path d="M2903 4112
L2903 3601
" />
<path d="M2903 3601
L2905 3600
" />
</g>
<g style="fill:#008400; fill-opacity:1.0; 
stroke:#008400; stroke-width:100; stroke-opacity:1; 
stroke-linecap:round; stroke-linejoin:round;">
<path d="M4455 13500
L3955 14000
" />
<path d="M3955 14000
L3205 14000
" />
<path d="M4455 13500
L4455 14500
" />
<path d="M8430 3650
L6730 3650
" />
<path d="M6580 3500
L6580 3200
" />
<path d="M6730 3650
L6580 3500
" />
<path d="M9006 4900
L8905 4900
" />
<path d="M8905 4900
L8580 4575
" />
<path d="M8580 4575
L8580 3800
" />
<path d="M8580 3800
L8430 3650
" />
<path d="M3455 10475
L3905 10925
" />
<path d="M3905 10925
L3905 11875
" />
<path d="M3905 11875
L3755 12025
" />
<path d="M3755 12025
L3505 12025
" />
<path d="M3505 12025
L2955 12575
" />
<path d="M9006 4900
L8329 4900
" />
<path d="M8329 4900
L8055 5175
" />
<path d="M2955 13750
L3205 14000
" />
<path d="M2955 12575
L2955 13750
" />
</g>
<g style="fill:#008400; fill-opacity:1.0; 
stroke:#008400; stroke-width:19.685; stroke-opacity:1; 
stroke-linecap:round; stroke-linejoin:round;">
<polyline style="fill-rule:evenodd;"
points="5738,14133
5664,14059
5628,14095
5620,14103
5589,14059
5410,14041
5320,14059
5281,14114
5455,14287
5470,14272
5628,14430
5682,14484
5667,14500
5682,14515
5628,14569
5470,14727
5455,14712
5439,14727
5242,14530
5227,14515
5242,14500
5242,13500
5069,13326
5014,13365
4996,13544
5014,13634
5069,13673
5242,13500
5242,14500
5069,14326
5014,14365
4996,14544
5014,14634
5058,14665
5014,14709
5088,14783
4749,14783
4800,14731
4863,14581
4863,14419
4801,14269
4686,14154
4613,14123
4613,13876
4686,13846
4800,13731
4863,13581
4863,13419
4801,13269
4686,13154
4536,13091
4374,13091
4224,13153
4109,13268
4046,13418
4046,13580
4077,13654
3889,13841
3690,13841
3800,13731
3863,13581
3863,13419
3826,13329
4055,13100
4055,13100
4085,13054
4096,13000
4096,13000
4096,12978
4271,12978
4311,12962
4342,12931
4358,12891
4358,12848
4358,12258
4342,12218
4311,12187
4271,12171
4228,12171
4182,12171
4210,12129
4221,12075
4221,11342
4813,11933
4813,12171
4638,12171
4598,12187
4567,12218
4551,12258
4551,12301
4551,12891
4567,12931
4598,12962
4638,12978
4681,12978
5158,12978
5287,13107
5281,13114
5455,13287
5470,13272
5682,13484
5667,13500
5682,13515
5470,13727
5455,13712
5281,13885
5320,13940
5499,13958
5589,13940
5620,13896
5628,13904
5664,13940
5738,13866
5738,14133
" /> 
</g>
<g style="fill:#008400; fill-opacity:0.0; 
stroke:#008400; stroke-width:66.9291; stroke-opacity:1; 
stroke-linecap:round; stroke-linejoin:round;">
<polyline fill="none;"
points="5738,14133
5664,14059
5628,14095
5620,14103
5589,14059
5410,14041
5320,14059
5281,14114
5455,14287
5470,14272
5628,14430
5682,14484
5667,14500
5682,14515
5628,14569
5470,14727
5455,14712
5439,14727
5242,14530
5227,14515
5242,14500
5242,13500
5069,13326
5014,13365
4996,13544
5014,13634
5069,13673
5242,13500
5242,14500
5069,14326
5014,14365
4996,14544
5014,14634
5058,14665
5014,14709
5088,14783
4749,14783
4800,14731
4863,14581
4863,14419
4801,14269
4686,14154
4613,14123
4613,13876
4686,13846
4800,13731
4863,13581
4863,13419
4801,13269
4686,13154
4536,13091
4374,13091
4224,13153
4109,13268
4046,13418
4046,13580
4077,13654
3889,13841
3690,13841
3800,13731
3863,13581
3863,13419
3826,13329
4055,13100
4055,13100
4085,13054
4096,13000
4096,13000
4096,12978
4271,12978
4311,12962
4342,12931
4358,12891
4358,12848
4358,12258
4342,12218
4311,12187
4271,12171
4228,12171
4182,12171
4210,12129
4221,12075
4221,11342
4813,11933
4813,12171
4638,12171
4598,12187
4567,12218
4551,12258
4551,12301
4551,12891
4567,12931
4598,12962
4638,12978
4681,12978
5158,12978
5287,13107
5281,13114
5455,13287
5470,13272
5682,13484
5667,13500
5682,13515
5470,13727
5455,13712
5281,13885
5320,13940
5499,13958
5589,13940
5620,13896
5628,13904
5664,13940
5738,13866
5738,14133
" /> 
</g>
<g style="fill:#008400; fill-opacity:1.0; 
stroke:#008400; stroke-width:19.685; stroke-opacity:1; 
stroke-linecap:round; stroke-linejoin:round;">
<polyline style="fill-rule:evenodd;"
points="5838,7282
5812,7308
4055,7308
4009,7317
4000,7319
3954,7349
3405,7898
3405,7732
3389,7693
3358,7662
3319,7646
3276,7646
2592,7646
2592,4559
2702,4559
2740,4521
2740,4260
2732,4260
2732,3965
2740,3965
2740,3703
2702,3666
2592,3666
2592,3437
5230,3437
5243,3435
5256,3435
5333,3419
5333,3419
5333,3419
5348,3413
5383,3399
5383,3399
5383,3399
5388,3395
5388,3516
5353,3551
4861,3551
4807,3562
4761,3592
4529,3824
4499,3870
4488,3925
4488,4607
4444,4651
4411,4731
4411,4818
4444,4898
4488,4942
4488,5916
3449,6955
3449,4438
3449,4377
3449,4298
3449,3927
3449,3847
3449,3787
3425,3731
3383,3689
3327,3666
3105,3666
3067,3703
3067,3965
3411,3965
3449,3927
3449,4298
3411,4260
3067,4260
3067,4521
3105,4559
3327,4559
3383,4536
3425,4493
3449,4438
3449,6955
3323,7081
3261,7081
3181,7114
3119,7176
3086,7256
3086,7343
3119,7423
3181,7485
3261,7518
3348,7518
3428,7485
3490,7423
3523,7343
3523,7281
4730,6075
4730,6075
4760,6029
4771,5975
4771,5469
4823,5520
4973,5583
5135,5583
5183,5563
5183,6270
5194,6324
5225,6370
5838,6983
5838,7282
" /> 
</g>
<g style="fill:#008400; fill-opacity:0.0; 
stroke:#008400; stroke-width:66.9291; stroke-opacity:1; 
stroke-linecap:round; stroke-linejoin:round;">
<polyline fill="none;"
points="5838,7282
5812,7308
4055,7308
4009,7317
4000,7319
3954,7349
3405,7898
3405,7732
3389,7693
3358,7662
3319,7646
3276,7646
2592,7646
2592,4559
2702,4559
2740,4521
2740,4260
2732,4260
2732,3965
2740,3965
2740,3703
2702,3666
2592,3666
2592,3437
5230,3437
5243,3435
5256,3435
5333,3419
5333,3419
5333,3419
5348,3413
5383,3399
5383,3399
5383,3399
5388,3395
5388,3516
5353,3551
4861,3551
4807,3562
4761,3592
4529,3824
4499,3870
4488,3925
4488,4607
4444,4651
4411,4731
4411,4818
4444,4898
4488,4942
4488,5916
3449,6955
3449,4438
3449,4377
3449,4298
3449,3927
3449,3847
3449,3787
3425,3731
3383,3689
3327,3666
3105,3666
3067,3703
3067,3965
3411,3965
3449,3927
3449,4298
3411,4260
3067,4260
3067,4521
3105,4559
3327,4559
3383,4536
3425,4493
3449,4438
3449,6955
3323,7081
3261,7081
3181,7114
3119,7176
3086,7256
3086,7343
3119,7423
3181,7485
3261,7518
3348,7518
3428,7485
3490,7423
3523,7343
3523,7281
4730,6075
4730,6075
4760,6029
4771,5975
4771,5469
4823,5520
4973,5583
5135,5583
5183,5563
5183,6270
5194,6324
5225,6370
5838,6983
5838,7282
" /> 
</g>
<g style="fill:#008400; fill-opacity:1.0; 
stroke:#008400; stroke-width:19.685; stroke-opacity:1; 
stroke-linecap:round; stroke-linejoin:round;">
<polyline style="fill-rule:evenodd;"
points="8967,2712
8956,2712
8963,2696
8963,2653
8963,2053
8946,2013
8916,1983
8876,1966
8833,1966
8347,1966
8205,1824
8159,1794
8105,1783
6280,1783
6225,1794
6179,1824
5929,2074
5899,2120
5895,2138
5786,2029
5636,1966
5474,1966
5324,2028
5209,2143
5146,2293
5146,2366
5055,2274
5009,2244
4955,2233
4938,2233
4901,2144
4786,2029
4636,1966
4474,1966
4324,2028
4209,2143
4146,2293
4146,2455
4208,2605
4323,2720
4422,2762
4013,2762
4013,2330
3995,2240
3940,2201
3767,2375
3940,2548
3995,2509
4013,2330
4013,2762
3726,2762
3728,2760
3728,1989
3689,1934
3510,1916
3420,1934
3381,1989
3555,2162
3728,1989
3728,2760
3555,2587
3381,2760
3383,2762
3142,2762
3142,2529
3169,2548
3342,2375
3169,2201
3142,2220
3142,1487
8967,1487
8967,2712
" /> 
</g>
<g style="fill:#008400; fill-opacity:0.0; 
stroke:#008400; stroke-width:66.9291; stroke-opacity:1; 
stroke-linecap:round; stroke-linejoin:round;">
<polyline fill="none;"
points="8967,2712
8956,2712
8963,2696
8963,2653
8963,2053
8946,2013
8916,1983
8876,1966
8833,1966
8347,1966
8205,1824
8159,1794
8105,1783
6280,1783
6225,1794
6179,1824
5929,2074
5899,2120
5895,2138
5786,2029
5636,1966
5474,1966
5324,2028
5209,2143
5146,2293
5146,2366
5055,2274
5009,2244
4955,2233
4938,2233
4901,2144
4786,2029
4636,1966
4474,1966
4324,2028
4209,2143
4146,2293
4146,2455
4208,2605
4323,2720
4422,2762
4013,2762
4013,2330
3995,2240
3940,2201
3767,2375
3940,2548
3995,2509
4013,2330
4013,2762
3726,2762
3728,2760
3728,1989
3689,1934
3510,1916
3420,1934
3381,1989
3555,2162
3728,1989
3728,2760
3555,2587
3381,2760
3383,2762
3142,2762
3142,2529
3169,2548
3342,2375
3169,2201
3142,2220
3142,1487
8967,1487
8967,2712
" /> 
</g>
<g style="fill:#008400; fill-opacity:1.0; 
stroke:#008400; stroke-width:19.685; stroke-opacity:1; 
stroke-linecap:round; stroke-linejoin:round;">
<polyline style="fill-rule:evenodd;"
points="9317,6858
8842,6858
8842,6096
8842,5835
8498,5835
8461,5873
8461,5952
8461,6013
8484,6068
8526,6111
8582,6134
8804,6134
8842,6096
8842,6858
8590,6858
8551,6875
8520,6905
8504,6945
8504,6988
8504,7015
8503,7014
8423,6981
8361,6981
7196,5816
7196,5558
7286,5521
7400,5406
7463,5256
7463,5094
7401,4944
7286,4829
7136,4766
6974,4766
6824,4828
6709,4943
6646,5093
6646,5255
6708,5405
6823,5520
6913,5558
6913,5875
6924,5929
6954,5975
8161,7181
8161,7243
8194,7323
8254,7383
7538,7383
5921,5766
5921,5561
5973,5583
6135,5583
6286,5521
6400,5406
6463,5256
6463,5094
6401,4944
6286,4829
6279,4826
6630,4475
6630,4475
6660,4429
6671,4375
6671,4316
6708,4405
6823,4520
6973,4583
7135,4583
7286,4521
7400,4406
7463,4256
7463,4094
7401,3944
7286,3829
7236,3808
7618,3808
7603,3844
7603,3905
7603,3987
7641,4025
7905,4025
7905,4003
8205,4003
8205,4025
8226,4025
8226,4325
8205,4325
8205,4588
8242,4626
8385,4626
8428,4608
8433,4635
8468,4686
8504,4723
8504,4741
8329,4741
8269,4753
8217,4788
8209,4796
8136,4766
7974,4766
7905,4795
7905,4588
7905,4325
7641,4325
7603,4362
7603,4444
7603,4505
7626,4560
7669,4603
7724,4626
7867,4626
7905,4588
7905,4795
7824,4828
7709,4943
7646,5093
7646,5255
7708,5405
7823,5520
7973,5583
8135,5583
8286,5521
8400,5406
8463,5256
8463,5094
8448,5058
8504,5058
8504,5217
8520,5256
8527,5263
8526,5263
8484,5306
8461,5362
8461,5422
8461,5502
8498,5539
8842,5539
8842,5516
9169,5516
9169,5539
9177,5539
9177,5835
9169,5835
9169,6096
9207,6134
9317,6134
9317,6858
" /> 
</g>
<g style="fill:#008400; fill-opacity:0.0; 
stroke:#008400; stroke-width:66.9291; stroke-opacity:1; 
stroke-linecap:round; stroke-linejoin:round;">
<polyline fill="none;"
points="9317,6858
8842,6858
8842,6096
8842,5835
8498,5835
8461,5873
8461,5952
8461,6013
8484,6068
8526,6111
8582,6134
8804,6134
8842,6096
8842,6858
8590,6858
8551,6875
8520,6905
8504,6945
8504,6988
8504,7015
8503,7014
8423,6981
8361,6981
7196,5816
7196,5558
7286,5521
7400,5406
7463,5256
7463,5094
7401,4944
7286,4829
7136,4766
6974,4766
6824,4828
6709,4943
6646,5093
6646,5255
6708,5405
6823,5520
6913,5558
6913,5875
6924,5929
6954,5975
8161,7181
8161,7243
8194,7323
8254,7383
7538,7383
5921,5766
5921,5561
5973,5583
6135,5583
6286,5521
6400,5406
6463,5256
6463,5094
6401,4944
6286,4829
6279,4826
6630,4475
6630,4475
6660,4429
6671,4375
6671,4316
6708,4405
6823,4520
6973,4583
7135,4583
7286,4521
7400,4406
7463,4256
7463,4094
7401,3944
7286,3829
7236,3808
7618,3808
7603,3844
7603,3905
7603,3987
7641,4025
7905,4025
7905,4003
8205,4003
8205,4025
8226,4025
8226,4325
8205,4325
8205,4588
8242,4626
8385,4626
8428,4608
8433,4635
8468,4686
8504,4723
8504,4741
8329,4741
8269,4753
8217,4788
8209,4796
8136,4766
7974,4766
7905,4795
7905,4588
7905,4325
7641,4325
7603,4362
7603,4444
7603,4505
7626,4560
7669,4603
7724,4626
7867,4626
7905,4588
7905,4795
7824,4828
7709,4943
7646,5093
7646,5255
7708,5405
7823,5520
7973,5583
8135,5583
8286,5521
8400,5406
8463,5256
8463,5094
8448,5058
8504,5058
8504,5217
8520,5256
8527,5263
8526,5263
8484,5306
8461,5362
8461,5422
8461,5502
8498,5539
8842,5539
8842,5516
9169,5516
9169,5539
9177,5539
9177,5835
9169,5835
9169,6096
9207,6134
9317,6134
9317,6858
" /> 
</g>
<g style="fill:#008400; fill-opacity:1.0; 
stroke:#008400; stroke-width:19.685; stroke-opacity:1; 
stroke-linecap:round; stroke-linejoin:round;">
<polyline style="fill-rule:evenodd;"
points="9317,12193
9311,12187
9271,12171
9228,12171
9069,12171
9055,12149
9055,12149
8455,11549
8409,11519
8355,11508
8155,11508
8190,11473
8223,11393
8223,11306
8190,11226
8146,11182
8146,9250
8137,9204
8135,9195
8135,9195
8105,9149
8105,9149
7623,8668
7623,8606
7590,8526
7528,8464
7448,8431
7361,8431
7281,8464
7219,8526
7186,8606
7186,8693
7219,8773
7281,8835
7361,8868
7423,8868
7863,9308
7863,11182
7819,11226
7786,11306
7786,11393
7819,11473
7854,11508
7438,11508
6246,10316
6246,8475
6235,8420
6205,8374
6205,8374
6048,8218
6048,8156
6015,8076
5953,8014
5873,7981
5786,7981
5706,8014
5644,8076
5630,8111
5615,8076
5553,8014
5473,7981
5386,7981
5306,8014
5244,8076
5211,8156
5211,8243
5244,8323
5306,8385
5386,8418
5448,8418
5788,8758
5788,9122
5748,9106
5661,9106
5581,9139
5519,9201
5486,9281
5486,9368
5519,9448
5563,9492
5563,10425
5574,10479
5604,10525
7129,12050
7129,12050
7175,12080
7230,12091
7596,12091
7676,12171
7638,12171
7598,12187
7567,12218
7551,12258
7551,12301
7551,12891
7567,12931
7598,12962
7638,12978
7681,12978
7888,12978
7888,14082
7755,13949
7709,13919
7655,13908
7776,13908
7816,13891
7846,13861
7863,13821
7863,13778
7863,13178
7846,13138
7816,13108
7776,13091
7733,13091
7133,13091
7096,13106
7096,12978
7271,12978
7311,12962
7342,12931
7358,12891
7358,12848
7358,12258
7342,12218
7311,12187
7271,12171
7228,12171
7026,12171
5396,10541
5396,9067
5440,9023
5473,8943
5473,8856
5440,8776
5378,8714
5298,8681
5211,8681
5131,8714
5069,8776
5036,8856
5036,8943
5069,9023
5113,9067
5113,10575
5113,10600
5124,10654
5154,10700
6289,11835
6280,11833
5713,11833
4848,10968
4848,10906
4815,10826
4753,10764
4673,10731
4586,10731
4521,10758
4521,9033
4637,8918
4698,8918
4778,8885
4840,8823
4873,8743
4873,8656
4840,8576
4778,8514
4698,8481
4623,8481
4623,8456
4590,8376
4555,8341
4637,8341
4681,8385
4761,8418
4848,8418
4928,8385
4990,8323
5023,8243
5023,8156
4990,8076
4928,8014
4848,7981
4761,7981
4681,8014
4637,8058
4330,8058
4275,8069
4229,8099
3979,8349
3949,8395
3938,8450
3938,10734
3833,10629
3863,10556
3863,10394
3801,10244
3686,10129
3536,10066
3374,10066
3224,10128
3109,10243
3046,10393
3046,10555
3108,10705
3223,10820
3373,10883
3535,10883
3609,10853
3746,10990
3746,11023
3724,11023
3642,11023
3605,11061
3605,11325
3626,11325
3626,11625
3605,11625
3605,11646
3305,11646
3305,11625
3305,11325
3305,11061
3267,11023
3185,11023
3124,11023
3069,11046
3026,11089
3003,11144
3003,11287
3041,11325
3305,11325
3305,11625
3041,11625
3003,11662
3003,11805
3026,11860
3069,11903
3124,11926
3185,11926
3267,11926
3291,11902
3291,11926
3305,11926
3379,11926
3305,12001
3134,12171
2638,12171
2598,12187
2592,12193
2592,9240
3319,9240
3358,9224
3389,9193
3405,9154
3405,9110
3405,8962
3443,8937
3580,8800
3580,8800
3610,8754
3610,8754
3612,8745
3621,8700
3621,8700
3621,8408
4163,7866
6030,7866
6030,7866
6084,7855
6130,7825
6330,7625
6330,7625
6360,7579
6360,7579
6362,7570
6371,7525
6371,7525
6371,6917
7133,7678
7106,7689
7044,7751
7011,7831
7011,7918
7044,7998
7106,8060
7186,8093
7248,8093
7579,8425
7579,8425
7625,8455
7680,8466
8296,8466
8504,8674
8504,9154
8520,9193
8551,9224
8590,9240
8634,9240
9317,9240
9317,12193
" /> 
</g>
<g style="fill:#008400; fill-opacity:0.0; 
stroke:#008400; stroke-width:66.9291; stroke-opacity:1; 
stroke-linecap:round; stroke-linejoin:round;">
<polyline fill="none;"
points="9317,12193
9311,12187
9271,12171
9228,12171
9069,12171
9055,12149
9055,12149
8455,11549
8409,11519
8355,11508
8155,11508
8190,11473
8223,11393
8223,11306
8190,11226
8146,11182
8146,9250
8137,9204
8135,9195
8135,9195
8105,9149
8105,9149
7623,8668
7623,8606
7590,8526
7528,8464
7448,8431
7361,8431
7281,8464
7219,8526
7186,8606
7186,8693
7219,8773
7281,8835
7361,8868
7423,8868
7863,9308
7863,11182
7819,11226
7786,11306
7786,11393
7819,11473
7854,11508
7438,11508
6246,10316
6246,8475
6235,8420
6205,8374
6205,8374
6048,8218
6048,8156
6015,8076
5953,8014
5873,7981
5786,7981
5706,8014
5644,8076
5630,8111
5615,8076
5553,8014
5473,7981
5386,7981
5306,8014
5244,8076
5211,8156
5211,8243
5244,8323
5306,8385
5386,8418
5448,8418
5788,8758
5788,9122
5748,9106
5661,9106
5581,9139
5519,9201
5486,9281
5486,9368
5519,9448
5563,9492
5563,10425
5574,10479
5604,10525
7129,12050
7129,12050
7175,12080
7230,12091
7596,12091
7676,12171
7638,12171
7598,12187
7567,12218
7551,12258
7551,12301
7551,12891
7567,12931
7598,12962
7638,12978
7681,12978
7888,12978
7888,14082
7755,13949
7709,13919
7655,13908
7776,13908
7816,13891
7846,13861
7863,13821
7863,13778
7863,13178
7846,13138
7816,13108
7776,13091
7733,13091
7133,13091
7096,13106
7096,12978
7271,12978
7311,12962
7342,12931
7358,12891
7358,12848
7358,12258
7342,12218
7311,12187
7271,12171
7228,12171
7026,12171
5396,10541
5396,9067
5440,9023
5473,8943
5473,8856
5440,8776
5378,8714
5298,8681
5211,8681
5131,8714
5069,8776
5036,8856
5036,8943
5069,9023
5113,9067
5113,10575
5113,10600
5124,10654
5154,10700
6289,11835
6280,11833
5713,11833
4848,10968
4848,10906
4815,10826
4753,10764
4673,10731
4586,10731
4521,10758
4521,9033
4637,8918
4698,8918
4778,8885
4840,8823
4873,8743
4873,8656
4840,8576
4778,8514
4698,8481
4623,8481
4623,8456
4590,8376
4555,8341
4637,8341
4681,8385
4761,8418
4848,8418
4928,8385
4990,8323
5023,8243
5023,8156
4990,8076
4928,8014
4848,7981
4761,7981
4681,8014
4637,8058
4330,8058
4275,8069
4229,8099
3979,8349
3949,8395
3938,8450
3938,10734
3833,10629
3863,10556
3863,10394
3801,10244
3686,10129
3536,10066
3374,10066
3224,10128
3109,10243
3046,10393
3046,10555
3108,10705
3223,10820
3373,10883
3535,10883
3609,10853
3746,10990
3746,11023
3724,11023
3642,11023
3605,11061
3605,11325
3626,11325
3626,11625
3605,11625
3605,11646
3305,11646
3305,11625
3305,11325
3305,11061
3267,11023
3185,11023
3124,11023
3069,11046
3026,11089
3003,11144
3003,11287
3041,11325
3305,11325
3305,11625
3041,11625
3003,11662
3003,11805
3026,11860
3069,11903
3124,11926
3185,11926
3267,11926
3291,11902
3291,11926
3305,11926
3379,11926
3305,12001
3134,12171
2638,12171
2598,12187
2592,12193
2592,9240
3319,9240
3358,9224
3389,9193
3405,9154
3405,9110
3405,8962
3443,8937
3580,8800
3580,8800
3610,8754
3610,8754
3612,8745
3621,8700
3621,8700
3621,8408
4163,7866
6030,7866
6030,7866
6084,7855
6130,7825
6330,7625
6330,7625
6360,7579
6360,7579
6362,7570
6371,7525
6371,7525
6371,6917
7133,7678
7106,7689
7044,7751
7011,7831
7011,7918
7044,7998
7106,8060
7186,8093
7248,8093
7579,8425
7579,8425
7625,8455
7680,8466
8296,8466
8504,8674
8504,9154
8520,9193
8551,9224
8590,9240
8634,9240
9317,9240
9317,12193
" /> 
</g>
<g style="fill:#FFFFFF; fill-opacity:0.0; 
stroke:#FFFFFF; stroke-width:19.685; stroke-opacity:1; 
stroke-linecap:round; stroke-linejoin:round;">
</g>
<g style="fill:#FFFFFF; fill-opacity:1.0; 
stroke:#FFFFFF; stroke-width:19.685; stroke-opacity:1; 
stroke-linecap:round; stroke-linejoin:round;">
<circle cx="5430.05" cy="8200" r="49.2126" /> 
<circle cx="8455.05" cy="12225" r="49.2126" /> 
<circle cx="4805.05" cy="8200" r="49.2126" /> 
<circle cx="4405.05" cy="8500" r="49.2126" /> 
<circle cx="4655.05" cy="8700" r="49.2126" /> 
<circle cx="5255.05" cy="8900" r="49.2126" /> 
<circle cx="5705.05" cy="9325" r="49.2126" /> 
<circle cx="5830.05" cy="8200" r="49.2126" /> 
<circle cx="7230.05" cy="7875" r="49.2126" /> 
<circle cx="6280.05" cy="3200" r="49.2126" /> 
<circle cx="5830.05" cy="3200" r="49.2126" /> 
<circle cx="5905.05" cy="6250" r="49.2126" /> 
<circle cx="5980.05" cy="7450" r="49.2126" /> 
<circle cx="6680.05" cy="15000" r="49.2126" /> 
<circle cx="7180.05" cy="15000" r="49.2126" /> 
<circle cx="8005.05" cy="11350" r="49.2126" /> 
<circle cx="7405.05" cy="8650" r="49.2126" /> 
<circle cx="8380.05" cy="7200" r="49.2126" /> 
<circle cx="4630.05" cy="10950" r="49.2126" /> 
<circle cx="4630.05" cy="4775" r="49.2126" /> 
<circle cx="5530.05" cy="3200" r="49.2126" /> 
<circle cx="3305.05" cy="7300" r="49.2126" /> 
<circle cx="8105.05" cy="5775" r="49.2126" /> 
<circle cx="2905.05" cy="3600" r="49.2126" /> 
<circle cx="6580.05" cy="3200" r="49.2126" /> 
<circle cx="8455.05" cy="13500" r="190.157" /> 
<circle cx="8455.05" cy="14500" r="190.157" /> 
<circle cx="8455.05" cy="15500" r="190.157" /> 
<circle cx="8455.05" cy="16500" r="190.157" /> 
<circle cx="8455.05" cy="17500" r="190.157" /> 
<circle cx="8455.05" cy="18500" r="190.157" /> 
<circle cx="7455.05" cy="13500" r="190.157" /> 
<circle cx="6455.05" cy="13500" r="190.157" /> 
<circle cx="5455.05" cy="13500" r="190.157" /> 
<circle cx="4455.05" cy="13500" r="190.157" /> 
<circle cx="8555.05" cy="2375" r="190.157" /> 
<circle cx="7555.05" cy="2375" r="190.157" /> 
<circle cx="6555.05" cy="2375" r="190.157" /> 
<circle cx="5555.05" cy="2375" r="190.157" /> 
<circle cx="4555.05" cy="2375" r="190.157" /> 
<circle cx="3555.05" cy="2375" r="190.157" /> 
<circle cx="4455.05" cy="14500" r="190.157" /> 
<circle cx="5455.05" cy="14500" r="190.157" /> 
<circle cx="4455.05" cy="15500" r="190.157" /> 
<circle cx="5455.05" cy="15500" r="190.157" /> 
<circle cx="4455.05" cy="16500" r="190.157" /> 
<circle cx="5455.05" cy="16500" r="190.157" /> 
<circle cx="4455.05" cy="17500" r="190.157" /> 
<circle cx="5455.05" cy="17500" r="190.157" /> 
<circle cx="4455.05" cy="18500" r="190.157" /> 
<circle cx="5455.05" cy="18500" r="190.157" /> 
<circle cx="7455.05" cy="18500" r="190.157" /> 
<circle cx="6455.05" cy="18500" r="190.157" /> 
<circle cx="7455.05" cy="17500" r="190.157" /> 
<circle cx="6455.05" cy="17500" r="190.157" /> 
<circle cx="7455.05" cy="16500" r="190.157" /> 
<circle cx="6455.05" cy="16500" r="190.157" /> 
<circle cx="7455.05" cy="15500" r="190.157" /> 
<circle cx="6455.05" cy="15500" r="190.157" /> 
<circle cx="7455.05" cy="14500" r="190.157" /> 
<circle cx="6455.05" cy="14500" r="190.157" /> 
<circle cx="9104.66" cy="4112.8" r="147.638" /> 
<circle cx="3455.05" cy="11475" r="190.157" /> 
<circle cx="3455.05" cy="10475" r="190.157" /> 
<circle cx="3455.05" cy="13500" r="190.157" /> 
<circle cx="3455.05" cy="14500" r="190.157" /> 
<circle cx="3455.05" cy="15500" r="190.157" /> 
<circle cx="3455.05" cy="16500" r="190.157" /> 
<circle cx="3455.05" cy="17500" r="190.157" /> 
<circle cx="3455.05" cy="18500" r="190.157" /> 
<circle cx="8055.05" cy="4175" r="190.157" /> 
<circle cx="8055.05" cy="5175" r="190.157" /> 
<circle cx="7055.05" cy="4175" r="190.157" /> 
<circle cx="7055.05" cy="5175" r="190.157" /> 
<circle cx="6055.05" cy="4175" r="190.157" /> 
<circle cx="6055.05" cy="5175" r="190.157" /> 
<circle cx="5055.05" cy="4175" r="190.157" /> 
<circle cx="5055.05" cy="5175" r="190.157" /> 
</g> 
</svg>
