<?xml version="1.0" standalone="no"?>
 <!DOCTYPE svg PUBLIC "-//W3C//DTD SVG 1.1//EN" 
 "http://www.w3.org/Graphics/SVG/1.1/DTD/svg11.dtd"> 
<svg xmlns="http://www.w3.org/2000/svg" version="1.1" 
    width="3.05816cm" height="4.89458cm" viewBox="0 0 12040 19270 ">
<title>SVG Picture created as OLnodeV05-F_Cu.svg date 2013/11/11 13:51:29 </title>
  <desc>Picture generated by PCBNEW </desc>
<g style="fill:#000000; fill-opacity:1;stroke:#000000; stroke-opacity:1;
stroke-linecap:round; stroke-linejoin:round; "
 transform="translate(0 0) scale(1 1)">
</g>
<g style="fill:#C1C100; fill-opacity:0.0; 
stroke:#C1C100; stroke-width:59.0551; stroke-opacity:1; 
stroke-linecap:round; stroke-linejoin:round;">
<path d="M3005 1350
L3005 2900
" />
<path d="M9105 1350
L3005 1350
" />
<path d="M9105 2850
L9105 1350
" />
<path d="M6905 2850
L9105 2850
" />
<path d="M5230 2900
L3005 2900
" />
<path d="M9455 19050
L9455 3300
" />
<path d="M6905 3300
L9455 3300
" />
<path d="M5230 3300
L2455 3300
" />
<path d="M5430.05 3100 A200 200 0.0 0 0 5230.05 2900 " />
<path d="M5230.05 3300 A200 200 0.0 0 0 5430.05 3100 " />
<path d="M6905.05 2850 A225 225 0.0 0 0 6680.05 3075 " />
<path d="M6680.05 3075 A225 225 0.0 0 0 6905.05 3300 " />
<path d="M9455 19050
L2455 19050
" />
<path d="M2455 19050
L2455 3300
" />
</g>
<g style="fill:#840000; fill-opacity:0.0; 
stroke:#840000; stroke-width:19.685; stroke-opacity:1; 
stroke-linecap:round; stroke-linejoin:round;">
</g>
<g style="fill:#840000; fill-opacity:1.0; 
stroke:#840000; stroke-width:19.685; stroke-opacity:1; 
stroke-linecap:round; stroke-linejoin:round;">
<circle cx="8455.05" cy="13500" r="290.157" /> 
<circle cx="8455.05" cy="14500" r="290.157" /> 
<circle cx="8455.05" cy="15500" r="290.157" /> 
<circle cx="8455.05" cy="16500" r="290.157" /> 
<circle cx="8455.05" cy="17500" r="290.157" /> 
<circle cx="8455.05" cy="18500" r="290.157" /> 
<polyline style="fill-rule:evenodd;"
points="7745,13209
7745,13790
7164,13790
7164,13209
7745,13209
" /> 
<polyline style="fill-rule:evenodd;"
points="6745,13209
6745,13790
6164,13790
6164,13209
6745,13209
" /> 
<circle cx="5455.05" cy="13500" r="290.157" /> 
<circle cx="4455.05" cy="13500" r="290.157" /> 
<polyline style="fill-rule:evenodd;"
points="8845,2084
8845,2665
8264,2665
8264,2084
8845,2084
" /> 
<circle cx="7555.05" cy="2375" r="290.157" /> 
<circle cx="6555.05" cy="2375" r="290.157" /> 
<circle cx="5555.05" cy="2375" r="290.157" /> 
<circle cx="4555.05" cy="2375" r="290.157" /> 
<circle cx="3555.05" cy="2375" r="290.157" /> 
<polyline style="fill-rule:evenodd;"
points="7500,11339
7500,11910
6930,11910
6930,11339
7500,11339
" /> 
<polyline style="fill-rule:evenodd;"
points="4430,11339
4430,11910
3859,11910
3859,11339
4430,11339
" /> 
<circle cx="4455.05" cy="14500" r="290.157" /> 
<circle cx="5455.05" cy="14500" r="290.157" /> 
<circle cx="4455.05" cy="15500" r="290.157" /> 
<circle cx="5455.05" cy="15500" r="290.157" /> 
<circle cx="4455.05" cy="16500" r="290.157" /> 
<circle cx="5455.05" cy="16500" r="290.157" /> 
<circle cx="4455.05" cy="17500" r="290.157" /> 
<circle cx="5455.05" cy="17500" r="290.157" /> 
<circle cx="4455.05" cy="18500" r="290.157" /> 
<circle cx="5455.05" cy="18500" r="290.157" /> 
<circle cx="7455.05" cy="18500" r="290.157" /> 
<circle cx="6455.05" cy="18500" r="290.157" /> 
<circle cx="7455.05" cy="17500" r="290.157" /> 
<circle cx="6455.05" cy="17500" r="290.157" /> 
<circle cx="7455.05" cy="16500" r="290.157" /> 
<circle cx="6455.05" cy="16500" r="290.157" /> 
<circle cx="7455.05" cy="15500" r="290.157" /> 
<circle cx="6455.05" cy="15500" r="290.157" /> 
<circle cx="7455.05" cy="14500" r="290.157" /> 
<circle cx="6455.05" cy="14500" r="290.157" /> 
<circle cx="9104.66" cy="4112.8" r="285.433" /> 
<polyline style="fill-rule:evenodd;"
points="3745,11765
3164,11765
3164,11184
3745,11184
3745,11765
" /> 
<circle cx="3455.05" cy="10475" r="290.157" /> 
<circle cx="3455.05" cy="13500" r="290.157" /> 
<circle cx="3455.05" cy="14500" r="290.157" /> 
<circle cx="3455.05" cy="15500" r="290.157" /> 
<circle cx="3455.05" cy="16500" r="290.157" /> 
<circle cx="3455.05" cy="17500" r="290.157" /> 
<circle cx="3455.05" cy="18500" r="290.157" /> 
<polyline style="fill-rule:evenodd;"
points="8345,3884
8345,4465
7764,4465
7764,3884
8345,3884
" /> 
<circle cx="8055.05" cy="5175" r="290.157" /> 
<circle cx="7055.05" cy="4175" r="290.157" /> 
<circle cx="7055.05" cy="5175" r="290.157" /> 
<circle cx="6055.05" cy="4175" r="290.157" /> 
<circle cx="6055.05" cy="5175" r="290.157" /> 
<circle cx="5055.05" cy="4175" r="290.157" /> 
<circle cx="5055.05" cy="5175" r="290.157" /> 
<polyline style="fill-rule:evenodd;"
points="7611,11977
7611,11603
7867,11603
7867,11977
7611,11977
" /> 
<polyline style="fill-rule:evenodd;"
points="8162,11977
8162,11603
8497,11603
8497,11977
8162,11977
" /> 
<polyline style="fill-rule:evenodd;"
points="8792,11977
8792,11603
9048,11603
9048,11977
8792,11977
" /> 
<polyline style="fill-rule:evenodd;"
points="8792,10796
8792,10422
9048,10422
9048,10796
8792,10796
" /> 
<polyline style="fill-rule:evenodd;"
points="8162,10796
8162,10422
8497,10422
8497,10796
8162,10796
" /> 
<polyline style="fill-rule:evenodd;"
points="7611,10796
7611,10422
7867,10422
7867,10796
7611,10796
" /> 
<polyline style="fill-rule:evenodd;"
points="3595,3859
3595,4290
3364,4290
3364,3859
3595,3859
" /> 
<polyline style="fill-rule:evenodd;"
points="2995,3859
2995,4290
2764,4290
2764,3859
2995,3859
" /> 
<polyline style="fill-rule:evenodd;"
points="8414,5809
8845,5809
8845,6040
8414,6040
8414,5809
" /> 
<polyline style="fill-rule:evenodd;"
points="8414,6409
8845,6409
8845,6640
8414,6640
8414,6409
" /> 
<polyline style="fill-rule:evenodd;"
points="9120,5590
8689,5590
8689,5359
9120,5359
9120,5590
" /> 
<polyline style="fill-rule:evenodd;"
points="9120,4990
8689,4990
8689,4759
9120,4759
9120,4990
" /> 
<polyline style="fill-rule:evenodd;"
points="2964,6915
2964,6484
3195,6484
3195,6915
2964,6915
" /> 
<polyline style="fill-rule:evenodd;"
points="3564,6915
3564,6484
3795,6484
3795,6915
3564,6915
" /> 
<polyline style="fill-rule:evenodd;"
points="2964,6240
2964,5809
3195,5809
3195,6240
2964,6240
" /> 
<polyline style="fill-rule:evenodd;"
points="3564,6240
3564,5809
3795,5809
3795,6240
3564,6240
" /> 
<polyline style="fill-rule:evenodd;"
points="3964,3584
4395,3584
4395,3815
3964,3815
3964,3584
" /> 
<polyline style="fill-rule:evenodd;"
points="3964,4184
4395,4184
4395,4415
3964,4415
3964,4184
" /> 
<polyline style="fill-rule:evenodd;"
points="2764,4890
2764,4459
2995,4459
2995,4890
2764,4890
" /> 
<polyline style="fill-rule:evenodd;"
points="3364,4890
3364,4459
3595,4459
3595,4890
3364,4890
" /> 
<polyline style="fill-rule:evenodd;"
points="3595,5059
3595,5490
3364,5490
3364,5059
3595,5059
" /> 
<polyline style="fill-rule:evenodd;"
points="2995,5059
2995,5490
2764,5490
2764,5059
2995,5059
" /> 
<polyline style="fill-rule:evenodd;"
points="2669,12860
2669,12289
3240,12289
3240,12860
2669,12860
" /> 
<polyline style="fill-rule:evenodd;"
points="3669,12860
3669,12289
4240,12289
4240,12860
3669,12860
" /> 
<polyline style="fill-rule:evenodd;"
points="4669,12860
4669,12289
5240,12289
5240,12860
4669,12860
" /> 
<polyline style="fill-rule:evenodd;"
points="5669,12860
5669,12289
6240,12289
6240,12860
5669,12860
" /> 
<polyline style="fill-rule:evenodd;"
points="6669,12860
6669,12289
7240,12289
7240,12860
6669,12860
" /> 
<polyline style="fill-rule:evenodd;"
points="7669,12860
7669,12289
8240,12289
8240,12860
7669,12860
" /> 
<polyline style="fill-rule:evenodd;"
points="8669,12860
8669,12289
9240,12289
9240,12860
8669,12860
" /> 
<polyline style="fill-rule:evenodd;"
points="8495,9133
8384,9244
7841,8702
7952,8590
8495,9133
" /> 
<polyline style="fill-rule:evenodd;"
points="8272,9356
8161,9467
7618,8924
7730,8813
8272,9356
" /> 
<polyline style="fill-rule:evenodd;"
points="8050,9578
7938,9690
7396,9147
7507,9036
8050,9578
" /> 
<polyline style="fill-rule:evenodd;"
points="7827,9801
7716,9912
7173,9370
7284,9259
7827,9801
" /> 
<polyline style="fill-rule:evenodd;"
points="7604,10024
7493,10135
6950,9593
7061,9481
7604,10024
" /> 
<polyline style="fill-rule:evenodd;"
points="7381,10247
7270,10358
6727,9815
6839,9704
7381,10247
" /> 
<polyline style="fill-rule:evenodd;"
points="7159,10469
7047,10581
6505,10038
6616,9927
7159,10469
" /> 
<polyline style="fill-rule:evenodd;"
points="6936,10692
6825,10803
6282,10261
6393,10150
6936,10692
" /> 
<polyline style="fill-rule:evenodd;"
points="4274,8028
4163,8139
3620,7596
3732,7485
4274,8028
" /> 
<polyline style="fill-rule:evenodd;"
points="5837,6465
5726,6576
5183,6034
5294,5922
5837,6465
" /> 
<polyline style="fill-rule:evenodd;"
points="5611,6691
5499,6803
4957,6260
5068,6149
5611,6691
" /> 
<polyline style="fill-rule:evenodd;"
points="5384,6918
5273,7029
4731,6486
4842,6375
5384,6918
" /> 
<polyline style="fill-rule:evenodd;"
points="5165,7137
5054,7248
4511,6705
4623,6594
5165,7137
" /> 
<polyline style="fill-rule:evenodd;"
points="4939,7363
4828,7474
4285,6932
4396,6821
4939,7363
" /> 
<polyline style="fill-rule:evenodd;"
points="4720,7582
4609,7694
4066,7151
4177,7040
4720,7582
" /> 
<polyline style="fill-rule:evenodd;"
points="4493,7809
4382,7920
3840,7377
3951,7266
4493,7809
" /> 
<polyline style="fill-rule:evenodd;"
points="5824,10264
5282,10806
5170,10695
5713,10152
5824,10264
" /> 
<polyline style="fill-rule:evenodd;"
points="5602,10042
5060,10584
4948,10473
5491,9930
5602,10042
" /> 
<polyline style="fill-rule:evenodd;"
points="5379,9818
4836,10361
4725,10249
5268,9707
5379,9818
" /> 
<polyline style="fill-rule:evenodd;"
points="5157,9596
4614,10139
4503,10027
5046,9485
5157,9596
" /> 
<polyline style="fill-rule:evenodd;"
points="4933,9373
4391,9915
4279,9804
4822,9261
4933,9373
" /> 
<polyline style="fill-rule:evenodd;"
points="4711,9151
4169,9693
4057,9582
4600,9039
4711,9151
" /> 
<polyline style="fill-rule:evenodd;"
points="4488,8927
3945,9470
3834,9359
4377,8816
4488,8927
" /> 
<polyline style="fill-rule:evenodd;"
points="4266,8705
3723,9248
3612,9137
4155,8594
4266,8705
" /> 
<polyline style="fill-rule:evenodd;"
points="8496,7589
7953,8132
7842,8021
8384,7478
8496,7589
" /> 
<polyline style="fill-rule:evenodd;"
points="8277,7370
7734,7913
7623,7801
8165,7259
8277,7370
" /> 
<polyline style="fill-rule:evenodd;"
points="8050,7144
7508,7686
7396,7575
7939,7033
8050,7144
" /> 
<polyline style="fill-rule:evenodd;"
points="7831,6925
7288,7467
7177,7356
7720,6813
7831,6925
" /> 
<polyline style="fill-rule:evenodd;"
points="7612,6705
7069,7248
6958,7137
7501,6594
7612,6705
" /> 
<polyline style="fill-rule:evenodd;"
points="7386,6479
6843,7022
6732,6911
7274,6368
7386,6479
" /> 
<polyline style="fill-rule:evenodd;"
points="7159,6253
6617,6796
6505,6684
7048,6142
7159,6253
" /> 
<polyline style="fill-rule:evenodd;"
points="6933,6027
6390,6569
6279,6458
6822,5915
6933,6027
" /> 
<polyline style="fill-rule:evenodd;"
points="3989,10209
4420,10209
4420,10440
3989,10440
3989,10209
" /> 
<polyline style="fill-rule:evenodd;"
points="3989,10809
4420,10809
4420,11040
3989,11040
3989,10809
" /> 
</g>
<g style="fill:#C1C1C1; fill-opacity:1.0; 
stroke:#C1C1C1; stroke-width:19.685; stroke-opacity:1; 
stroke-linecap:round; stroke-linejoin:round;">
<circle cx="5430.05" cy="8200" r="100.394" /> 
<circle cx="8455.05" cy="12225" r="100.394" /> 
<circle cx="4805.05" cy="8200" r="100.394" /> 
<circle cx="4405.05" cy="8500" r="100.394" /> 
<circle cx="4655.05" cy="8700" r="100.394" /> 
<circle cx="5255.05" cy="8900" r="100.394" /> 
<circle cx="5705.05" cy="9325" r="100.394" /> 
<circle cx="5830.05" cy="8200" r="100.394" /> 
<circle cx="7230.05" cy="7875" r="100.394" /> 
<circle cx="6280.05" cy="3200" r="100.394" /> 
<circle cx="5830.05" cy="3200" r="100.394" /> 
<circle cx="5905.05" cy="6250" r="100.394" /> 
<circle cx="5980.05" cy="7450" r="100.394" /> 
<circle cx="6680.05" cy="15000" r="100.394" /> 
<circle cx="7180.05" cy="15000" r="100.394" /> 
<circle cx="8005.05" cy="11350" r="100.394" /> 
<circle cx="7405.05" cy="8650" r="100.394" /> 
<circle cx="8380.05" cy="7200" r="100.394" /> 
<circle cx="4630.05" cy="10950" r="100.394" /> 
<circle cx="4630.05" cy="4775" r="100.394" /> 
<circle cx="5530.05" cy="3200" r="100.394" /> 
<circle cx="3305.05" cy="7300" r="100.394" /> 
<circle cx="8105.05" cy="5775" r="100.394" /> 
<circle cx="2905.05" cy="3600" r="100.394" /> 
<circle cx="6580.05" cy="3200" r="100.394" /> 
</g>
<g style="fill:#840000; fill-opacity:1.0; 
stroke:#840000; stroke-width:66.9291; stroke-opacity:1; 
stroke-linecap:round; stroke-linejoin:round;">
<path d="M8955 12575
L9055 12575
" />
<path d="M8830 18500
L9330 18000
" />
<path d="M9330 18000
L9330 12850
" />
<path d="M8830 18500
L8455 18500
" />
<path d="M9055 12575
L9330 12850
" />
<path d="M9205 12825
L8955 12575
" />
<path d="M8605 12225
L8955 12575
" />
<path d="M4473 7900
L4167 7593
" />
<path d="M5180 7900
L4473 7900
" />
<path d="M5430 8150
L5180 7900
" />
<path d="M5430 8200
L5430 8150
" />
<path d="M8455 12225
L8605 12225
" />
<path d="M3947 7812
L4017 7812
" />
<path d="M4680 8075
L4805 8200
" />
<path d="M4280 8075
L4680 8075
" />
<path d="M4017 7812
L4280 8075
" />
<path d="M4210 8075
L3947 7812
" />
<path d="M4210 8075
L3947 7812
" />
<path d="M3947 7812
L3947 7817
" />
<path d="M3947 7812
L3947 7817
" />
<path d="M4360 8500
L3939 8921
" />
<path d="M4405 8500
L4360 8500
" />
<path d="M4655 8700
L4604 8700
" />
<path d="M4604 8700
L4161 9143
" />
<path d="M4604 8700
L4161 9143
" />
<path d="M5255 8900
L4851 8900
" />
<path d="M4851 8900
L4384 9366
" />
<path d="M4851 8900
L4384 9366
" />
<path d="M5705 9325
L4870 9325
" />
<path d="M4870 9325
L4606 9588
" />
<path d="M3480 5275
L3480 5550
" />
<path d="M4730 6375
L5058 6702
" />
<path d="M3480 6375
L4730 6375
" />
<path d="M3405 6300
L3480 6375
" />
<path d="M3405 5625
L3405 6300
" />
<path d="M3480 5550
L3405 5625
" />
<path d="M3536 5331
L3480 5275
" />
<path d="M3480 4675
L3480 5275
" />
<path d="M3480 4250
L3480 4675
" />
<path d="M4726 7700
L4393 7367
" />
<path d="M5330 7700
L4726 7700
" />
<path d="M5830 8200
L5330 7700
" />
<path d="M9030 13825
L9030 16750
" />
<path d="M4805 10575
L4880 10650
" />
<path d="M4880 11650
L3955 12575
" />
<path d="M4880 10650
L4880 11650
" />
<path d="M8455 13500
L8705 13500
" />
<path d="M8705 13500
L9030 13825
" />
<path d="M3955 12575
L3955 12975
" />
<path d="M3905 16775
L4205 17075
" />
<path d="M3905 13025
L3905 16775
" />
<path d="M3955 12975
L3905 13025
" />
<path d="M4205 17075
L8705 17075
" />
<path d="M8705 17075
L9030 16750
" />
<path d="M4805 10281
L5052 10034
" />
<path d="M4805 10575
L4805 10281
" />
<path d="M5275 10257
L5275 10262
" />
<path d="M5005 12525
L4955 12575
" />
<path d="M5030 10558
L5030 12550
" />
<path d="M5275 10262
L5005 10533
" />
<path d="M8455 14500
L7455 13500
" />
<path d="M4955 12575
L4955 12675
" />
<path d="M8880 14925
L8455 14500
" />
<path d="M8880 16711
L8880 14925
" />
<path d="M8649 16941
L8880 16711
" />
<path d="M4305 16941
L8649 16941
" />
<path d="M4038 16675
L4305 16941
" />
<path d="M4038 13241
L4038 16675
" />
<path d="M4205 13075
L4038 13241
" />
<path d="M4555 13075
L4205 13075
" />
<path d="M4955 12675
L4555 13075
" />
<path d="M7059 6695
L7059 6720
" />
<path d="M7230 7650
L7230 7875
" />
<path d="M6780 7200
L7230 7650
" />
<path d="M6780 7000
L6780 7200
" />
<path d="M7059 6720
L6780 7000
" />
<path d="M6280 3200
L6280 2700
" />
<path d="M5955 2375
L5555 2375
" />
<path d="M6280 2700
L5955 2375
" />
<path d="M6055 5175
L6405 5175
" />
<path d="M7155 6146
L6832 6469
" />
<path d="M7155 5925
L7155 6146
" />
<path d="M6405 5175
L7155 5925
" />
<path d="M6606 6242
L6272 6242
" />
<path d="M5555 4675
L5055 4175
" />
<path d="M5555 5525
L5555 4675
" />
<path d="M6272 6242
L5555 5525
" />
<path d="M5510 6249
L5904 6249
" />
<path d="M5904 6249
L5905 6250
" />
<path d="M5497 10479
L5500 10479
" />
<path d="M5500 10479
L6305 9675
" />
<path d="M6305 7775
L5980 7450
" />
<path d="M6305 9675
L6305 7775
" />
<path d="M5955 14725
L6230 15000
" />
<path d="M6230 15000
L6680 15000
" />
<path d="M5955 12575
L5955 14725
" />
<path d="M8455 15175
L8280 15000
" />
<path d="M8280 15000
L7180 15000
" />
<path d="M8455 15175
L8455 15500
" />
<path d="M5955 12575
L5955 11131
" />
<path d="M5955 11131
L6634 10451
" />
<path d="M8455 16500
L8455 16150
" />
<path d="M6955 15800
L6955 12575
" />
<path d="M7155 16000
L6955 15800
" />
<path d="M8305 16000
L7155 16000
" />
<path d="M8455 16150
L8305 16000
" />
<path d="M6955 12575
L6630 12250
" />
<path d="M6834 10254
L7155 10575
" />
<path d="M7155 10575
L7155 10750
" />
<path d="M6832 10254
L6834 10254
" />
<path d="M6630 12250
L6630 11275
" />
<path d="M6630 11275
L7155 10750
" />
<path d="M7955 12575
L8180 12575
" />
<path d="M8180 12575
L9180 13575
" />
<path d="M8455 17500
L8830 17500
" />
<path d="M8830 17500
L9180 17150
" />
<path d="M9180 17150
L9180 13575
" />
<path d="M8169 7805
L8169 7885
" />
<path d="M8005 12100
L8005 11350
" />
<path d="M7955 12150
L8005 12100
" />
<path d="M7955 12150
L7955 12575
" />
<path d="M8169 7885
L7405 8650
" />
<path d="M7950 7586
L7993 7586
" />
<path d="M7993 7586
L8380 7200
" />
<path d="M7261 11575
L7261 11468
" />
<path d="M7261 11468
L7630 11100
" />
<path d="M8717 7187
L8717 9212
" />
<path d="M7748 7335
L7753 7335
" />
<path d="M8505 6975
L8717 7187
" />
<path d="M8113 6975
L8505 6975
" />
<path d="M7753 7335
L8113 6975
" />
<path d="M7630 11100
L8980 11100
" />
<path d="M8717 9212
L9180 9675
" />
<path d="M9180 10900
L8980 11100
" />
<path d="M9180 9675
L9180 10900
" />
<path d="M7055 4175
L7055 4500
" />
<path d="M7055 4500
L7555 5000
" />
<path d="M7055 4175
L7055 4384
" />
<path d="M7820 6825
L7504 7140
" />
<path d="M8905 6825
L7820 6825
" />
<path d="M9030 6700
L8905 6825
" />
<path d="M9030 6325
L9030 6700
" />
<path d="M8930 6225
L9030 6325
" />
<path d="M8130 6225
L8930 6225
" />
<path d="M7555 5650
L8130 6225
" />
<path d="M7555 5000
L7555 5650
" />
<path d="M8630 6525
L7682 6525
" />
<path d="M7682 6525
L7285 6921
" />
<path d="M4180 10925
L4605 10925
" />
<path d="M4605 10925
L4630 10950
" />
<path d="M4180 4300
L4180 4325
" />
<path d="M4180 4325
L4630 4775
" />
<path d="M4305 10375
L4305 10125
" />
<path d="M3305 9125
L3305 7300
" />
<path d="M4305 10125
L3305 9125
" />
<path d="M4305 10375
L4305 10337
" />
<path d="M4305 10337
L4830 9812
" />
<path d="M8280 9424
L7970 9115
" />
<path d="M7739 10609
L7739 10365
" />
<path d="M8280 9825
L8280 9424
" />
<path d="M7739 10365
L8280 9825
" />
<path d="M8920 10609
L8920 9669
" />
<path d="M8920 9669
L8168 8917
" />
<path d="M3680 6700
L3738 6700
" />
<path d="M4442 6525
L4838 6921
" />
<path d="M3913 6525
L4442 6525
" />
<path d="M3738 6700
L3913 6525
" />
<path d="M8905 5475
L8905 5650
" />
<path d="M8905 5650
L8630 5925
" />
</g>
<g style="fill:#840000; fill-opacity:1.0; 
stroke:#840000; stroke-width:100; stroke-opacity:1; 
stroke-linecap:round; stroke-linejoin:round;">
<path d="M3780 3700
L4180 3700
" />
<path d="M3780 3700
L3780 4625
" />
<path d="M3780 4625
L4667 5512
" />
<path d="M2880 4675
L3192 4675
" />
<path d="M3192 4675
L3155 4675
" />
<path d="M3155 4675
L3192 4675
" />
<path d="M3680 6025
L3705 5700
" />
<path d="M3705 5700
L3805 5600
" />
<path d="M3805 5600
L4580 5600
" />
<path d="M4580 5600
L4667 5512
" />
<path d="M3080 5650
L2905 5650
" />
<path d="M2830 5725
L2830 9450
" />
<path d="M2905 5650
L2830 5725
" />
<path d="M3192 3937
L3192 3787
" />
<path d="M3280 3700
L3780 3700
" />
<path d="M3780 3700
L3880 3700
" />
<path d="M3192 3787
L3280 3700
" />
<path d="M6580 3200
L6580 2950
" />
<path d="M7155 2375
L7555 2375
" />
<path d="M6580 2950
L7155 2375
" />
<path d="M6580 3175
L6555 3150
" />
<path d="M6580 3200
L6580 3175
" />
<path d="M3455 10475
L3455 10075
" />
<path d="M3192 5162
L3192 5537
" />
<path d="M3080 5650
L3192 5537
" />
<path d="M3455 10075
L2830 9450
" />
<path d="M7555 4675
L8055 5175
" />
<path d="M7555 3968
L7286 3700
" />
<path d="M7286 3700
L3880 3700
" />
<path d="M7555 3968
L7555 4675
" />
<path d="M4667 5512
L4955 5800
" />
<path d="M4955 6146
L5284 6476
" />
<path d="M4955 5800
L4955 6146
" />
<path d="M7723 9363
L7718 9363
" />
<path d="M7718 9363
L6980 8625
" />
<path d="M7277 9808
L7277 9797
" />
<path d="M5733 6925
L5284 6476
" />
<path d="M6980 8625
L6980 7625
" />
<path d="M6980 7625
L6280 6925
" />
<path d="M6280 6925
L5733 6925
" />
<path d="M6980 9500
L6980 8625
" />
<path d="M7277 9797
L6980 9500
" />
<path d="M3192 3937
L3192 4675
" />
<path d="M3192 4675
L3192 5162
" />
</g>
<g style="fill:#840000; fill-opacity:1.0; 
stroke:#840000; stroke-width:66.9291; stroke-opacity:1; 
stroke-linecap:round; stroke-linejoin:round;">
<path d="M7302 9772
L7302 9783
" />
<path d="M7302 9783
L7302 9772
" />
</g>
<g style="fill:#840000; fill-opacity:1.0; 
stroke:#840000; stroke-width:19.685; stroke-opacity:1; 
stroke-linecap:round; stroke-linejoin:round;">
<polyline style="fill-rule:evenodd;"
points="9325,18920
7855,18920
7855,18420
7794,18273
7682,18160
7535,18099
7375,18099
7228,18160
7115,18272
7054,18420
7054,18579
7115,18726
7227,18839
7375,18900
7534,18900
7681,18839
7794,18727
7855,18579
7855,18420
7855,18920
6855,18920
6855,18420
6794,18273
6682,18160
6535,18099
6375,18099
6228,18160
6115,18272
6054,18420
6054,18579
6115,18726
6227,18839
6375,18900
6534,18900
6681,18839
6794,18727
6855,18579
6855,18420
6855,18920
5855,18920
5855,18420
5794,18273
5682,18160
5535,18099
5375,18099
5228,18160
5115,18272
5054,18420
5054,18579
5115,18726
5227,18839
5375,18900
5534,18900
5681,18839
5794,18727
5855,18579
5855,18420
5855,18920
4855,18920
4855,18420
4794,18273
4682,18160
4535,18099
4375,18099
4228,18160
4115,18272
4054,18420
4054,18579
4115,18726
4227,18839
4375,18900
4534,18900
4681,18839
4794,18727
4855,18579
4855,18420
4855,18920
3855,18920
3855,18420
3855,17420
3794,17273
3682,17160
3535,17099
3375,17099
3228,17160
3115,17272
3054,17420
3054,17579
3115,17726
3227,17839
3375,17900
3534,17900
3681,17839
3794,17727
3855,17579
3855,17420
3855,18420
3794,18273
3682,18160
3535,18099
3375,18099
3228,18160
3115,18272
3054,18420
3054,18579
3115,18726
3227,18839
3375,18900
3534,18900
3681,18839
3794,18727
3855,18579
3855,18420
3855,18920
2584,18920
2584,13001
2630,13019
2770,13019
2807,12982
2807,12722
2781,12722
2781,12427
2807,12427
2807,12167
2770,12130
2630,12130
2584,12148
2584,3429
5230,3429
5242,3427
5255,3427
5331,3412
5378,3392
5406,3374
5410,3378
5487,3410
5571,3410
5649,3378
5680,3347
5710,3378
5787,3410
5871,3410
5949,3378
6008,3319
6040,3242
6040,3158
6008,3080
5949,3021
5872,2989
5788,2989
5710,3021
5680,3052
5649,3021
5572,2989
5538,2989
5522,2951
5522,2951
5479,2886
5479,2886
5461,2868
5443,2850
5443,2850
5378,2807
5331,2787
5255,2772
5242,2772
5230,2770
4647,2770
4781,2714
4894,2602
4955,2454
4955,2295
4894,2148
4782,2035
4635,1974
4475,1974
4328,2035
4215,2147
4154,2295
4154,2454
4215,2601
4327,2714
4462,2770
4011,2770
4011,2330
3993,2241
3939,2202
3767,2375
3939,2547
3993,2508
4011,2330
4011,2770
3719,2770
3727,2759
3727,1990
3688,1936
3510,1918
3421,1936
3383,1990
3555,2162
3727,1990
3727,2759
3555,2587
3383,2759
3390,2770
3134,2770
3134,2521
3170,2547
3342,2375
3170,2202
3134,2228
3134,1479
8975,1479
8975,2720
8945,2720
8955,2694
8955,2655
8955,2055
8940,2018
8911,1989
8875,1974
8835,1974
8235,1974
8198,1989
8169,2018
8154,2055
8154,2094
8154,2694
8165,2720
7768,2720
7781,2714
7894,2602
7955,2454
7955,2295
7894,2148
7782,2035
7635,1974
7475,1974
7328,2035
7215,2147
7183,2224
7155,2224
7097,2236
7048,2268
6955,2361
6955,2295
6894,2148
6782,2035
6635,1974
6475,1974
6328,2035
6215,2147
6154,2295
6154,2385
6049,2280
6006,2251
5955,2241
5932,2241
5894,2148
5782,2035
5635,1974
5475,1974
5328,2035
5215,2147
5154,2295
5154,2454
5215,2601
5327,2714
5475,2775
5634,2775
5781,2714
5894,2602
5923,2532
6146,2755
6146,3036
6101,3080
6069,3157
6069,3241
6101,3319
6160,3378
6237,3410
6321,3410
6399,3378
6430,3347
6460,3378
6537,3410
6621,3410
6699,3378
6710,3366
6746,3390
6746,3390
6746,3390
6793,3410
6793,3410
6879,3427
6892,3427
6905,3429
9325,3429
9325,3775
9183,3717
9026,3717
8880,3777
8769,3888
8709,4033
8708,4191
8769,4336
8880,4448
9025,4508
9183,4508
9325,4449
9325,12212
9307,12194
9270,12179
9230,12179
9158,12179
9158,12007
9158,11967
9158,11573
9143,11536
9115,11508
9078,11493
9038,11493
8762,11493
8725,11508
8697,11536
8682,11573
8682,11613
8682,12007
8697,12044
8725,12072
8762,12087
8802,12087
9078,12087
9115,12072
9143,12044
9158,12007
9158,12179
8748,12179
8699,12130
8656,12101
8622,12094
8622,12094
8616,12089
8633,12072
8656,12017
8656,11957
8656,11926
8656,11654
8656,11623
8656,11563
8633,11509
8591,11466
8536,11444
8456,11444
8418,11481
8418,11692
8619,11692
8656,11654
8656,11926
8619,11888
8418,11888
8418,11963
8241,11963
8241,11888
8156,11888
8156,11692
8241,11692
8241,11481
8204,11444
8194,11444
8215,11392
8215,11308
8184,11233
8980,11233
9031,11223
9031,11223
9074,11194
9274,10994
9274,10994
9294,10965
9303,10951
9303,10951
9313,10900
9313,10900
9313,9675
9303,9623
9303,9623
9294,9609
9279,9587
9279,5029
9279,4974
9279,4775
9279,4720
9256,4665
9214,4623
9159,4600
9100,4600
9054,4600
9017,4637
9017,4812
9242,4812
9279,4775
9279,4974
9242,4937
9017,4937
9017,5112
9054,5149
9100,5149
9159,5149
9214,5126
9256,5084
9279,5029
9279,9587
9274,9580
9274,9580
8851,9157
8851,7187
8841,7136
8812,7092
8678,6958
8905,6958
8956,6948
8956,6948
8999,6919
9124,6794
9153,6751
9163,6700
9163,6325
9155,6282
9153,6273
9153,6273
9124,6230
9024,6130
8981,6101
8945,6094
8955,6069
8955,6030
8955,5788
8999,5744
9028,5701
9028,5701
9028,5700
9150,5700
9186,5685
9215,5656
9230,5619
9230,5580
9230,5330
9215,5293
9186,5264
9150,5249
9110,5249
8792,5249
8792,5112
8792,4937
8792,4812
8792,4637
8755,4600
8709,4600
8650,4600
8595,4623
8553,4665
8530,4720
8530,4775
8567,4812
8792,4812
8792,4937
8567,4937
8530,4974
8530,5029
8553,5084
8595,5126
8650,5149
8709,5149
8755,5149
8792,5112
8792,5249
8660,5249
8623,5264
8594,5293
8579,5330
8579,5369
8579,5619
8594,5656
8623,5685
8658,5699
8504,5699
8504,4504
8504,4445
8504,4362
8504,3987
8504,3904
8504,3845
8481,3790
8439,3748
8384,3725
8242,3725
8205,3762
8205,4025
8467,4025
8504,3987
8504,4362
8467,4325
8205,4325
8205,4587
8242,4624
8384,4624
8439,4601
8481,4559
8504,4504
8504,5699
8385,5699
8348,5714
8319,5743
8304,5780
8304,5819
8304,6069
8313,6091
8185,6091
7688,5594
7688,5337
7715,5401
7827,5514
7975,5575
8134,5575
8281,5514
8394,5402
8455,5254
8455,5095
8394,4948
8282,4835
8135,4774
7975,4774
7898,4806
7711,4618
7725,4624
7867,4624
7905,4587
7905,4325
7881,4325
7881,4025
7905,4025
7905,3762
7867,3725
7725,3725
7670,3748
7628,3790
7617,3817
7393,3593
7344,3561
7286,3549
4503,3549
4490,3518
4461,3489
4425,3474
4385,3474
3935,3474
3898,3489
3869,3518
3856,3549
3780,3549
3280,3549
3222,3561
3173,3593
3086,3681
3064,3712
3034,3700
2979,3700
2942,3737
2942,3962
3005,3962
3005,4187
2942,4187
2942,4248
2817,4248
2817,4187
2817,3962
2817,3737
2780,3700
2725,3700
2670,3723
2628,3765
2605,3820
2605,3879
2605,3925
2642,3962
2817,3962
2817,4187
2642,4187
2605,4224
2605,4270
2605,4329
2628,4384
2660,4416
2654,4430
2654,4469
2654,4919
2660,4933
2628,4965
2605,5020
2605,5079
2605,5125
2642,5162
2817,5162
2817,5101
2942,5101
2942,5162
3005,5162
3005,5387
2942,5387
2942,5448
2817,5448
2817,5387
2642,5387
2605,5424
2605,5470
2605,5529
2628,5584
2670,5626
2707,5642
2691,5667
2679,5725
2679,9450
2691,9507
2723,9556
3281,10113
3228,10135
3115,10247
3054,10395
3054,10554
3115,10701
3227,10814
3375,10875
3534,10875
3681,10814
3794,10702
3855,10554
3855,10395
3794,10248
3682,10135
3605,10103
3605,10075
3593,10017
3561,9968
2980,9387
2980,7074
3017,7037
3017,6812
2980,6812
2980,6587
3017,6587
3017,6362
3017,6362
3017,6362
3017,6137
2980,6137
2980,5912
3017,5912
3017,5851
3142,5851
3142,5912
3205,5912
3205,6137
3142,6137
3142,6362
3142,6362
3142,6362
3142,6587
3317,6587
3354,6550
3354,6504
3354,6445
3349,6434
3385,6469
3428,6498
3454,6503
3454,6944
3469,6981
3498,7010
3535,7025
3575,7025
3825,7025
3861,7010
3890,6981
3905,6944
3905,6905
3905,6722
3968,6658
4364,6658
4312,6680
4286,6706
4286,6759
4526,6999
4558,6968
4792,7202
4760,7233
5001,7474
5054,7474
5080,7448
5102,7393
5102,7351
5111,7347
5139,7319
5264,7194
5280,7157
5280,7143
5293,7143
5330,7128
5358,7100
5483,6974
5499,6938
5499,6917
5512,6917
5626,7031
5675,7063
5733,7075
6217,7075
6829,7687
6829,8625
6829,9500
6837,9541
6809,9541
6754,9563
6728,9589
6728,9642
6969,9883
7000,9851
7234,10085
7203,10117
7443,10357
7496,10357
7522,10331
7545,10276
7545,10236
7550,10234
7578,10206
7703,10081
7705,10076
7745,10076
7800,10053
7826,10027
7826,9974
7586,9734
7554,9765
7320,9531
7352,9500
7346,9494
7409,9432
7414,9437
7445,9406
7679,9640
7648,9671
7889,9912
7942,9912
7967,9886
7990,9831
7990,9791
7995,9789
8023,9760
8146,9638
8146,9769
7644,10270
7617,10312
7581,10312
7544,10327
7516,10355
7501,10392
7501,10432
7501,10826
7516,10863
7544,10891
7581,10906
7621,10906
7897,10906
7934,10891
7962,10863
7977,10826
7977,10786
7977,10392
7962,10355
7950,10343
8374,9919
8403,9876
8403,9876
8405,9867
8413,9825
8413,9825
8413,9424
8405,9382
8403,9373
8403,9373
8394,9359
8404,9359
8415,9354
8786,9725
8786,10312
8762,10312
8725,10327
8697,10355
8682,10392
8682,10432
8682,10826
8697,10863
8725,10891
8762,10906
8802,10906
8984,10906
8924,10966
8656,10966
8656,10836
8656,10776
8656,10745
8656,10473
8656,10442
8656,10382
8633,10327
8591,10285
8536,10263
8456,10263
8418,10300
8418,10511
8619,10511
8656,10473
8656,10745
8619,10707
8418,10707
8418,10918
8456,10955
8536,10955
8591,10933
8633,10890
8656,10836
8656,10966
8241,10966
8241,10918
8241,10707
8241,10511
8241,10300
8204,10263
8123,10263
8068,10285
8026,10327
8003,10382
8003,10442
8003,10473
8040,10511
8241,10511
8241,10707
8040,10707
8003,10745
8003,10776
8003,10836
8026,10890
8068,10933
8123,10955
8204,10955
8241,10918
8241,10966
7630,10966
7587,10974
7578,10976
7535,11005
7311,11229
6900,11229
6863,11244
6835,11272
6819,11309
6819,11349
6819,11940
6835,11977
6863,12005
6900,12020
6940,12020
7506,12020
7516,12044
7544,12072
7581,12087
7621,12087
7838,12087
7831,12098
7821,12150
7821,12179
7639,12179
7602,12194
7574,12222
7559,12259
7559,12299
7559,12890
7574,12927
7602,12955
7639,12970
7679,12970
8270,12970
8307,12955
8335,12927
8337,12921
8515,13099
8375,13099
8228,13160
8115,13272
8054,13420
8054,13579
8115,13726
8227,13839
8375,13900
8534,13900
8681,13839
8768,13752
8896,13880
8896,14751
8816,14672
8855,14579
8855,14420
8794,14273
8682,14160
8535,14099
8375,14099
8282,14138
7855,13711
7855,13180
7840,13143
7811,13114
7775,13099
7735,13099
7135,13099
7098,13114
7088,13124
7088,12970
7270,12970
7307,12955
7335,12927
7350,12890
7350,12850
7350,12259
7335,12222
7307,12194
7270,12179
7230,12179
6763,12179
6763,11330
7249,10844
7278,10801
7288,10750
7288,10575
7278,10523
7278,10523
7277,10521
7300,10521
7355,10499
7381,10473
7381,10420
7140,10179
7109,10211
6875,9977
6906,9945
6666,9705
6613,9705
6587,9731
6564,9786
6564,9826
6559,9828
6531,9856
6406,9981
6390,10018
6390,10035
6373,10035
6336,10051
6308,10079
6183,10204
6168,10241
6168,10281
6183,10318
6211,10346
6381,10515
5860,11036
5831,11080
5821,11131
5821,12179
5639,12179
5602,12194
5574,12222
5559,12259
5559,12299
5559,12890
5574,12927
5602,12955
5639,12970
5679,12970
5821,12970
5821,13345
5667,13500
5821,13654
5821,14345
5667,14500
5821,14654
5821,14725
5831,14776
5860,14819
6135,15094
6178,15123
6178,15123
6187,15125
6230,15133
6292,15133
6228,15160
6115,15272
6054,15420
6054,15579
6115,15726
6227,15839
6375,15900
6534,15900
6681,15839
6794,15727
6821,15662
6821,15800
6831,15851
6860,15894
7060,16094
7060,16094
7089,16114
7103,16123
7103,16123
7155,16133
7292,16133
7228,16160
7115,16272
7054,16420
7054,16579
7115,16726
7196,16807
6713,16807
6794,16727
6855,16579
6855,16420
6794,16273
6682,16160
6535,16099
6375,16099
6228,16160
6115,16272
6054,16420
6054,16579
6115,16726
6196,16807
5713,16807
5794,16727
5855,16579
5855,16420
5855,15420
5794,15273
5682,15160
5627,15137
5627,14884
5627,14115
5627,13884
5627,13115
5588,13061
5410,13043
5321,13061
5283,13115
5455,13287
5627,13115
5627,13884
5455,13712
5283,13884
5321,13938
5499,13956
5588,13938
5627,13884
5627,14115
5588,14061
5410,14043
5321,14061
5283,14115
5455,14287
5627,14115
5627,14884
5455,14712
5283,14884
5321,14938
5499,14956
5588,14938
5627,14884
5627,15137
5535,15099
5375,15099
5242,15154
5242,14500
5242,13500
5070,13327
5016,13366
4998,13544
5016,13633
5070,13672
5242,13500
5242,14500
5070,14327
5016,14366
4998,14544
5016,14633
5070,14672
5242,14500
5242,15154
5228,15160
5115,15272
5054,15420
5054,15579
5115,15726
5227,15839
5375,15900
5534,15900
5681,15839
5794,15727
5855,15579
5855,15420
5855,16420
5794,16273
5682,16160
5535,16099
5375,16099
5228,16160
5115,16272
5054,16420
5054,16579
5115,16726
5196,16807
4713,16807
4794,16727
4855,16579
4855,16420
4794,16273
4682,16160
4535,16099
4375,16099
4228,16160
4172,16216
4172,15783
4227,15839
4375,15900
4534,15900
4681,15839
4794,15727
4855,15579
4855,15420
4794,15273
4682,15160
4535,15099
4375,15099
4228,15160
4172,15216
4172,14783
4227,14839
4375,14900
4534,14900
4681,14839
4794,14727
4855,14579
4855,14420
4794,14273
4682,14160
4535,14099
4375,14099
4228,14160
4172,14216
4172,13783
4227,13839
4375,13900
4534,13900
4681,13839
4794,13727
4855,13579
4855,13420
4794,13273
4682,13160
4665,13153
4848,12970
5270,12970
5307,12955
5335,12927
5350,12890
5350,12850
5350,12259
5335,12222
5307,12194
5270,12179
5230,12179
5163,12179
5163,10844
5225,10905
5262,10921
5302,10921
5339,10905
5367,10877
5923,10321
5939,10284
5939,10244
5935,10234
6399,9769
6428,9726
6438,9675
6438,7775
6430,7732
6428,7723
6428,7723
6399,7680
6399,7680
6190,7471
6190,7408
6158,7330
6099,7271
6022,7239
5938,7239
5860,7271
5801,7330
5769,7407
5769,7491
5801,7569
5860,7628
5937,7660
6001,7660
6171,7830
6171,9619
6040,9750
6040,8158
6008,8080
5949,8021
5872,7989
5808,7989
5424,7605
5381,7576
5330,7566
4938,7566
4938,7536
4698,7296
4667,7327
4432,7093
4464,7062
4223,6821
4170,6821
4144,6847
4122,6902
4122,6940
4120,6941
4092,6969
3967,7094
3952,7131
3952,7152
3931,7152
3894,7167
3866,7195
3741,7320
3725,7357
3725,7371
3712,7371
3675,7386
3647,7414
3521,7540
3506,7576
3506,7616
3521,7653
3550,7682
4106,8238
4143,8253
4183,8253
4220,8238
4248,8210
4255,8203
4280,8208
4594,8208
4594,8241
4626,8319
4685,8378
4762,8410
4846,8410
4924,8378
4983,8319
5015,8242
5015,8158
4983,8080
4936,8033
5124,8033
5228,8137
5219,8157
5219,8241
5251,8319
5310,8378
5387,8410
5471,8410
5549,8378
5608,8319
5630,8267
5651,8319
5710,8378
5787,8410
5871,8410
5949,8378
6008,8319
6040,8242
6040,8158
6040,9750
5746,10044
5733,10038
5717,10038
5717,10022
5701,9985
5673,9956
5548,9831
5511,9816
5493,9816
5493,9798
5478,9761
5450,9733
5324,9608
5288,9593
5271,9593
5271,9576
5256,9539
5228,9511
5175,9458
5541,9458
5585,9503
5662,9535
5746,9535
5824,9503
5883,9444
5915,9367
5915,9283
5883,9205
5824,9146
5747,9114
5663,9114
5585,9146
5541,9191
4907,9191
4879,9162
4842,9147
4826,9147
4826,9131
4821,9119
4907,9033
5091,9033
5135,9078
5212,9110
5296,9110
5374,9078
5433,9019
5465,8942
5465,8858
5433,8780
5374,8721
5297,8689
5213,8689
5135,8721
5091,8766
4855,8766
4865,8742
4865,8658
4833,8580
4774,8521
4697,8489
4615,8489
4615,8458
4583,8380
4524,8321
4447,8289
4363,8289
4285,8321
4226,8380
4194,8457
4194,8476
4186,8484
4175,8480
4135,8480
4098,8495
4069,8523
3513,9080
3498,9117
3498,9128
3438,9069
3438,7463
3483,7419
3515,7342
3515,7258
3483,7180
3424,7121
3354,7092
3354,6954
3354,6895
3354,6849
3317,6812
3142,6812
3142,7037
3179,7074
3234,7074
3289,7051
3331,7009
3354,6954
3354,7092
3347,7089
3263,7089
3185,7121
3126,7180
3094,7257
3094,7341
3126,7419
3171,7464
3171,9125
3181,9176
3210,9219
4090,10099
3960,10099
3923,10114
3894,10143
3879,10180
3879,10219
3879,10469
3894,10506
3923,10535
3960,10550
4000,10550
4450,10550
4486,10535
4515,10506
4530,10469
4530,10430
4530,10301
4583,10248
4594,10253
4611,10253
4611,10269
4626,10306
4654,10335
4671,10351
4671,10575
4681,10626
4710,10669
4746,10705
4746,10770
4672,10739
4588,10739
4524,10765
4515,10743
4486,10714
4450,10699
4410,10699
3960,10699
3923,10714
3894,10743
3879,10780
3879,10819
3879,11069
3894,11106
3923,11135
3960,11150
4000,11150
4450,11150
4486,11135
4502,11119
4510,11128
4587,11160
4671,11160
4746,11129
4746,11594
4589,11751
4589,11439
4589,11359
4589,11299
4566,11245
4524,11202
4469,11180
4329,11180
4292,11217
4292,11477
4552,11477
4589,11439
4589,11751
4560,11780
4552,11772
4292,11772
4292,12032
4300,12040
4161,12179
3996,12179
3996,12032
3996,11772
3971,11772
3971,11477
3996,11477
3996,11217
3959,11180
3904,11180
3904,11145
3881,11090
3839,11048
3784,11025
3725,11025
3642,11025
3605,11062
3605,11325
3628,11325
3628,11625
3605,11625
3605,11887
3642,11924
3699,11924
3699,11950
3722,12004
3764,12047
3819,12069
3959,12069
3996,12032
3996,12179
3639,12179
3602,12194
3574,12222
3559,12259
3559,12299
3559,12890
3574,12927
3602,12955
3639,12970
3679,12970
3783,12970
3781,12973
3771,13025
3771,13249
3682,13160
3535,13099
3399,13099
3399,12900
3399,12840
3399,12760
3399,12389
3399,12309
3399,12249
3377,12195
3335,12152
3305,12140
3305,11887
3305,11625
3305,11325
3305,11062
3267,11025
3184,11025
3125,11025
3070,11048
3028,11090
3005,11145
3005,11287
3042,11325
3305,11325
3305,11625
3042,11625
3005,11662
3005,11804
3028,11859
3070,11901
3125,11924
3184,11924
3267,11924
3305,11887
3305,12140
3280,12130
3140,12130
3102,12167
3102,12427
3362,12427
3399,12389
3399,12760
3362,12722
3102,12722
3102,12982
3140,13019
3280,13019
3335,12997
3377,12954
3399,12900
3399,13099
3375,13099
3228,13160
3115,13272
3054,13420
3054,13579
3115,13726
3227,13839
3375,13900
3534,13900
3681,13839
3771,13750
3771,14249
3682,14160
3535,14099
3375,14099
3228,14160
3115,14272
3054,14420
3054,14579
3115,14726
3227,14839
3375,14900
3534,14900
3681,14839
3771,14750
3771,15249
3682,15160
3535,15099
3375,15099
3228,15160
3115,15272
3054,15420
3054,15579
3115,15726
3227,15839
3375,15900
3534,15900
3681,15839
3771,15750
3771,16249
3682,16160
3535,16099
3375,16099
3228,16160
3115,16272
3054,16420
3054,16579
3115,16726
3227,16839
3375,16900
3534,16900
3681,16839
3771,16750
3771,16775
3781,16826
3810,16869
4110,17169
4153,17198
4184,17204
4115,17272
4054,17420
4054,17579
4115,17726
4227,17839
4375,17900
4534,17900
4681,17839
4794,17727
4855,17579
4855,17420
4794,17273
4730,17208
5179,17208
5115,17272
5054,17420
5054,17579
5115,17726
5227,17839
5375,17900
5534,17900
5681,17839
5794,17727
5855,17579
5855,17420
5794,17273
5730,17208
6179,17208
6115,17272
6054,17420
6054,17579
6115,17726
6227,17839
6375,17900
6534,17900
6681,17839
6794,17727
6855,17579
6855,17420
6794,17273
6730,17208
7179,17208
7115,17272
7054,17420
7054,17579
7115,17726
7227,17839
7375,17900
7534,17900
7681,17839
7794,17727
7855,17579
7855,17420
7794,17273
7730,17208
8179,17208
8115,17272
8054,17420
8054,17579
8115,17726
8227,17839
8375,17900
8534,17900
8681,17839
8794,17727
8833,17633
8881,17623
8881,17623
8924,17594
9196,17323
9196,17944
8815,18324
8794,18273
8682,18160
8535,18099
8375,18099
8228,18160
8115,18272
8054,18420
8054,18579
8115,18726
8227,18839
8375,18900
8534,18900
8681,18839
8794,18727
8833,18633
8881,18623
8881,18623
8924,18594
9325,18194
9325,18920
" /> 
</g>
<g style="fill:#840000; fill-opacity:0.0; 
stroke:#840000; stroke-width:62.9921; stroke-opacity:1; 
stroke-linecap:round; stroke-linejoin:round;">
<polyline fill="none;"
points="9325,18920
7855,18920
7855,18420
7794,18273
7682,18160
7535,18099
7375,18099
7228,18160
7115,18272
7054,18420
7054,18579
7115,18726
7227,18839
7375,18900
7534,18900
7681,18839
7794,18727
7855,18579
7855,18420
7855,18920
6855,18920
6855,18420
6794,18273
6682,18160
6535,18099
6375,18099
6228,18160
6115,18272
6054,18420
6054,18579
6115,18726
6227,18839
6375,18900
6534,18900
6681,18839
6794,18727
6855,18579
6855,18420
6855,18920
5855,18920
5855,18420
5794,18273
5682,18160
5535,18099
5375,18099
5228,18160
5115,18272
5054,18420
5054,18579
5115,18726
5227,18839
5375,18900
5534,18900
5681,18839
5794,18727
5855,18579
5855,18420
5855,18920
4855,18920
4855,18420
4794,18273
4682,18160
4535,18099
4375,18099
4228,18160
4115,18272
4054,18420
4054,18579
4115,18726
4227,18839
4375,18900
4534,18900
4681,18839
4794,18727
4855,18579
4855,18420
4855,18920
3855,18920
3855,18420
3855,17420
3794,17273
3682,17160
3535,17099
3375,17099
3228,17160
3115,17272
3054,17420
3054,17579
3115,17726
3227,17839
3375,17900
3534,17900
3681,17839
3794,17727
3855,17579
3855,17420
3855,18420
3794,18273
3682,18160
3535,18099
3375,18099
3228,18160
3115,18272
3054,18420
3054,18579
3115,18726
3227,18839
3375,18900
3534,18900
3681,18839
3794,18727
3855,18579
3855,18420
3855,18920
2584,18920
2584,13001
2630,13019
2770,13019
2807,12982
2807,12722
2781,12722
2781,12427
2807,12427
2807,12167
2770,12130
2630,12130
2584,12148
2584,3429
5230,3429
5242,3427
5255,3427
5331,3412
5378,3392
5406,3374
5410,3378
5487,3410
5571,3410
5649,3378
5680,3347
5710,3378
5787,3410
5871,3410
5949,3378
6008,3319
6040,3242
6040,3158
6008,3080
5949,3021
5872,2989
5788,2989
5710,3021
5680,3052
5649,3021
5572,2989
5538,2989
5522,2951
5522,2951
5479,2886
5479,2886
5461,2868
5443,2850
5443,2850
5378,2807
5331,2787
5255,2772
5242,2772
5230,2770
4647,2770
4781,2714
4894,2602
4955,2454
4955,2295
4894,2148
4782,2035
4635,1974
4475,1974
4328,2035
4215,2147
4154,2295
4154,2454
4215,2601
4327,2714
4462,2770
4011,2770
4011,2330
3993,2241
3939,2202
3767,2375
3939,2547
3993,2508
4011,2330
4011,2770
3719,2770
3727,2759
3727,1990
3688,1936
3510,1918
3421,1936
3383,1990
3555,2162
3727,1990
3727,2759
3555,2587
3383,2759
3390,2770
3134,2770
3134,2521
3170,2547
3342,2375
3170,2202
3134,2228
3134,1479
8975,1479
8975,2720
8945,2720
8955,2694
8955,2655
8955,2055
8940,2018
8911,1989
8875,1974
8835,1974
8235,1974
8198,1989
8169,2018
8154,2055
8154,2094
8154,2694
8165,2720
7768,2720
7781,2714
7894,2602
7955,2454
7955,2295
7894,2148
7782,2035
7635,1974
7475,1974
7328,2035
7215,2147
7183,2224
7155,2224
7097,2236
7048,2268
6955,2361
6955,2295
6894,2148
6782,2035
6635,1974
6475,1974
6328,2035
6215,2147
6154,2295
6154,2385
6049,2280
6006,2251
5955,2241
5932,2241
5894,2148
5782,2035
5635,1974
5475,1974
5328,2035
5215,2147
5154,2295
5154,2454
5215,2601
5327,2714
5475,2775
5634,2775
5781,2714
5894,2602
5923,2532
6146,2755
6146,3036
6101,3080
6069,3157
6069,3241
6101,3319
6160,3378
6237,3410
6321,3410
6399,3378
6430,3347
6460,3378
6537,3410
6621,3410
6699,3378
6710,3366
6746,3390
6746,3390
6746,3390
6793,3410
6793,3410
6879,3427
6892,3427
6905,3429
9325,3429
9325,3775
9183,3717
9026,3717
8880,3777
8769,3888
8709,4033
8708,4191
8769,4336
8880,4448
9025,4508
9183,4508
9325,4449
9325,12212
9307,12194
9270,12179
9230,12179
9158,12179
9158,12007
9158,11967
9158,11573
9143,11536
9115,11508
9078,11493
9038,11493
8762,11493
8725,11508
8697,11536
8682,11573
8682,11613
8682,12007
8697,12044
8725,12072
8762,12087
8802,12087
9078,12087
9115,12072
9143,12044
9158,12007
9158,12179
8748,12179
8699,12130
8656,12101
8622,12094
8622,12094
8616,12089
8633,12072
8656,12017
8656,11957
8656,11926
8656,11654
8656,11623
8656,11563
8633,11509
8591,11466
8536,11444
8456,11444
8418,11481
8418,11692
8619,11692
8656,11654
8656,11926
8619,11888
8418,11888
8418,11963
8241,11963
8241,11888
8156,11888
8156,11692
8241,11692
8241,11481
8204,11444
8194,11444
8215,11392
8215,11308
8184,11233
8980,11233
9031,11223
9031,11223
9074,11194
9274,10994
9274,10994
9294,10965
9303,10951
9303,10951
9313,10900
9313,10900
9313,9675
9303,9623
9303,9623
9294,9609
9279,9587
9279,5029
9279,4974
9279,4775
9279,4720
9256,4665
9214,4623
9159,4600
9100,4600
9054,4600
9017,4637
9017,4812
9242,4812
9279,4775
9279,4974
9242,4937
9017,4937
9017,5112
9054,5149
9100,5149
9159,5149
9214,5126
9256,5084
9279,5029
9279,9587
9274,9580
9274,9580
8851,9157
8851,7187
8841,7136
8812,7092
8678,6958
8905,6958
8956,6948
8956,6948
8999,6919
9124,6794
9153,6751
9163,6700
9163,6325
9155,6282
9153,6273
9153,6273
9124,6230
9024,6130
8981,6101
8945,6094
8955,6069
8955,6030
8955,5788
8999,5744
9028,5701
9028,5701
9028,5700
9150,5700
9186,5685
9215,5656
9230,5619
9230,5580
9230,5330
9215,5293
9186,5264
9150,5249
9110,5249
8792,5249
8792,5112
8792,4937
8792,4812
8792,4637
8755,4600
8709,4600
8650,4600
8595,4623
8553,4665
8530,4720
8530,4775
8567,4812
8792,4812
8792,4937
8567,4937
8530,4974
8530,5029
8553,5084
8595,5126
8650,5149
8709,5149
8755,5149
8792,5112
8792,5249
8660,5249
8623,5264
8594,5293
8579,5330
8579,5369
8579,5619
8594,5656
8623,5685
8658,5699
8504,5699
8504,4504
8504,4445
8504,4362
8504,3987
8504,3904
8504,3845
8481,3790
8439,3748
8384,3725
8242,3725
8205,3762
8205,4025
8467,4025
8504,3987
8504,4362
8467,4325
8205,4325
8205,4587
8242,4624
8384,4624
8439,4601
8481,4559
8504,4504
8504,5699
8385,5699
8348,5714
8319,5743
8304,5780
8304,5819
8304,6069
8313,6091
8185,6091
7688,5594
7688,5337
7715,5401
7827,5514
7975,5575
8134,5575
8281,5514
8394,5402
8455,5254
8455,5095
8394,4948
8282,4835
8135,4774
7975,4774
7898,4806
7711,4618
7725,4624
7867,4624
7905,4587
7905,4325
7881,4325
7881,4025
7905,4025
7905,3762
7867,3725
7725,3725
7670,3748
7628,3790
7617,3817
7393,3593
7344,3561
7286,3549
4503,3549
4490,3518
4461,3489
4425,3474
4385,3474
3935,3474
3898,3489
3869,3518
3856,3549
3780,3549
3280,3549
3222,3561
3173,3593
3086,3681
3064,3712
3034,3700
2979,3700
2942,3737
2942,3962
3005,3962
3005,4187
2942,4187
2942,4248
2817,4248
2817,4187
2817,3962
2817,3737
2780,3700
2725,3700
2670,3723
2628,3765
2605,3820
2605,3879
2605,3925
2642,3962
2817,3962
2817,4187
2642,4187
2605,4224
2605,4270
2605,4329
2628,4384
2660,4416
2654,4430
2654,4469
2654,4919
2660,4933
2628,4965
2605,5020
2605,5079
2605,5125
2642,5162
2817,5162
2817,5101
2942,5101
2942,5162
3005,5162
3005,5387
2942,5387
2942,5448
2817,5448
2817,5387
2642,5387
2605,5424
2605,5470
2605,5529
2628,5584
2670,5626
2707,5642
2691,5667
2679,5725
2679,9450
2691,9507
2723,9556
3281,10113
3228,10135
3115,10247
3054,10395
3054,10554
3115,10701
3227,10814
3375,10875
3534,10875
3681,10814
3794,10702
3855,10554
3855,10395
3794,10248
3682,10135
3605,10103
3605,10075
3593,10017
3561,9968
2980,9387
2980,7074
3017,7037
3017,6812
2980,6812
2980,6587
3017,6587
3017,6362
3017,6362
3017,6362
3017,6137
2980,6137
2980,5912
3017,5912
3017,5851
3142,5851
3142,5912
3205,5912
3205,6137
3142,6137
3142,6362
3142,6362
3142,6362
3142,6587
3317,6587
3354,6550
3354,6504
3354,6445
3349,6434
3385,6469
3428,6498
3454,6503
3454,6944
3469,6981
3498,7010
3535,7025
3575,7025
3825,7025
3861,7010
3890,6981
3905,6944
3905,6905
3905,6722
3968,6658
4364,6658
4312,6680
4286,6706
4286,6759
4526,6999
4558,6968
4792,7202
4760,7233
5001,7474
5054,7474
5080,7448
5102,7393
5102,7351
5111,7347
5139,7319
5264,7194
5280,7157
5280,7143
5293,7143
5330,7128
5358,7100
5483,6974
5499,6938
5499,6917
5512,6917
5626,7031
5675,7063
5733,7075
6217,7075
6829,7687
6829,8625
6829,9500
6837,9541
6809,9541
6754,9563
6728,9589
6728,9642
6969,9883
7000,9851
7234,10085
7203,10117
7443,10357
7496,10357
7522,10331
7545,10276
7545,10236
7550,10234
7578,10206
7703,10081
7705,10076
7745,10076
7800,10053
7826,10027
7826,9974
7586,9734
7554,9765
7320,9531
7352,9500
7346,9494
7409,9432
7414,9437
7445,9406
7679,9640
7648,9671
7889,9912
7942,9912
7967,9886
7990,9831
7990,9791
7995,9789
8023,9760
8146,9638
8146,9769
7644,10270
7617,10312
7581,10312
7544,10327
7516,10355
7501,10392
7501,10432
7501,10826
7516,10863
7544,10891
7581,10906
7621,10906
7897,10906
7934,10891
7962,10863
7977,10826
7977,10786
7977,10392
7962,10355
7950,10343
8374,9919
8403,9876
8403,9876
8405,9867
8413,9825
8413,9825
8413,9424
8405,9382
8403,9373
8403,9373
8394,9359
8404,9359
8415,9354
8786,9725
8786,10312
8762,10312
8725,10327
8697,10355
8682,10392
8682,10432
8682,10826
8697,10863
8725,10891
8762,10906
8802,10906
8984,10906
8924,10966
8656,10966
8656,10836
8656,10776
8656,10745
8656,10473
8656,10442
8656,10382
8633,10327
8591,10285
8536,10263
8456,10263
8418,10300
8418,10511
8619,10511
8656,10473
8656,10745
8619,10707
8418,10707
8418,10918
8456,10955
8536,10955
8591,10933
8633,10890
8656,10836
8656,10966
8241,10966
8241,10918
8241,10707
8241,10511
8241,10300
8204,10263
8123,10263
8068,10285
8026,10327
8003,10382
8003,10442
8003,10473
8040,10511
8241,10511
8241,10707
8040,10707
8003,10745
8003,10776
8003,10836
8026,10890
8068,10933
8123,10955
8204,10955
8241,10918
8241,10966
7630,10966
7587,10974
7578,10976
7535,11005
7311,11229
6900,11229
6863,11244
6835,11272
6819,11309
6819,11349
6819,11940
6835,11977
6863,12005
6900,12020
6940,12020
7506,12020
7516,12044
7544,12072
7581,12087
7621,12087
7838,12087
7831,12098
7821,12150
7821,12179
7639,12179
7602,12194
7574,12222
7559,12259
7559,12299
7559,12890
7574,12927
7602,12955
7639,12970
7679,12970
8270,12970
8307,12955
8335,12927
8337,12921
8515,13099
8375,13099
8228,13160
8115,13272
8054,13420
8054,13579
8115,13726
8227,13839
8375,13900
8534,13900
8681,13839
8768,13752
8896,13880
8896,14751
8816,14672
8855,14579
8855,14420
8794,14273
8682,14160
8535,14099
8375,14099
8282,14138
7855,13711
7855,13180
7840,13143
7811,13114
7775,13099
7735,13099
7135,13099
7098,13114
7088,13124
7088,12970
7270,12970
7307,12955
7335,12927
7350,12890
7350,12850
7350,12259
7335,12222
7307,12194
7270,12179
7230,12179
6763,12179
6763,11330
7249,10844
7278,10801
7288,10750
7288,10575
7278,10523
7278,10523
7277,10521
7300,10521
7355,10499
7381,10473
7381,10420
7140,10179
7109,10211
6875,9977
6906,9945
6666,9705
6613,9705
6587,9731
6564,9786
6564,9826
6559,9828
6531,9856
6406,9981
6390,10018
6390,10035
6373,10035
6336,10051
6308,10079
6183,10204
6168,10241
6168,10281
6183,10318
6211,10346
6381,10515
5860,11036
5831,11080
5821,11131
5821,12179
5639,12179
5602,12194
5574,12222
5559,12259
5559,12299
5559,12890
5574,12927
5602,12955
5639,12970
5679,12970
5821,12970
5821,13345
5667,13500
5821,13654
5821,14345
5667,14500
5821,14654
5821,14725
5831,14776
5860,14819
6135,15094
6178,15123
6178,15123
6187,15125
6230,15133
6292,15133
6228,15160
6115,15272
6054,15420
6054,15579
6115,15726
6227,15839
6375,15900
6534,15900
6681,15839
6794,15727
6821,15662
6821,15800
6831,15851
6860,15894
7060,16094
7060,16094
7089,16114
7103,16123
7103,16123
7155,16133
7292,16133
7228,16160
7115,16272
7054,16420
7054,16579
7115,16726
7196,16807
6713,16807
6794,16727
6855,16579
6855,16420
6794,16273
6682,16160
6535,16099
6375,16099
6228,16160
6115,16272
6054,16420
6054,16579
6115,16726
6196,16807
5713,16807
5794,16727
5855,16579
5855,16420
5855,15420
5794,15273
5682,15160
5627,15137
5627,14884
5627,14115
5627,13884
5627,13115
5588,13061
5410,13043
5321,13061
5283,13115
5455,13287
5627,13115
5627,13884
5455,13712
5283,13884
5321,13938
5499,13956
5588,13938
5627,13884
5627,14115
5588,14061
5410,14043
5321,14061
5283,14115
5455,14287
5627,14115
5627,14884
5455,14712
5283,14884
5321,14938
5499,14956
5588,14938
5627,14884
5627,15137
5535,15099
5375,15099
5242,15154
5242,14500
5242,13500
5070,13327
5016,13366
4998,13544
5016,13633
5070,13672
5242,13500
5242,14500
5070,14327
5016,14366
4998,14544
5016,14633
5070,14672
5242,14500
5242,15154
5228,15160
5115,15272
5054,15420
5054,15579
5115,15726
5227,15839
5375,15900
5534,15900
5681,15839
5794,15727
5855,15579
5855,15420
5855,16420
5794,16273
5682,16160
5535,16099
5375,16099
5228,16160
5115,16272
5054,16420
5054,16579
5115,16726
5196,16807
4713,16807
4794,16727
4855,16579
4855,16420
4794,16273
4682,16160
4535,16099
4375,16099
4228,16160
4172,16216
4172,15783
4227,15839
4375,15900
4534,15900
4681,15839
4794,15727
4855,15579
4855,15420
4794,15273
4682,15160
4535,15099
4375,15099
4228,15160
4172,15216
4172,14783
4227,14839
4375,14900
4534,14900
4681,14839
4794,14727
4855,14579
4855,14420
4794,14273
4682,14160
4535,14099
4375,14099
4228,14160
4172,14216
4172,13783
4227,13839
4375,13900
4534,13900
4681,13839
4794,13727
4855,13579
4855,13420
4794,13273
4682,13160
4665,13153
4848,12970
5270,12970
5307,12955
5335,12927
5350,12890
5350,12850
5350,12259
5335,12222
5307,12194
5270,12179
5230,12179
5163,12179
5163,10844
5225,10905
5262,10921
5302,10921
5339,10905
5367,10877
5923,10321
5939,10284
5939,10244
5935,10234
6399,9769
6428,9726
6438,9675
6438,7775
6430,7732
6428,7723
6428,7723
6399,7680
6399,7680
6190,7471
6190,7408
6158,7330
6099,7271
6022,7239
5938,7239
5860,7271
5801,7330
5769,7407
5769,7491
5801,7569
5860,7628
5937,7660
6001,7660
6171,7830
6171,9619
6040,9750
6040,8158
6008,8080
5949,8021
5872,7989
5808,7989
5424,7605
5381,7576
5330,7566
4938,7566
4938,7536
4698,7296
4667,7327
4432,7093
4464,7062
4223,6821
4170,6821
4144,6847
4122,6902
4122,6940
4120,6941
4092,6969
3967,7094
3952,7131
3952,7152
3931,7152
3894,7167
3866,7195
3741,7320
3725,7357
3725,7371
3712,7371
3675,7386
3647,7414
3521,7540
3506,7576
3506,7616
3521,7653
3550,7682
4106,8238
4143,8253
4183,8253
4220,8238
4248,8210
4255,8203
4280,8208
4594,8208
4594,8241
4626,8319
4685,8378
4762,8410
4846,8410
4924,8378
4983,8319
5015,8242
5015,8158
4983,8080
4936,8033
5124,8033
5228,8137
5219,8157
5219,8241
5251,8319
5310,8378
5387,8410
5471,8410
5549,8378
5608,8319
5630,8267
5651,8319
5710,8378
5787,8410
5871,8410
5949,8378
6008,8319
6040,8242
6040,8158
6040,9750
5746,10044
5733,10038
5717,10038
5717,10022
5701,9985
5673,9956
5548,9831
5511,9816
5493,9816
5493,9798
5478,9761
5450,9733
5324,9608
5288,9593
5271,9593
5271,9576
5256,9539
5228,9511
5175,9458
5541,9458
5585,9503
5662,9535
5746,9535
5824,9503
5883,9444
5915,9367
5915,9283
5883,9205
5824,9146
5747,9114
5663,9114
5585,9146
5541,9191
4907,9191
4879,9162
4842,9147
4826,9147
4826,9131
4821,9119
4907,9033
5091,9033
5135,9078
5212,9110
5296,9110
5374,9078
5433,9019
5465,8942
5465,8858
5433,8780
5374,8721
5297,8689
5213,8689
5135,8721
5091,8766
4855,8766
4865,8742
4865,8658
4833,8580
4774,8521
4697,8489
4615,8489
4615,8458
4583,8380
4524,8321
4447,8289
4363,8289
4285,8321
4226,8380
4194,8457
4194,8476
4186,8484
4175,8480
4135,8480
4098,8495
4069,8523
3513,9080
3498,9117
3498,9128
3438,9069
3438,7463
3483,7419
3515,7342
3515,7258
3483,7180
3424,7121
3354,7092
3354,6954
3354,6895
3354,6849
3317,6812
3142,6812
3142,7037
3179,7074
3234,7074
3289,7051
3331,7009
3354,6954
3354,7092
3347,7089
3263,7089
3185,7121
3126,7180
3094,7257
3094,7341
3126,7419
3171,7464
3171,9125
3181,9176
3210,9219
4090,10099
3960,10099
3923,10114
3894,10143
3879,10180
3879,10219
3879,10469
3894,10506
3923,10535
3960,10550
4000,10550
4450,10550
4486,10535
4515,10506
4530,10469
4530,10430
4530,10301
4583,10248
4594,10253
4611,10253
4611,10269
4626,10306
4654,10335
4671,10351
4671,10575
4681,10626
4710,10669
4746,10705
4746,10770
4672,10739
4588,10739
4524,10765
4515,10743
4486,10714
4450,10699
4410,10699
3960,10699
3923,10714
3894,10743
3879,10780
3879,10819
3879,11069
3894,11106
3923,11135
3960,11150
4000,11150
4450,11150
4486,11135
4502,11119
4510,11128
4587,11160
4671,11160
4746,11129
4746,11594
4589,11751
4589,11439
4589,11359
4589,11299
4566,11245
4524,11202
4469,11180
4329,11180
4292,11217
4292,11477
4552,11477
4589,11439
4589,11751
4560,11780
4552,11772
4292,11772
4292,12032
4300,12040
4161,12179
3996,12179
3996,12032
3996,11772
3971,11772
3971,11477
3996,11477
3996,11217
3959,11180
3904,11180
3904,11145
3881,11090
3839,11048
3784,11025
3725,11025
3642,11025
3605,11062
3605,11325
3628,11325
3628,11625
3605,11625
3605,11887
3642,11924
3699,11924
3699,11950
3722,12004
3764,12047
3819,12069
3959,12069
3996,12032
3996,12179
3639,12179
3602,12194
3574,12222
3559,12259
3559,12299
3559,12890
3574,12927
3602,12955
3639,12970
3679,12970
3783,12970
3781,12973
3771,13025
3771,13249
3682,13160
3535,13099
3399,13099
3399,12900
3399,12840
3399,12760
3399,12389
3399,12309
3399,12249
3377,12195
3335,12152
3305,12140
3305,11887
3305,11625
3305,11325
3305,11062
3267,11025
3184,11025
3125,11025
3070,11048
3028,11090
3005,11145
3005,11287
3042,11325
3305,11325
3305,11625
3042,11625
3005,11662
3005,11804
3028,11859
3070,11901
3125,11924
3184,11924
3267,11924
3305,11887
3305,12140
3280,12130
3140,12130
3102,12167
3102,12427
3362,12427
3399,12389
3399,12760
3362,12722
3102,12722
3102,12982
3140,13019
3280,13019
3335,12997
3377,12954
3399,12900
3399,13099
3375,13099
3228,13160
3115,13272
3054,13420
3054,13579
3115,13726
3227,13839
3375,13900
3534,13900
3681,13839
3771,13750
3771,14249
3682,14160
3535,14099
3375,14099
3228,14160
3115,14272
3054,14420
3054,14579
3115,14726
3227,14839
3375,14900
3534,14900
3681,14839
3771,14750
3771,15249
3682,15160
3535,15099
3375,15099
3228,15160
3115,15272
3054,15420
3054,15579
3115,15726
3227,15839
3375,15900
3534,15900
3681,15839
3771,15750
3771,16249
3682,16160
3535,16099
3375,16099
3228,16160
3115,16272
3054,16420
3054,16579
3115,16726
3227,16839
3375,16900
3534,16900
3681,16839
3771,16750
3771,16775
3781,16826
3810,16869
4110,17169
4153,17198
4184,17204
4115,17272
4054,17420
4054,17579
4115,17726
4227,17839
4375,17900
4534,17900
4681,17839
4794,17727
4855,17579
4855,17420
4794,17273
4730,17208
5179,17208
5115,17272
5054,17420
5054,17579
5115,17726
5227,17839
5375,17900
5534,17900
5681,17839
5794,17727
5855,17579
5855,17420
5794,17273
5730,17208
6179,17208
6115,17272
6054,17420
6054,17579
6115,17726
6227,17839
6375,17900
6534,17900
6681,17839
6794,17727
6855,17579
6855,17420
6794,17273
6730,17208
7179,17208
7115,17272
7054,17420
7054,17579
7115,17726
7227,17839
7375,17900
7534,17900
7681,17839
7794,17727
7855,17579
7855,17420
7794,17273
7730,17208
8179,17208
8115,17272
8054,17420
8054,17579
8115,17726
8227,17839
8375,17900
8534,17900
8681,17839
8794,17727
8833,17633
8881,17623
8881,17623
8924,17594
9196,17323
9196,17944
8815,18324
8794,18273
8682,18160
8535,18099
8375,18099
8228,18160
8115,18272
8054,18420
8054,18579
8115,18726
8227,18839
8375,18900
8534,18900
8681,18839
8794,18727
8833,18633
8881,18623
8881,18623
8924,18594
9325,18194
9325,18920
" /> 
</g>
<g style="fill:#FFFFFF; fill-opacity:0.0; 
stroke:#FFFFFF; stroke-width:19.685; stroke-opacity:1; 
stroke-linecap:round; stroke-linejoin:round;">
</g>
<g style="fill:#FFFFFF; fill-opacity:1.0; 
stroke:#FFFFFF; stroke-width:19.685; stroke-opacity:1; 
stroke-linecap:round; stroke-linejoin:round;">
<circle cx="5430.05" cy="8200" r="49.2126" /> 
<circle cx="8455.05" cy="12225" r="49.2126" /> 
<circle cx="4805.05" cy="8200" r="49.2126" /> 
<circle cx="4405.05" cy="8500" r="49.2126" /> 
<circle cx="4655.05" cy="8700" r="49.2126" /> 
<circle cx="5255.05" cy="8900" r="49.2126" /> 
<circle cx="5705.05" cy="9325" r="49.2126" /> 
<circle cx="5830.05" cy="8200" r="49.2126" /> 
<circle cx="7230.05" cy="7875" r="49.2126" /> 
<circle cx="6280.05" cy="3200" r="49.2126" /> 
<circle cx="5830.05" cy="3200" r="49.2126" /> 
<circle cx="5905.05" cy="6250" r="49.2126" /> 
<circle cx="5980.05" cy="7450" r="49.2126" /> 
<circle cx="6680.05" cy="15000" r="49.2126" /> 
<circle cx="7180.05" cy="15000" r="49.2126" /> 
<circle cx="8005.05" cy="11350" r="49.2126" /> 
<circle cx="7405.05" cy="8650" r="49.2126" /> 
<circle cx="8380.05" cy="7200" r="49.2126" /> 
<circle cx="4630.05" cy="10950" r="49.2126" /> 
<circle cx="4630.05" cy="4775" r="49.2126" /> 
<circle cx="5530.05" cy="3200" r="49.2126" /> 
<circle cx="3305.05" cy="7300" r="49.2126" /> 
<circle cx="8105.05" cy="5775" r="49.2126" /> 
<circle cx="2905.05" cy="3600" r="49.2126" /> 
<circle cx="6580.05" cy="3200" r="49.2126" /> 
<circle cx="8455.05" cy="13500" r="190.157" /> 
<circle cx="8455.05" cy="14500" r="190.157" /> 
<circle cx="8455.05" cy="15500" r="190.157" /> 
<circle cx="8455.05" cy="16500" r="190.157" /> 
<circle cx="8455.05" cy="17500" r="190.157" /> 
<circle cx="8455.05" cy="18500" r="190.157" /> 
<circle cx="7455.05" cy="13500" r="190.157" /> 
<circle cx="6455.05" cy="13500" r="190.157" /> 
<circle cx="5455.05" cy="13500" r="190.157" /> 
<circle cx="4455.05" cy="13500" r="190.157" /> 
<circle cx="8555.05" cy="2375" r="190.157" /> 
<circle cx="7555.05" cy="2375" r="190.157" /> 
<circle cx="6555.05" cy="2375" r="190.157" /> 
<circle cx="5555.05" cy="2375" r="190.157" /> 
<circle cx="4555.05" cy="2375" r="190.157" /> 
<circle cx="3555.05" cy="2375" r="190.157" /> 
<circle cx="4455.05" cy="14500" r="190.157" /> 
<circle cx="5455.05" cy="14500" r="190.157" /> 
<circle cx="4455.05" cy="15500" r="190.157" /> 
<circle cx="5455.05" cy="15500" r="190.157" /> 
<circle cx="4455.05" cy="16500" r="190.157" /> 
<circle cx="5455.05" cy="16500" r="190.157" /> 
<circle cx="4455.05" cy="17500" r="190.157" /> 
<circle cx="5455.05" cy="17500" r="190.157" /> 
<circle cx="4455.05" cy="18500" r="190.157" /> 
<circle cx="5455.05" cy="18500" r="190.157" /> 
<circle cx="7455.05" cy="18500" r="190.157" /> 
<circle cx="6455.05" cy="18500" r="190.157" /> 
<circle cx="7455.05" cy="17500" r="190.157" /> 
<circle cx="6455.05" cy="17500" r="190.157" /> 
<circle cx="7455.05" cy="16500" r="190.157" /> 
<circle cx="6455.05" cy="16500" r="190.157" /> 
<circle cx="7455.05" cy="15500" r="190.157" /> 
<circle cx="6455.05" cy="15500" r="190.157" /> 
<circle cx="7455.05" cy="14500" r="190.157" /> 
<circle cx="6455.05" cy="14500" r="190.157" /> 
<circle cx="9104.66" cy="4112.8" r="147.638" /> 
<circle cx="3455.05" cy="11475" r="190.157" /> 
<circle cx="3455.05" cy="10475" r="190.157" /> 
<circle cx="3455.05" cy="13500" r="190.157" /> 
<circle cx="3455.05" cy="14500" r="190.157" /> 
<circle cx="3455.05" cy="15500" r="190.157" /> 
<circle cx="3455.05" cy="16500" r="190.157" /> 
<circle cx="3455.05" cy="17500" r="190.157" /> 
<circle cx="3455.05" cy="18500" r="190.157" /> 
<circle cx="8055.05" cy="4175" r="190.157" /> 
<circle cx="8055.05" cy="5175" r="190.157" /> 
<circle cx="7055.05" cy="4175" r="190.157" /> 
<circle cx="7055.05" cy="5175" r="190.157" /> 
<circle cx="6055.05" cy="4175" r="190.157" /> 
<circle cx="6055.05" cy="5175" r="190.157" /> 
<circle cx="5055.05" cy="4175" r="190.157" /> 
<circle cx="5055.05" cy="5175" r="190.157" /> 
</g> 
</svg>
