<?xml version="1.0" standalone="no"?>
 <!DOCTYPE svg PUBLIC "-//W3C//DTD SVG 1.1//EN" 
 "http://www.w3.org/Graphics/SVG/1.1/DTD/svg11.dtd"> 
<svg xmlns="http://www.w3.org/2000/svg" version="1.1" 
    width="3.05816cm" height="4.89458cm" viewBox="0 0 12040 19270 ">
<title>SVG Picture created as OLnodeV05-B_SilkS.svg date 2013/11/11 13:51:29 </title>
  <desc>Picture generated by PCBNEW </desc>
<g style="fill:#000000; fill-opacity:1;stroke:#000000; stroke-opacity:1;
stroke-linecap:round; stroke-linejoin:round; "
 transform="translate(0 0) scale(1 1)">
</g>
<g style="fill:#840084; fill-opacity:0.0; 
stroke:#840084; stroke-width:59.0551; stroke-opacity:1; 
stroke-linecap:round; stroke-linejoin:round;">
<path d="M3272 1757
L3242 1772
L3197 1772
L3152 1757
L3122 1727
L3107 1697
L3092 1637
L3092 1592
L3107 1532
L3122 1502
L3152 1472
L3197 1457
L3227 1457
L3272 1472
L3287 1487
L3287 1592
L3227 1592
" />
<path d="M3422 1457
L3422 1772
L3602 1457
L3602 1772
" />
<path d="M3752 1457
L3752 1772
L3827 1772
L3872 1757
L3902 1727
L3917 1697
L3932 1637
L3932 1592
L3917 1532
L3902 1502
L3872 1472
L3827 1457
L3752 1457
" />
<path d="M4487 1457
L4382 1607
" />
<path d="M4307 1457
L4307 1772
L4427 1772
L4457 1757
L4472 1742
L4487 1712
L4487 1667
L4472 1637
L4457 1622
L4427 1607
L4307 1607
" />
<path d="M4607 1472
L4652 1457
L4727 1457
L4757 1472
L4772 1487
L4787 1517
L4787 1547
L4772 1577
L4757 1592
L4727 1607
L4667 1622
L4637 1637
L4622 1652
L4607 1682
L4607 1712
L4622 1742
L4637 1757
L4667 1772
L4742 1772
L4787 1757
" />
<path d="M4877 1772
L5057 1772
" />
<path d="M4967 1457
L4967 1772
" />
<path d="M5402 1457
L5402 1772
L5507 1547
L5612 1772
L5612 1457
" />
<path d="M5822 1772
L5882 1772
L5912 1757
L5942 1727
L5957 1667
L5957 1562
L5942 1502
L5912 1472
L5882 1457
L5822 1457
L5792 1472
L5762 1502
L5747 1562
L5747 1667
L5762 1727
L5792 1757
L5822 1772
" />
<path d="M6317 1472
L6362 1457
L6437 1457
L6467 1472
L6482 1487
L6497 1517
L6497 1547
L6482 1577
L6467 1592
L6437 1607
L6377 1622
L6347 1637
L6332 1652
L6317 1682
L6317 1712
L6332 1742
L6347 1757
L6377 1772
L6452 1772
L6497 1757
" />
<path d="M6812 1487
L6797 1472
L6752 1457
L6722 1457
L6677 1472
L6647 1502
L6632 1532
L6617 1592
L6617 1637
L6632 1697
L6647 1727
L6677 1757
L6722 1772
L6752 1772
L6797 1757
L6812 1742
" />
<path d="M6947 1457
L6947 1772
" />
<path d="M7127 1457
L6992 1637
" />
<path d="M7127 1772
L6947 1592
" />
<path d="M7457 1772
L7562 1457
L7667 1772
" />
<path d="M7952 1487
L7937 1472
L7892 1457
L7862 1457
L7817 1472
L7787 1502
L7772 1532
L7757 1592
L7757 1637
L7772 1697
L7787 1727
L7817 1757
L7862 1772
L7892 1772
L7937 1757
L7952 1742
" />
<path d="M8267 1487
L8252 1472
L8207 1457
L8177 1457
L8132 1472
L8102 1502
L8087 1532
L8072 1592
L8072 1637
L8087 1697
L8102 1727
L8132 1757
L8177 1772
L8207 1772
L8252 1757
L8267 1742
" />
<path d="M8642 1457
L8642 1772
L8747 1547
L8852 1772
L8852 1457
" />
<path d="M9002 1457
L9002 1772
" />
</g>
<g style="fill:#C1C100; fill-opacity:0.0; 
stroke:#C1C100; stroke-width:59.0551; stroke-opacity:1; 
stroke-linecap:round; stroke-linejoin:round;">
<path d="M3005 1350
L3005 2900
" />
<path d="M9105 1350
L3005 1350
" />
<path d="M9105 2850
L9105 1350
" />
<path d="M6905 2850
L9105 2850
" />
<path d="M5230 2900
L3005 2900
" />
</g>
<g style="fill:#840084; fill-opacity:0.0; 
stroke:#840084; stroke-width:59.0551; stroke-opacity:1; 
stroke-linecap:round; stroke-linejoin:round;">
<path d="M8912 16262
L9227 16262
" />
<path d="M8912 16084
L9227 16084
L8912 15870
L9227 15870
" />
<path d="M9227 15745
L9227 15531
" />
<path d="M8912 15638
L9227 15638
" />
<path d="M8912 15211
L8912 15425
" />
<path d="M8912 15318
L9227 15318
L9182 15353
L9152 15389
L9137 15425
" />
<path d="M9227 14819
L9227 14605
" />
<path d="M8912 14712
L9227 14712
" />
<path d="M9227 14516
L8912 14267
" />
<path d="M9227 14267
L8912 14516
" />
<path d="M8912 13626
L9062 13750
" />
<path d="M8912 13839
L9227 13839
L9227 13697
L9212 13661
L9197 13644
L9167 13626
L9122 13626
L9092 13644
L9077 13661
L9062 13697
L9062 13839
" />
<path d="M9227 13501
L8912 13252
" />
<path d="M9227 13252
L8912 13501
" />
</g>
<g style="fill:#C1C100; fill-opacity:0.0; 
stroke:#C1C100; stroke-width:59.0551; stroke-opacity:1; 
stroke-linecap:round; stroke-linejoin:round;">
<path d="M9455 19050
L9455 3300
" />
<path d="M6905 3300
L9455 3300
" />
<path d="M5230 3300
L2455 3300
" />
<path d="M5430.05 3100 A200 200 0.0 0 0 5230.05 2900 " />
<path d="M5230.05 3300 A200 200 0.0 0 0 5430.05 3100 " />
<path d="M6905.05 2850 A225 225 0.0 0 0 6680.05 3075 " />
<path d="M6680.05 3075 A225 225 0.0 0 0 6905.05 3300 " />
</g>
<g style="fill:#840084; fill-opacity:0.0; 
stroke:#840084; stroke-width:78.7402; stroke-opacity:1; 
stroke-linecap:round; stroke-linejoin:round;">
<path d="M3955 13000
L2955 13000
" />
<path d="M3955 19000
L3955 13000
" />
<path d="M2955 19000
L3955 19000
" />
<path d="M7955 19000
L8955 19000
" />
<path d="M7955 13000
L7955 19000
" />
<path d="M8955 13000
L7955 13000
" />
</g>
<g style="fill:#C1C100; fill-opacity:0.0; 
stroke:#C1C100; stroke-width:59.0551; stroke-opacity:1; 
stroke-linecap:round; stroke-linejoin:round;">
<path d="M9455 19050
L2455 19050
" />
</g>
<g style="fill:#840084; fill-opacity:0.0; 
stroke:#840084; stroke-width:78.7402; stroke-opacity:1; 
stroke-linecap:round; stroke-linejoin:round;">
<path d="M9455 18300
L9455 4050
" />
</g>
<g style="fill:#840084; fill-opacity:0.0; 
stroke:#840084; stroke-width:59.0551; stroke-opacity:1; 
stroke-linecap:round; stroke-linejoin:round;">
<path d="M9165 9777
L9102 9777
L9071 9792
L9040 9822
L9024 9882
L9024 9987
L9040 10047
L9071 10077
L9102 10092
L9165 10092
L9196 10077
L9227 10047
L9242 9987
L9242 9882
L9227 9822
L9196 9792
L9165 9777
" />
<path d="M8729 10092
L8884 10092
L8884 9777
" />
<path d="M8620 9882
L8620 10092
" />
<path d="M8620 9912
L8604 9897
L8573 9882
L8527 9882
L8495 9897
L8480 9927
L8480 10092
" />
<path d="M8278 10092
L8309 10077
L8324 10062
L8340 10032
L8340 9942
L8324 9912
L8309 9897
L8278 9882
L8231 9882
L8200 9897
L8184 9912
L8169 9942
L8169 10032
L8184 10062
L8200 10077
L8231 10092
L8278 10092
" />
<path d="M7889 10092
L7889 9777
" />
<path d="M7889 10077
L7920 10092
L7982 10092
L8013 10077
L8029 10062
L8044 10032
L8044 9942
L8029 9912
L8013 9897
L7982 9882
L7920 9882
L7889 9897
" />
<path d="M7608 10077
L7640 10092
L7702 10092
L7733 10077
L7748 10047
L7748 9927
L7733 9897
L7702 9882
L7640 9882
L7608 9897
L7593 9927
L7593 9957
L7748 9987
" />
<path d="M7500 9777
L7391 10092
L7282 9777
" />
<path d="M7111 9777
L7079 9777
L7048 9792
L7033 9807
L7017 9837
L7002 9897
L7002 9972
L7017 10032
L7033 10062
L7048 10077
L7079 10092
L7111 10092
L7142 10077
L7157 10062
L7173 10032
L7188 9972
L7188 9897
L7173 9837
L7157 9807
L7142 9792
L7111 9777
" />
<path d="M6706 9777
L6862 9777
L6877 9927
L6862 9912
L6830 9897
L6753 9897
L6722 9912
L6706 9927
L6690 9957
L6690 10032
L6706 10062
L6722 10077
L6753 10092
L6830 10092
L6862 10077
L6877 10062
" />
<path d="M6317 9807
L6301 9792
L6270 9777
L6192 9777
L6161 9792
L6146 9807
L6130 9837
L6130 9867
L6146 9912
L6332 10092
L6130 10092
" />
<path d="M5928 9777
L5897 9777
L5866 9792
L5850 9807
L5835 9837
L5819 9897
L5819 9972
L5835 10032
L5850 10062
L5866 10077
L5897 10092
L5928 10092
L5959 10077
L5975 10062
L5990 10032
L6006 9972
L6006 9897
L5990 9837
L5975 9807
L5959 9792
L5928 9777
" />
<path d="M5508 10092
L5695 10092
" />
<path d="M5601 10092
L5601 9777
L5632 9822
L5663 9852
L5695 9867
" />
<path d="M5399 9777
L5197 9777
L5305 9897
L5259 9897
L5228 9912
L5212 9927
L5197 9957
L5197 10032
L5212 10062
L5228 10077
L5259 10092
L5352 10092
L5383 10077
L5399 10062
" />
<path d="M5057 9972
L4808 9972
" />
<path d="M4481 10092
L4668 10092
" />
<path d="M4574 10092
L4574 9777
L4605 9822
L4636 9852
L4668 9867
" />
<path d="M4170 10092
L4356 10092
" />
<path d="M4263 10092
L4263 9777
L4294 9822
L4325 9852
L4356 9867
" />
<path d="M4030 9972
L3781 9972
" />
<path d="M3454 10092
L3641 10092
" />
<path d="M3547 10092
L3547 9777
L3578 9822
L3609 9852
L3641 9867
" />
<path d="M3143 10092
L3329 10092
" />
<path d="M3236 10092
L3236 9777
L3267 9822
L3298 9852
L3329 9867
" />
<path d="M9227 10592
L9227 10277
" />
<path d="M9087 10592
L9087 10427
L9102 10397
L9133 10382
L9180 10382
L9211 10397
L9227 10412
" />
<path d="M8978 10382
L8853 10382
" />
<path d="M8931 10277
L8931 10547
L8916 10577
L8884 10592
L8853 10592
" />
<path d="M8791 10382
L8667 10382
" />
<path d="M8744 10277
L8744 10547
L8729 10577
L8698 10592
L8667 10592
" />
<path d="M8558 10382
L8558 10697
" />
<path d="M8558 10397
L8527 10382
L8464 10382
L8433 10397
L8418 10412
L8402 10442
L8402 10532
L8418 10562
L8433 10577
L8464 10592
L8527 10592
L8558 10577
" />
<path d="M8262 10562
L8246 10577
L8262 10592
L8278 10577
L8262 10562
L8262 10592
" />
<path d="M8262 10397
L8246 10412
L8262 10427
L8278 10412
L8262 10397
L8262 10427
" />
<path d="M7873 10262
L8153 10667
" />
<path d="M7531 10262
L7811 10667
" />
<path d="M7422 10592
L7422 10277
L7313 10502
L7204 10277
L7204 10592
" />
<path d="M6908 10592
L6908 10427
L6924 10397
L6955 10382
L7017 10382
L7048 10397
" />
<path d="M6908 10577
L6939 10592
L7017 10592
L7048 10577
L7064 10547
L7064 10517
L7048 10487
L7017 10472
L6939 10472
L6908 10457
" />
<path d="M6753 10592
L6753 10382
" />
<path d="M6753 10277
L6768 10292
L6753 10307
L6737 10292
L6753 10277
L6753 10307
" />
<path d="M6597 10382
L6597 10592
" />
<path d="M6597 10412
L6581 10397
L6550 10382
L6504 10382
L6473 10397
L6457 10427
L6457 10592
" />
<path d="M6348 10382
L6224 10382
" />
<path d="M6301 10592
L6301 10322
L6286 10292
L6255 10277
L6224 10277
" />
<path d="M6115 10592
L6115 10382
" />
<path d="M6115 10442
L6099 10412
L6084 10397
L6052 10382
L6021 10382
" />
<path d="M5772 10592
L5772 10427
L5788 10397
L5819 10382
L5881 10382
L5912 10397
" />
<path d="M5772 10577
L5803 10592
L5881 10592
L5912 10577
L5928 10547
L5928 10517
L5912 10487
L5881 10472
L5803 10472
L5772 10457
" />
<path d="M5617 10592
L5617 10382
" />
<path d="M5617 10412
L5601 10397
L5570 10382
L5523 10382
L5492 10397
L5477 10427
L5477 10592
" />
<path d="M5477 10427
L5461 10397
L5430 10382
L5383 10382
L5352 10397
L5337 10427
L5337 10592
" />
<path d="M5057 10577
L5088 10592
L5150 10592
L5181 10577
L5197 10547
L5197 10427
L5181 10397
L5150 10382
L5088 10382
L5057 10397
L5041 10427
L5041 10457
L5197 10487
" />
<path d="M4901 10562
L4885 10577
L4901 10592
L4916 10577
L4901 10562
L4901 10592
" />
<path d="M4745 10592
L4745 10382
" />
<path d="M4745 10277
L4761 10292
L4745 10307
L4730 10292
L4745 10277
L4745 10307
" />
<path d="M4543 10592
L4574 10577
L4590 10562
L4605 10532
L4605 10442
L4590 10412
L4574 10397
L4543 10382
L4496 10382
L4465 10397
L4450 10412
L4434 10442
L4434 10532
L4450 10562
L4465 10577
L4496 10592
L4543 10592
" />
<path d="M9227 11092
L9227 10777
" />
<path d="M9087 11092
L9087 10927
L9102 10897
L9133 10882
L9180 10882
L9211 10897
L9227 10912
" />
<path d="M8978 10882
L8853 10882
" />
<path d="M8931 10777
L8931 11047
L8916 11077
L8884 11092
L8853 11092
" />
<path d="M8791 10882
L8667 10882
" />
<path d="M8744 10777
L8744 11047
L8729 11077
L8698 11092
L8667 11092
" />
<path d="M8558 10882
L8558 11197
" />
<path d="M8558 10897
L8527 10882
L8464 10882
L8433 10897
L8418 10912
L8402 10942
L8402 11032
L8418 11062
L8433 11077
L8464 11092
L8527 11092
L8558 11077
" />
<path d="M8262 11062
L8246 11077
L8262 11092
L8278 11077
L8262 11062
L8262 11092
" />
<path d="M8262 10897
L8246 10912
L8262 10927
L8278 10912
L8262 10897
L8262 10927
" />
<path d="M7873 10762
L8153 11167
" />
<path d="M7531 10762
L7811 11167
" />
<path d="M7437 11077
L7406 11092
L7344 11092
L7313 11077
L7297 11047
L7297 11032
L7313 11002
L7344 10987
L7391 10987
L7422 10972
L7437 10942
L7437 10927
L7422 10897
L7391 10882
L7344 10882
L7313 10897
" />
<path d="M7033 11077
L7064 11092
L7126 11092
L7157 11077
L7173 11047
L7173 10927
L7157 10897
L7126 10882
L7064 10882
L7033 10897
L7017 10927
L7017 10957
L7173 10987
" />
<path d="M6877 11092
L6877 10777
" />
<path d="M6877 10897
L6846 10882
L6784 10882
L6753 10897
L6737 10912
L6722 10942
L6722 11032
L6737 11062
L6753 11077
L6784 11092
L6846 11092
L6877 11077
" />
<path d="M6441 11092
L6441 10927
L6457 10897
L6488 10882
L6550 10882
L6581 10897
" />
<path d="M6441 11077
L6473 11092
L6550 11092
L6581 11077
L6597 11047
L6597 11017
L6581 10987
L6550 10972
L6473 10972
L6441 10957
" />
<path d="M6301 11077
L6270 11092
L6208 11092
L6177 11077
L6161 11047
L6161 11032
L6177 11002
L6208 10987
L6255 10987
L6286 10972
L6301 10942
L6301 10927
L6286 10897
L6255 10882
L6208 10882
L6177 10897
" />
<path d="M6068 10882
L5943 10882
" />
<path d="M6021 10777
L6021 11047
L6006 11077
L5975 11092
L5943 11092
" />
<path d="M5835 11092
L5835 10882
" />
<path d="M5835 10777
L5850 10792
L5835 10807
L5819 10792
L5835 10777
L5835 10807
" />
<path d="M5539 11092
L5539 10927
L5554 10897
L5586 10882
L5648 10882
L5679 10897
" />
<path d="M5539 11077
L5570 11092
L5648 11092
L5679 11077
L5695 11047
L5695 11017
L5679 10987
L5648 10972
L5570 10972
L5539 10957
" />
<path d="M5383 10882
L5383 11092
" />
<path d="M5383 10912
L5368 10897
L5337 10882
L5290 10882
L5259 10897
L5243 10927
L5243 11092
" />
<path d="M5088 11062
L5072 11077
L5088 11092
L5103 11077
L5088 11062
L5088 11092
" />
<path d="M4948 11077
L4916 11092
L4854 11092
L4823 11077
L4808 11047
L4808 11032
L4823 11002
L4854 10987
L4901 10987
L4932 10972
L4948 10942
L4948 10927
L4932 10897
L4901 10882
L4854 10882
L4823 10897
" />
<path d="M4543 11077
L4574 11092
L4636 11092
L4668 11077
L4683 11047
L4683 10927
L4668 10897
L4636 10882
L4574 10882
L4543 10897
L4527 10927
L4527 10957
L4683 10987
" />
<path d="M4434 10882
L4310 10882
" />
<path d="M4387 10777
L4387 11047
L4372 11077
L4341 11092
L4310 11092
" />
<path d="M4232 10882
L4061 10882
L4232 11092
L4061 11092
" />
<path d="M3936 11062
L3921 11077
L3936 11092
L3952 11077
L3936 11062
L3936 11092
" />
<path d="M3781 10882
L3781 11092
" />
<path d="M3781 10912
L3765 10897
L3734 10882
L3687 10882
L3656 10897
L3641 10927
L3641 11092
" />
<path d="M3345 11092
L3345 10927
L3360 10897
L3392 10882
L3454 10882
L3485 10897
" />
<path d="M3345 11077
L3376 11092
L3454 11092
L3485 11077
L3500 11047
L3500 11017
L3485 10987
L3454 10972
L3376 10972
L3345 10957
" />
<path d="M3189 11092
L3189 10882
" />
<path d="M3189 10912
L3174 10897
L3143 10882
L3096 10882
L3065 10897
L3049 10927
L3049 11092
" />
<path d="M3049 10927
L3034 10897
L3003 10882
L2956 10882
L2925 10897
L2909 10927
L2909 11092
" />
<path d="M2629 11077
L2660 11092
L2722 11092
L2754 11077
L2769 11047
L2769 10927
L2754 10897
L2722 10882
L2660 10882
L2629 10897
L2614 10927
L2614 10957
L2769 10987
" />
</g>
<g style="fill:#C1C100; fill-opacity:0.0; 
stroke:#C1C100; stroke-width:59.0551; stroke-opacity:1; 
stroke-linecap:round; stroke-linejoin:round;">
<path d="M2455 19050
L2455 3300
" />
</g>
<g style="fill:#840084; fill-opacity:0.0; 
stroke:#840084; stroke-width:78.7402; stroke-opacity:1; 
stroke-linecap:round; stroke-linejoin:round;">
<path d="M9055 13075
L9455 13075
" />
<path d="M8455 13075
L8855 13075
" />
<path d="M7855 13075
L8255 13075
" />
<path d="M7255 13075
L7655 13075
" />
<path d="M6655 13075
L7055 13075
" />
<path d="M6055 13075
L6455 13075
" />
<path d="M5455 13075
L5855 13075
" />
<path d="M4855 13075
L5255 13075
" />
<path d="M4255 13075
L4655 13075
" />
<path d="M3655 13075
L4055 13075
" />
<path d="M3055 13075
L3455 13075
" />
<path d="M2455 13075
L2855 13075
" />
</g>
<g style="fill:#840084; fill-opacity:0.0; 
stroke:#840084; stroke-width:59.0551; stroke-opacity:1; 
stroke-linecap:round; stroke-linejoin:round;">
<path d="M9132 12027
L8958 12027
" />
<path d="M9167 12117
L9045 11802
L8923 12117
" />
<path d="M8836 11802
L8592 11802
L8749 12117
" />
<path d="M8191 12027
L8017 12027
" />
<path d="M8226 12117
L8104 11802
L7982 12117
" />
<path d="M7685 11802
L7860 11802
L7877 11952
L7860 11937
L7825 11922
L7738 11922
L7703 11937
L7685 11952
L7668 11982
L7668 12057
L7685 12087
L7703 12102
L7738 12117
L7825 12117
L7860 12102
L7877 12087
" />
<path d="M7249 12027
L7075 12027
" />
<path d="M7284 12117
L7162 11802
L7040 12117
" />
<path d="M6761 11907
L6761 12117
" />
<path d="M6848 11787
L6936 12012
L6709 12012
" />
<path d="M6308 12027
L6134 12027
" />
<path d="M6343 12117
L6221 11802
L6099 12117
" />
<path d="M6011 11802
L5785 11802
L5907 11922
L5855 11922
L5820 11937
L5802 11952
L5785 11982
L5785 12057
L5802 12087
L5820 12102
L5855 12117
L5959 12117
L5994 12102
L6011 12087
" />
<path d="M5366 12027
L5192 12027
" />
<path d="M5401 12117
L5279 11802
L5157 12117
" />
<path d="M5053 11832
L5035 11817
L5000 11802
L4913 11802
L4878 11817
L4861 11832
L4843 11862
L4843 11892
L4861 11937
L5070 12117
L4843 12117
" />
<path d="M4425 12027
L4251 12027
" />
<path d="M4460 12117
L4338 11802
L4216 12117
" />
<path d="M3902 12117
L4111 12117
" />
<path d="M4006 12117
L4006 11802
L4041 11847
L4076 11877
L4111 11892
" />
<path d="M3518 11802
L3396 12117
L3274 11802
" />
<path d="M2943 12087
L2960 12102
L3013 12117
L3047 12117
L3100 12102
L3135 12072
L3152 12042
L3170 11982
L3170 11937
L3152 11877
L3135 11847
L3100 11817
L3047 11802
L3013 11802
L2960 11817
L2943 11832
" />
<path d="M2577 12087
L2594 12102
L2646 12117
L2681 12117
L2734 12102
L2769 12072
L2786 12042
L2803 11982
L2803 11937
L2786 11877
L2769 11847
L2734 11817
L2681 11802
L2646 11802
L2594 11817
L2577 11832
" />
<path d="M2982 15886
L2997 15940
L2997 16029
L2982 16064
L2967 16082
L2937 16100
L2907 16100
L2877 16082
L2862 16064
L2847 16029
L2832 15958
L2817 15922
L2802 15904
L2772 15886
L2742 15886
L2712 15904
L2697 15922
L2682 15958
L2682 16047
L2697 16100
" />
<path d="M2997 16260
L2682 16260
L2682 16349
L2697 16403
L2727 16438
L2757 16456
L2817 16474
L2862 16474
L2922 16456
L2952 16438
L2982 16403
L2997 16349
L2997 16260
" />
<path d="M2907 16617
L2907 16795
" />
<path d="M2997 16581
L2682 16706
L2997 16830
" />
<path d="M2982 17222
L2997 17276
L2997 17365
L2982 17400
L2967 17418
L2937 17436
L2907 17436
L2877 17418
L2862 17400
L2847 17365
L2832 17293
L2817 17258
L2802 17240
L2772 17222
L2742 17222
L2712 17240
L2697 17258
L2682 17293
L2682 17382
L2697 17436
" />
<path d="M2967 17810
L2982 17792
L2997 17739
L2997 17703
L2982 17650
L2952 17614
L2922 17596
L2862 17578
L2817 17578
L2757 17596
L2727 17614
L2697 17650
L2682 17703
L2682 17739
L2697 17792
L2712 17810
" />
<path d="M2997 18148
L2997 17970
L2682 17970
" />
<path d="M6798 9253
L6929 9065
" />
<path d="M7023 9253
L7023 8859
L6873 8859
L6836 8878
L6817 8896
L6798 8934
L6798 8990
L6817 9028
L6836 9046
L6873 9065
L7023 9065
" />
<path d="M6498 9046
L6629 9046
" />
<path d="M6629 9253
L6629 8859
L6442 8859
" />
<path d="M6292 9253
L6292 8859
L6161 9140
L6030 8859
L6030 9253
" />
<path d="M5636 9253
L5861 9253
" />
<path d="M5748 9253
L5748 8859
L5786 8915
L5823 8953
L5861 8971
" />
<path d="M5486 8896
L5467 8878
L5430 8859
L5336 8859
L5298 8878
L5280 8896
L5261 8934
L5261 8971
L5280 9028
L5505 9253
L5261 9253
" />
<path d="M4961 9046
L4905 9065
L4886 9084
L4867 9121
L4867 9178
L4886 9215
L4905 9234
L4942 9253
L5092 9253
L5092 8859
L4961 8859
L4923 8878
L4905 8896
L4886 8934
L4886 8971
L4905 9009
L4923 9028
L4961 9046
L5092 9046
" />
<circle cx="7136.16" cy="6868.7" r="1244.99" /> 
<path d="M2805 9624
L9104 9624
" />
<path d="M9104 9624
L9104 3325
" />
<path d="M9104 3325
L2805 3325
" />
<path d="M2805 3325
L2805 9624
" />
</g>
<g style="fill:#840000; fill-opacity:0.0; 
stroke:#840000; stroke-width:19.685; stroke-opacity:1; 
stroke-linecap:round; stroke-linejoin:round;">
</g>
<g style="fill:#840000; fill-opacity:1.0; 
stroke:#840000; stroke-width:19.685; stroke-opacity:1; 
stroke-linecap:round; stroke-linejoin:round;">
<circle cx="9104.66" cy="4112.8" r="285.433" /> 
</g> 
</svg>
